<svg width="20" height="20" viewBox="0 0 20 20" fill="none" xmlns="http://www.w3.org/2000/svg">
<g clip-path="url(#clip0_1560_5622)">
<path d="M10 10.0002C10.2486 10.0002 10.4871 9.90147 10.6629 9.72565C10.8387 9.54984 10.9375 9.31138 10.9375 9.06274C10.9375 8.66274 10.4625 7.93149 10.2562 7.63461C10.2275 7.59335 10.1891 7.55966 10.1445 7.53639C10.0999 7.51313 10.0503 7.50098 10 7.50098C9.94968 7.50098 9.90011 7.51313 9.8555 7.53639C9.81089 7.55966 9.77255 7.59335 9.74375 7.63461C9.5375 7.93149 9.0625 8.66274 9.0625 9.06274C9.0625 9.31138 9.16127 9.54984 9.33709 9.72565C9.5129 9.90147 9.75136 10.0002 10 10.0002ZM10 8.39086C10.1392 8.59678 10.2447 8.82359 10.3125 9.06274C10.3125 9.14562 10.2796 9.2251 10.221 9.28371C10.1624 9.34231 10.0829 9.37524 10 9.37524C9.91712 9.37524 9.83763 9.34231 9.77903 9.28371C9.72042 9.2251 9.6875 9.14562 9.6875 9.06274C9.75587 8.82381 9.86132 8.59709 10 8.39086ZM6.875 10.0002C7.12364 10.0002 7.3621 9.90147 7.53791 9.72565C7.71373 9.54984 7.8125 9.31138 7.8125 9.06274C7.8125 8.66274 7.3375 7.93149 7.13125 7.63461C7.10245 7.59335 7.06411 7.55966 7.0195 7.53639C6.97489 7.51313 6.92532 7.50098 6.875 7.50098C6.82468 7.50098 6.77511 7.51313 6.7305 7.53639C6.68589 7.55966 6.64755 7.59335 6.61875 7.63461C6.4125 7.93149 5.9375 8.66274 5.9375 9.06274C5.9375 9.31138 6.03627 9.54984 6.21209 9.72565C6.3879 9.90147 6.62636 10.0002 6.875 10.0002ZM6.875 8.39086C7.01423 8.59678 7.11972 8.82359 7.1875 9.06274C7.1875 9.14562 7.15458 9.2251 7.09597 9.28371C7.03737 9.34231 6.95788 9.37524 6.875 9.37524C6.79212 9.37524 6.71263 9.34231 6.65403 9.28371C6.59542 9.2251 6.5625 9.14562 6.5625 9.06274C6.63087 8.82381 6.73632 8.59709 6.875 8.39086ZM5.9375 12.1877H5.3125C5.06386 12.1877 4.8254 12.2865 4.64959 12.4623C4.47377 12.6381 4.375 12.8766 4.375 13.1252V17.1877C4.375 17.2706 4.40792 17.3501 4.46653 17.4087C4.52513 17.4673 4.60462 17.5002 4.6875 17.5002H15.3125C15.3954 17.5002 15.4749 17.4673 15.5335 17.4087C15.5921 17.3501 15.625 17.2706 15.625 17.1877V13.1252C15.625 12.8766 15.5262 12.6381 15.3504 12.4623C15.1746 12.2865 14.9361 12.1877 14.6875 12.1877H14.0625V10.6252C14.0625 10.5424 14.0296 10.4629 13.971 10.4043C13.9124 10.3457 13.8329 10.3127 13.75 10.3127H12.5C12.4171 10.3127 12.3376 10.3457 12.279 10.4043C12.2204 10.4629 12.1875 10.5424 12.1875 10.6252V12.1877H10.9375V10.6252C10.9375 10.5424 10.9046 10.4629 10.846 10.4043C10.7874 10.3457 10.7079 10.3127 10.625 10.3127H9.375C9.29212 10.3127 9.21263 10.3457 9.15403 10.4043C9.09542 10.4629 9.0625 10.5424 9.0625 10.6252V12.1877H7.8125V10.6252C7.8125 10.5424 7.77958 10.4629 7.72097 10.4043C7.66237 10.3457 7.58288 10.3127 7.5 10.3127H6.25C6.16712 10.3127 6.08763 10.3457 6.02903 10.4043C5.97042 10.4629 5.9375 10.5424 5.9375 10.6252V12.1877ZM15 16.8752H5V14.6877C5.175 14.6877 5.25 14.7565 5.40313 14.9096C5.50538 15.0356 5.63447 15.1372 5.78098 15.207C5.92748 15.2768 6.08772 15.313 6.25 15.313C6.41228 15.313 6.57252 15.2768 6.71902 15.207C6.86553 15.1372 6.99462 15.0356 7.09687 14.9096C7.25 14.7565 7.325 14.6877 7.5 14.6877C7.675 14.6877 7.75 14.7565 7.90313 14.9096C8.00538 15.0356 8.13447 15.1372 8.28098 15.207C8.42748 15.2768 8.58772 15.313 8.75 15.313C8.91228 15.313 9.07252 15.2768 9.21902 15.207C9.36553 15.1372 9.49462 15.0356 9.59687 14.9096C9.75 14.7565 9.825 14.6877 10 14.6877C10.175 14.6877 10.25 14.7565 10.4031 14.9096C10.5054 15.0356 10.6345 15.1372 10.781 15.207C10.9275 15.2768 11.0877 15.313 11.25 15.313C11.4123 15.313 11.5725 15.2768 11.719 15.207C11.8655 15.1372 11.9946 15.0356 12.0969 14.9096C12.25 14.7565 12.325 14.6877 12.5 14.6877C12.675 14.6877 12.75 14.7565 12.9031 14.9096C13.0054 15.0356 13.1345 15.1372 13.281 15.207C13.4275 15.2768 13.5877 15.313 13.75 15.313C13.9123 15.313 14.0725 15.2768 14.219 15.207C14.3655 15.1372 14.4946 15.0356 14.5969 14.9096C14.75 14.7565 14.825 14.6877 15 14.6877V16.8752ZM15 13.1252V14.0627C14.8381 14.0651 14.6787 14.1023 14.5325 14.1718C14.3864 14.2414 14.257 14.3417 14.1531 14.4659C14 14.619 13.925 14.6877 13.75 14.6877C13.575 14.6877 13.5 14.619 13.3469 14.4659C13.2446 14.3399 13.1155 14.2382 12.969 14.1685C12.8225 14.0987 12.6623 14.0625 12.5 14.0625C12.3377 14.0625 12.1775 14.0987 12.031 14.1685C11.8845 14.2382 11.7554 14.3399 11.6531 14.4659C11.5 14.619 11.425 14.6877 11.25 14.6877C11.075 14.6877 11 14.619 10.8469 14.4659C10.7446 14.3399 10.6155 14.2382 10.469 14.1685C10.3225 14.0987 10.1623 14.0625 10 14.0625C9.83772 14.0625 9.67748 14.0987 9.53098 14.1685C9.38447 14.2382 9.25538 14.3399 9.15313 14.4659C9 14.619 8.925 14.6877 8.75 14.6877C8.575 14.6877 8.5 14.619 8.34687 14.4659C8.24462 14.3399 8.11553 14.2382 7.96902 14.1685C7.82252 14.0987 7.66228 14.0625 7.5 14.0625C7.33772 14.0625 7.17748 14.0987 7.03098 14.1685C6.88447 14.2382 6.75538 14.3399 6.65313 14.4659C6.5 14.619 6.425 14.6877 6.25 14.6877C6.075 14.6877 6 14.619 5.84687 14.4659C5.74303 14.3417 5.61361 14.2414 5.46745 14.1718C5.3213 14.1023 5.16185 14.0651 5 14.0627V13.1252C5 13.0424 5.03292 12.9629 5.09153 12.9043C5.15013 12.8457 5.22962 12.8127 5.3125 12.8127H14.6875C14.7704 12.8127 14.8499 12.8457 14.9085 12.9043C14.9671 12.9629 15 13.0424 15 13.1252ZM12.8125 10.9377H13.4375V12.1877H12.8125V10.9377ZM9.6875 10.9377H10.3125V12.1877H9.6875V10.9377ZM7.1875 10.9377V12.1877H6.5625V10.9377H7.1875ZM13.125 10.0002C13.3736 10.0002 13.6121 9.90147 13.7879 9.72565C13.9637 9.54984 14.0625 9.31138 14.0625 9.06274C14.0625 8.66274 13.5875 7.93149 13.3812 7.63461C13.3525 7.59335 13.3141 7.55966 13.2695 7.53639C13.2249 7.51313 13.1753 7.50098 13.125 7.50098C13.0747 7.50098 13.0251 7.51313 12.9805 7.53639C12.9359 7.55966 12.8975 7.59335 12.8688 7.63461C12.6625 7.93149 12.1875 8.66274 12.1875 9.06274C12.1875 9.31138 12.2863 9.54984 12.4621 9.72565C12.6379 9.90147 12.8764 10.0002 13.125 10.0002ZM13.125 8.39086C13.2642 8.59678 13.3697 8.82359 13.4375 9.06274C13.4375 9.14562 13.4046 9.2251 13.346 9.28371C13.2874 9.34231 13.2079 9.37524 13.125 9.37524C13.0421 9.37524 12.9626 9.34231 12.904 9.28371C12.8454 9.2251 12.8125 9.14562 12.8125 9.06274C12.8809 8.82381 12.9863 8.59709 13.125 8.39086Z" fill="black"/>
<path d="M18.4375 2.1875H16.5625V1.5625C16.5625 1.31386 16.4637 1.0754 16.2879 0.899587C16.1121 0.723772 15.8736 0.625 15.625 0.625C15.3764 0.625 15.1379 0.723772 14.9621 0.899587C14.7863 1.0754 14.6875 1.31386 14.6875 1.5625V2.1875H12.8125V1.5625C12.8125 1.31386 12.7137 1.0754 12.5379 0.899587C12.3621 0.723772 12.1236 0.625 11.875 0.625C11.6264 0.625 11.3879 0.723772 11.2121 0.899587C11.0363 1.0754 10.9375 1.31386 10.9375 1.5625V2.1875H9.0625V1.5625C9.0625 1.31386 8.96373 1.0754 8.78791 0.899587C8.6121 0.723772 8.37364 0.625 8.125 0.625C7.87636 0.625 7.6379 0.723772 7.46209 0.899587C7.28627 1.0754 7.1875 1.31386 7.1875 1.5625V2.1875H5.3125V1.5625C5.3125 1.31386 5.21373 1.0754 5.03791 0.899587C4.8621 0.723772 4.62364 0.625 4.375 0.625C4.12636 0.625 3.8879 0.723772 3.71209 0.899587C3.53627 1.0754 3.4375 1.31386 3.4375 1.5625V2.1875H1.5625C1.31386 2.1875 1.0754 2.28627 0.899587 2.46209C0.723772 2.6379 0.625 2.87636 0.625 3.125V7.8125C0.625 7.89538 0.657924 7.97487 0.716529 8.03347C0.775134 8.09208 0.85462 8.125 0.9375 8.125C1.02038 8.125 1.09987 8.09208 1.15847 8.03347C1.21708 7.97487 1.25 7.89538 1.25 7.8125V6.25H18.75V15.9375C18.75 16.0204 18.7829 16.0999 18.8415 16.1585C18.9001 16.2171 18.9796 16.25 19.0625 16.25C19.1454 16.25 19.2249 16.2171 19.2835 16.1585C19.3421 16.0999 19.375 16.0204 19.375 15.9375V3.125C19.375 2.87636 19.2762 2.6379 19.1004 2.46209C18.9246 2.28627 18.6861 2.1875 18.4375 2.1875ZM15.3125 1.5625C15.3125 1.47962 15.3454 1.40013 15.404 1.34153C15.4626 1.28292 15.5421 1.25 15.625 1.25C15.7079 1.25 15.7874 1.28292 15.846 1.34153C15.9046 1.40013 15.9375 1.47962 15.9375 1.5625V3.4375C15.9375 3.52038 15.9046 3.59987 15.846 3.65847C15.7874 3.71708 15.7079 3.75 15.625 3.75C15.5421 3.75 15.4626 3.71708 15.404 3.65847C15.3454 3.59987 15.3125 3.52038 15.3125 3.4375V1.5625ZM11.5625 1.5625C11.5625 1.47962 11.5954 1.40013 11.654 1.34153C11.7126 1.28292 11.7921 1.25 11.875 1.25C11.9579 1.25 12.0374 1.28292 12.096 1.34153C12.1546 1.40013 12.1875 1.47962 12.1875 1.5625V3.4375C12.1875 3.52038 12.1546 3.59987 12.096 3.65847C12.0374 3.71708 11.9579 3.75 11.875 3.75C11.7921 3.75 11.7126 3.71708 11.654 3.65847C11.5954 3.59987 11.5625 3.52038 11.5625 3.4375V1.5625ZM7.8125 1.5625C7.8125 1.47962 7.84542 1.40013 7.90403 1.34153C7.96263 1.28292 8.04212 1.25 8.125 1.25C8.20788 1.25 8.28737 1.28292 8.34597 1.34153C8.40458 1.40013 8.4375 1.47962 8.4375 1.5625V3.4375C8.4375 3.52038 8.40458 3.59987 8.34597 3.65847C8.28737 3.71708 8.20788 3.75 8.125 3.75C8.04212 3.75 7.96263 3.71708 7.90403 3.65847C7.84542 3.59987 7.8125 3.52038 7.8125 3.4375V1.5625ZM4.0625 1.5625C4.0625 1.47962 4.09542 1.40013 4.15403 1.34153C4.21263 1.28292 4.29212 1.25 4.375 1.25C4.45788 1.25 4.53737 1.28292 4.59597 1.34153C4.65458 1.40013 4.6875 1.47962 4.6875 1.5625V3.4375C4.6875 3.52038 4.65458 3.59987 4.59597 3.65847C4.53737 3.71708 4.45788 3.75 4.375 3.75C4.29212 3.75 4.21263 3.71708 4.15403 3.65847C4.09542 3.59987 4.0625 3.52038 4.0625 3.4375V1.5625ZM1.25 5.625V3.125C1.25 3.04212 1.28292 2.96263 1.34153 2.90403C1.40013 2.84542 1.47962 2.8125 1.5625 2.8125H3.4375V3.4375C3.4375 3.68614 3.53627 3.9246 3.71209 4.10041C3.8879 4.27623 4.12636 4.375 4.375 4.375C4.62364 4.375 4.8621 4.27623 5.03791 4.10041C5.21373 3.9246 5.3125 3.68614 5.3125 3.4375V2.8125H7.1875V3.4375C7.1875 3.68614 7.28627 3.9246 7.46209 4.10041C7.6379 4.27623 7.87636 4.375 8.125 4.375C8.37364 4.375 8.6121 4.27623 8.78791 4.10041C8.96373 3.9246 9.0625 3.68614 9.0625 3.4375V2.8125H10.9375V3.4375C10.9375 3.68614 11.0363 3.9246 11.2121 4.10041C11.3879 4.27623 11.6264 4.375 11.875 4.375C12.1236 4.375 12.3621 4.27623 12.5379 4.10041C12.7137 3.9246 12.8125 3.68614 12.8125 3.4375V2.8125H14.6875V3.4375C14.6875 3.68614 14.7863 3.9246 14.9621 4.10041C15.1379 4.27623 15.3764 4.375 15.625 4.375C15.8736 4.375 16.1121 4.27623 16.2879 4.10041C16.4637 3.9246 16.5625 3.68614 16.5625 3.4375V2.8125H18.4375C18.5204 2.8125 18.5999 2.84542 18.6585 2.90403C18.7171 2.96263 18.75 3.04212 18.75 3.125V5.625H1.25ZM19.0625 16.875C18.9796 16.875 18.9001 16.9079 18.8415 16.9665C18.7829 17.0251 18.75 17.1046 18.75 17.1875V18.4375C18.75 18.5204 18.7171 18.5999 18.6585 18.6585C18.5999 18.7171 18.5204 18.75 18.4375 18.75H1.5625C1.47962 18.75 1.40013 18.7171 1.34153 18.6585C1.28292 18.5999 1.25 18.5204 1.25 18.4375V9.0625C1.25 8.97962 1.21708 8.90013 1.15847 8.84153C1.09987 8.78292 1.02038 8.75 0.9375 8.75C0.85462 8.75 0.775134 8.78292 0.716529 8.84153C0.657924 8.90013 0.625 8.97962 0.625 9.0625V18.4375C0.625 18.6861 0.723772 18.9246 0.899587 19.1004C1.0754 19.2762 1.31386 19.375 1.5625 19.375H18.4375C18.6861 19.375 18.9246 19.2762 19.1004 19.1004C19.2762 18.9246 19.375 18.6861 19.375 18.4375V17.1875C19.375 17.1046 19.3421 17.0251 19.2835 16.9665C19.2249 16.9079 19.1454 16.875 19.0625 16.875Z" fill="black"/>
</g>
<defs>
<clipPath id="clip0_1560_5622">
<rect width="20" height="20" fill="white"/>
</clipPath>
</defs>
</svg>
