<svg width="20" height="20" viewBox="0 0 20 20" fill="none" xmlns="http://www.w3.org/2000/svg">
<path d="M17.7931 5.15531H17.0479V4.54852C17.0479 4.01641 16.6149 3.58398 16.0828 3.58398H2.20629C1.67418 3.58398 1.24121 4.01637 1.24121 4.54852V13.8805C1.24121 14.4126 1.67414 14.845 2.20629 14.845H2.95156V15.4518C2.95156 15.9839 3.38449 16.4164 3.91637 16.4164H17.7932C18.325 16.4164 18.758 15.984 18.758 15.4518V6.12039C18.7579 5.58824 18.325 5.15531 17.7931 5.15531ZM2.20629 14.4461C1.89453 14.4461 1.64074 14.192 1.64074 13.8805V4.54852C1.64074 4.23703 1.89453 3.98297 2.20629 3.98297H16.0828C16.3946 3.98297 16.6484 4.23707 16.6484 4.54852V5.15531H3.91633C3.38449 5.15531 2.95152 5.58824 2.95152 6.12039V14.4461H2.20629V14.4461ZM18.3584 15.4518C18.3584 15.7633 18.1049 16.0173 17.7931 16.0173H3.91633C3.60457 16.0173 3.35105 15.7632 3.35105 15.4518V6.12039C3.35105 5.80836 3.60457 5.55426 3.91633 5.55426H17.7931C18.1049 5.55426 18.3584 5.80836 18.3584 6.12039V15.4518Z" fill="black"/>
<path d="M9.17582 10.457C8.8075 10.2503 8.42191 10.1009 8.02965 10.0123C7.96082 9.99675 7.89062 10.0123 7.83687 10.0564C7.81008 10.0777 7.78844 10.1048 7.77358 10.1357C7.75872 10.1666 7.75102 10.2004 7.75105 10.2347C7.75105 10.5696 7.59977 10.8794 7.33594 11.0861L7.17461 11.2124L7.01246 11.0855C6.75254 10.8827 6.59734 10.5645 6.59734 10.2346C6.59738 10.2004 6.58967 10.1665 6.57482 10.1357C6.55996 10.1048 6.53832 10.0777 6.51152 10.0563C6.48482 10.0349 6.4536 10.0198 6.4202 10.0121C6.38681 10.0045 6.35212 10.0046 6.31875 10.0123C5.92676 10.1009 5.54117 10.2502 5.17258 10.4569C4.70898 10.7171 4.4209 11.208 4.4209 11.7385V13.623C4.4209 13.7489 4.52316 13.8514 4.64906 13.8514H9.69926C9.8252 13.8514 9.92742 13.7489 9.92742 13.623V11.7385C9.9275 11.2081 9.63941 10.7172 9.17582 10.457ZM9.47113 13.3945H4.8773V11.7385C4.8773 11.373 5.07621 11.0348 5.39578 10.8548C5.64625 10.715 5.90508 10.6041 6.16805 10.5238C6.2366 10.8866 6.43355 11.2125 6.73109 11.4454L7.03367 11.6822C7.03875 11.6862 7.045 11.6871 7.05031 11.6905C7.06293 11.6987 7.07594 11.7045 7.08973 11.7101C7.10367 11.7157 7.11711 11.7209 7.1316 11.7237C7.14531 11.7264 7.15867 11.7265 7.17266 11.7266C7.18816 11.7268 7.20297 11.7264 7.21809 11.7234C7.23113 11.7209 7.2432 11.7161 7.25582 11.7112C7.27113 11.7053 7.28551 11.6987 7.29938 11.6894C7.30434 11.6862 7.31016 11.6854 7.31496 11.6817L7.61695 11.4454C7.91477 11.2125 8.11176 10.8866 8.18027 10.5238C8.44328 10.6041 8.70211 10.715 8.95227 10.8548C9.27211 11.0342 9.47102 11.373 9.47102 11.7385V13.3945H9.47113ZM5.89836 8.88788C6.01008 9.31581 6.37645 9.97499 7.13508 9.97499C7.15348 9.97554 7.17242 9.97554 7.18941 9.97499C7.95555 9.97499 8.33168 9.31581 8.44867 8.88902C8.66934 8.74023 8.75652 8.56249 8.79023 8.43269C8.85461 8.1864 8.77352 7.96519 8.72199 7.85933L8.72117 7.66597C8.72274 7.61062 8.72246 7.55524 8.72035 7.49991C8.74793 6.67581 8.08488 6.3571 8.0609 6.34652C7.16715 5.90523 6.51691 6.29581 6.23246 6.6307C6.11569 6.6426 6.00522 6.6894 5.91543 6.76499C5.71176 6.93605 5.6148 7.23917 5.62734 7.65874L5.62652 7.85933C5.57527 7.96573 5.49418 8.1864 5.55828 8.43269C5.59191 8.56195 5.67883 8.73913 5.89836 8.88788ZM6.04797 8.03816C6.07067 8.00191 6.08274 7.96002 6.08281 7.91726L6.08363 7.65257C6.0725 7.27925 6.16414 7.15499 6.20398 7.11878C6.2291 7.09575 6.26186 7.08285 6.29594 7.08257C6.29789 7.08202 6.29871 7.08202 6.29844 7.08257C6.38816 7.10097 6.48285 7.06249 6.53523 6.98562C6.58094 6.91874 7.00887 6.33593 7.86164 6.75718C7.87891 6.76554 8.28457 6.96948 8.26367 7.49155C8.26367 7.49769 8.26367 7.50437 8.26395 7.51105C8.2659 7.55452 8.26645 7.60187 8.26477 7.66038L8.2659 7.91781C8.2659 7.95847 8.27844 8.00081 8.29961 8.03593C8.30043 8.03761 8.38543 8.18191 8.34809 8.32011C8.32496 8.4048 8.25449 8.48003 8.13914 8.54355C8.10997 8.55963 8.08464 8.58186 8.06492 8.60871C8.0452 8.63555 8.03155 8.66637 8.02492 8.69902C8.01797 8.73245 7.85078 9.51866 7.17965 9.51866C7.17379 9.51866 7.16793 9.51866 7.16211 9.51812C7.15652 9.51866 7.15098 9.51866 7.14512 9.51866C6.48566 9.51866 6.33078 8.73581 6.32465 8.70238C6.31838 8.66905 6.30482 8.63753 6.28492 8.61007C6.26502 8.58262 6.23929 8.55991 6.20957 8.54359C6.09395 8.48007 6.02375 8.40484 6.00063 8.32015C5.96328 8.18195 6.04797 8.03816 6.04797 8.03816ZM17.6118 7.00792C17.3561 6.7182 17.1006 6.42898 16.8362 6.14761C16.7192 6.02226 16.5019 5.95316 16.3417 5.98714L16.0232 6.05179C15.6516 6.12589 15.2671 6.20222 14.9077 6.3521C13.7089 6.85359 12.6931 7.63534 11.8888 8.67616C11.8448 8.73355 11.8047 8.79374 11.7646 8.85448L11.7267 8.91132C11.2013 9.68695 11.1873 10.3718 11.6841 11.0053C11.7863 11.1357 11.8732 11.2783 11.9604 11.4204C12.0039 11.4912 12.0473 11.5619 12.0922 11.6316C12.1279 11.6862 12.2304 11.7296 12.2953 11.7391C12.3064 11.7408 12.3176 11.7419 12.3288 11.7419C12.3612 11.7418 12.3932 11.7349 12.4227 11.7216C12.4523 11.7082 12.4786 11.6887 12.5001 11.6644L12.7572 11.3775C12.9567 11.1574 13.1562 10.9367 13.3392 10.7038L13.4323 10.589C13.7345 10.2207 13.654 10.0898 13.3297 9.70363C13.1659 9.50804 13.1893 9.37823 13.2807 9.23167C13.4225 9.00378 13.5529 8.80152 13.7139 8.63769C14.1109 8.2337 14.6266 7.94507 15.2465 7.7796C15.3563 7.74952 15.4733 7.71331 15.5037 7.71718C15.5321 7.73613 15.6029 7.84312 15.6728 7.94898L15.7129 8.00859C15.7421 8.05093 15.7717 8.09327 15.7956 8.13898C15.9207 8.37355 16.1495 8.44988 16.3924 8.33847L17.7851 7.69937C17.8567 7.66706 17.9121 7.55448 17.9222 7.47648C17.9265 7.44406 17.9237 7.4111 17.9141 7.37984C17.9045 7.34859 17.8883 7.31978 17.8665 7.29538L17.6118 7.00792ZM16.1993 7.92562C16.1673 7.86488 16.1286 7.80749 16.0896 7.75066L16.052 7.69495C15.7513 7.24027 15.6482 7.1996 15.1284 7.33835C14.4288 7.52558 13.8435 7.85488 13.3886 8.31792C13.1949 8.5146 13.0436 8.74863 12.8932 8.99046C12.6789 9.33425 12.7082 9.67304 13.0041 10.0257C13.062 10.0948 13.1214 10.1656 13.152 10.2085C13.1331 10.2341 13.1052 10.2681 13.0796 10.2993L12.9804 10.4219C12.8038 10.6465 12.6113 10.8587 12.4191 11.071L12.3374 11.1619C12.2449 11.0114 12.1513 10.8616 12.0432 10.7234C11.6699 10.2475 11.6883 9.78226 12.1048 9.1671L12.1457 9.10581C12.1791 9.05456 12.2126 9.00386 12.2499 8.95538C13.0054 7.97804 13.9588 7.24366 15.0835 6.77339C15.4009 6.64077 15.7463 6.57226 16.1121 6.4998L16.43 6.43406H16.4308C16.4498 6.43406 16.4913 6.44964 16.5036 6.45968C16.7646 6.73827 17.017 7.02413 17.2697 7.30995L17.3477 7.398L16.1993 7.92562ZM16.5381 12.3509H12.0566C11.9306 12.3509 11.8284 12.4534 11.8284 12.5793C11.8284 12.7053 11.9307 12.8078 12.0566 12.8078H16.5381C16.6641 12.8078 16.7663 12.7052 16.7663 12.5793C16.7663 12.4534 16.664 12.3509 16.5381 12.3509ZM16.5381 13.5149H12.0566C11.9306 13.5149 11.8284 13.6174 11.8284 13.7433C11.8284 13.8693 11.9307 13.9718 12.0566 13.9718H16.5381C16.6641 13.9718 16.7663 13.8692 16.7663 13.7433C16.7663 13.6174 16.664 13.5149 16.5381 13.5149ZM15.2159 14.6789H12.0565C11.9306 14.6789 11.8284 14.7814 11.8284 14.9073C11.8284 15.0332 11.9306 15.1358 12.0565 15.1358H15.2159C15.3418 15.1358 15.444 15.0332 15.444 14.9073C15.444 14.7814 15.3418 14.6789 15.2159 14.6789ZM8.93707 14.6789H5.41109C5.28516 14.6789 5.18293 14.7814 5.18293 14.9073C5.18293 15.0332 5.2852 15.1358 5.41109 15.1358H8.93707C9.06301 15.1358 9.16523 15.0332 9.16523 14.9073C9.16523 14.7814 9.06301 14.6789 8.93707 14.6789Z" fill="black"/>
</svg>
