<svg width="20" height="20" viewBox="0 0 20 20" fill="none" xmlns="http://www.w3.org/2000/svg">
<path d="M18.125 4.6875H11.5625V3.75C11.5625 3.66712 11.5296 3.58763 11.471 3.52903C11.4124 3.47042 11.3329 3.4375 11.25 3.4375H8.75C8.66712 3.4375 8.58763 3.47042 8.52903 3.52903C8.47042 3.58763 8.4375 3.66712 8.4375 3.75V4.6875H1.875C1.62644 4.68775 1.38812 4.7866 1.21236 4.96236C1.0366 5.13812 0.937748 5.37644 0.9375 5.625V15.625C0.937748 15.8736 1.0366 16.1119 1.21236 16.2876C1.38812 16.4634 1.62644 16.5623 1.875 16.5625H18.125C18.3736 16.5623 18.6119 16.4634 18.7876 16.2876C18.9634 16.1119 19.0623 15.8736 19.0625 15.625V5.625C19.0623 5.37644 18.9634 5.13812 18.7876 4.96236C18.6119 4.7866 18.3736 4.68775 18.125 4.6875ZM9.0625 4.0625H10.9375V5.625C10.9375 5.87364 10.8387 6.1121 10.6629 6.28791C10.4871 6.46373 10.2486 6.5625 10 6.5625C9.75136 6.5625 9.5129 6.46373 9.33709 6.28791C9.16127 6.1121 9.0625 5.87364 9.0625 5.625V4.0625ZM18.4375 15.625C18.4374 15.7079 18.4045 15.7873 18.3459 15.8459C18.2873 15.9045 18.2079 15.9374 18.125 15.9375H1.875C1.79215 15.9374 1.71271 15.9045 1.65412 15.8459C1.59553 15.7873 1.56258 15.7079 1.5625 15.625V5.625C1.56258 5.54215 1.59553 5.46271 1.65412 5.40412C1.71271 5.34553 1.79215 5.31258 1.875 5.3125H8.4375V5.625C8.4375 6.0394 8.60212 6.43683 8.89515 6.72985C9.18817 7.02288 9.5856 7.1875 10 7.1875C10.4144 7.1875 10.8118 7.02288 11.1049 6.72985C11.3979 6.43683 11.5625 6.0394 11.5625 5.625V5.3125H18.125C18.2079 5.31258 18.2873 5.34553 18.3459 5.40412C18.4045 5.46271 18.4374 5.54215 18.4375 5.625V15.625Z" fill="black"/>
<path d="M16.875 7.81239H12.5C12.4171 7.81239 12.3377 7.84531 12.2791 7.90391C12.2205 7.96252 12.1875 8.04201 12.1875 8.12489C12.1875 8.20777 12.2205 8.28725 12.2791 8.34586C12.3377 8.40446 12.4171 8.43739 12.5 8.43739H16.875C16.9579 8.43739 17.0374 8.40446 17.096 8.34586C17.1546 8.28725 17.1875 8.20777 17.1875 8.12489C17.1875 8.04201 17.1546 7.96252 17.096 7.90391C17.0374 7.84531 16.9579 7.81239 16.875 7.81239ZM16.875 9.68739H12.5C12.4171 9.68739 12.3377 9.72031 12.2791 9.77891C12.2205 9.83752 12.1875 9.91701 12.1875 9.99989C12.1875 10.0828 12.2205 10.1623 12.2791 10.2209C12.3377 10.2795 12.4171 10.3124 12.5 10.3124H16.875C16.9579 10.3124 17.0374 10.2795 17.096 10.2209C17.1546 10.1623 17.1875 10.0828 17.1875 9.99989C17.1875 9.91701 17.1546 9.83752 17.096 9.77891C17.0374 9.72031 16.9579 9.68739 16.875 9.68739ZM16.875 11.5624H12.5C12.4171 11.5624 12.3377 11.5953 12.2791 11.6539C12.2205 11.7125 12.1875 11.792 12.1875 11.8749C12.1875 11.9578 12.2205 12.0373 12.2791 12.0959C12.3377 12.1545 12.4171 12.1874 12.5 12.1874H16.875C16.9579 12.1874 17.0374 12.1545 17.096 12.0959C17.1546 12.0373 17.1875 11.9578 17.1875 11.8749C17.1875 11.792 17.1546 11.7125 17.096 11.6539C17.0374 11.5953 16.9579 11.5624 16.875 11.5624ZM16.875 13.4374H12.5C12.4171 13.4374 12.3377 13.4703 12.2791 13.5289C12.2205 13.5875 12.1875 13.667 12.1875 13.7499C12.1875 13.8328 12.2205 13.9123 12.2791 13.9709C12.3377 14.0295 12.4171 14.0624 12.5 14.0624H16.875C16.9579 14.0624 17.0374 14.0295 17.096 13.9709C17.1546 13.9123 17.1875 13.8328 17.1875 13.7499C17.1875 13.667 17.1546 13.5875 17.096 13.5289C17.0374 13.4703 16.9579 13.4374 16.875 13.4374ZM7.9394 10.763C8.20277 10.443 8.36979 10.0547 8.42101 9.64337C8.47223 9.23206 8.40554 8.81467 8.22871 8.43981C8.05188 8.06494 7.77219 7.74802 7.42221 7.52597C7.07223 7.30391 6.66637 7.18585 6.25189 7.18555C5.83741 7.18524 5.43137 7.3027 5.08106 7.52423C4.73076 7.74577 4.4506 8.06227 4.27322 8.43688C4.09584 8.81149 4.02853 9.22878 4.07914 9.64016C4.12975 10.0515 4.2962 10.4401 4.55909 10.7605C4.0275 11.0574 3.58514 11.4912 3.27798 12.0169C2.97083 12.5426 2.81011 13.141 2.81253 13.7499V14.3749C2.81253 14.4578 2.84545 14.5373 2.90406 14.5959C2.96266 14.6545 3.04215 14.6874 3.12503 14.6874H9.37503C9.45791 14.6874 9.53739 14.6545 9.596 14.5959C9.6546 14.5373 9.68753 14.4578 9.68753 14.3749V13.7499C9.69007 13.1411 9.5292 12.5429 9.22172 12.0175C8.91423 11.4921 8.47139 11.0589 7.9394 10.763ZM6.25003 7.81239C6.55906 7.81239 6.86115 7.90402 7.11811 8.07571C7.37506 8.2474 7.57533 8.49143 7.69359 8.77694C7.81185 9.06245 7.84279 9.37662 7.7825 9.67971C7.72221 9.98281 7.5734 10.2612 7.35488 10.4797C7.13636 10.6983 6.85795 10.8471 6.55486 10.9074C6.25176 10.9677 5.93759 10.9367 5.65208 10.8184C5.36657 10.7002 5.12255 10.4999 4.95086 10.243C4.77917 9.98601 4.68753 9.68392 4.68753 9.37489C4.68802 8.96064 4.8528 8.5635 5.14572 8.27058C5.43864 7.97766 5.83578 7.81288 6.25003 7.81239ZM9.06253 14.0624H3.43753V13.7499C3.43614 13.2151 3.58884 12.6912 3.87735 12.2408C4.16585 11.7905 4.57797 11.4328 5.0644 11.2105C5.4179 11.4405 5.83068 11.5628 6.25243 11.5623C6.67418 11.5619 7.0867 11.4388 7.43971 11.208C7.92563 11.4313 8.33704 11.7897 8.6248 12.2404C8.91255 12.6911 9.06451 13.2151 9.06253 13.7499V14.0624Z" fill="black"/>
</svg>
