<svg width="20" height="20" viewBox="0 0 20 20" fill="none" xmlns="http://www.w3.org/2000/svg">
<path d="M16.2408 13.0117L15.4125 16.9808C15.3492 17.2833 15.0825 17.5 14.7742 17.5C14.475 17.5 14.2142 17.2967 14.1417 17.0067L13.14 13.0275C13.0742 12.7667 13.2717 12.5133 13.5408 12.5133C13.73 12.5133 13.895 12.6417 13.9417 12.825L14.7583 16.05L15.4275 12.8417C15.4675 12.65 15.6367 12.5125 15.8325 12.5125H15.8367C16.0992 12.5125 16.295 12.7533 16.2417 13.01L16.2408 13.0117ZM10.8333 13.3333C11.1858 13.3333 11.5017 13.5567 11.6192 13.8892C11.6958 14.1058 11.9325 14.2208 12.1508 14.1433C12.3675 14.0667 12.4817 13.8283 12.405 13.6108C12.17 12.9467 11.5383 12.5 10.8333 12.5C9.91417 12.5 9.16667 13.2475 9.16667 14.1667V15.8333C9.16667 16.7525 9.91417 17.5 10.8333 17.5C11.5383 17.5 12.17 17.0533 12.405 16.3892C12.4817 16.1717 12.3683 15.9333 12.1508 15.8567C11.9325 15.7792 11.6958 15.8942 11.6192 16.1108C11.5017 16.4433 11.1858 16.6667 10.8333 16.6667C10.3742 16.6667 10 16.2933 10 15.8333V14.1667C10 13.7067 10.3742 13.3333 10.8333 13.3333ZM20 6.25V10.4167C20 10.6467 19.8133 10.8333 19.5833 10.8333C19.3533 10.8333 19.1667 10.6467 19.1667 10.4167V9.16667H0.833333V13.75C0.833333 15.3583 2.14167 16.6667 3.75 16.6667H7.08333C7.31333 16.6667 7.5 16.8533 7.5 17.0833C7.5 17.3133 7.31333 17.5 7.08333 17.5H3.75C1.6825 17.5 0 15.8175 0 13.75V6.25C0 4.1825 1.6825 2.5 3.75 2.5H16.25C18.3175 2.5 20 4.1825 20 6.25ZM0.875833 5.83333H19.1242C18.92 4.42333 17.715 3.33333 16.25 3.33333H3.75C2.285 3.33333 1.08 4.42333 0.875833 5.83333ZM19.1667 6.66667H0.833333V8.33333H19.1667V6.66667ZM19.4758 12.5142H19.4717C19.2758 12.5142 19.1067 12.6517 19.0667 12.8433L18.3975 16.0517L17.5808 12.8267C17.5342 12.6433 17.3692 12.515 17.18 12.515C16.9108 12.515 16.7133 12.7683 16.7792 13.0292L17.7808 17.0083C17.8542 17.2983 18.1142 17.5017 18.4133 17.5017C18.7225 17.5017 18.9892 17.285 19.0517 16.9825L19.88 13.0133C19.9333 12.7567 19.7375 12.5158 19.475 12.5158L19.4758 12.5142ZM4.16667 11.6667C5.08583 11.6667 5.83333 12.4142 5.83333 13.3333C5.83333 14.2525 5.08583 15 4.16667 15C3.2475 15 2.5 14.2525 2.5 13.3333C2.5 12.4142 3.2475 11.6667 4.16667 11.6667ZM4.16667 12.5C3.7075 12.5 3.33333 12.8733 3.33333 13.3333C3.33333 13.7933 3.7075 14.1667 4.16667 14.1667C4.62583 14.1667 5 13.7933 5 13.3333C5 12.8733 4.62583 12.5 4.16667 12.5Z" fill="#423E3E"/>
</svg>
