<svg width="20" height="20" viewBox="0 0 20 20" fill="none" xmlns="http://www.w3.org/2000/svg">
<g clip-path="url(#clip0_1560_5634)">
<path d="M17.9666 1.9168H17.0139V1.12773C17.0139 0.505859 16.5076 0 15.885 0C15.2631 0 14.7572 0.505859 14.7572 1.12773V1.9168H13.0908V1.12773C13.0908 0.505859 12.5846 0 11.9619 0C11.34 0 10.8342 0.505859 10.8342 1.12773V1.9168H9.16777V1.12773C9.16777 0.505859 8.66152 0 8.03887 0C7.41621 0 6.90996 0.505859 6.90996 1.12773V1.9168H5.24355V1.12773C5.24316 0.505859 4.7373 0 4.11543 0C3.49277 0 2.98652 0.505859 2.98652 1.12773V1.9168H2.03379C1.23066 1.9168 0.577148 2.57031 0.577148 3.37344V18.5434C0.577148 19.3465 1.23066 20 2.03379 20H17.9666C18.7697 20 19.4232 19.3465 19.4232 18.5434V3.37344C19.4232 2.57031 18.7697 1.9168 17.9666 1.9168ZM15.3826 1.12773C15.3826 0.850781 15.608 0.625391 15.885 0.625391C16.1623 0.625391 16.3881 0.850781 16.3881 1.12773V3.33008C16.3881 3.60742 16.1623 3.8332 15.885 3.8332C15.608 3.8332 15.3826 3.60742 15.3826 3.33008V1.12773ZM11.4596 1.12773C11.4596 0.850781 11.685 0.625391 11.9619 0.625391C12.2393 0.625391 12.465 0.850781 12.465 1.12773V3.33008C12.465 3.60742 12.2393 3.8332 11.9619 3.8332C11.685 3.8332 11.4596 3.60742 11.4596 3.33008V1.12773ZM7.53535 1.12773C7.53535 0.850781 7.76113 0.625391 8.03848 0.625391C8.31582 0.625391 8.5416 0.850781 8.5416 1.12773V3.33008C8.5416 3.60742 8.31582 3.8332 8.03848 3.8332C7.76113 3.8332 7.53535 3.60742 7.53535 3.33008V1.12773ZM3.6123 1.12773C3.6123 0.850781 3.83809 0.625391 4.11543 0.625391C4.39238 0.625391 4.61777 0.850781 4.61777 1.12773V3.33008C4.61777 3.60742 4.39238 3.8332 4.11543 3.8332C3.83809 3.8332 3.6123 3.60742 3.6123 3.33008V1.12773ZM2.03379 2.54258H2.98652V3.33047C2.98652 3.95313 3.49277 4.45938 4.11543 4.45938C4.7373 4.45938 5.24316 3.95313 5.24316 3.33047V2.54258H6.90957V3.33047C6.90957 3.95313 7.41582 4.45938 8.03848 4.45938C8.66113 4.45938 9.16738 3.95313 9.16738 3.33047V2.54258H10.8338V3.33047C10.8338 3.95313 11.3396 4.45938 11.9615 4.45938C12.5842 4.45938 13.0904 3.95313 13.0904 3.33047V2.54258H14.7568V3.33047C14.7568 3.95313 15.2627 4.45938 15.8846 4.45938C16.5072 4.45938 17.0135 3.95313 17.0135 3.33047V2.54258H17.9662C18.4244 2.54258 18.7971 2.91523 18.7971 3.37344V5.44336H1.20293V3.37344C1.20293 2.91523 1.57559 2.54258 2.03379 2.54258ZM17.9666 19.3742H2.03379C1.57559 19.3742 1.20293 19.0016 1.20293 18.5434V6.06914H18.7979V18.5434C18.7975 19.0016 18.4248 19.3742 17.9666 19.3742ZM11.0088 12.4012C11.0088 12.5738 10.8689 12.7141 10.6959 12.7141H8.78574C8.61309 12.7141 8.47285 12.5742 8.47285 12.4012V10.491C8.47285 10.3184 8.6127 10.1781 8.78574 10.1781C8.95879 10.1781 9.09863 10.318 9.09863 10.491V12.0883H10.6959C10.8689 12.0883 11.0088 12.2285 11.0088 12.4012ZM15.8018 10.402H13.5299C13.1564 9.51563 12.5463 8.75625 11.7545 8.19609C10.883 7.57969 9.85645 7.25391 8.78574 7.25391C5.94746 7.25391 3.63848 9.56289 3.63848 12.4012C3.63848 15.2395 5.94746 17.5484 8.78574 17.5484C9.59785 17.5484 10.3963 17.3547 11.1127 16.9922V17.6297C11.1127 17.9391 11.3639 18.1906 11.6725 18.1906H15.8014C16.1107 18.1906 16.3623 17.9391 16.3623 17.6297V16.9797C16.3623 16.7223 16.1869 16.5055 15.9494 16.4402V15.6906C15.9494 15.4184 15.8287 15.1793 15.6104 15.0184L14.8623 14.4641C14.8041 14.4215 14.7771 14.3676 14.7771 14.2953C14.7771 14.2238 14.8049 14.1687 14.8631 14.1258L15.6096 13.5727C15.8287 13.4113 15.9494 13.1723 15.9494 12.9V12.1516C16.1869 12.0867 16.3623 11.8695 16.3623 11.6121V10.9621C16.3627 10.6535 16.1111 10.402 15.8018 10.402ZM15.7369 11.5469H11.7385V11.0277H15.7365V11.5469H15.7369ZM11.5248 12.152V12.9004C11.5248 13.1648 11.6389 13.3977 11.8455 13.5582C11.3674 14.8312 10.1643 15.6723 8.78574 15.6723C6.98184 15.6723 5.51426 14.2047 5.51426 12.4008C5.51426 10.5977 6.98184 9.13047 8.78574 9.13047C9.83613 9.13047 10.8084 9.63125 11.4201 10.4625C11.2381 10.5551 11.1127 10.7441 11.1127 10.9625V11.6125C11.1131 11.8703 11.2881 12.0871 11.5248 12.152ZM4.26465 12.4012C4.26465 9.90781 6.29316 7.87969 8.78613 7.87969C10.5115 7.87969 12.0873 8.87695 12.842 10.402H12.1303C11.4271 9.22734 10.1631 8.50508 8.78613 8.50508C6.6373 8.50508 4.88887 10.2527 4.88887 12.4012C4.88887 14.55 6.63691 16.2984 8.78613 16.2984C9.63887 16.2984 10.4486 16.0281 11.1279 15.5164C11.6682 15.1094 12.0971 14.5609 12.3646 13.9434L12.6127 14.127C12.6701 14.1691 12.6979 14.2242 12.6979 14.2957C12.6979 14.368 12.6709 14.4219 12.6119 14.4652L11.8654 15.0184C11.6463 15.1797 11.5256 15.4188 11.5256 15.691V15.998C10.7432 16.5949 9.77637 16.923 8.78652 16.923C6.29277 16.9227 4.26465 14.8945 4.26465 12.4012ZM15.7369 17.5648H11.7385V17.0457H15.7369V17.5648ZM15.2381 13.0699L14.4916 13.623C14.2725 13.7844 14.1518 14.0234 14.1518 14.2957C14.1518 14.568 14.2725 14.807 14.4908 14.968L15.2389 15.5223C15.2971 15.5648 15.324 15.6188 15.324 15.691V16.4203H12.1506V15.6914C12.1506 15.6191 12.1775 15.5652 12.2365 15.5219L12.983 14.9688C13.2021 14.8074 13.3229 14.5684 13.3229 14.2961C13.3229 14.0238 13.2021 13.7848 12.9838 13.6238L12.2357 13.0695C12.1775 13.0266 12.1506 12.973 12.1506 12.9008V12.1727H15.324V12.9008C15.324 12.973 15.2971 13.0266 15.2381 13.0699Z" fill="black"/>
</g>
<defs>
<clipPath id="clip0_1560_5634">
<rect width="20" height="20" fill="white"/>
</clipPath>
</defs>
</svg>
