<svg width="20" height="20" viewBox="0 0 20 20" fill="none" xmlns="http://www.w3.org/2000/svg">
<path d="M13.0499 0.833496H6.94992C5.8734 0.834707 5.00109 1.70705 5 2.78357V17.2168C5.00105 18.2933 5.87344 19.1656 6.94992 19.1667H13.0499C14.1264 19.1657 14.9987 18.2933 15 17.2168V2.78357C14.9988 1.70705 14.1264 0.834746 13.0499 0.833496ZM14.1666 17.2168C14.1659 17.8333 13.6664 18.3328 13.0499 18.3334H6.94992C6.33348 18.3328 5.83391 17.8333 5.83328 17.2168V2.78357C5.83391 2.16697 6.33348 1.6674 6.94992 1.66678H13.0499C13.6664 1.6674 14.1659 2.16697 14.1666 2.78357V17.2168Z" fill="black"/>
<path d="M11.2497 2.5H8.74973C8.51965 2.5 8.33301 2.68644 8.33301 2.91656C8.33301 3.14668 8.51961 3.33328 8.74973 3.33328H11.2497C11.4798 3.33328 11.6663 3.14668 11.6663 2.91656C11.6663 2.68644 11.4798 2.5 11.2497 2.5ZM10.833 16.6665C10.833 17.1269 10.46 17.5 9.99973 17.5C9.53937 17.5 9.16629 17.1269 9.16629 16.6665C9.16629 16.2063 9.53934 15.8332 9.99973 15.8332C10.4599 15.8332 10.833 16.2063 10.833 16.6665Z" fill="black"/>
</svg>
