<svg width="20" height="20" viewBox="0 0 20 20" fill="none" xmlns="http://www.w3.org/2000/svg">
<path d="M13.2813 9.6875H12.8663C12.7072 8.58625 11.7175 8.28125 11.1719 8.28125C10.3335 8.28125 10.0085 9.01375 9.77598 9.6875H7.7766C7.8591 9.36156 8.1041 8.90625 8.82816 8.90625C8.91104 8.90625 8.99053 8.87333 9.04914 8.81472C9.10774 8.75612 9.14066 8.67663 9.14066 8.59375C9.14066 8.51087 9.10774 8.43138 9.04914 8.37278C8.99053 8.31417 8.91104 8.28125 8.82816 8.28125C7.68129 8.28125 7.24785 9.08031 7.13973 9.6875H6.71879C6.63591 9.6875 6.55642 9.72042 6.49782 9.77903C6.43921 9.83763 6.40629 9.91712 6.40629 10C6.40629 10.0829 6.43921 10.1624 6.49782 10.221C6.55642 10.2796 6.63591 10.3125 6.71879 10.3125H7.13973C7.24785 10.9197 7.6816 11.7188 8.82816 11.7188C9.6666 11.7188 9.9916 10.9862 10.2241 10.3125H12.23C12.0566 11.0578 11.2719 11.0928 11.1704 11.0938C11.0875 11.0939 11.0081 11.127 10.9496 11.1857C10.8911 11.2444 10.8583 11.324 10.8585 11.4069C10.8586 11.4898 10.8917 11.5692 10.9504 11.6277C11.0092 11.6862 11.0887 11.7189 11.1716 11.7188C11.7172 11.7188 12.7069 11.4137 12.866 10.3125H13.2813C13.3642 10.3125 13.4437 10.2796 13.5023 10.221C13.5609 10.1624 13.5938 10.0829 13.5938 10C13.5938 9.91712 13.5609 9.83763 13.5023 9.77903C13.4437 9.72042 13.3642 9.6875 13.2813 9.6875ZM11.1719 8.90625C11.2716 8.90625 12.0585 8.9325 12.2307 9.6875H10.4419C10.6288 9.19594 10.8166 8.90625 11.1719 8.90625ZM8.82816 11.0938C8.1116 11.0938 7.86473 10.6384 7.77941 10.3125H9.55816C9.37129 10.8041 9.18316 11.0938 8.82816 11.0938ZM16.8747 9.99906V2.1875C16.8747 0.951563 15.8525 0.625 15.3122 0.625H4.68754C3.4516 0.625 3.12504 1.4425 3.12504 1.875V9.99906H1.25098V13.7491H18.7491V9.99906H16.8747ZM6.23035 1.25H13.7682C13.8399 1.88344 14.1244 2.47381 14.5752 2.92458C15.0259 3.37535 15.6163 3.65985 16.2497 3.73156V13.1212H13.8941C14.6004 12.2419 15 11.1409 15 10C15 7.24313 12.7569 5 10 5C7.24316 5 5.00004 7.24313 5.00004 10C5.00004 11.1409 5.40004 12.2419 6.10598 13.1212H3.75004V3.42469C5.12191 3.31281 6.08848 2.4625 6.23035 1.25ZM6.94629 13.1212C6.52921 12.7153 6.19748 12.23 5.97059 11.694C5.74369 11.158 5.62621 10.582 5.62504 10C5.62504 7.5875 7.58754 5.625 10 5.625C12.4125 5.625 14.375 7.5875 14.375 10C14.375 11.1756 13.8929 12.3044 13.0541 13.1212H6.94629ZM16.2497 2.1875V3.1C15.7832 3.03202 15.3512 2.81523 15.0178 2.48189C14.6845 2.14855 14.4677 1.71649 14.3997 1.25H15.3104C15.4672 1.25188 16.2497 1.30562 16.2497 2.1875ZM4.68754 1.25H5.59941C5.45316 2.2125 4.63535 2.7025 3.75004 2.79469V1.87937C3.75316 1.77437 3.81285 1.25 4.68754 1.25ZM1.87598 10.6241H3.12504V13.1237H1.87598V10.6241ZM18.1241 13.1237H16.8747V10.6241H18.1241V13.1237ZM12.2138 16.25H11.2769V14.6875C11.2769 14.6046 11.244 14.5251 11.1854 14.4665C11.1268 14.4079 11.0473 14.375 10.9644 14.375H8.46316C8.38028 14.375 8.3008 14.4079 8.24219 14.4665C8.18359 14.5251 8.15066 14.6046 8.15066 14.6875V16.25H7.21379C7.15199 16.25 7.09159 16.2683 7.04021 16.3027C6.98883 16.337 6.94879 16.3858 6.92514 16.4429C6.90149 16.5 6.8953 16.5628 6.90736 16.6234C6.91941 16.6841 6.94916 16.7397 6.99285 16.7834L9.49285 19.2834C9.52181 19.3126 9.55623 19.3357 9.59415 19.3514C9.63206 19.3672 9.67272 19.3753 9.71379 19.3753C9.75485 19.3753 9.79551 19.3672 9.83343 19.3514C9.87135 19.3357 9.90577 19.3126 9.93473 19.2834L12.4347 16.7834C12.4784 16.7397 12.5082 16.6841 12.5202 16.6234C12.5323 16.5628 12.5261 16.5 12.5024 16.4429C12.4788 16.3858 12.4387 16.337 12.3874 16.3027C12.336 16.2683 12.2756 16.25 12.2138 16.25ZM9.71379 18.6206L7.96816 16.875H8.46285C8.54573 16.875 8.62522 16.8421 8.68382 16.7835C8.74243 16.7249 8.77535 16.6454 8.77535 16.5625V15H10.6516V16.5625C10.6516 16.6454 10.6845 16.7249 10.7431 16.7835C10.8017 16.8421 10.8812 16.875 10.9641 16.875H11.4591L9.71379 18.6206Z" fill="black"/>
</svg>
