<svg width="16" height="16" viewBox="0 0 16 16" fill="none" xmlns="http://www.w3.org/2000/svg">
<g id="svgexport-15 (12)">
<g id="Group">
<path id="Vector" d="M14.7494 13.0315C14.7498 13.0209 14.7499 13.0104 14.7499 13C14.7496 12.7349 14.6442 12.4807 14.4567 12.2932C14.2692 12.1058 14.0151 12.0003 13.7499 12V7.375L14.6499 6.7C14.6812 6.67656 14.7065 6.64611 14.7239 6.61111C14.7413 6.57611 14.7502 6.53752 14.7499 6.49845C14.7497 6.45938 14.7403 6.42091 14.7225 6.38612C14.7047 6.35134 14.679 6.32121 14.6474 6.29816L12.4999 4.72881V2C12.5662 2 12.6298 1.97366 12.6767 1.92678C12.7236 1.87989 12.7499 1.8163 12.7499 1.75V0.75C12.7499 0.683696 12.7236 0.620107 12.6767 0.573223C12.6298 0.526339 12.5662 0.5 12.4999 0.5H9.99994C9.93363 0.5 9.87005 0.526339 9.82316 0.573223C9.77628 0.620107 9.74994 0.683696 9.74994 0.75V1.75C9.74994 1.8163 9.77628 1.87989 9.82316 1.92678C9.87005 1.97366 9.93363 2 9.99994 2V2.90191L8.14744 1.54816C8.10462 1.51687 8.05297 1.50001 7.99994 1.50001C7.94691 1.50001 7.89525 1.51687 7.85244 1.54816L1.35244 6.29816C1.32089 6.32121 1.29519 6.35134 1.27739 6.38612C1.25959 6.42091 1.25019 6.45938 1.24995 6.49845C1.24971 6.53752 1.25862 6.57611 1.27599 6.61111C1.29335 6.64611 1.31868 6.67656 1.34994 6.7L2.24994 7.375V12C1.98481 12.0003 1.73063 12.1058 1.54316 12.2932C1.35569 12.4807 1.25024 12.7349 1.24994 13C1.24994 13.0104 1.25013 13.0209 1.2505 13.0315C1.01465 13.0921 0.809039 13.2368 0.672233 13.4382C0.535428 13.6397 0.476835 13.8841 0.507447 14.1257C0.538059 14.3673 0.655774 14.5894 0.838504 14.7504C1.02123 14.9113 1.25642 15.0001 1.49994 15H14.4999C14.7435 15.0001 14.9786 14.9113 15.1614 14.7504C15.3441 14.5894 15.4618 14.3673 15.4924 14.1257C15.523 13.8841 15.4644 13.6397 15.3276 13.4382C15.1908 13.2368 14.9852 13.0921 14.7494 13.0315ZM10.2499 1H12.2499V1.5H10.2499V1ZM10.4999 3.25V2H11.9999V4.36344L10.4763 3.25H10.4999ZM7.99994 2.05962L14.0798 6.50262L13.4977 6.93922L8.147 3.04781C8.10427 3.01673 8.05278 2.99998 7.99994 2.99998C7.94709 2.99998 7.89561 3.01673 7.85288 3.04781L2.50222 6.93922L1.92009 6.50262L7.99994 2.05962ZM0.999938 14C1.00008 13.8687 1.05177 13.7428 1.14389 13.6492C1.23601 13.5557 1.36118 13.5021 1.49244 13.5H1.49303C1.50581 13.5018 1.51859 13.5033 1.53163 13.5042C1.57305 13.5068 1.61448 13.499 1.65217 13.4816C1.68986 13.4642 1.72262 13.4377 1.7475 13.4045C1.77238 13.3713 1.78859 13.3324 1.79467 13.2913C1.80076 13.2502 1.79652 13.2083 1.78234 13.1693C1.76166 13.1152 1.75068 13.0579 1.74994 13C1.7501 12.8674 1.80282 12.7404 1.89656 12.6466C1.99029 12.5529 2.11738 12.5002 2.24994 12.5V14.5H1.49994C1.36738 14.4998 1.24029 14.4471 1.14656 14.3534C1.05282 14.2596 1.0001 14.1326 0.999938 14ZM11.7499 14.5H8.74994V9H11.7499V14.5ZM12.2499 14.5V8.75C12.2499 8.6837 12.2236 8.62011 12.1767 8.57322C12.1298 8.52634 12.0662 8.5 11.9999 8.5H8.49994C8.43363 8.5 8.37005 8.52634 8.32316 8.57322C8.27628 8.62011 8.24994 8.6837 8.24994 8.75V14.5H2.74994V7.37731L7.99994 3.55912L13.2499 7.37731V14.5H12.2499ZM14.4999 14.5H13.7499V12.5C13.8825 12.5002 14.0096 12.5529 14.1033 12.6466C14.1971 12.7404 14.2498 12.8674 14.2499 13C14.2492 13.0579 14.2382 13.1153 14.2175 13.1694C14.2034 13.2084 14.1991 13.2504 14.2052 13.2914C14.2113 13.3325 14.2275 13.3714 14.2524 13.4046C14.2773 13.4378 14.31 13.4644 14.3477 13.4818C14.3854 13.4992 14.4268 13.5069 14.4683 13.5043C14.4813 13.5034 14.4941 13.5019 14.5068 13.5001H14.5074C14.64 13.5011 14.7668 13.5548 14.8599 13.6492C14.953 13.7437 15.0047 13.8713 15.0037 14.0039C15.0027 14.1365 14.9491 14.2633 14.8546 14.3563C14.7601 14.4494 14.6325 14.5011 14.4999 14.5001V14.5Z" fill="#17305D"/>
<path id="Vector_2" d="M7 8.5H4C3.9337 8.5 3.87011 8.52634 3.82322 8.57322C3.77634 8.62011 3.75 8.6837 3.75 8.75V12.25C3.75 12.3163 3.77634 12.3799 3.82322 12.4268C3.87011 12.4737 3.9337 12.5 4 12.5H7C7.0663 12.5 7.12989 12.4737 7.17678 12.4268C7.22366 12.3799 7.25 12.3163 7.25 12.25V8.75C7.25 8.6837 7.22366 8.62011 7.17678 8.57322C7.12989 8.52634 7.0663 8.5 7 8.5ZM6.75 10.25H5.75V9H6.75V10.25ZM5.25 9V10.25H4.25V9H5.25ZM4.25 10.75H5.25V12H4.25V10.75ZM5.75 12V10.75H6.75V12H5.75Z" fill="#17305D"/>
<path id="Vector_3" d="M9.73095 11.5957C9.78379 11.4681 9.72321 11.3219 9.59565 11.269C9.46809 11.2162 9.32185 11.2768 9.26901 11.4043C9.21617 11.5319 9.27675 11.6781 9.40431 11.731C9.53187 11.7838 9.67811 11.7232 9.73095 11.5957Z" fill="#17305D"/>
</g>
</g>
</svg>
