<svg width="268" height="220" viewBox="0 0 268 220" fill="none" xmlns="http://www.w3.org/2000/svg">
<path d="M259.16 58.6805C252.746 43.194 242.92 28.8307 230.293 17.9425C215.48 5.17805 192.113 -4.66619 172.36 2.31727C151.913 9.51877 138.24 26.7627 123.08 40.8221C117.746 45.7509 111.933 50.4219 105.02 53.1704C73.3862 65.7234 51.8996 48.5984 23.8462 68.0226C-4.20711 87.4469 -6.60044 126.269 11.9062 150.833C30.4129 175.398 74.5729 171.975 108.006 171.975C141.44 171.975 136.06 195.397 194.56 195.965C254.38 196.553 273.26 133.662 266.793 86.5946C265.45 77.0074 262.885 67.6278 259.16 58.6805Z" fill="#17305D"/>
<path opacity="0.7" d="M259.16 58.6805C252.746 43.194 242.92 28.8307 230.293 17.9425C215.48 5.17805 192.113 -4.66619 172.36 2.31727C151.913 9.51877 138.24 26.7627 123.08 40.8221C117.746 45.7509 111.933 50.4219 105.02 53.1704C73.3862 65.7234 51.8996 48.5984 23.8462 68.0226C-4.20711 87.4469 -6.60043 126.269 11.9062 150.833C30.4129 175.398 74.5729 171.975 108.006 171.975C141.44 171.975 136.06 195.397 194.56 195.965C254.38 196.553 273.26 133.662 266.793 86.5946C265.45 77.0074 262.885 67.6278 259.16 58.6805Z" fill="white"/>
<g clip-path="url(#clip0_709_16920)">
<path d="M176.207 177.165C176.096 177.291 175.985 177.42 175.877 177.548C174.377 179.289 173.022 181.149 171.824 183.11C171.728 183.26 171.635 183.414 171.549 183.564C168.715 188.302 166.786 193.525 165.86 198.967C165.652 200.199 165.496 201.437 165.391 202.682C165.315 203.641 165.27 204.602 165.255 205.563C165.197 209.6 165.555 214.091 162.952 217.176C162.257 217.988 161.407 218.655 160.453 219.138C159.735 219.509 158.975 219.796 158.191 219.993H150.074C149.666 219.932 149.258 219.868 148.849 219.803C148.839 219.803 148.828 219.8 148.817 219.8L148.735 219.828L148.244 219.993L148.223 220V219.993C148.223 219.978 148.222 219.964 148.219 219.95C148.22 219.924 148.219 219.897 148.216 219.871V219.868C148.212 219.796 148.209 219.728 148.209 219.656L148.198 219.467C148.198 219.467 148.194 219.463 148.198 219.463C148.194 219.356 148.187 219.248 148.183 219.138C147.808 209.797 148.724 200.145 153.135 191.921C154.648 189.103 156.595 186.541 158.907 184.33C158.92 184.316 158.934 184.303 158.95 184.291C163.536 179.918 169.465 177.058 175.724 177.155C175.885 177.155 176.046 177.158 176.207 177.165Z" fill="#F0F0F0"/>
<path d="M176.225 177.368C169.137 181.003 163.375 186.779 159.758 193.875C158.952 195.388 158.39 197.02 158.093 198.708C157.856 200.363 158.067 202.05 158.703 203.595C159.267 205.048 160.013 206.469 160.214 208.034C160.305 208.836 160.226 209.649 159.981 210.418C159.735 211.188 159.33 211.897 158.792 212.499C157.489 214.034 155.712 215.01 153.942 215.903C151.976 216.896 149.918 217.895 148.553 219.689C148.387 219.906 148.059 219.637 148.225 219.42C150.6 216.299 154.782 215.618 157.631 213.08C158.96 211.896 159.94 210.304 159.83 208.471C159.733 206.868 158.965 205.402 158.381 203.936C157.738 202.437 157.472 200.804 157.606 199.179C157.817 197.481 158.315 195.831 159.08 194.3C160.746 190.825 162.948 187.634 165.606 184.843C168.622 181.641 172.164 178.978 176.078 176.97C176.32 176.846 176.466 177.244 176.225 177.368Z" fill="white"/>
<path d="M160.788 191.521C159.679 190.753 158.88 189.616 158.533 188.313C158.186 187.01 158.313 185.627 158.892 184.409C159.01 184.163 159.398 184.335 159.28 184.581C158.739 185.714 158.62 187.003 158.946 188.216C159.272 189.428 160.02 190.484 161.057 191.193C161.282 191.348 161.012 191.675 160.788 191.521Z" fill="white"/>
<path d="M158.32 202.897C161.037 202.43 163.479 200.956 165.158 198.769C165.324 198.552 165.652 198.822 165.486 199.038C163.735 201.31 161.19 202.839 158.361 203.319C158.092 203.364 158.051 202.942 158.32 202.897Z" fill="white"/>
<path d="M168.845 182.157C169.212 182.544 169.669 182.833 170.175 183C170.682 183.166 171.222 183.204 171.747 183.11C172.016 183.061 172.056 183.483 171.788 183.532C171.208 183.633 170.612 183.59 170.052 183.408C169.492 183.225 168.985 182.909 168.576 182.485C168.534 182.448 168.507 182.397 168.502 182.342C168.496 182.286 168.512 182.231 168.546 182.187C168.582 182.144 168.633 182.116 168.689 182.111C168.745 182.105 168.801 182.122 168.845 182.157Z" fill="white"/>
<path d="M195.974 203.062C195.809 203.097 195.645 203.133 195.476 203.172H195.473C193.229 203.66 191.028 204.328 188.892 205.169C188.727 205.234 188.563 205.298 188.398 205.366H188.394C183.302 207.439 178.636 210.433 174.632 214.199C174.617 214.213 174.603 214.224 174.589 214.238C174.58 214.249 174.57 214.258 174.56 214.267L174.542 214.285C172.953 215.789 171.48 217.411 170.135 219.137C170.135 219.141 170.131 219.145 170.127 219.148C169.913 219.427 169.694 219.707 169.479 219.993H148.244L148.223 220V219.993H148.133C148.133 219.989 148.137 219.986 148.141 219.982C148.141 219.979 148.144 219.978 148.144 219.975C148.169 219.939 148.194 219.903 148.216 219.871V219.868C148.221 219.857 148.228 219.847 148.237 219.839C148.259 219.803 148.284 219.775 148.302 219.742C148.445 219.542 148.584 219.338 148.728 219.137C148.96 218.805 149.197 218.472 149.437 218.143L149.437 218.141L149.438 218.14L149.439 218.139L149.44 218.139V218.135C149.444 218.132 149.444 218.128 149.447 218.125L149.455 218.118C152.408 214.031 155.731 210.151 159.537 206.902C159.651 206.801 159.766 206.701 159.888 206.608C161.611 205.151 163.452 203.838 165.391 202.682C166.45 202.056 167.542 201.481 168.667 200.957C171.566 199.622 174.658 198.75 177.829 198.373H177.836C177.843 198.373 177.85 198.37 177.861 198.37C177.872 198.37 177.879 198.366 177.886 198.366C184.191 197.636 190.653 198.921 195.598 202.765C195.727 202.865 195.849 202.961 195.974 203.062Z" fill="#F0F0F0"/>
<path d="M148.133 219.993H148.223V220L148.244 219.993H153.926C152.233 219.703 150.543 219.477 148.849 219.803C148.81 219.81 148.774 219.817 148.735 219.828C148.563 219.86 148.391 219.903 148.219 219.95C148.209 219.953 148.194 219.957 148.184 219.961C148.168 219.965 148.153 219.972 148.141 219.982C148.131 219.983 148.123 219.987 148.115 219.993H148.133Z" fill="white"/>
<path d="M195.87 203.237C195.738 203.215 195.609 203.19 195.476 203.172H195.473C192.71 202.722 189.906 202.581 187.113 202.75C186.973 202.757 186.83 202.768 186.686 202.775C182.809 203.046 178.996 203.913 175.383 205.348C175.38 205.348 175.38 205.348 175.38 205.352C175.34 205.366 175.301 205.381 175.265 205.395C174.424 205.735 173.593 206.107 172.78 206.508C171.225 207.232 169.793 208.195 168.538 209.364C167.532 210.356 166.771 211.567 166.314 212.903C166.268 213.039 166.221 213.172 166.178 213.308C166.146 213.415 166.114 213.526 166.082 213.633C165.659 215.133 165.398 216.715 164.617 218.085C164.4 218.468 164.135 218.821 163.83 219.137C163.514 219.466 163.158 219.753 162.77 219.993H161.868C162.361 219.78 162.819 219.491 163.224 219.137C163.54 218.866 163.816 218.551 164.044 218.203C164.932 216.865 165.204 215.233 165.62 213.712C165.688 213.465 165.759 213.225 165.838 212.986C166.252 211.673 166.944 210.466 167.868 209.446C169.059 208.217 170.45 207.199 171.982 206.436C172.949 205.928 173.942 205.468 174.961 205.055C175.093 204.998 175.226 204.948 175.358 204.897C181.794 202.394 188.782 201.658 195.598 202.765C195.73 202.782 195.859 202.807 195.992 202.829C196.26 202.875 196.139 203.283 195.87 203.237Z" fill="white"/>
<path d="M175.02 205.247C174.598 203.967 174.644 202.578 175.152 201.329C175.659 200.079 176.595 199.051 177.791 198.427C178.033 198.302 178.239 198.673 177.997 198.798C176.882 199.377 176.011 200.335 175.541 201.499C175.07 202.663 175.032 203.957 175.432 205.147C175.519 205.406 175.106 205.505 175.02 205.247Z" fill="white"/>
<path d="M166.198 212.844C168.649 214.106 171.486 214.399 174.144 213.664C174.407 213.591 174.507 214.003 174.244 214.076C171.477 214.836 168.525 214.525 165.977 213.206C165.734 213.08 165.956 212.719 166.198 212.844Z" fill="white"/>
<path d="M187.093 202.619C187.153 203.148 187.344 203.655 187.648 204.092C187.952 204.53 188.361 204.885 188.836 205.126C189.08 205.249 188.858 205.61 188.615 205.488C188.091 205.219 187.641 204.826 187.304 204.344C186.966 203.861 186.753 203.303 186.681 202.719C186.669 202.664 186.679 202.607 186.708 202.56C186.737 202.512 186.783 202.478 186.837 202.463C186.892 202.45 186.949 202.459 186.997 202.488C187.045 202.517 187.08 202.564 187.093 202.619Z" fill="white"/>
<path d="M174.85 60.5005C174.946 48.6511 175.429 36.6872 176.296 24.6088C176.311 24.369 176.328 24.1328 176.346 23.893C176.805 17.6051 177.366 11.2945 178.029 4.96123V4.92544C178.029 3.88156 177.613 2.88062 176.875 2.14248C176.136 1.40435 175.135 0.989392 174.091 0.98877H68.4707C67.4299 0.990814 66.432 1.40377 65.6944 2.13773C64.9568 2.87169 64.5391 3.86722 64.5323 4.90754C63.6157 13.6291 62.8973 22.3076 62.3769 30.9432C62.3554 31.226 62.3411 31.5051 62.3268 31.7878C62.069 36.0573 61.8637 40.3161 61.711 44.5641C61.7002 44.8146 61.6895 45.0652 61.6859 45.3157C60.7084 71.3799 61.6598 97.4808 64.5323 123.405C64.5398 124.445 64.9579 125.439 65.6954 126.173C66.433 126.906 67.4304 127.318 68.4707 127.32H174.091C175.135 127.319 176.136 126.904 176.875 126.166C177.613 125.428 178.029 124.427 178.029 123.383V123.344C177.51 118.738 177.054 114.102 176.661 109.437C176.604 108.753 176.548 108.07 176.493 107.386C176.221 104.026 175.984 100.652 175.781 97.2654C175.738 96.5818 175.698 95.8983 175.663 95.2147C175.279 88.4365 175.029 81.6058 174.911 74.7226C174.896 74.039 174.886 73.3591 174.875 72.6719C174.832 69.3115 174.819 65.9378 174.836 62.5511C174.836 61.8676 174.839 61.184 174.85 60.5005Z" fill="#17305D"/>
<path d="M206.672 27.8297C206.671 26.7858 206.256 25.7849 205.518 25.0467C204.779 24.3086 203.778 23.8936 202.734 23.893H97.1135C96.0727 23.895 95.0748 24.308 94.3372 25.042C93.5996 25.7759 93.1819 26.7715 93.1751 27.8118C89.6091 61.7995 89.0183 95.1861 91.4064 127.32C91.6964 131.296 92.0354 135.252 92.4233 139.187C92.6309 141.295 92.8517 143.397 93.0856 145.493C93.1143 145.765 93.1429 146.037 93.1751 146.309C93.1827 147.349 93.6007 148.344 94.3383 149.077C95.0758 149.81 96.0733 150.222 97.1135 150.224H202.734C203.778 150.224 204.779 149.809 205.518 149.071C206.256 148.332 206.671 147.331 206.672 146.288V146.248C202.401 108.395 202.401 68.567 206.672 27.8655V27.8297Z" fill="white"/>
<path d="M206.672 27.8297C206.671 26.7858 206.256 25.7849 205.518 25.0467C204.779 24.3086 203.778 23.8936 202.734 23.893H97.1135C96.0727 23.895 95.0748 24.308 94.3372 25.042C93.5996 25.7759 93.1819 26.7715 93.1751 27.8118C89.6091 61.7995 89.0183 95.1861 91.4064 127.32C91.6964 131.296 92.0354 135.252 92.4233 139.187C92.6309 141.295 92.8517 143.397 93.0856 145.493C93.1143 145.765 93.1429 146.037 93.1751 146.309C93.1827 147.349 93.6007 148.344 94.3383 149.077C95.0758 149.81 96.0733 150.222 97.1135 150.224H202.734C203.778 150.224 204.779 149.809 205.518 149.071C206.256 148.332 206.671 147.331 206.672 146.288V146.248C202.401 108.395 202.401 68.567 206.672 27.8655V27.8297ZM205.956 146.309C205.95 147.159 205.607 147.973 205.004 148.572C204.4 149.171 203.584 149.508 202.734 149.509H97.1135C96.2593 149.507 95.4404 149.167 94.8364 148.564C94.2324 147.96 93.8925 147.141 93.8912 146.288V146.248C93.8661 146.019 93.8411 145.787 93.816 145.558C93.569 143.367 93.3386 141.171 93.125 138.969C92.7491 135.107 92.4161 131.224 92.1261 127.32C89.738 95.204 90.3252 61.8389 93.8912 27.8655V27.8297C93.8925 26.9758 94.2324 26.1573 94.8364 25.5536C95.4404 24.9498 96.2593 24.61 97.1135 24.6088H202.734C203.585 24.609 204.402 24.946 205.006 25.5461C205.609 26.1462 205.951 26.9607 205.956 27.8118C201.685 68.5456 201.685 108.417 205.956 146.309Z" fill="#E4E4E4"/>
<path d="M104.394 60.5006C104.122 60.5013 103.862 60.6097 103.67 60.802C103.478 60.9943 103.37 61.2548 103.37 61.5264C103.37 61.798 103.478 62.0585 103.67 62.2508C103.862 62.4431 104.122 62.5515 104.394 62.5522H190.226C190.498 62.5515 190.758 62.4431 190.95 62.2508C191.142 62.0585 191.249 61.798 191.249 61.5264C191.249 61.2548 191.142 60.9943 190.95 60.802C190.758 60.6097 190.498 60.5013 190.226 60.5006H104.394Z" fill="#E6E6E6"/>
<path d="M104.394 66.656C104.122 66.6565 103.861 66.7648 103.669 66.9571C103.477 67.1495 103.369 67.4101 103.369 67.6818C103.369 67.9535 103.477 68.2142 103.669 68.4065C103.861 68.5988 104.122 68.7071 104.394 68.7076H162.662C162.934 68.7071 163.194 68.5988 163.386 68.4065C163.578 68.2142 163.686 67.9535 163.686 67.6818C163.686 67.4101 163.578 67.1495 163.386 66.9571C163.194 66.7648 162.934 66.6565 162.662 66.656H104.394Z" fill="#E6E6E6"/>
<path d="M104.394 72.6721C104.122 72.6726 103.861 72.7809 103.669 72.9732C103.477 73.1656 103.369 73.4262 103.369 73.6979C103.369 73.9696 103.477 74.2303 103.669 74.4226C103.861 74.6149 104.122 74.7232 104.394 74.7237H190.226C190.498 74.7232 190.758 74.6149 190.95 74.4226C191.142 74.2303 191.25 73.9696 191.25 73.6979C191.25 73.4262 191.142 73.1656 190.95 72.9732C190.758 72.7809 190.498 72.6726 190.226 72.6721H104.394Z" fill="#E6E6E6"/>
<path d="M104.394 78.8275C104.122 78.8282 103.862 78.9366 103.67 79.1289C103.478 79.3212 103.37 79.5817 103.37 79.8533C103.37 80.1249 103.478 80.3854 103.67 80.5777C103.862 80.77 104.122 80.8784 104.394 80.8791H162.662C162.934 80.8784 163.194 80.77 163.386 80.5777C163.578 80.3854 163.686 80.1249 163.686 79.8533C163.686 79.5817 163.578 79.3212 163.386 79.1289C163.194 78.9366 162.934 78.8282 162.662 78.8275H104.394Z" fill="#E6E6E6"/>
<path d="M104.394 95.2148C104.122 95.2156 103.862 95.3239 103.67 95.5162C103.478 95.7085 103.37 95.9691 103.37 96.2406C103.37 96.5122 103.478 96.7727 103.67 96.965C103.862 97.1573 104.122 97.2657 104.394 97.2664H190.226C190.498 97.2657 190.758 97.1573 190.95 96.965C191.142 96.7727 191.249 96.5122 191.249 96.2406C191.249 95.9691 191.142 95.7085 190.95 95.5162C190.758 95.3239 190.498 95.2156 190.226 95.2148H104.394Z" fill="#E6E6E6"/>
<path d="M104.394 101.37C104.122 101.371 103.861 101.479 103.669 101.671C103.477 101.864 103.369 102.124 103.369 102.396C103.369 102.668 103.477 102.928 103.669 103.121C103.861 103.313 104.122 103.421 104.394 103.422H162.662C162.934 103.421 163.194 103.313 163.386 103.121C163.578 102.928 163.686 102.668 163.686 102.396C163.686 102.124 163.578 101.864 163.386 101.671C163.194 101.479 162.934 101.371 162.662 101.37H104.394Z" fill="#E6E6E6"/>
<path d="M104.394 107.386C104.122 107.387 103.861 107.495 103.669 107.687C103.477 107.88 103.369 108.14 103.369 108.412C103.369 108.684 103.477 108.945 103.669 109.137C103.861 109.329 104.122 109.437 104.394 109.438H190.226C190.498 109.437 190.758 109.329 190.95 109.137C191.142 108.945 191.25 108.684 191.25 108.412C191.25 108.14 191.142 107.88 190.95 107.687C190.758 107.495 190.498 107.387 190.226 107.386H104.394Z" fill="#E6E6E6"/>
<path d="M104.394 113.542C104.122 113.543 103.862 113.651 103.67 113.843C103.478 114.036 103.37 114.296 103.37 114.568C103.37 114.839 103.478 115.1 103.67 115.292C103.862 115.484 104.122 115.593 104.394 115.593H162.662C162.934 115.593 163.194 115.484 163.386 115.292C163.578 115.1 163.686 114.839 163.686 114.568C163.686 114.296 163.578 114.036 163.386 113.843C163.194 113.651 162.934 113.543 162.662 113.542H104.394Z" fill="#E6E6E6"/>
<path d="M121.377 47.7636H104.983C104.771 47.7633 104.567 47.6789 104.417 47.5288C104.267 47.3788 104.182 47.1753 104.182 46.963V44.3376C104.182 44.1253 104.267 43.9219 104.417 43.7718C104.567 43.6217 104.771 43.5373 104.983 43.537H121.377C121.589 43.5373 121.793 43.6217 121.943 43.7718C122.093 43.9219 122.177 44.1253 122.178 44.3376V46.963C122.177 47.1753 122.093 47.3788 121.943 47.5288C121.793 47.6789 121.589 47.7633 121.377 47.7636Z" fill="#17305D"/>
<path d="M178.329 132.215L173.307 133.873C172.47 134.15 171.633 134.426 170.796 134.703C170.021 134.958 169.182 135.261 168.353 135.151C167.779 135.076 167.125 134.746 166.947 134.156C166.778 133.598 167.136 133.014 167.57 132.684C168.769 131.773 170.284 132.7 171.133 133.644C172.171 134.798 172.759 136.288 173.733 137.496C174.6 138.58 175.7 139.455 176.95 140.057C179.435 141.23 182.466 141.105 184.683 139.396C187.33 137.355 187.6 133.818 187.614 130.732C187.609 130.593 187.55 130.461 187.45 130.364C187.35 130.268 187.216 130.213 187.077 130.213C186.938 130.213 186.804 130.268 186.704 130.364C186.603 130.461 186.545 130.593 186.54 130.732C186.527 133.529 186.368 136.957 183.817 138.708C181.373 140.384 178.161 139.939 175.911 138.153C174.657 137.158 173.886 135.86 173.062 134.516C172.259 133.204 171.261 131.932 169.749 131.422C169.1 131.186 168.39 131.182 167.739 131.409C167.087 131.636 166.534 132.082 166.173 132.669C166.008 132.947 165.905 133.256 165.869 133.577C165.833 133.897 165.866 134.222 165.965 134.529C166.064 134.836 166.228 135.118 166.445 135.357C166.662 135.596 166.928 135.786 167.224 135.914C168.977 136.749 170.984 135.77 172.672 135.213L178.614 133.25C179.267 133.034 178.987 131.997 178.329 132.215Z" fill="#17305D"/>
<path d="M163.448 211.127L159.927 212.286L153.777 199.263L158.973 197.552L163.448 211.127Z" fill="#9F616A"/>
<path d="M165.96 214.084L165.72 213.358L165.09 211.443L164.66 210.14L163.486 210.527L163.242 210.509L160.017 210.291L159.587 210.262L158.95 210.219L158.291 210.173L156.451 212.846H156.447C155.759 213.07 155.123 213.428 154.574 213.9C154.026 214.372 153.577 214.948 153.253 215.594C153.214 215.673 153.178 215.752 153.142 215.831C153.053 216.023 152.978 216.222 152.917 216.425C152.638 217.302 152.586 218.235 152.766 219.137C152.813 219.361 152.871 219.582 152.942 219.8L152.953 219.835L152.995 219.968L153.253 219.882L155.516 219.137L163.443 216.528L165.015 216.01L165.498 215.849H165.502L166.44 215.541L165.96 214.084Z" fill="#2F2E41"/>
<path d="M130.072 214.188L126.365 214.188L124.601 199.895L130.073 199.895L130.072 214.188Z" fill="#9F616A"/>
<path d="M124.139 151.531L122.496 154.373C122.496 154.373 120.69 154.866 121.28 160.75C121.697 164.905 121.832 183.507 122.882 195.593C123.318 200.622 123.913 204.523 124.753 205.784L125.27 206.247L130.664 206.762L130.8 206.714L132.781 192.73C133.137 190.219 133.083 187.668 132.623 185.175L132.265 181.238L137.232 161.305C137.232 161.305 142.29 174.081 145.513 186.248C146.288 189.177 149.235 191.04 150.352 193.554C150.726 194.396 151.094 195.212 151.452 195.995C153.815 201.15 154.999 204.904 155.896 205.216H156.612L160.908 203.784L161.753 201.66L155.179 182.312L150.257 151.071C140.877 146.03 132.079 145.469 124.139 151.531Z" fill="#2F2E41"/>
<path d="M151.008 109.437C150.685 108.724 150.304 108.038 149.87 107.386C148.878 105.841 147.499 104.581 145.871 103.732L144.46 103.421L141.932 102.863L140.6 101.37L138.416 98.926H130.898L129.892 101.37L129.047 103.421L128.685 104.294L122.248 107.511C122.244 107.511 122.244 107.511 122.24 107.515C122.326 108.159 122.411 108.8 122.495 109.437C122.677 110.822 122.849 112.19 123.01 113.542C123.092 114.229 123.171 114.912 123.246 115.592C123.486 117.725 123.693 119.821 123.866 121.88C124.02 123.72 124.143 125.533 124.235 127.32C124.458 131.379 124.475 135.446 124.285 139.506C124.235 140.461 125.183 141.549 125.108 142.483C124.983 144.008 123.805 145.361 123.597 146.817C123.468 147.712 123.526 148.664 123.3 149.509C123.237 149.756 123.144 149.994 123.021 150.217C123.021 150.221 123.017 150.221 123.017 150.224C120.439 154.827 122.462 152.629 122.222 153.664L122.337 153.692C122.391 153.707 122.555 153.749 122.82 153.81C124.335 154.172 130.579 148.313 134.772 148.313C137.289 148.313 143.952 152.45 146.182 152.751C147.947 152.987 149.523 153.202 150.461 152.375C150.733 152.134 150.941 151.829 151.066 151.488L151.076 151.455L151.073 151.423L150.983 150.224L150.93 149.509L150.163 139.237C149.736 138.707 149.465 138.067 149.383 137.391C149.301 136.715 149.41 136.029 149.698 135.412L149.856 135.079L149.276 127.32L149.168 125.871L149.129 125.38V125.377L148.849 121.63L149.523 119.583V119.579L150.833 115.592L151.506 113.542L151.929 112.253L151.957 112.167C151.732 111.228 151.414 110.314 151.008 109.437Z" fill="#17305D"/>
<path d="M157.54 146.445L150.322 127.799L146.97 120.99L153.416 117.43L158.608 126.574L162.088 145.678C162.636 146.052 163.06 146.581 163.305 147.197C163.549 147.813 163.604 148.489 163.462 149.136C163.32 149.784 162.987 150.374 162.507 150.831C162.027 151.289 161.42 151.592 160.766 151.702C160.112 151.813 159.44 151.725 158.836 151.45C158.233 151.176 157.725 150.727 157.378 150.162C157.031 149.597 156.861 148.941 156.89 148.279C156.919 147.616 157.145 146.978 157.54 146.445Z" fill="#9F616A"/>
<path d="M157.686 120.757L155.838 119.561L153.715 115.592L152.62 113.542L151.929 112.253L151.635 111.702L148.316 109.437L146.075 107.905L144.249 109.437L143.379 110.167L144.231 113.542L144.746 115.592L145.871 120.041L149.168 125.871L149.988 127.32L150.457 128.154L150.461 128.161L150.525 128.272L158.857 127.925L159.118 127.914L159.132 127.32L159.139 127.105C159.143 126.998 159.143 126.891 159.143 126.783C159.142 124.687 158.642 122.622 157.686 120.757Z" fill="#17305D"/>
<path d="M94.6269 139.03L109.393 125.543L114.524 119.95L120.181 124.664L113.54 132.817L96.9917 142.988C96.8419 143.634 96.5023 144.22 96.0165 144.672C95.5308 145.123 94.9211 145.419 94.2657 145.522C93.6104 145.624 92.9394 145.529 92.3389 145.247C91.7383 144.966 91.2357 144.511 90.8957 143.942C90.5556 143.372 90.3935 142.715 90.4304 142.053C90.4672 141.391 90.7012 140.755 91.1023 140.227C91.5034 139.699 92.0533 139.302 92.6814 139.089C93.3094 138.876 93.9869 138.855 94.6269 139.03Z" fill="#9F616A"/>
<path d="M125.108 115.592L125.08 113.542L125.026 109.437L125.004 107.844L124.943 107.801C124.61 107.583 124.232 107.441 123.837 107.386C123.49 107.329 123.135 107.329 122.788 107.386C122.605 107.415 122.424 107.456 122.247 107.511C122.244 107.511 122.244 107.511 122.24 107.515C121.179 107.896 120.242 108.559 119.53 109.433L119.526 109.437C118.453 110.713 117.501 112.088 116.684 113.542C116.279 114.229 115.892 114.923 115.531 115.592C114.163 118.137 113.178 120.341 113.161 120.381L109.072 125.688L109.129 125.785L110.028 127.32L113.322 132.949L113.844 133.844L115.18 133.132C116.737 132.302 117.964 130.966 118.66 129.346L119.136 127.528L119.312 127.32L123.866 121.88L125.169 120.32L125.108 115.592Z" fill="#17305D"/>
<path d="M140.713 91.9223C141.323 88.1665 138.771 84.6277 135.014 84.0182C131.256 83.4088 127.716 85.9594 127.106 89.7152C126.497 93.4709 129.048 97.0097 132.806 97.6192C136.563 98.2287 140.103 95.6781 140.713 91.9223Z" fill="#9F616A"/>
<path d="M127.247 86.3023C126.941 85.2306 126.328 84.312 126.634 84.312C126.941 84.312 127.094 83.5465 127.094 83.5465C127.094 83.5465 127.4 83.3934 127.553 83.5465C127.706 83.6996 127.86 82.4748 127.86 82.4748C127.86 82.4748 128.013 82.0155 128.166 82.3217C128.319 82.6279 128.319 82.4748 128.472 82.0155C128.625 81.5562 129.391 81.25 129.391 81.25C129.391 81.25 132.301 81.4031 132.761 80.7907C133.22 80.1783 138.428 80.6376 139.5 81.4031C140.572 82.1686 144.796 83.5371 142.29 87.8317C143.722 90.3368 141.584 94.805 141.032 95.3351C140.158 96.1734 139.553 96.4757 135.42 97.2978C134.611 97.4587 132.623 90.6947 132.623 90.6947C132.623 90.6947 127.553 87.374 127.247 86.3023Z" fill="#2F2E41"/>
<path d="M130.296 213.63L130.074 213.54L126.086 211.915L125.473 211.669L122.888 213.63H122.885C121.424 213.631 120.024 214.212 118.992 215.245C117.959 216.278 117.379 217.678 117.378 219.138V219.316H131.531V213.63H130.296Z" fill="#2F2E41"/>
<path d="M171.896 219.563C171.896 219.619 171.886 219.675 171.864 219.727C171.843 219.779 171.812 219.826 171.772 219.866C171.733 219.906 171.685 219.938 171.634 219.96C171.582 219.981 171.526 219.993 171.47 219.993H98.6817C98.5682 219.993 98.4594 219.948 98.3792 219.868C98.2989 219.787 98.2538 219.679 98.2538 219.565C98.2538 219.452 98.2989 219.343 98.3792 219.263C98.4594 219.182 98.5682 219.137 98.6817 219.137H171.47C171.583 219.138 171.691 219.183 171.771 219.262C171.851 219.342 171.896 219.45 171.896 219.563Z" fill="#CCCCCC"/>
<path d="M96.7483 0.98877C96.185 10.9976 92.5043 20.5797 86.2215 28.3935C79.9388 36.2072 71.3686 41.8613 61.711 44.5641C61.7003 44.8146 61.6896 45.0652 61.686 45.3157C71.5436 42.605 80.3005 36.8679 86.7202 28.9143C93.1399 20.9607 96.8982 11.1925 97.4643 0.98877H96.7483Z" fill="white"/>
<path d="M85.7817 0.98877C84.1179 7.30774 81.1848 13.2221 77.1611 18.3718C73.1375 23.5215 68.1073 27.7988 62.377 30.9432C62.3555 31.226 62.3412 31.5051 62.3269 31.7878C68.2656 28.598 73.4806 24.2154 77.6443 18.9153C81.8081 13.6152 84.8309 7.51202 86.5229 0.98877H85.7817Z" fill="white"/>
</g>
<defs>
<clipPath id="clip0_709_16920">
<rect width="145.344" height="219.011" fill="white" transform="translate(61.3282 0.98877)"/>
</clipPath>
</defs>
</svg>
