<svg width="16" height="17" viewBox="0 0 16 17" fill="none" xmlns="http://www.w3.org/2000/svg">
<g id="001-bed-1" clip-path="url(#clip0_193_2267)">
<g id="Group">
<g id="Group_2">
<path id="Vector" d="M0 9.37913C0 8.84988 0.289625 8.37304 0.755813 8.13467C1.23122 7.89154 1.84678 7.76826 2.58537 7.76826H10.6143C10.6721 7.47976 10.8002 7.21763 10.9923 7.00404L12.1309 5.73832C12.4127 5.4251 12.8176 5.23492 13.2709 5.20285L13.4755 5.18838C13.5802 5.18085 13.6866 5.19563 13.7887 5.22988V4.56079C13.7887 4.32642 13.8874 4.11476 14.0453 3.96479C13.8852 3.77298 13.7887 3.52635 13.7887 3.2576C13.7887 2.64795 14.2847 2.15198 14.8943 2.15198C15.504 2.15198 16 2.64798 16 3.25763C16 3.52641 15.9035 3.77301 15.7435 3.96482C15.9013 4.11482 16 4.32645 16 4.56082V14.5355C16 14.7081 15.8601 14.848 15.6875 14.848H14.6089C14.4477 14.848 14.313 14.7254 14.2978 14.5649C14.2606 14.1714 14.0525 13.0907 13.5369 12.606H12.7001C12.5275 12.606 12.3876 12.4661 12.3876 12.2935C12.3876 12.1209 12.5275 11.981 12.7001 11.981L15.375 11.981V9.22985L11.2039 9.22976V10.0441C11.2039 10.5259 10.8119 10.9179 10.3301 10.9179H10.33H0.873781C0.789907 10.9179 0.705438 10.9057 0.625031 10.8819V11.981H2.34709C2.34734 11.981 2.34759 11.981 2.34787 11.981H9.95044C10.123 11.981 10.2629 12.121 10.2629 12.2935C10.2629 12.4661 10.123 12.606 9.95044 12.606H2.46309C1.94956 13.0894 1.74012 14.1711 1.70219 14.565C1.687 14.7255 1.55228 14.8481 1.39106 14.8481H0.3125C0.139906 14.8481 0 14.7081 0 14.5356V9.37913ZM13.788 6.25167C13.7833 6.11851 13.8016 5.98092 13.6918 5.88301C13.5815 5.78451 13.4491 5.81679 13.3151 5.82629C13.0198 5.8472 12.771 5.96129 12.5956 6.15632L11.457 7.42207C11.2725 7.6272 11.1839 7.91313 11.2078 8.2271C11.2169 8.34798 11.2148 8.45513 11.3166 8.54041C11.4097 8.61835 11.5107 8.60382 11.6228 8.60048C11.9376 8.59104 12.2125 8.47285 12.3971 8.2677L13.5357 7.00198C13.7198 6.7972 13.7975 6.52354 13.788 6.25167ZM15.375 8.60482V4.56082C15.375 4.45188 15.2864 4.36326 15.1774 4.36326H14.6113C14.5024 4.36326 14.4138 4.45188 14.4138 4.56082V8.60479H15.375V8.60482ZM13.7887 7.6551L12.9344 8.60482H13.7887V7.6551ZM14.8944 2.77701C14.6294 2.77701 14.4138 2.9926 14.4138 3.25763C14.4138 3.52266 14.6293 3.73826 14.8944 3.73826C15.1594 3.73826 15.375 3.52266 15.375 3.25763C15.375 2.9926 15.1594 2.77701 14.8944 2.77701ZM14.8812 14.2231H15.375V12.6061H14.3271C14.6653 13.1597 14.8183 13.8445 14.8812 14.2231ZM10.3301 10.2929C10.4672 10.2929 10.5788 10.1814 10.5788 10.0442L10.5789 8.39326H2.58537C1.94669 8.39326 1.42684 8.49348 1.04037 8.6911C0.784156 8.8221 0.625 9.08573 0.625 9.37913V10.043C0.625 10.0434 0.625063 10.0438 0.625063 10.0442C0.625063 10.1814 0.736656 10.293 0.873813 10.293H10.3301V10.2929ZM1.11878 14.2231C1.18175 13.8445 1.33469 13.1597 1.67284 12.6061H0.625V14.2231H1.11878Z" fill="#7B7B7B"/>
<path id="Vector_2" d="M11.0366 12.1741C11.1013 12.0165 11.2879 11.9402 11.4447 12.0051C11.6022 12.0701 11.6789 12.2558 11.6138 12.4132C11.5487 12.5705 11.3629 12.6474 11.2057 12.5822C11.0487 12.5172 10.9713 12.3311 11.0366 12.1741Z" fill="#7B7B7B"/>
</g>
</g>
</g>
<defs>
<clipPath id="clip0_193_2267">
<rect width="16" height="16" fill="white" transform="matrix(-1 0 0 1 16 0.5)"/>
</clipPath>
</defs>
</svg>
