<svg width="14" height="16" viewBox="0 0 14 16" fill="none" xmlns="http://www.w3.org/2000/svg">
<path d="M7.00001 15.875C6.72296 15.8752 6.44899 15.8169 6.196 15.704C5.94302 15.5911 5.71671 15.426 5.53188 15.2197C5.48191 15.1641 5.45605 15.0909 5.46001 15.0163C5.46396 14.9417 5.4974 14.8717 5.55298 14.8217C5.60855 14.7717 5.6817 14.7459 5.75633 14.7498C5.83096 14.7538 5.90097 14.7872 5.95094 14.8428C6.08286 14.9906 6.2445 15.1088 6.42529 15.1897C6.60607 15.2707 6.80192 15.3125 7.00001 15.3125C7.19809 15.3125 7.39394 15.2707 7.57473 15.1897C7.75551 15.1088 7.91716 14.9906 8.04907 14.8428C8.07382 14.8153 8.10374 14.7929 8.13713 14.7769C8.17052 14.761 8.20673 14.7518 8.24369 14.7498C8.28064 14.7479 8.31762 14.7532 8.35251 14.7655C8.3874 14.7779 8.41952 14.7969 8.44704 14.8217C8.47455 14.8464 8.49693 14.8764 8.51288 14.9097C8.52883 14.9431 8.53805 14.9793 8.54001 15.0163C8.54197 15.0533 8.53663 15.0902 8.52429 15.1251C8.51196 15.16 8.49288 15.1921 8.46813 15.2197C8.2833 15.426 8.057 15.5911 7.80401 15.704C7.55102 15.8169 7.27705 15.8752 7.00001 15.875ZM12.1019 13.9062H1.89813C1.61021 13.9062 1.33407 13.7918 1.13048 13.5882C0.926885 13.3847 0.812507 13.1085 0.812507 12.8206V12.3481C0.812002 12.2054 0.839835 12.0641 0.894392 11.9323C0.94895 11.8005 1.02914 11.6808 1.13032 11.5803C1.37046 11.3409 1.56093 11.0564 1.69076 10.7431C1.8206 10.4299 1.88725 10.0941 1.88688 9.75497V6.64434C1.88688 5.28826 2.42558 3.98772 3.38448 3.02882C4.34338 2.06992 5.64392 1.53122 7.00001 1.53122C8.35609 1.53122 9.65664 2.06992 10.6155 3.02882C11.5744 3.98772 12.1131 5.28826 12.1131 6.64434V9.75497C12.1128 10.0941 12.1794 10.4299 12.3092 10.7431C12.4391 11.0564 12.6295 11.3409 12.8697 11.5803C12.9709 11.6808 13.0511 11.8005 13.1056 11.9323C13.1602 12.0641 13.188 12.2054 13.1875 12.3481V12.8206C13.1875 13.1085 13.0731 13.3847 12.8695 13.5882C12.6659 13.7918 12.3898 13.9062 12.1019 13.9062ZM7.00001 2.09372C5.79356 2.09521 4.63696 2.57513 3.78387 3.42821C2.93079 4.2813 2.45087 5.4379 2.44938 6.64434V9.75497C2.45058 10.1677 2.36991 10.5766 2.21205 10.958C2.05419 11.3394 1.82226 11.6857 1.52969 11.9768C1.48018 12.0251 1.44095 12.0828 1.41436 12.1466C1.38778 12.2104 1.37439 12.279 1.37501 12.3481V12.8206C1.37575 12.9591 1.4311 13.0917 1.52904 13.1897C1.62699 13.2876 1.75962 13.343 1.89813 13.3437H12.1019C12.2404 13.343 12.373 13.2876 12.471 13.1897C12.5689 13.0917 12.6243 12.9591 12.625 12.8206V12.3481C12.6256 12.279 12.6122 12.2104 12.5857 12.1466C12.5591 12.0828 12.5198 12.0251 12.4703 11.9768C12.1778 11.6857 11.9458 11.3394 11.788 10.958C11.6301 10.5766 11.5494 10.1677 11.5506 9.75497V6.64434C11.5491 5.4379 11.0692 4.2813 10.2161 3.42821C9.36306 2.57513 8.20645 2.09521 7.00001 2.09372ZM7.68626 0.968719C7.64116 0.968962 7.59667 0.958356 7.55653 0.937798C7.51639 0.91724 7.48179 0.887331 7.45563 0.850594C7.40348 0.778563 7.335 0.719923 7.2558 0.679484C7.1766 0.639046 7.08893 0.617961 7.00001 0.617961C6.91108 0.617961 6.82342 0.639046 6.74422 0.679484C6.66502 0.719923 6.59653 0.778563 6.54438 0.850594C6.52285 0.880793 6.49556 0.906435 6.46409 0.926045C6.43261 0.945656 6.39756 0.958846 6.36097 0.964859C6.32437 0.970871 6.28694 0.969586 6.25085 0.961077C6.21475 0.952569 6.18069 0.937005 6.15063 0.915282C6.09044 0.871842 6.04987 0.80637 6.03775 0.733139C6.02563 0.659908 6.04296 0.584857 6.08594 0.524345C6.1901 0.379177 6.32734 0.260904 6.48629 0.179317C6.64524 0.0977305 6.82134 0.0551758 7.00001 0.0551758C7.17868 0.0551758 7.35477 0.0977305 7.51373 0.179317C7.67268 0.260904 7.80991 0.379177 7.91407 0.524345C7.95649 0.585542 7.97291 0.661063 7.95972 0.734348C7.94654 0.807632 7.90484 0.872699 7.84376 0.915282C7.79784 0.948565 7.74294 0.967192 7.68626 0.968719Z" fill="#17305D"/>
</svg>
