<svg width="17" height="16" viewBox="0 0 17 16" fill="none" xmlns="http://www.w3.org/2000/svg">
<g id="svgexport-15 (16)" clip-path="url(#clip0_520_1403)">
<g id="Group">
<path id="Vector" d="M16.5835 14H16.0835V4.85348L16.7603 4.17673C16.7845 4.15262 16.8035 4.12379 16.8161 4.09203C16.8287 4.06027 16.8346 4.02626 16.8336 3.99211C16.8325 3.95796 16.8244 3.9244 16.8098 3.8935C16.7952 3.8626 16.7745 3.83502 16.7488 3.81248L12.4988 0.0624835C12.4536 0.0225352 12.3955 0.000297444 12.3352 -0.000116195C12.2749 -0.000529833 12.2165 0.0209087 12.1708 0.0602335L8.83328 2.92048L5.49603 0.0602335C5.45027 0.0210074 5.39188 -0.000366661 5.33161 4.6777e-05C5.27134 0.000460215 5.21325 0.0226333 5.16803 0.0624835L0.918282 3.81248C0.892636 3.83504 0.871891 3.86263 0.85733 3.89352C0.842768 3.92442 0.834698 3.95798 0.83362 3.99212C0.832543 4.02626 0.838479 4.06025 0.851063 4.09201C0.863647 4.12376 0.882611 4.1526 0.906782 4.17673L1.58353 4.85348V14H1.08353C1.01723 14 0.953639 14.0263 0.906755 14.0732C0.859871 14.1201 0.833532 14.1837 0.833532 14.25V15.75C0.833532 15.8163 0.859871 15.8799 0.906755 15.9268C0.953639 15.9736 1.01723 16 1.08353 16H16.5835C16.6498 16 16.7134 15.9736 16.7603 15.9268C16.8072 15.8799 16.8335 15.8163 16.8335 15.75V14.25C16.8335 14.1837 16.8072 14.1201 16.7603 14.0732C16.7134 14.0263 16.6498 14 16.5835 14ZM13.5835 14V13H15.5835V14H13.5835ZM2.08353 4.86473L5.33353 2.07923L8.58353 4.86473V12.5H6.58353V11.25C6.58353 11.1837 6.55719 11.1201 6.51031 11.0732C6.46342 11.0263 6.39984 11 6.33353 11H4.33353C4.26723 11 4.20364 11.0263 4.15675 11.0732C4.10987 11.1201 4.08353 11.1837 4.08353 11.25V12.5H2.08353V4.86473ZM15.5835 12.5H13.5835V11.25C13.5835 11.1837 13.5572 11.1201 13.5103 11.0732C13.4634 11.0263 13.3998 11 13.3335 11H11.3335C11.2672 11 11.2036 11.0263 11.1568 11.0732C11.1099 11.1201 11.0835 11.1837 11.0835 11.25V12.5H9.08353V4.86473L12.3335 2.07923L15.5835 4.86473V12.5ZM4.58353 11.5H6.08353V12.5H5.83353C5.76723 12.5 5.70364 12.5263 5.65675 12.5732C5.60987 12.6201 5.58353 12.6837 5.58353 12.75C5.58353 12.8163 5.60987 12.8799 5.65675 12.9268C5.70364 12.9736 5.76723 13 5.83353 13H6.08353V14H4.58353V11.5ZM6.58353 13H8.58353V14H6.58353V13ZM9.08353 13H11.0835V14H9.08353V13ZM11.5835 11.5H13.0835V12.5H12.8335C12.7672 12.5 12.7036 12.5263 12.6568 12.5732C12.6099 12.6201 12.5835 12.6837 12.5835 12.75C12.5835 12.8163 12.6099 12.8799 12.6568 12.9268C12.7036 12.9736 12.7672 13 12.8335 13H13.0835V14H11.5835V11.5ZM12.331 0.581234L16.2185 4.01148L15.8203 4.40973L12.496 1.56048C12.4508 1.52154 12.3931 1.50012 12.3334 1.50012C12.2737 1.50012 12.216 1.52154 12.1708 1.56048L9.08328 4.20648V3.36498L12.3308 0.581483L12.331 0.581234ZM1.44853 4.01148L5.33603 0.581234L8.58353 3.36473V4.20623L5.49603 1.56023C5.4508 1.52129 5.39309 1.49987 5.33341 1.49987C5.27372 1.49987 5.21601 1.52129 5.17078 1.56023L1.84653 4.40948L1.44828 4.01123L1.44853 4.01148ZM2.08353 13H4.08353V14H2.08353V13ZM16.3335 15.5H1.33353V14.5H16.3335V15.5Z" fill="#423E3E"/>
<path id="Vector_2" d="M4.5835 10.25C4.6498 10.25 4.71339 10.2237 4.76027 10.1768C4.80716 10.1299 4.8335 10.0663 4.8335 10V8.5C4.8335 8.4337 4.80716 8.37011 4.76027 8.32322C4.71339 8.27634 4.6498 8.25 4.5835 8.25H3.3335C3.26719 8.25 3.2036 8.27634 3.15672 8.32322C3.10984 8.37011 3.0835 8.4337 3.0835 8.5V10C3.0835 10.0663 3.10984 10.1299 3.15672 10.1768C3.2036 10.2237 3.26719 10.25 3.3335 10.25H4.5835ZM3.5835 8.75H4.3335V9.75H3.5835V8.75ZM7.0835 8.25H5.8335C5.76719 8.25 5.7036 8.27634 5.65672 8.32322C5.60984 8.37011 5.5835 8.4337 5.5835 8.5V10C5.5835 10.0663 5.60984 10.1299 5.65672 10.1768C5.7036 10.2237 5.76719 10.25 5.8335 10.25H7.0835C7.1498 10.25 7.21339 10.2237 7.26027 10.1768C7.30716 10.1299 7.3335 10.0663 7.3335 10V8.5C7.3335 8.4337 7.30716 8.37011 7.26027 8.32322C7.21339 8.27634 7.1498 8.25 7.0835 8.25ZM6.8335 9.75H6.0835V8.75H6.8335V9.75ZM3.3335 7.25H4.5835C4.6498 7.25 4.71339 7.22366 4.76027 7.17678C4.80716 7.12989 4.8335 7.0663 4.8335 7V5.5C4.8335 5.4337 4.80716 5.37011 4.76027 5.32322C4.71339 5.27634 4.6498 5.25 4.5835 5.25H3.3335C3.26719 5.25 3.2036 5.27634 3.15672 5.32322C3.10984 5.37011 3.0835 5.4337 3.0835 5.5V7C3.0835 7.0663 3.10984 7.12989 3.15672 7.17678C3.2036 7.22366 3.26719 7.25 3.3335 7.25ZM3.5835 5.75H4.3335V6.75H3.5835V5.75ZM5.5835 5.5V7C5.5835 7.0663 5.60984 7.12989 5.65672 7.17678C5.7036 7.22366 5.76719 7.25 5.8335 7.25H7.0835C7.1498 7.25 7.21339 7.22366 7.26027 7.17678C7.30716 7.12989 7.3335 7.0663 7.3335 7V5.5C7.3335 5.4337 7.30716 5.37011 7.26027 5.32322C7.21339 5.27634 7.1498 5.25 7.0835 5.25H5.8335C5.76719 5.25 5.7036 5.27634 5.65672 5.32322C5.60984 5.37011 5.5835 5.4337 5.5835 5.5ZM6.0835 5.75H6.8335V6.75H6.0835V5.75ZM4.5835 4.5H5.8335C5.8998 4.5 5.96339 4.47366 6.01027 4.42678C6.05716 4.37989 6.0835 4.3163 6.0835 4.25C6.0835 4.1837 6.05716 4.12011 6.01027 4.07322C5.96339 4.02634 5.8998 4 5.8335 4H4.5835C4.51719 4 4.4536 4.02634 4.40672 4.07322C4.35984 4.12011 4.3335 4.1837 4.3335 4.25C4.3335 4.3163 4.35984 4.37989 4.40672 4.42678C4.4536 4.47366 4.51719 4.5 4.5835 4.5ZM14.3335 8.25H13.0835C13.0172 8.25 12.9536 8.27634 12.9067 8.32322C12.8598 8.37011 12.8335 8.4337 12.8335 8.5V10C12.8335 10.0663 12.8598 10.1299 12.9067 10.1768C12.9536 10.2237 13.0172 10.25 13.0835 10.25H14.3335C14.3998 10.25 14.4634 10.2237 14.5103 10.1768C14.5572 10.1299 14.5835 10.0663 14.5835 10V8.5C14.5835 8.4337 14.5572 8.37011 14.5103 8.32322C14.4634 8.27634 14.3998 8.25 14.3335 8.25ZM14.0835 9.75H13.3335V8.75H14.0835V9.75ZM11.8335 8.25H10.5835C10.5172 8.25 10.4536 8.27634 10.4067 8.32322C10.3598 8.37011 10.3335 8.4337 10.3335 8.5V10C10.3335 10.0663 10.3598 10.1299 10.4067 10.1768C10.4536 10.2237 10.5172 10.25 10.5835 10.25H11.8335C11.8998 10.25 11.9634 10.2237 12.0103 10.1768C12.0572 10.1299 12.0835 10.0663 12.0835 10V8.5C12.0835 8.4337 12.0572 8.37011 12.0103 8.32322C11.9634 8.27634 11.8998 8.25 11.8335 8.25ZM11.5835 9.75H10.8335V8.75H11.5835V9.75ZM12.8335 5.5V7C12.8335 7.0663 12.8598 7.12989 12.9067 7.17678C12.9536 7.22366 13.0172 7.25 13.0835 7.25H14.3335C14.3998 7.25 14.4634 7.22366 14.5103 7.17678C14.5572 7.12989 14.5835 7.0663 14.5835 7V5.5C14.5835 5.4337 14.5572 5.37011 14.5103 5.32322C14.4634 5.27634 14.3998 5.25 14.3335 5.25H13.0835C13.0172 5.25 12.9536 5.27634 12.9067 5.32322C12.8598 5.37011 12.8335 5.4337 12.8335 5.5ZM13.3335 5.75H14.0835V6.75H13.3335V5.75ZM11.8335 5.25H10.5835C10.5172 5.25 10.4536 5.27634 10.4067 5.32322C10.3598 5.37011 10.3335 5.4337 10.3335 5.5V7C10.3335 7.0663 10.3598 7.12989 10.4067 7.17678C10.4536 7.22366 10.5172 7.25 10.5835 7.25H11.8335C11.8998 7.25 11.9634 7.22366 12.0103 7.17678C12.0572 7.12989 12.0835 7.0663 12.0835 7V5.5C12.0835 5.4337 12.0572 5.37011 12.0103 5.32322C11.9634 5.27634 11.8998 5.25 11.8335 5.25ZM11.5835 6.75H10.8335V5.75H11.5835V6.75ZM11.5835 4.25C11.5835 4.3163 11.6098 4.37989 11.6567 4.42678C11.7036 4.47366 11.7672 4.5 11.8335 4.5H13.0835C13.1498 4.5 13.2134 4.47366 13.2603 4.42678C13.3072 4.37989 13.3335 4.3163 13.3335 4.25C13.3335 4.1837 13.3072 4.12011 13.2603 4.07322C13.2134 4.02634 13.1498 4 13.0835 4H11.8335C11.7672 4 11.7036 4.02634 11.6567 4.07322C11.6098 4.12011 11.5835 4.1837 11.5835 4.25Z" fill="#423E3E"/>
</g>
</g>
<defs>
<clipPath id="clip0_520_1403">
<rect width="16" height="16" fill="white" transform="translate(0.833496)"/>
</clipPath>
</defs>
</svg>
