<svg width="209" height="209" viewBox="0 0 209 209" fill="none" xmlns="http://www.w3.org/2000/svg">
<g id="Empty-pana">
<g id="freepik--background-complete--inject-67">
<path id="Vector" d="M113.345 158.317H69.8105V191.895H113.345V158.317Z" fill="#EBEBEB"/>
<path id="Vector_2" d="M102.441 191.661C102.382 191.661 102.332 184.175 102.332 174.941C102.332 165.708 102.382 158.221 102.441 158.221C102.499 158.221 102.549 165.708 102.549 174.941C102.549 184.175 102.499 191.661 102.441 191.661Z" fill="#E0E0E0"/>
<path id="Vector_3" d="M109.654 184.254H106.318V188.029H109.654V184.254Z" fill="#FAFAFA"/>
<path id="Vector_4" d="M88.0406 158.405H83.0957V165.57H88.0406V158.405Z" fill="#E0E0E0"/>
<path id="Vector_5" d="M88.0406 184.631H83.0957V191.795H88.0406V184.631Z" fill="#E0E0E0"/>
<path id="Vector_6" d="M192.343 149.899H137.447V192.238H192.343V149.899Z" fill="#EBEBEB"/>
<path id="Vector_7" d="M178.587 191.937C178.529 191.937 178.479 182.503 178.479 170.862C178.479 159.22 178.529 149.786 178.587 149.786C178.646 149.786 178.696 159.22 178.696 170.862C178.696 182.503 178.65 191.937 178.587 191.937Z" fill="#E0E0E0"/>
<path id="Vector_8" d="M187.688 182.599H183.479V187.356H187.688V182.599Z" fill="#FAFAFA"/>
<path id="Vector_9" d="M160.43 150.008H154.193V159.041H160.43V150.008Z" fill="#E0E0E0"/>
<path id="Vector_10" d="M160.43 183.076H154.193V192.109H160.43V183.076Z" fill="#E0E0E0"/>
<path id="Vector_11" d="M34.0503 151.144C36.274 149.999 38.8907 149.849 41.3569 150.258C42.682 150.476 44.0614 150.873 44.9643 151.868C45.8671 152.862 46.0343 154.614 45.0019 155.471C44.3832 155.981 43.5263 156.056 42.7238 156.048C40.7926 156.022 38.6525 155.684 37.11 156.846C36.2281 157.511 35.6429 158.61 34.602 158.936C33.5612 159.262 32.4117 158.648 31.8683 157.72C31.3656 156.752 31.2548 155.628 31.559 154.58C31.6821 153.855 31.9709 153.167 32.403 152.571C32.8351 151.975 33.3988 151.487 34.0503 151.144Z" fill="#EBEBEB"/>
<path id="Vector_12" d="M28.9607 141.318C30.3192 143.257 32.961 142.618 34.1857 141.43C35.4105 140.243 35.9288 138.53 36.3969 136.895C37.4754 133.154 38.558 129.229 37.7596 125.421C37.5674 124.266 37.0596 123.187 36.2924 122.303C35.904 121.868 35.4089 121.543 34.8561 121.359C34.3032 121.175 33.7119 121.139 33.1407 121.254C31.8073 121.605 30.9797 122.926 30.3819 124.15C28.6196 127.812 27.697 131.82 27.6816 135.884C27.6816 137.777 27.8948 139.758 28.9607 141.318Z" fill="#EBEBEB"/>
<path id="Vector_13" d="M25.2314 144.101C26.7069 142.35 26.987 139.8 26.3307 137.606C25.6744 135.411 24.1905 133.547 22.4809 132.021C20.4701 130.233 18.1304 128.853 15.5923 127.958C14.6086 127.561 13.5505 127.381 12.4907 127.432C11.9621 127.462 11.4488 127.621 10.9956 127.895C10.5425 128.169 10.1632 128.549 9.89075 129.003C9.16343 130.387 9.86149 132.063 10.6139 133.434C11.9389 135.846 13.4511 138.151 15.1367 140.327C16.4952 142.074 18.0627 143.801 20.115 144.591C22.1674 145.381 24.3327 145.289 25.4278 143.855" fill="#EBEBEB"/>
<path id="Vector_14" d="M28.8688 170.586C28.9414 170.298 28.9834 170.004 28.9942 169.708C29.0569 169.064 29.1321 168.258 29.2283 167.3C29.3481 166.116 29.5281 164.938 29.7675 163.772C30.0816 162.347 30.5108 160.949 31.0508 159.592C31.5804 158.245 32.2966 156.979 33.1784 155.83C33.8993 154.897 34.8169 154.133 35.8661 153.594C36.5797 153.242 37.3443 153.005 38.1317 152.892C38.4281 152.88 38.7224 152.837 39.0095 152.762C38.7136 152.73 38.415 152.73 38.1192 152.762C37.3015 152.824 36.5015 153.032 35.7575 153.377C34.6495 153.899 33.6779 154.672 32.9192 155.634C31.9964 156.797 31.2525 158.092 30.7122 159.475C30.1728 160.848 29.7533 162.265 29.4582 163.71C29.2308 164.891 29.0731 166.084 28.9858 167.284C28.9106 168.308 28.8813 169.135 28.8688 169.708C28.838 170 28.838 170.294 28.8688 170.586Z" fill="#E0E0E0"/>
<path id="Vector_15" d="M29.0352 168.738C29.06 168.6 29.0684 168.46 29.0603 168.32C29.0603 168.011 29.0603 167.622 29.0603 167.15C29.0603 166.134 29.0603 164.663 29.1104 162.849C29.2024 159.22 29.5285 155.325 30.1178 149.811C30.6905 144.632 31.4554 138.609 32.2664 134.692C32.4377 133.802 32.6133 132.999 32.7805 132.297C32.9477 131.595 33.0689 130.984 33.1985 130.495C33.3281 130.006 33.3991 129.659 33.4744 129.358C33.5153 129.223 33.5391 129.082 33.5454 128.94C33.4825 129.062 33.4347 129.191 33.4033 129.325C33.3114 129.622 33.1985 129.99 33.0605 130.445C32.9226 130.901 32.7554 131.536 32.5799 132.234C32.4043 132.932 32.2036 133.735 32.0155 134.625C31.0114 139.257 30.2565 143.94 29.7542 148.653C29.1522 154.171 28.8805 159.195 28.8555 162.832C28.8555 164.65 28.8555 166.126 28.9182 167.141C28.9474 167.614 28.9725 168.003 28.9892 168.308C28.9872 168.453 29.0026 168.597 29.0352 168.738Z" fill="#E0E0E0"/>
<path id="Vector_16" d="M29.0609 159.049C29.0928 158.641 29.0928 158.232 29.0609 157.824C29.0149 157.038 28.9063 155.905 28.6847 154.514C28.4113 152.886 28.0457 151.276 27.5896 149.69C27.0624 147.738 26.3875 145.829 25.5706 143.98C24.1721 140.572 22.165 137.448 19.6476 134.759C19.2108 134.297 18.7444 133.864 18.2514 133.463C18.0383 133.279 17.8334 133.099 17.6579 132.957L17.1396 132.585C16.8142 132.337 16.4689 132.116 16.1071 131.925C16.0486 132.004 17.5659 132.899 19.4804 134.934C21.9155 137.648 23.8692 140.759 25.2571 144.13C26.0599 145.968 26.7372 147.857 27.2844 149.786C27.7441 151.357 28.1249 152.95 28.4256 154.56C28.6764 155.935 28.8436 157.068 28.9104 157.837C28.9283 158.244 28.9786 158.649 29.0609 159.049Z" fill="#E0E0E0"/>
<path id="Vector_17" d="M19.0449 174.666L20.0147 187.97H37.1067L38.0765 174.666H19.0449Z" fill="#EBEBEB"/>
<path id="Vector_18" d="M40.1128 169.424H17.3945V174.666H40.1128V169.424Z" fill="#EBEBEB"/>
<path id="Vector_19" d="M17.3945 187.46V188.911H18.4646H39.7408V187.46H17.3945Z" fill="#E0E0E0"/>
<path id="Vector_20" d="M19.5098 191.31L18.4648 188.752H38.9259L37.7054 191.31H19.5098Z" fill="#E0E0E0"/>
<path id="Vector_21" d="M37.7594 179.013C37.7381 179.058 37.7114 179.1 37.68 179.138C37.6131 179.226 37.5253 179.339 37.425 179.477L36.4302 180.731L36.3842 180.789L36.3424 180.731L33.8971 177.349H34.035L31.6274 180.756L31.5521 180.865L31.4685 180.764L28.6136 177.366H28.7766L28.6219 177.567L26.068 180.764L25.9802 180.873L25.9049 180.76L23.4931 177.353H23.6352L20.6674 180.731L20.6172 180.794L20.5754 180.723L19.6475 179.184C19.5472 179.017 19.4719 178.879 19.4092 178.766C19.3777 178.72 19.3524 178.669 19.334 178.616C19.3731 178.656 19.4068 178.701 19.4343 178.75L19.6976 179.147L20.6716 180.681H20.5796L23.5056 177.262L23.5767 177.174L23.6436 177.266L26.0763 180.66H25.9175L28.4631 177.454C28.5174 177.387 28.5718 177.32 28.6178 177.257L28.7014 177.153L28.785 177.253L31.6315 180.66H31.4727L33.9055 177.27L33.9765 177.17L34.0434 177.27C35.009 178.645 35.8283 179.811 36.4385 180.689H36.3508L37.3874 179.435C37.5003 179.306 37.5922 179.201 37.6633 179.113C37.6928 179.078 37.725 179.044 37.7594 179.013Z" fill="#F5F5F5"/>
<path id="Vector_22" d="M38.3152 174.578C38.3152 174.636 34.0307 174.686 28.7513 174.686C23.472 174.686 19.1875 174.636 19.1875 174.578C19.1875 174.519 23.4678 174.473 28.7513 174.473C34.0349 174.473 38.3152 174.519 38.3152 174.578Z" fill="#F5F5F5"/>
<path id="Vector_23" d="M158.181 23.7428L154.678 23.7617L154.772 41.1921L158.275 41.1731L158.181 23.7428Z" fill="#E0E0E0"/>
<path id="Vector_24" d="M133.403 23.7893L124.332 23.8384L124.384 33.4606L133.455 33.4115L133.403 23.7893Z" fill="#EBEBEB"/>
<path id="Vector_25" d="M142.432 23.7405L133.361 23.7896L133.413 33.4118L142.484 33.3627L142.432 23.7405Z" fill="#D2D2D2"/>
<path id="Vector_26" d="M124.342 26.5011C130.373 26.5513 136.406 26.5234 142.442 26.4175C142.467 26.4175 142.492 26.4074 142.51 26.3894C142.528 26.3713 142.538 26.3469 142.538 26.3214C142.538 26.2959 142.528 26.2714 142.51 26.2534C142.492 26.2354 142.467 26.2252 142.442 26.2252C136.414 26.1918 130.37 26.2252 124.342 26.3381C124.324 26.3423 124.307 26.3527 124.296 26.3675C124.284 26.3823 124.277 26.4007 124.277 26.4196C124.277 26.4386 124.284 26.4569 124.296 26.4717C124.307 26.4866 124.324 26.4969 124.342 26.5011Z" fill="#E0E0E0"/>
<path id="Vector_27" d="M135.159 33.2516L118.678 33.3408L118.72 41.1824L135.202 41.0932L135.159 33.2516Z" fill="#EBEBEB"/>
<path id="Vector_28" d="M151.562 33.1628L135.08 33.252L135.123 41.0935L151.604 41.0043L151.562 33.1628Z" fill="#D2D2D2"/>
<path id="Vector_29" d="M118.687 35.53C129.635 35.6512 140.62 35.53 151.571 35.367C151.597 35.367 151.621 35.3569 151.639 35.3388C151.657 35.3208 151.667 35.2964 151.667 35.2709C151.667 35.2454 151.657 35.2209 151.639 35.2029C151.621 35.1849 151.597 35.1747 151.571 35.1747C140.624 35.1162 129.635 35.1204 118.687 35.3628C118.665 35.3628 118.644 35.3716 118.628 35.3873C118.612 35.403 118.604 35.4242 118.604 35.4464C118.604 35.4686 118.612 35.4899 118.628 35.5055C118.644 35.5212 118.665 35.53 118.687 35.53Z" fill="#E0E0E0"/>
<path id="Vector_30" d="M176.375 41.1899H112.521V43.9989H176.375V41.1899Z" fill="#E0E0E0"/>
<path id="Vector_31" d="M125.568 42.54H122.977V52.1248H125.568V42.54Z" fill="#E0E0E0"/>
<path id="Vector_32" d="M164.262 42.54H161.67V52.1248H164.262V42.54Z" fill="#E0E0E0"/>
<path id="Vector_33" d="M161.598 17.2413L158.096 17.2603L158.225 41.2322L161.728 41.2132L161.598 17.2413Z" fill="#EBEBEB"/>
<path id="Vector_34" d="M167.069 21.7049L161.627 21.7344L161.732 41.1627L167.174 41.1333L167.069 21.7049Z" fill="#D2D2D2"/>
<path id="Vector_35" d="M167.034 25.4564C165.225 25.5842 163.409 25.5842 161.6 25.4564C163.409 25.3342 165.224 25.3342 167.034 25.4564Z" fill="#E0E0E0"/>
<path id="Vector_36" d="M167.034 24.6622C166.13 24.7537 165.221 24.7845 164.313 24.7542C163.405 24.7843 162.496 24.7536 161.592 24.6622C163.401 24.5345 165.217 24.5345 167.026 24.6622H167.034Z" fill="#E0E0E0"/>
<path id="Vector_37" d="M167.034 38.2177C165.225 38.3454 163.409 38.3454 161.6 38.2177C163.409 38.0954 165.224 38.0954 167.034 38.2177Z" fill="#E0E0E0"/>
<path id="Vector_38" d="M167.034 37.4025C165.224 37.5247 163.409 37.5247 161.6 37.4025C163.409 37.2747 165.225 37.2747 167.034 37.4025Z" fill="#E0E0E0"/>
<path id="Vector_39" d="M164.401 35.6218C164.35 35.6218 164.309 33.6614 164.309 31.2454C164.309 28.8293 164.35 26.8647 164.401 26.8647C164.451 26.8647 164.497 28.8252 164.497 31.2454C164.497 33.6656 164.455 35.6218 164.401 35.6218Z" fill="#E0E0E0"/>
<path id="Vector_40" d="M173.019 26.4844H167.096V41.1478H173.019V26.4844Z" fill="#EBEBEB"/>
<path id="Vector_41" d="M159.794 22.3507C160.351 22.3507 160.802 21.8997 160.802 21.3433C160.802 20.787 160.351 20.3359 159.794 20.3359C159.238 20.3359 158.787 20.787 158.787 21.3433C158.787 21.8997 159.238 22.3507 159.794 22.3507Z" fill="#E0E0E0"/>
<path id="Vector_42" d="M160.107 24.1143H159.484V38.3764H160.107V24.1143Z" fill="#E0E0E0"/>
</g>
<g id="freepik--Floor--inject-67">
<path id="Vector_43" d="M194.227 192.008C194.227 192.071 154.049 192.117 104.504 192.117C54.958 192.117 14.7715 192.071 14.7715 192.008C14.7715 191.945 54.9413 191.899 104.504 191.899C154.066 191.899 194.227 191.95 194.227 192.008Z" fill="#263238"/>
</g>
<g id="freepik--Character--inject-67">
<path id="Vector_44" d="M62.3699 38.6021C64.3411 41.0144 65.4085 44.0391 65.3879 47.1543C65.367 48.9183 65.041 50.862 66.0692 52.2957C66.8467 53.3825 68.2679 53.9301 68.8991 55.1089C69.6599 56.5259 69.012 58.3191 69.4801 59.8573C70.1406 62.0393 72.6987 62.9547 74.2161 64.656C74.8629 65.4083 75.3154 66.3077 75.534 67.2754C75.7526 68.2432 75.7307 69.2497 75.4701 70.207C75.1936 71.1603 74.6937 72.0339 74.0117 72.7551C73.3298 73.4763 72.4856 74.0243 71.5492 74.3536C70.5494 74.7477 69.4342 74.7297 68.4477 74.3034C67.4236 73.7935 66.7757 72.7443 66.2741 71.7202C65.2667 69.7054 56.4176 58.8165 55.916 56.6178" fill="#263238"/>
<path id="Vector_45" d="M55.9321 36.0357C52.3123 35.4505 48.8261 37.854 47.3088 41.1897C45.7915 44.5253 45.7413 48.2957 45.6368 51.9741C45.5323 55.6525 45.2648 59.4646 43.3963 62.6163C42.2092 64.6186 40.37 66.3783 40.0816 68.6815C39.8224 70.7464 40.8925 72.8281 40.5372 74.8805C40.2279 76.6695 38.8652 78.2245 38.9195 80.0344C38.9864 82.2164 41.2311 83.8591 43.4089 83.9176C45.5866 83.9761 47.6265 82.835 49.3361 81.4807C52.1215 79.2691 54.3504 76.4361 55.8444 73.2085" fill="#263238"/>
<path id="Vector_46" d="M49.9747 44.6632C49.861 43.7526 49.9313 42.8285 50.1816 41.9457C50.4319 41.0628 50.857 40.2392 51.4317 39.5238C52.0063 38.8084 52.7189 38.2157 53.527 37.781C54.3351 37.3462 55.2223 37.0782 56.136 36.9929C59.7851 36.6418 63.033 39.363 63.5806 42.9912C64.0613 46.1722 64.4709 49.3824 64.4584 50.5487C64.4124 54.064 62.3684 55.4309 61.5324 55.8447C61.2317 55.9526 60.9207 56.0297 60.6044 56.0746V56.0997L61.3819 60.1376C61.7372 62.7835 60.2617 65.1536 57.6199 65.5256C54.9781 65.8976 52.9007 63.8787 52.4952 61.2327L49.9747 44.6632Z" fill="#FFBE9D"/>
<path id="Vector_47" d="M62.8632 44.5295C62.8047 44.6131 62.3407 44.3665 61.7471 44.4543C61.1536 44.5421 60.7565 44.9015 60.6812 44.8388C60.606 44.7761 60.6812 44.6716 60.8652 44.5044C61.0937 44.2818 61.3859 44.1357 61.7012 44.0864C62.0105 44.0387 62.3269 44.0915 62.6041 44.2369C62.8131 44.3707 62.8925 44.4961 62.8632 44.5295Z" fill="#263238"/>
<path id="Vector_48" d="M57.5702 45.8169C57.5117 45.9005 57.0477 45.6497 56.45 45.7375C55.8523 45.8253 55.4635 46.1889 55.3883 46.1262C55.313 46.0635 55.3883 45.9548 55.5722 45.7918C55.8008 45.5692 56.0929 45.4231 56.4082 45.3738C56.7179 45.3297 57.0337 45.3838 57.3111 45.5285C57.5159 45.6581 57.5995 45.7793 57.5702 45.8169Z" fill="#263238"/>
<path id="Vector_49" d="M59.7395 49.0061C60.0385 48.8623 60.3546 48.757 60.68 48.6926C60.8305 48.655 60.9685 48.6049 60.981 48.4962C60.9675 48.3435 60.9093 48.1981 60.8138 48.0782L60.191 46.9663C59.3257 45.4113 58.6778 44.1239 58.7405 44.0863C58.8032 44.0487 59.5765 45.2901 60.4125 46.8451C60.6257 47.2296 60.8305 47.5975 61.0144 47.9444C61.1359 48.1144 61.195 48.3211 61.1816 48.5296C61.1679 48.5867 61.1411 48.6397 61.1034 48.6847C61.0656 48.7297 61.018 48.7653 60.9643 48.7888C60.8828 48.8244 60.7971 48.8497 60.7093 48.864C60.3936 48.9535 60.0676 49.0013 59.7395 49.0061Z" fill="#263238"/>
<path id="Vector_50" d="M60.5722 56.0788C60.5722 56.0788 58.3024 56.6013 55.1758 55.293C55.1758 55.293 56.5259 58.1981 60.7853 57.1656L60.5722 56.0788Z" fill="#EB996E"/>
<path id="Vector_51" d="M57.2656 44.2576C57.2321 44.4289 56.626 44.4373 55.9405 44.6254C55.255 44.8135 54.7158 45.081 54.6029 44.9514C54.5527 44.8887 54.628 44.7215 54.8328 44.5334C55.1086 44.2976 55.4345 44.1275 55.7857 44.0363C56.137 43.945 56.5044 43.9349 56.8601 44.0068C57.136 44.0695 57.2656 44.1781 57.2656 44.2576Z" fill="#263238"/>
<path id="Vector_52" d="M62.3738 43.2126C62.2902 43.363 61.8597 43.2836 61.3665 43.3463C60.8732 43.409 60.4678 43.572 60.3507 43.4425C60.3006 43.3798 60.3507 43.2376 60.5095 43.083C60.7288 42.8886 61.0038 42.7687 61.2954 42.7402C61.5833 42.7055 61.8749 42.7595 62.1314 42.8949C62.332 43.0077 62.4115 43.1373 62.3738 43.2126Z" fill="#263238"/>
<path id="Vector_53" d="M56.278 46.5858C56.2872 46.6504 56.3091 46.7127 56.3425 46.7688C56.376 46.8249 56.4202 46.8739 56.4727 46.9127C56.5252 46.9516 56.5849 46.9797 56.6484 46.9953C56.7118 47.011 56.7777 47.0138 56.8423 47.0038C56.905 46.9965 56.9657 46.9769 57.0209 46.946C57.076 46.9151 57.1244 46.8735 57.1633 46.8237C57.2022 46.7739 57.2308 46.7169 57.2474 46.656C57.2641 46.595 57.2685 46.5314 57.2603 46.4687C57.2407 46.3386 57.1703 46.2215 57.0645 46.1431C56.9587 46.0648 56.8262 46.0315 56.696 46.0507C56.633 46.0574 56.572 46.0767 56.5166 46.1074C56.4612 46.1381 56.4126 46.1797 56.3736 46.2296C56.3346 46.2795 56.306 46.3368 56.2896 46.398C56.2732 46.4592 56.2692 46.523 56.278 46.5858Z" fill="#263238"/>
<path id="Vector_54" d="M61.5495 45.4446C61.5691 45.5748 61.6395 45.6919 61.7453 45.7702C61.851 45.8486 61.9835 45.8818 62.1138 45.8626C62.1765 45.8554 62.2372 45.8358 62.2923 45.8049C62.3474 45.774 62.3959 45.7324 62.4348 45.6826C62.4737 45.6328 62.5023 45.5758 62.5189 45.5149C62.5356 45.4539 62.5399 45.3903 62.5318 45.3276C62.5122 45.1974 62.4417 45.0804 62.336 45.002C62.2302 44.9237 62.0977 44.8904 61.9675 44.9096C61.9045 44.9163 61.8435 44.9356 61.7881 44.9663C61.7327 44.997 61.684 45.0386 61.645 45.0885C61.606 45.1384 61.5775 45.1957 61.5611 45.2569C61.5446 45.318 61.5407 45.3819 61.5495 45.4446Z" fill="#263238"/>
<path id="Vector_55" d="M60.6765 50.1597C60.5124 50.1086 60.3356 50.1166 60.1768 50.1823C60.018 50.2479 59.8872 50.3671 59.8071 50.5192C59.7305 50.6588 59.6995 50.8188 59.7182 50.9769C59.7369 51.135 59.8045 51.2833 59.9116 51.4012C60.0255 51.5131 60.1755 51.5808 60.3348 51.5923C60.494 51.6038 60.6522 51.5583 60.781 51.4639C60.9422 51.317 61.0397 51.113 61.0527 50.8954C61.0811 50.6958 61.0333 50.4929 60.9189 50.3269C60.8602 50.2457 60.7764 50.1862 60.6804 50.1575C60.5845 50.1288 60.4817 50.1325 60.3881 50.1681" fill="#EB996E"/>
<path id="Vector_56" d="M63.1164 40.1279C62.7882 38.8035 61.9695 37.6531 60.8257 36.9093C59.8895 36.233 58.7773 35.8424 57.6238 35.7848C56.4631 35.7349 55.3299 36.1467 54.4721 36.9302C53.8634 37.5335 53.5153 38.3513 53.5024 39.2083L53.5692 38.6231C53.3936 39.0992 53.3936 39.6224 53.5692 40.0986C53.6654 40.3536 53.7824 40.6127 53.8827 40.8677C54.182 41.6045 54.7371 42.2086 55.446 42.569C55.7671 42.7412 56.1267 42.8289 56.491 42.824C56.6734 42.8203 56.8528 42.7769 57.0167 42.6967C57.1806 42.6166 57.325 42.5017 57.4399 42.36C57.6994 41.9069 57.78 41.373 57.6656 40.8635C57.9399 41.367 58.3313 41.7971 58.8068 42.1175C59.0495 42.2727 59.3383 42.3395 59.6245 42.3068C59.9108 42.274 60.177 42.1437 60.3784 41.9378C60.7212 41.5198 60.5875 40.8594 60.3784 40.341C60.7018 40.8299 61.1548 41.2192 61.6868 41.4655C61.8268 41.5458 61.9819 41.5961 62.1423 41.6134C62.3028 41.6307 62.4651 41.6145 62.6189 41.5658C62.7419 41.5048 62.8495 41.4166 62.9335 41.308C63.0175 41.1994 63.0757 41.0732 63.1038 40.9388C63.1659 40.6725 63.1701 40.396 63.1164 40.1279Z" fill="#263238"/>
<path id="Vector_57" d="M60.0945 41.2396C60.0569 41.2396 60.0653 40.7422 59.9022 39.9856C59.7142 38.9803 59.2088 38.0617 58.4601 37.3648C58.0487 36.9906 57.5523 36.7223 57.0139 36.5831C56.5729 36.4749 56.1137 36.4635 55.6679 36.5497C55.257 36.6457 54.8645 36.8081 54.5059 37.0304C54.5059 37.0304 54.5769 36.9259 54.7608 36.7921C55.0248 36.6075 55.3212 36.4742 55.6345 36.3992C56.1033 36.2895 56.5911 36.2895 57.0598 36.3992C57.6375 36.5434 58.1694 36.8309 58.6064 37.2352C59.3903 37.9609 59.9021 38.9329 60.0569 39.9898C60.1066 40.3023 60.1318 40.6181 60.1321 40.9345C60.1373 41.0376 60.1246 41.1409 60.0945 41.2396Z" fill="#455A64"/>
<path id="Vector_58" d="M98.5937 89.9742L82.5216 83.5997C82.5216 83.5997 74.2912 72.8028 74.4626 72.5938L68.6816 78.9223L77.0834 90.2877L96.5581 94.8523L99.9021 93.9243C99.1664 90.3755 98.5937 89.9742 98.5937 89.9742Z" fill="#FFBE9D"/>
<path id="Vector_59" d="M63.5644 59.1719L61.374 58.3359L51.9189 59.5356V61.2076L51.6472 61.241C49.609 61.6744 47.6541 62.4338 45.8579 63.4899C44.1753 64.517 42.8384 66.0239 42.0191 67.8168C41.1997 69.6097 40.9353 71.6068 41.2599 73.5511C41.6444 75.9421 42.3885 78.8472 43.8264 80.5276C46.5727 83.742 49.0807 79.771 49.0807 79.771C49.0807 79.771 50.8028 83.7002 50.7025 85.5603C50.6189 87.1194 49.9334 90.3631 49.7118 91.3747C49.7027 91.4151 49.702 91.4569 49.7096 91.4977C49.7172 91.5384 49.733 91.5772 49.7561 91.6116C49.7792 91.646 49.809 91.6754 49.8438 91.6979C49.8786 91.7204 49.9176 91.7356 49.9585 91.7425L69.9054 95.4334L70.0016 90.5554L69.3662 70.4914L68.4675 62.6999C68.4675 62.6999 68.4968 58.9797 63.5644 59.1719Z" fill="#ED6D2C"/>
<path id="Vector_60" d="M68.1621 61.4038L75.7697 72.393L69.646 79.8502L68.1621 61.4038Z" fill="#ED6D2C"/>
<path id="Vector_61" d="M69.8058 84.5279C69.7784 84.2921 69.7687 84.0546 69.7765 83.8173C69.7765 83.3241 69.7765 82.6762 69.7514 81.8861C69.7144 79.7658 69.5623 77.649 69.2958 75.5451C68.9823 73.0789 68.5016 70.876 68.1379 69.2751L67.6949 67.3941C67.6306 67.1666 67.5831 66.9346 67.5527 66.7002C67.6478 66.9174 67.7233 67.1426 67.7785 67.3732C67.908 67.7912 68.0836 68.4474 68.2842 69.2416C68.8239 71.304 69.2344 73.3981 69.5132 75.5116C69.7819 77.6243 69.9131 79.7522 69.9061 81.882C69.9061 82.718 69.8852 83.3617 69.8601 83.8173C69.8622 84.0553 69.8441 84.293 69.8058 84.5279Z" fill="#263238"/>
<path id="Vector_62" d="M51.0789 67.8204C51.0789 67.8538 50.5021 67.8496 49.5783 67.8956C48.373 67.961 47.1742 68.1161 45.9919 68.3596C44.8099 68.6076 43.6476 68.9415 42.5141 69.3586C41.6447 69.6805 41.1222 69.9187 41.1055 69.8853C41.2126 69.8013 41.3308 69.7324 41.4566 69.6805C41.6865 69.5551 42.0293 69.3962 42.4598 69.2165C44.7153 68.285 47.1258 67.7859 49.5658 67.7451C50.034 67.7451 50.4018 67.7451 50.6735 67.7702C50.8104 67.7658 50.9472 67.7827 51.0789 67.8204Z" fill="#FAFAFA"/>
<path id="Vector_63" d="M68.6985 72.8488C68.3927 72.9599 68.0737 73.0302 67.7496 73.0578C66.2039 73.2835 64.638 73.3368 63.0805 73.2167C62.7553 73.2111 62.4321 73.1633 62.1191 73.0746C62.4418 73.0459 62.7663 73.0459 63.0889 73.0746C63.6825 73.0746 64.5059 73.0746 65.413 73.0746C66.32 73.0746 67.1393 72.9826 67.7329 72.9283C68.0517 72.8726 68.3749 72.846 68.6985 72.8488Z" fill="#FAFAFA"/>
<path id="Vector_64" d="M72.188 67.8787C71.7273 68.4111 71.1752 68.8569 70.5578 69.1954C69.975 69.5894 69.3246 69.8728 68.6392 70.0314C68.6141 69.9729 69.4752 69.6134 70.445 68.9947C71.4147 68.3761 72.1462 67.8285 72.188 67.8787Z" fill="#FAFAFA"/>
<path id="Vector_65" d="M69.1151 62.7833C67.7963 63.9696 66.116 64.6765 64.3457 64.7897C64.3457 64.7228 65.4952 64.5473 66.8161 63.983C68.137 63.4187 69.0733 62.729 69.1151 62.7833Z" fill="#FAFAFA"/>
<path id="Vector_66" d="M69.5288 81.3596C69.4058 81.4422 69.274 81.5109 69.1358 81.5644C68.8725 81.6898 68.4921 81.8445 68.0072 82.0242C66.7475 82.4769 65.4471 82.8072 64.124 83.0107C62.801 83.2149 61.4612 83.2891 60.1238 83.2322C59.6096 83.2113 59.1958 83.1737 58.9116 83.1361C58.7627 83.1262 58.6155 83.0996 58.4727 83.0567C58.4727 83.019 59.108 83.0567 60.1447 83.0817C62.8023 83.1065 65.4464 82.7 67.9738 81.8779C68.9268 81.5644 69.5162 81.3261 69.5288 81.3596Z" fill="#FAFAFA"/>
<path id="Vector_67" d="M69.6831 87.0234C69.6831 87.0234 69.6246 87.0652 69.5034 87.1279L68.9684 87.362C68.5086 87.5794 67.8272 87.8636 66.9745 88.198C66.1218 88.5324 65.0893 88.8543 63.9273 89.172C61.401 89.8522 58.8079 90.2545 56.1943 90.3716C54.9904 90.4176 53.9078 90.4134 52.9966 90.3716C52.0853 90.3298 51.3538 90.2629 50.8481 90.1919L50.267 90.1125C50.1986 90.1075 50.1311 90.0934 50.0664 90.0707C50.1343 90.0599 50.2034 90.0599 50.2712 90.0707L50.8564 90.1083C51.3622 90.1501 52.1104 90.1919 53.0008 90.217C53.8911 90.242 54.9904 90.217 56.1859 90.1752C57.3814 90.1334 58.6939 89.9829 60.0608 89.7572C61.4276 89.5314 62.7151 89.2597 63.8771 88.9671C65.0392 88.6745 66.0674 88.3443 66.9202 88.0392C67.7729 87.734 68.4668 87.4791 68.9349 87.2868L69.4783 87.0736C69.5447 87.0498 69.6133 87.0329 69.6831 87.0234Z" fill="#FAFAFA"/>
<path id="Vector_68" d="M33.0213 175.886L30.7599 186.097L26.6343 193.659C26.5641 193.788 26.5212 193.93 26.5081 194.077C26.4951 194.223 26.5122 194.371 26.5585 194.51C26.6047 194.649 26.679 194.778 26.7769 194.888C26.8748 194.997 26.9941 195.086 27.1275 195.147C27.2824 195.218 27.452 195.251 27.6222 195.243C27.7923 195.235 27.9581 195.186 28.1056 195.101C30.0201 193.998 37.0466 189.889 37.1679 189.132C37.3142 188.259 40.2694 178.519 40.2694 178.519L33.0213 175.886Z" fill="#ED6D2C"/>
<g id="Group" opacity="0.6">
<path id="Vector_69" d="M27.127 195.147L37.3387 188.459L37.23 188.877C37.1407 189.25 36.9213 189.579 36.6114 189.805C35.7754 190.403 33.4471 192.008 28.1385 195.11C27.9861 195.199 27.814 195.249 27.6375 195.256C27.461 195.262 27.2856 195.225 27.127 195.147Z" fill="white"/>
</g>
<g id="Group_2" opacity="0.6">
<path id="Vector_70" d="M36.0568 184.66C35.9093 184.721 35.7897 184.835 35.7211 184.979C35.6524 185.124 35.6395 185.288 35.6848 185.441C35.7406 185.591 35.8514 185.713 35.9944 185.783C36.1375 185.853 36.3019 185.865 36.4539 185.818C36.6118 185.752 36.7396 185.63 36.8123 185.476C36.885 185.321 36.8973 185.145 36.8468 184.982C36.7728 184.834 36.6449 184.72 36.4895 184.663C36.334 184.606 36.1628 184.611 36.0108 184.676" fill="white"/>
</g>
<path id="Vector_71" d="M30.5387 191.277C30.3701 190.901 30.1334 190.559 29.8407 190.269C29.5035 190.034 29.1247 189.865 28.7246 189.772C28.7246 189.742 28.8709 189.696 29.1175 189.722C29.4384 189.763 29.7405 189.897 29.987 190.106C30.2354 190.308 30.4186 190.578 30.5136 190.884C30.5847 191.122 30.5638 191.277 30.5387 191.277Z" fill="#263238"/>
<path id="Vector_72" d="M29.4802 192.46C29.4217 192.493 29.1751 192.084 28.686 191.804C28.374 191.659 28.0529 191.534 27.7246 191.432C27.9051 191.372 28.097 191.357 28.2845 191.387C28.4721 191.417 28.6498 191.491 28.8031 191.603C29.359 191.925 29.5387 192.447 29.4802 192.46Z" fill="#263238"/>
<path id="Vector_73" d="M32.3112 189.864C31.9557 189.469 31.57 189.103 31.1575 188.769C30.7031 188.491 30.2279 188.25 29.7363 188.045C30.3017 188.034 30.8527 188.224 31.2913 188.58C31.7748 188.871 32.137 189.327 32.3112 189.864Z" fill="#263238"/>
<path id="Vector_74" d="M33.2604 186.816C33.2186 186.871 32.7128 186.499 32.0064 186.294C31.3 186.089 30.6604 186.123 30.6562 186.051C31.1215 185.931 31.6107 185.938 32.072 186.073C32.5333 186.208 32.9497 186.465 33.2771 186.816H33.2604Z" fill="#263238"/>
<path id="Vector_75" d="M33.9996 183.836C33.5919 183.584 33.1517 183.389 32.6913 183.255C32.2169 183.191 31.7361 183.191 31.2617 183.255C31.2617 183.23 31.3913 183.13 31.6588 183.05C32.0105 182.955 32.3796 182.943 32.7367 183.016C33.0938 183.088 33.4289 183.243 33.7154 183.468C33.9286 183.669 34.0163 183.82 33.9996 183.836Z" fill="#263238"/>
<path id="Vector_76" d="M32.8461 182.691C32.8464 182.558 32.8749 182.427 32.9297 182.306C33.0481 181.961 33.2359 181.644 33.4814 181.374C33.6421 181.16 33.8681 181.005 34.1252 180.931C34.2127 180.917 34.3025 180.929 34.383 180.966C34.4635 181.004 34.5309 181.064 34.5766 181.14C34.6534 181.296 34.6698 181.475 34.6226 181.642C34.5154 181.977 34.295 182.265 33.9991 182.455C33.7033 182.646 33.3503 182.728 33.0007 182.687C32.656 182.638 32.3335 182.488 32.0739 182.255C31.8143 182.023 31.6292 181.72 31.5419 181.383C31.5218 181.297 31.52 181.208 31.5366 181.121C31.5532 181.035 31.5877 180.953 31.6381 180.881C31.6958 180.814 31.7735 180.766 31.86 180.746C31.9464 180.726 32.037 180.733 32.1188 180.768C32.355 180.886 32.5567 181.063 32.704 181.282C32.9255 181.572 33.0939 181.899 33.2014 182.248C33.2523 182.372 33.2765 182.506 33.2724 182.641C33.1039 182.19 32.8686 181.767 32.5744 181.387C32.4374 181.208 32.2597 181.065 32.0561 180.969C32.0113 180.949 31.9614 180.945 31.9139 180.956C31.8665 180.967 31.8239 180.994 31.7927 181.031C31.7635 181.081 31.7447 181.135 31.7375 181.192C31.7303 181.249 31.7349 181.307 31.7509 181.362C31.8381 181.645 32.0036 181.899 32.2284 182.092C32.4532 182.286 32.7282 182.412 33.0216 182.457C33.3173 182.491 33.6159 182.424 33.8686 182.267C34.1214 182.11 34.3135 181.872 34.4136 181.592C34.4541 181.478 34.4541 181.354 34.4136 181.24C34.3899 181.198 34.3533 181.163 34.3091 181.142C34.2649 181.121 34.2151 181.115 34.167 181.123C33.9491 181.183 33.755 181.309 33.611 181.483C33.2904 181.84 33.0318 182.248 32.8461 182.691Z" fill="#263238"/>
<g id="Group_3" opacity="0.3">
<path id="Vector_77" d="M32.7449 176.993L32.2559 179.334L39.6503 180.563L40.2689 178.519L33.0083 175.886L32.7449 176.993Z" fill="black"/>
</g>
<path id="Vector_78" d="M66.0441 179.665L65.4339 187.824C65.4339 187.824 73.5263 191.168 73.5598 192.706L57.6758 192.092L58.0938 179.334L66.0441 179.665Z" fill="#ED6D2C"/>
<g id="Group_4" opacity="0.6">
<path id="Vector_79" d="M60.5633 186.946C60.4091 186.987 60.2755 187.084 60.1877 187.217C60.0998 187.35 60.064 187.511 60.0868 187.669C60.122 187.825 60.215 187.961 60.347 188.05C60.479 188.139 60.64 188.175 60.7974 188.15C60.9613 188.107 61.1033 188.004 61.196 187.862C61.2886 187.72 61.3253 187.548 61.299 187.381C61.2462 187.222 61.134 187.09 60.986 187.012C60.838 186.934 60.6655 186.917 60.5048 186.963" fill="white"/>
</g>
<g id="Group_5" opacity="0.6">
<path id="Vector_80" d="M57.6836 192.092L57.7756 190.804L72.9699 191.862C72.9699 191.862 73.6679 192.196 73.5676 192.698L57.6836 192.092Z" fill="white"/>
</g>
<path id="Vector_81" d="M65.7013 187.753C65.7013 187.832 65.3083 187.853 64.9196 188.087C64.5309 188.321 64.3135 188.639 64.2424 188.606C64.1714 188.572 64.3051 188.129 64.7817 187.853C65.2582 187.577 65.7222 187.682 65.7013 187.753Z" fill="#263238"/>
<path id="Vector_82" d="M67.34 188.518C67.34 188.597 67.014 188.714 66.7381 189.032C66.4622 189.35 66.3744 189.692 66.295 189.688C66.2156 189.684 66.1863 189.241 66.5374 188.852C66.8886 188.463 67.34 188.434 67.34 188.518Z" fill="#263238"/>
<path id="Vector_83" d="M68.209 190.537C68.138 190.537 68.046 190.157 68.2592 189.743C68.4724 189.329 68.8444 189.17 68.8736 189.237C68.9029 189.304 68.673 189.521 68.5016 189.864C68.3302 190.207 68.2843 190.533 68.209 190.537Z" fill="#263238"/>
<path id="Vector_84" d="M65.626 185.88C65.5925 185.947 65.2414 185.826 64.79 185.839C64.3385 185.851 64.0041 185.976 63.954 185.91C63.9038 185.843 64.2549 185.579 64.79 185.571C65.325 185.563 65.6761 185.822 65.626 185.88Z" fill="#263238"/>
<g id="Group_6" opacity="0.3">
<path id="Vector_85" d="M65.9298 181.282L65.8211 182.737L58.0254 182.361L58.0797 180.68L65.9298 181.282Z" fill="black"/>
</g>
<path id="Vector_86" d="M65.7303 184.229C65.4676 184.293 65.1925 184.281 64.9361 184.196C64.6463 184.136 64.3654 184.039 64.1001 183.908C63.9453 183.831 63.7959 183.745 63.6528 183.648C63.5656 183.595 63.4867 183.529 63.4187 183.452C63.3726 183.392 63.3477 183.319 63.3477 183.243C63.3477 183.167 63.3726 183.094 63.4187 183.034C63.4594 182.981 63.5121 182.939 63.5724 182.91C63.6328 182.882 63.699 182.868 63.7657 182.871C63.8663 182.875 63.9661 182.892 64.0625 182.921C64.2297 182.97 64.3921 183.034 64.5473 183.113C64.8113 183.242 65.0527 183.413 65.2621 183.619C65.6174 183.974 65.7303 184.271 65.7052 184.284C65.6801 184.296 65.5004 184.058 65.1367 183.761C64.9232 183.594 64.6902 183.454 64.4428 183.343C64.2954 183.282 64.1447 183.229 63.9914 183.184C63.8242 183.134 63.6821 183.13 63.6361 183.184C63.5901 183.239 63.6361 183.226 63.6361 183.276C63.6862 183.332 63.7439 183.379 63.8075 183.418C63.9416 183.512 64.0812 183.597 64.2255 183.673C64.4665 183.806 64.7199 183.916 64.9821 183.999C65.2366 184.058 65.4867 184.135 65.7303 184.229Z" fill="#263238"/>
<path id="Vector_87" d="M65.6254 184.338C65.4865 184.104 65.4237 183.832 65.4457 183.561C65.4473 183.266 65.4953 182.974 65.5878 182.695C65.6478 182.532 65.7219 182.374 65.8093 182.223C65.8563 182.12 65.929 182.03 66.0205 181.963C66.112 181.895 66.2192 181.852 66.3318 181.838C66.4032 181.843 66.4718 181.868 66.5295 181.91C66.5873 181.952 66.6318 182.01 66.6579 182.077C66.6942 182.17 66.7167 182.269 66.7248 182.369C66.7522 182.547 66.7522 182.727 66.7248 182.904C66.6689 183.2 66.5411 183.477 66.3527 183.711C66.0267 184.129 65.7007 184.192 65.6923 184.167C65.6839 184.142 65.9431 183.987 66.1981 183.598C66.3444 183.377 66.44 183.125 66.4781 182.862C66.4993 182.71 66.4993 182.555 66.4781 182.403C66.4572 182.235 66.3987 182.093 66.336 182.11C66.2733 182.127 66.1187 182.227 66.0476 182.361C65.966 182.495 65.8947 182.634 65.8344 182.779C65.7377 183.031 65.6758 183.296 65.6505 183.565C65.5962 184.033 65.6672 184.338 65.6254 184.338Z" fill="#263238"/>
<path id="Vector_88" d="M49.6242 91.6673C49.6242 91.6673 47.1162 91.7802 45.4442 100.358C43.7722 108.935 31.0273 178.436 31.0273 178.436L40.2693 178.519L57.6832 112.442L56.5253 180.576L65.9136 181.295C65.9136 181.295 72.9569 105.934 73.0196 101.549C73.1032 96.0814 69.964 90.5513 69.964 90.5513L49.6242 91.6673Z" fill="#263238"/>
<path id="Vector_89" d="M62.3264 90.9356C62.3849 90.9356 61.4235 95.8471 60.1821 101.879C58.9406 107.911 57.8872 112.793 57.8287 112.78C57.7702 112.768 58.7274 107.869 59.9689 101.837C61.2103 95.8053 62.2804 90.923 62.3264 90.9356Z" fill="#455A64"/>
<path id="Vector_90" d="M63.7659 92.1603C63.7659 92.1353 64.0167 92.06 64.3051 92.315C64.3871 92.3893 64.4519 92.4804 64.4952 92.5822C64.5385 92.6839 64.5592 92.7938 64.5559 92.9044C64.5455 93.0441 64.4955 93.1781 64.4119 93.2905C64.3283 93.403 64.2144 93.4894 64.0836 93.5397C63.956 93.5977 63.8146 93.6186 63.6757 93.6001C63.5368 93.5816 63.4058 93.5245 63.2977 93.4352C63.2169 93.3594 63.1531 93.2673 63.1106 93.165C63.0681 93.0626 63.0478 92.9524 63.0511 92.8417C63.0511 92.4571 63.3103 92.3234 63.3145 92.3484C63.244 92.5019 63.2069 92.6686 63.2058 92.8375C63.2114 92.9224 63.2339 93.0053 63.2719 93.0814C63.31 93.1574 63.3628 93.2252 63.4273 93.2806C63.5098 93.3374 63.6052 93.3726 63.7049 93.383C63.8045 93.3933 63.9051 93.3784 63.9975 93.3397C64.0899 93.301 64.1711 93.2397 64.2336 93.1615C64.2961 93.0832 64.338 92.9905 64.3553 92.8918C64.3614 92.8071 64.3506 92.7221 64.3233 92.6417C64.296 92.5613 64.2529 92.4871 64.1965 92.4237C63.9916 92.1854 63.7617 92.1938 63.7659 92.1603Z" fill="#455A64"/>
<path id="Vector_91" d="M63.3678 95.5549C63.3678 95.5298 63.627 95.5549 63.7858 95.9018C63.8262 96.0008 63.8445 96.1075 63.8395 96.2143C63.8344 96.3212 63.8061 96.4257 63.7566 96.5204C63.6847 96.6331 63.5835 96.7241 63.4638 96.7836C63.3441 96.843 63.2105 96.8688 63.0772 96.858C62.944 96.8473 62.8162 96.8005 62.7076 96.7226C62.599 96.6447 62.5137 96.5387 62.4608 96.4159C62.4274 96.3152 62.4164 96.2084 62.4287 96.1029C62.441 95.9975 62.4762 95.896 62.5318 95.8057C62.7283 95.4922 62.9958 95.5005 62.9875 95.5256C62.9791 95.5507 62.7868 95.6092 62.6656 95.8767C62.6043 96.0267 62.6043 96.1949 62.6656 96.3449C62.7092 96.4278 62.7732 96.4984 62.8514 96.55C62.9296 96.6016 63.0196 96.6326 63.1131 96.6402C63.2065 96.6477 63.3003 96.6314 63.3858 96.593C63.4712 96.5545 63.5456 96.495 63.6019 96.4201C63.6807 96.2772 63.7002 96.1091 63.6563 95.952C63.535 95.6677 63.3469 95.5841 63.3678 95.5549Z" fill="#455A64"/>
<path id="Vector_92" d="M54.51 92.2438C54.4928 92.3874 54.4563 92.5281 54.4013 92.6618C54.2708 93.0446 54.1071 93.4152 53.9123 93.7695C53.2745 94.952 52.3534 95.9578 51.2314 96.6968C50.1094 97.4358 48.8216 97.8849 47.4834 98.0039C47.0815 98.0389 46.6773 98.0389 46.2754 98.0039C46.1338 97.9994 45.9934 97.9769 45.8574 97.937C45.8574 97.8952 46.4886 97.9663 47.4876 97.8409C48.7897 97.6829 50.0373 97.225 51.1325 96.5034C52.2277 95.7817 53.1406 94.8159 53.7994 93.6818C54.2885 92.8374 54.4724 92.2313 54.51 92.2438Z" fill="#455A64"/>
<path id="Vector_93" d="M72.4938 98.3428C72.4938 98.3428 72.3851 98.2927 72.2137 98.1756C71.9743 98.0034 71.7505 97.8104 71.5449 97.5988C70.8575 96.9029 70.3211 96.0726 69.9694 95.1599C69.6177 94.2471 69.4582 93.2716 69.5009 92.2944C69.5105 92.0002 69.5483 91.7077 69.6138 91.4208C69.6598 91.2159 69.689 91.1073 69.7057 91.1114C69.7225 91.1156 69.6556 91.5671 69.6556 92.2986C69.6563 94.2187 70.3698 96.0702 71.6578 97.4943C72.1469 98.0335 72.5147 98.3094 72.4938 98.3428Z" fill="#455A64"/>
<path id="Vector_94" d="M104.917 98.585C105.055 98.2506 105.018 98.3844 102.802 96.913C102.802 96.913 105.979 99.003 105.649 98.0082C105.363 97.6313 105.014 97.3074 104.616 97.051C105.452 97.5442 105.937 97.5985 106.084 97.3979C106.334 97.051 104.516 95.7259 103.651 95.1282C104.442 95.6941 105.272 96.2039 106.134 96.6539C106.648 96.8127 106.401 96.2108 106.054 95.7719C105.707 95.333 103.016 92.7414 102.292 91.9681C102.224 91.9092 102.168 91.8362 102.13 91.7539C102.092 91.6716 102.073 91.5821 102.073 91.4916C102.073 91.401 102.092 91.3115 102.13 91.2293C102.168 91.147 102.224 91.0739 102.292 91.0151C103.588 90.1791 104.157 88.8456 104.14 88.4067C104.126 88.3079 104.08 88.2162 104.01 88.1448C103.941 88.0733 103.85 88.0258 103.752 88.0091C103.653 87.9924 103.552 88.0073 103.462 88.0517C103.373 88.0961 103.3 88.1677 103.254 88.2562C102.927 88.6628 102.546 89.0228 102.121 89.3263C101.792 89.5831 101.421 89.7824 101.026 89.9157C100.566 90.0662 98.3046 89.9408 97.8198 89.6942L96.2773 94.9233C96.2773 94.9233 101.874 97.54 102.936 98.05C104.24 98.6686 104.821 98.84 104.917 98.585Z" fill="#FFBE9D"/>
<path id="Vector_95" d="M101.795 96.1399C101.749 96.2026 102.476 96.7335 103.417 97.3312C104.357 97.929 105.147 98.3595 105.185 98.2968C105.223 98.2341 104.495 97.6991 103.559 97.1055C102.623 96.512 101.837 96.0605 101.795 96.1399Z" fill="#EB996E"/>
<path id="Vector_96" d="M102.322 95.1159C102.28 95.1786 103.024 95.7888 103.994 96.4827C104.964 97.1766 105.766 97.6907 105.808 97.6322C105.85 97.5737 105.11 96.9592 104.136 96.2654C103.162 95.5715 102.368 95.0573 102.322 95.1159Z" fill="#EB996E"/>
<path id="Vector_97" d="M102.877 94.0789C102.835 94.1375 103.529 94.731 104.428 95.3998C105.326 96.0686 106.1 96.5618 106.133 96.5033C106.166 96.4448 105.485 95.8513 104.586 95.1825C103.688 94.5137 102.923 94.0204 102.877 94.0789Z" fill="#EB996E"/>
<path id="Vector_98" d="M45.9508 75.1395L50.0556 75.3653C50.3463 76.5112 50.7351 77.63 51.2176 78.7093C54.524 72.9743 57.0696 65.2873 57.7217 62.1983C57.6297 61.8945 57.5169 61.5518 57.3831 61.17C57.283 60.5929 57.3 60.0015 57.4333 59.4311C57.5461 58.7456 57.7384 57.8176 57.7928 57.3913C57.9725 56.0871 58.1815 55.8781 58.6288 56.0286C59.2474 56.2292 58.3738 59.6944 58.8796 59.7697C59.1554 59.8073 59.4857 58.6202 59.586 57.6462C59.6863 56.6723 60.121 53.6794 60.4429 53.4662C60.9152 53.1736 61.3249 53.6376 61.2078 54.6074C61.0908 55.5771 60.9361 58.5157 61.4503 58.5533C61.9644 58.5909 62.3824 53.6251 62.3824 53.6251C62.3824 53.6251 62.303 52.5466 62.8965 52.5717C63.9708 52.6177 63.1348 57.8552 63.0428 58.3527C62.976 58.6954 63.5361 58.7707 63.5862 58.3861C63.6364 58.0015 63.8956 53.4161 64.9865 53.4537C65.8225 53.483 64.3386 57.7675 64.811 58.7623C65.2833 59.7571 65.6094 55.389 66.4119 55.4476C66.7087 55.4726 66.9302 55.5312 66.3827 58.0015C65.8483 59.9659 65.2078 61.8999 64.464 63.795C63.21 70.6502 57.613 92.5785 48.8685 88.5657C43.9779 86.321 41.6914 75.1897 41.6914 75.1897L45.9508 75.1395Z" fill="#FFBE9D"/>
<path id="Vector_99" d="M64.4723 63.8327C64.4795 63.7809 64.4935 63.7303 64.5141 63.6822C64.5517 63.5736 64.5977 63.4314 64.6604 63.2642C64.7983 62.8671 64.9864 62.3154 65.233 61.5922C65.4796 60.8691 65.7764 59.9913 66.069 58.9547C66.2195 58.4405 66.3449 57.8804 66.4578 57.2827C66.5163 56.9817 66.5706 56.6724 66.6083 56.3547C66.6187 56.1974 66.6187 56.0396 66.6083 55.8824C66.6083 55.7193 66.5706 55.5856 66.441 55.5814C66.3115 55.5772 66.2195 55.6566 66.1275 55.7946C66.0443 55.9422 65.9757 56.0976 65.9227 56.2586C65.8057 56.5888 65.7137 56.9399 65.6218 57.2952C65.5298 57.6505 65.4462 58.0225 65.3375 58.3987C65.2901 58.6048 65.2051 58.8003 65.0867 58.9756C65.057 59.0099 65.0177 59.0346 64.9739 59.0466C64.9463 59.0527 64.9177 59.0524 64.8902 59.0459C64.8627 59.0394 64.837 59.0268 64.815 59.009C64.767 58.9649 64.7273 58.9125 64.698 58.8543C64.6538 58.7517 64.6243 58.6433 64.6102 58.5325C64.5912 57.6894 64.6754 56.8471 64.861 56.0245C64.9321 55.6065 65.0073 55.1885 65.0616 54.7705C65.0867 54.5573 65.1118 54.3525 65.116 54.1268C65.1202 53.901 65.0867 53.6628 64.9989 53.6252C64.9112 53.5875 64.698 53.7046 64.5809 53.8801C64.4654 54.0656 64.3741 54.2651 64.3093 54.4737C64.1667 54.9103 64.0591 55.3576 63.9874 55.8113C63.908 56.2711 63.8453 56.7393 63.7909 57.2158C63.77 57.454 63.7449 57.6923 63.724 57.9347L63.6906 58.2984C63.6951 58.3761 63.6824 58.4538 63.6535 58.526C63.6246 58.5982 63.5802 58.6632 63.5234 58.7164C63.4518 58.7687 63.3655 58.7969 63.2768 58.7969C63.1881 58.7969 63.1018 58.7687 63.0302 58.7164C62.9896 58.6896 62.9553 58.6545 62.9293 58.6134C62.9034 58.5724 62.8864 58.5262 62.8797 58.4781C62.8733 58.4338 62.8733 58.3887 62.8797 58.3444V58.2566L62.9925 57.5251C63.0636 57.0319 63.1221 56.5386 63.1681 56.037C63.2141 55.5354 63.2517 55.0296 63.2601 54.5239C63.2846 54.0231 63.2338 53.5215 63.1096 53.0358C63.0808 52.9125 63.006 52.8049 62.9006 52.7348C62.8502 52.7186 62.7959 52.7188 62.7456 52.7353C62.6953 52.7518 62.6515 52.7838 62.6205 52.8268C62.4852 53.0742 62.4297 53.3575 62.4617 53.6377C62.3697 54.62 62.2652 55.5856 62.1231 56.5344C62.052 57.0068 61.9726 57.4791 61.8556 57.9431C61.8221 58.056 61.7887 58.173 61.7469 58.29C61.7072 58.4319 61.6238 58.5576 61.5086 58.6495C61.4577 58.6745 61.3998 58.6815 61.3444 58.6694C61.289 58.6572 61.2393 58.6267 61.2035 58.5826C61.1525 58.529 61.1139 58.4648 61.0906 58.3945C61.0456 58.2786 61.0133 58.158 60.9945 58.0351C60.8965 57.1254 60.8881 56.2084 60.9694 55.2972C61.0312 54.8724 61.055 54.4429 61.0405 54.0139C61.027 53.8308 60.9431 53.66 60.8064 53.5374C60.7743 53.5174 60.7385 53.5042 60.7012 53.4984C60.6638 53.4927 60.6257 53.4946 60.589 53.5039C60.55 53.5171 60.5122 53.5339 60.4762 53.5541C60.4386 53.5875 60.4427 53.5541 60.4177 53.6252C60.2665 54.0011 60.1558 54.392 60.0874 54.7914C60.0038 55.2094 59.9328 55.5898 59.8701 55.9827C59.8074 56.3756 59.7489 56.7602 59.6987 57.1447C59.6486 57.5293 59.6235 57.9055 59.5482 58.2817C59.4833 58.6492 59.3853 59.0101 59.2556 59.3601C59.2212 59.4492 59.1807 59.5358 59.1344 59.6193C59.0759 59.6987 59.0424 59.799 58.8836 59.8492C58.843 59.8566 58.801 59.8519 58.7631 59.8355C58.7251 59.8191 58.6929 59.7919 58.6704 59.7572C58.6412 59.709 58.6187 59.6569 58.6035 59.6026C58.5848 59.5117 58.5736 59.4194 58.5701 59.3267C58.5701 58.6119 58.6662 57.9598 58.7039 57.3286C58.7311 57.0269 58.7311 56.7233 58.7039 56.4216C58.7039 56.2878 58.6412 56.129 58.5659 56.0997C58.5132 56.0739 58.4553 56.0604 58.3966 56.0604C58.338 56.0604 58.28 56.0739 58.2274 56.0997C58.0519 56.2881 57.9432 56.529 57.918 56.7852C57.8553 57.0402 57.8303 57.2994 57.7843 57.546C57.6087 58.5325 57.4248 59.3852 57.337 60.0791C57.2958 60.3842 57.2958 60.6935 57.337 60.9987C57.3955 61.2495 57.4833 61.4752 57.5293 61.6508C57.5753 61.8263 57.6212 61.9517 57.6505 62.0688C57.6661 62.1136 57.6773 62.1597 57.6839 62.2067C57.6589 62.1662 57.6392 62.1227 57.6254 62.0771L57.4833 61.6591C57.4248 61.4794 57.337 61.2787 57.2659 61.0029C57.2212 60.6896 57.2212 60.3715 57.2659 60.0582C57.3454 59.3518 57.5126 58.5074 57.6839 57.5167C57.7299 57.2701 57.755 57.011 57.8094 56.7434C57.8393 56.6021 57.877 56.4626 57.9222 56.3254C57.964 56.1734 58.0552 56.0396 58.1814 55.9451C58.2573 55.9048 58.342 55.8837 58.428 55.8837C58.514 55.8837 58.5986 55.9048 58.6746 55.9451C58.7563 55.9966 58.8235 56.0682 58.8696 56.1531C58.9157 56.238 58.9392 56.3333 58.9379 56.4299C58.9672 56.7441 58.9672 57.0604 58.9379 57.3746C58.9087 58.01 58.8084 58.6746 58.8251 59.3518C58.8281 59.4319 58.8379 59.5116 58.8544 59.59C58.8544 59.6694 58.9129 59.7029 58.9045 59.6862C58.8961 59.6694 58.9839 59.6193 59.0174 59.5524C59.0586 59.4782 59.0949 59.4014 59.126 59.3225C59.2499 58.9837 59.3408 58.6337 59.3978 58.2775C59.4688 57.9138 59.4939 57.5376 59.544 57.1489C59.5942 56.7602 59.6444 56.3756 59.7071 55.9785C59.7698 55.5814 59.8408 55.1843 59.9203 54.7788C59.9882 54.3554 60.1061 53.9415 60.2714 53.5457C60.3048 53.4794 60.3553 53.4231 60.4177 53.3827C60.4732 53.3523 60.5321 53.3284 60.5932 53.3117C60.6633 53.2916 60.7369 53.2868 60.809 53.2977C60.8811 53.3085 60.9501 53.3346 61.0112 53.3744C61.1082 53.4514 61.1883 53.5475 61.2466 53.6568C61.3048 53.7661 61.34 53.8863 61.3498 54.0097C61.3812 54.2371 61.3812 54.4678 61.3498 54.6952C61.3289 54.9084 61.308 55.1132 61.2955 55.3473C61.214 56.2376 61.2224 57.1339 61.3205 58.0225C61.3384 58.1281 61.3664 58.2316 61.4041 58.3318C61.4167 58.3723 61.4381 58.4094 61.4668 58.4405C61.4668 58.4405 61.4669 58.4405 61.4878 58.4405C61.4878 58.5367 61.4878 58.4405 61.4878 58.4781C61.4878 58.5158 61.4878 58.4781 61.4878 58.4447C61.5399 58.3749 61.5808 58.2973 61.609 58.2148C61.648 58.1117 61.6814 58.003 61.7093 57.8888C61.8222 57.4457 61.8974 56.9775 61.9684 56.5094C62.1106 55.5689 62.2151 54.6033 62.3028 53.6252V53.6461C62.2657 53.3015 62.3404 52.9542 62.516 52.6554C62.5831 52.57 62.675 52.5076 62.7792 52.4769C62.8833 52.4462 62.9944 52.4487 63.097 52.484C63.1847 52.5327 63.2617 52.5984 63.3235 52.6774C63.3852 52.7564 63.4305 52.847 63.4565 52.9438C63.5904 53.4578 63.6454 53.9892 63.6195 54.5197C63.6195 55.038 63.5736 55.548 63.5276 56.0537C63.4816 56.5595 63.4189 57.0569 63.3478 57.5502C63.3102 57.801 63.2726 58.0434 63.235 58.29C63.2015 58.4447 63.2099 58.4489 63.235 58.4949C63.264 58.5144 63.2982 58.5249 63.3332 58.5249C63.3682 58.5249 63.4024 58.5144 63.4314 58.4949C63.4816 58.4572 63.49 58.3862 63.5025 58.2482L63.5318 57.8846L63.607 57.1614C63.6572 56.6849 63.724 56.2084 63.8035 55.7444C63.8808 55.2784 63.9926 54.8187 64.1379 54.3692C64.2138 54.142 64.3162 53.9245 64.443 53.7213C64.5121 53.6118 64.6032 53.5178 64.7105 53.4454C64.7701 53.4023 64.8392 53.3741 64.9119 53.3632C64.9846 53.3523 65.0589 53.359 65.1285 53.3827C65.1926 53.4222 65.2466 53.476 65.2865 53.5398C65.3264 53.6036 65.351 53.6757 65.3584 53.7506C65.3757 53.8682 65.3827 53.987 65.3793 54.1059C65.3793 54.3358 65.3501 54.5573 65.325 54.7788C65.2665 55.1968 65.187 55.6399 65.1118 56.0621C64.9323 56.8561 64.8453 57.6683 64.8526 58.4823C64.8644 58.5697 64.8869 58.6554 64.9195 58.7373C64.9347 58.767 64.9529 58.795 64.9739 58.8209C64.9739 58.8209 64.9739 58.8209 64.9739 58.7916C65.0677 58.6405 65.1369 58.4755 65.1787 58.3026C65.2874 57.9389 65.3751 57.5711 65.4713 57.2116C65.5575 56.8539 65.6621 56.5009 65.7848 56.1541C65.8427 55.9822 65.9183 55.8169 66.0105 55.6608C66.0604 55.5757 66.1256 55.5006 66.2028 55.4393C66.2448 55.4028 66.295 55.377 66.3491 55.364C66.4031 55.3556 66.4581 55.3556 66.5121 55.364C66.5691 55.3697 66.6236 55.3906 66.6699 55.4244C66.7162 55.4582 66.7527 55.5037 66.7754 55.5563C66.8104 55.6442 66.8288 55.7377 66.8298 55.8322C66.833 56.0013 66.8233 56.1704 66.8005 56.338C66.7629 56.664 66.7002 56.9733 66.6417 57.2785C66.5205 57.8762 66.3867 58.4447 66.2237 58.9505C65.9102 59.9871 65.5967 60.8649 65.3417 61.5797C65.0867 62.2945 64.8694 62.8337 64.7231 63.2183C64.652 63.3938 64.5935 63.5318 64.5517 63.6363C64.533 63.7046 64.5063 63.7706 64.4723 63.8327Z" fill="#EB996E"/>
<path id="Vector_100" d="M41.6523 75.6119C42.4465 78.4167 44.0015 82.743 45.6693 87.3159C45.7219 87.4633 45.817 87.5917 45.9426 87.6849C46.0683 87.7781 46.2187 87.8319 46.375 87.8395C46.5312 87.8471 46.6862 87.8082 46.8203 87.7276C46.9544 87.6471 47.0615 87.5285 47.1281 87.387L51.2162 78.7386C51.2162 78.7386 50.2297 71.6326 50.3133 71.8876C50.3969 72.1425 41.8781 72.8072 41.8781 72.8072L41.6523 75.6119Z" fill="#ED6D2C"/>
<path id="Vector_101" d="M50.8654 74.2199C50.8654 74.2533 50.3554 74.4038 49.5487 74.7131C48.4944 75.1133 47.4786 75.6086 46.514 76.1928C45.5507 76.7798 44.6414 77.4513 43.797 78.1992C43.1491 78.7719 42.7771 79.1648 42.752 79.1397C42.7269 79.1147 42.8231 79.0227 42.9819 78.8346C43.2058 78.5732 43.443 78.3235 43.6925 78.0864C44.5164 77.293 45.4247 76.5922 46.4011 75.9964C47.3779 75.4079 48.4148 74.9258 49.4943 74.5585C49.8207 74.4461 50.1527 74.3512 50.4892 74.2742C50.6109 74.2362 50.7379 74.2178 50.8654 74.2199Z" fill="#FAFAFA"/>
<path id="Vector_102" d="M52.4883 76.3767C52.2226 76.1089 51.9923 75.8083 51.8027 75.4822C51.3146 74.7211 50.8949 73.9182 50.5487 73.0829C50.2023 72.2451 49.9323 71.3777 49.742 70.4913C49.6446 70.1287 49.5954 69.7548 49.5957 69.3794C49.7204 69.7299 49.8196 70.0889 49.8925 70.4537C50.1164 71.3192 50.3957 72.1695 50.7285 72.9993C51.0762 73.8247 51.4755 74.6275 51.924 75.4028C52.1327 75.715 52.3212 76.0403 52.4883 76.3767Z" fill="#263238"/>
<path id="Vector_103" d="M55.212 38.0796C54.5028 39.2484 54.0632 40.5606 53.9251 41.9208C53.787 43.2809 53.9539 44.6547 54.4136 45.9422C54.8316 47.0917 55.5004 48.2245 55.3792 49.445C55.258 50.6656 54.3049 51.8736 54.6393 53.0774C54.84 53.7922 55.4502 54.3314 55.6885 55.0253C55.9602 55.8613 55.6885 56.7433 55.5422 57.6002C55.2078 59.7905 55.91 61.9934 56.0814 64.2004C56.2528 66.4075 55.6634 68.9949 53.6905 69.9563C53.0927 70.2489 52.3111 70.3325 51.8136 69.8852C51.1783 69.3209 51.3538 68.301 51.5294 67.465C53.2599 59.105 47.9137 50.9456 49.1343 42.4853C49.3307 41.131 50.0873 38.832 51.0612 37.8873C52.0352 36.9426 54.7396 37.0513 55.6592 38.0545" fill="#263238"/>
<path id="Vector_104" d="M46.9785 62.3318C46.9785 62.3318 47.2335 62.0308 47.6097 61.4373C48.1376 60.599 48.5074 59.671 48.7007 58.6994C48.8268 58.0301 48.8703 57.3478 48.8303 56.6679C48.7571 55.8773 48.7278 55.0833 48.7425 54.2895C48.7674 53.8547 48.8475 53.4249 48.9807 53.0104C49.1335 52.5833 49.3267 52.1718 49.5576 51.7815C50.0257 50.9914 50.6151 50.2558 51.1585 49.4699C51.7165 48.7272 52.1046 47.8711 52.2955 46.9619C52.3881 46.1056 52.3387 45.2398 52.1492 44.3996C51.991 43.6187 51.9293 42.8213 51.9653 42.0253C52.015 41.3301 52.1555 40.6443 52.3833 39.9855C52.7026 39.0295 53.2052 38.145 53.863 37.3814C54.0377 37.1738 54.2277 36.9796 54.4315 36.8003C54.496 36.7315 54.5691 36.6711 54.6488 36.6206C54.6488 36.6206 54.3688 36.8923 53.9257 37.4566C52.8704 38.7665 52.2533 40.375 52.1617 42.0546C52.1337 42.8376 52.2025 43.621 52.3665 44.387C52.5659 45.2499 52.6196 46.1399 52.5254 47.0204C52.3272 47.9549 51.9278 48.835 51.355 49.5995C50.8074 50.3979 50.218 51.1294 49.7582 51.8985C49.5321 52.2744 49.3444 52.6721 49.1981 53.0856C49.0659 53.4832 48.9858 53.8963 48.9598 54.3145C48.9413 55.0996 48.9637 55.8851 49.0267 56.6679C49.0599 57.3615 49.0066 58.0566 48.8679 58.737C48.6584 59.7219 48.261 60.6572 47.6975 61.4916C47.5449 61.7172 47.3773 61.9322 47.1959 62.1353C47.1308 62.2086 47.0579 62.2745 46.9785 62.3318Z" fill="#455A64"/>
<path id="Vector_105" d="M43.0156 62.955C43.0493 62.8575 43.0927 62.7637 43.1452 62.6749C43.2497 62.4785 43.3835 62.2193 43.5632 61.8933C43.9143 61.2119 44.4368 60.2213 44.951 58.9673C45.5799 57.5027 45.9287 55.9331 45.9792 54.34C45.9795 53.881 45.9445 53.4227 45.8747 52.969C45.8037 52.5008 45.695 52.0285 45.6239 51.5352C45.537 51.025 45.5484 50.5029 45.6574 49.997C45.7987 49.4776 46.0894 49.011 46.4934 48.6552C47.2792 47.9404 48.2281 47.4723 48.7213 46.6321C49.1487 45.799 49.4005 44.8871 49.4612 43.9527C49.5497 43.0962 49.7434 42.2538 50.038 41.4447C50.7006 39.7077 51.8811 38.2164 53.4196 37.1728C53.6649 37.0077 53.9204 36.8583 54.1846 36.7255C54.2738 36.6721 54.3692 36.63 54.4688 36.6001C54.4688 36.6001 54.0926 36.8007 53.4698 37.2438C52.592 37.8702 51.832 38.6472 51.2251 39.5386C50.8043 40.1497 50.4616 40.8111 50.2052 41.5074C49.9236 42.3184 49.7411 43.1606 49.6618 44.0154C49.5364 44.9058 49.4361 45.9006 48.9011 46.7826C48.366 47.6646 47.3879 48.1662 46.6397 48.8726C46.2584 49.2035 45.9835 49.6398 45.8497 50.1266C45.748 50.6052 45.7381 51.0988 45.8204 51.5812C45.8873 52.0619 45.9918 52.5384 46.0628 53.0108C46.1352 53.4753 46.1687 53.9451 46.1632 54.4153C46.1064 56.0376 45.7389 57.6339 45.0805 59.1178C44.653 60.1205 44.1673 61.0975 43.6259 62.0438L43.1828 62.7C43.1363 62.7907 43.0802 62.8762 43.0156 62.955Z" fill="#455A64"/>
</g>
<g id="freepik--Plant--inject-67">
<path id="Vector_106" d="M181.315 181.069C181.334 181.009 181.359 180.95 181.39 180.894C181.449 180.768 181.528 180.601 181.624 180.388C181.915 179.735 182.148 179.058 182.322 178.365C182.782 176.567 182.945 173.821 182.264 170.561C181.894 168.783 181.409 167.03 180.813 165.315C180.203 163.455 179.488 161.482 178.907 159.346C178.251 157.118 177.934 154.804 177.967 152.482C178.054 150.054 178.773 147.634 179.563 145.217C180.353 142.801 181.169 140.448 181.411 138.065C181.68 135.781 181.221 133.469 180.098 131.461C179.053 129.534 177.737 127.883 176.754 126.178C175.835 124.593 175.157 122.88 174.744 121.095C174.151 118.51 174.107 115.83 174.614 113.228C174.799 112.276 175.079 111.345 175.45 110.448C175.439 110.511 175.422 110.572 175.4 110.632L175.233 111.163C175.091 111.631 174.903 112.333 174.723 113.253C174.256 115.844 174.325 118.503 174.928 121.065C175.347 122.829 176.028 124.519 176.947 126.081C177.929 127.753 179.25 129.425 180.32 131.361C181.47 133.41 181.943 135.77 181.67 138.103C181.423 140.519 180.604 142.898 179.814 145.309C179.024 147.721 178.314 150.116 178.226 152.503C178.188 154.802 178.498 157.094 179.145 159.3C179.718 161.423 180.42 163.396 181.026 165.265C181.617 166.99 182.091 168.752 182.448 170.54C183.112 173.825 182.924 176.601 182.448 178.402C182.261 179.097 182.011 179.773 181.699 180.421L181.44 180.919C181.404 180.974 181.362 181.024 181.315 181.069Z" fill="#263238"/>
<path id="Vector_107" d="M178.092 127.862C178.092 127.862 176.094 121.463 179.68 117.717C179.708 117.687 179.744 117.665 179.783 117.654C179.823 117.643 179.865 117.643 179.904 117.655C179.944 117.666 179.979 117.688 180.007 117.718C180.034 117.748 180.053 117.786 180.061 117.826C180.253 118.883 180.491 122.102 178.092 127.862Z" fill="#ED6D2C"/>
<path id="Vector_108" d="M179.292 119.849C179.285 120.245 179.24 120.64 179.158 121.028C179.024 121.843 178.869 122.796 178.702 123.849C178.535 124.903 178.38 125.86 178.251 126.671C178.214 127.066 178.144 127.458 178.042 127.841C178.003 127.446 178.011 127.047 178.067 126.654C178.134 125.923 178.263 124.919 178.443 123.816C178.623 122.712 178.819 121.726 178.974 121.003C179.035 120.607 179.142 120.22 179.292 119.849Z" fill="#263238"/>
<path id="Vector_109" d="M180.441 142.956C180.441 142.956 181.666 136.364 186.59 134.734C186.629 134.72 186.671 134.718 186.711 134.727C186.751 134.736 186.788 134.756 186.817 134.784C186.847 134.813 186.868 134.849 186.878 134.889C186.888 134.929 186.887 134.971 186.874 135.01C186.548 136.026 185.257 138.981 180.441 142.956Z" fill="#ED6D2C"/>
<path id="Vector_110" d="M185.249 136.427C185.058 136.775 184.834 137.104 184.58 137.409L182.854 139.687L181.14 141.974C180.924 142.305 180.679 142.617 180.408 142.906C180.561 142.538 180.757 142.19 180.993 141.869C181.411 141.255 181.98 140.427 182.665 139.537C183.351 138.646 183.974 137.865 184.446 137.296C184.681 136.978 184.95 136.686 185.249 136.427Z" fill="#263238"/>
<path id="Vector_111" d="M179.113 159.48C179.113 159.48 178.369 152.817 182.607 149.828C182.64 149.802 182.679 149.787 182.72 149.783C182.762 149.779 182.803 149.787 182.84 149.806C182.877 149.825 182.908 149.854 182.929 149.889C182.95 149.925 182.96 149.966 182.958 150.008C182.946 151.082 182.565 154.284 179.113 159.48Z" fill="#ED6D2C"/>
<path id="Vector_112" d="M181.83 151.843C181.752 152.232 181.633 152.612 181.474 152.976L180.488 155.659C180.12 156.662 179.79 157.569 179.51 158.343C179.403 158.723 179.263 159.094 179.092 159.45C179.13 159.054 179.217 158.664 179.351 158.288C179.556 157.586 179.873 156.616 180.262 155.571C180.651 154.526 181.031 153.586 181.32 152.913C181.453 152.54 181.624 152.181 181.83 151.843Z" fill="#263238"/>
<path id="Vector_113" d="M182.82 176.107C182.82 176.107 182.319 169.419 186.658 166.585C186.692 166.562 186.731 166.549 186.773 166.547C186.814 166.545 186.855 166.554 186.891 166.574C186.927 166.594 186.956 166.624 186.977 166.66C186.997 166.696 187.006 166.737 187.005 166.778C186.954 167.852 186.461 171.041 182.82 176.107Z" fill="#ED6D2C"/>
<path id="Vector_114" d="M185.798 168.575C185.704 168.961 185.571 169.337 185.4 169.695C185.091 170.456 184.723 171.367 184.318 172.341C183.912 173.315 183.557 174.222 183.248 174.987C183.124 175.365 182.966 175.73 182.775 176.078C182.831 175.683 182.933 175.296 183.081 174.925C183.31 174.231 183.662 173.278 184.088 172.245C184.514 171.213 184.924 170.285 185.237 169.624C185.386 169.256 185.574 168.904 185.798 168.575Z" fill="#263238"/>
<path id="Vector_115" d="M175.217 122.24C175.217 122.24 169.29 119.13 169.16 113.951C169.16 113.911 169.17 113.871 169.191 113.836C169.211 113.801 169.241 113.772 169.276 113.752C169.312 113.732 169.352 113.723 169.393 113.724C169.433 113.725 169.473 113.737 169.507 113.759C170.389 114.369 172.839 116.476 175.217 122.24Z" fill="#ED6D2C"/>
<path id="Vector_116" d="M170.393 115.732C170.671 116.016 170.919 116.329 171.132 116.664C171.617 117.329 172.182 118.115 172.804 118.98L174.476 121.287C174.731 121.591 174.958 121.917 175.154 122.261C174.848 122.007 174.574 121.716 174.338 121.396C173.866 120.836 173.248 120.033 172.595 119.126C171.943 118.219 171.371 117.379 170.978 116.764C170.747 116.442 170.551 116.095 170.393 115.732Z" fill="#263238"/>
<path id="Vector_117" d="M181.6 135.98C181.6 135.98 175.48 133.242 175.05 128.071C175.046 128.03 175.054 127.99 175.072 127.953C175.09 127.917 175.118 127.886 175.153 127.864C175.188 127.843 175.227 127.831 175.268 127.831C175.309 127.83 175.349 127.841 175.384 127.862C176.299 128.418 178.87 130.366 181.6 135.98Z" fill="#ED6D2C"/>
<path id="Vector_118" d="M176.396 129.776C176.691 130.042 176.958 130.337 177.191 130.658L179.005 132.87L180.823 135.072C181.095 135.361 181.342 135.673 181.559 136.005C181.238 135.768 180.946 135.494 180.689 135.189C180.188 134.654 179.519 133.894 178.813 133.028C178.106 132.163 177.487 131.356 177.053 130.767C176.798 130.462 176.578 130.13 176.396 129.776Z" fill="#263238"/>
<path id="Vector_119" d="M178.068 151.316C178.068 151.316 173.888 146.091 175.84 141.284C175.855 141.246 175.881 141.214 175.913 141.189C175.946 141.165 175.985 141.151 176.026 141.147C176.066 141.144 176.107 141.152 176.144 141.17C176.18 141.188 176.211 141.216 176.233 141.251C176.814 142.158 178.205 145.067 178.068 151.316Z" fill="#ED6D2C"/>
<path id="Vector_120" d="M176.262 143.408C176.405 143.779 176.509 144.164 176.571 144.557C176.747 145.36 176.952 146.304 177.177 147.349C177.403 148.394 177.616 149.335 177.792 150.138C177.904 150.518 177.981 150.909 178.022 151.304C177.838 150.948 177.698 150.572 177.604 150.184C177.399 149.477 177.148 148.512 176.914 147.4C176.68 146.288 176.496 145.31 176.379 144.591C176.297 144.202 176.258 143.805 176.262 143.408Z" fill="#263238"/>
<path id="Vector_121" d="M182.247 169.336C182.247 169.336 176.174 166.498 175.831 161.323C175.827 161.282 175.835 161.24 175.853 161.203C175.872 161.166 175.9 161.135 175.935 161.113C175.971 161.091 176.011 161.08 176.053 161.08C176.094 161.08 176.135 161.092 176.17 161.114C177.068 161.687 179.606 163.681 182.247 169.336Z" fill="#ED6D2C"/>
<path id="Vector_122" d="M177.135 163.045C177.422 163.319 177.682 163.62 177.912 163.944L179.689 166.18L181.469 168.417C181.737 168.709 181.978 169.025 182.188 169.361C181.877 169.117 181.596 168.837 181.352 168.525C180.855 167.982 180.203 167.209 179.509 166.331C178.815 165.453 178.213 164.638 177.787 164.04C177.532 163.735 177.313 163.401 177.135 163.045Z" fill="#263238"/>
<path id="Vector_123" d="M194.332 142.985C194.332 142.985 194.332 143.036 194.332 143.132C194.332 143.228 194.332 143.387 194.332 143.55C194.332 143.968 194.29 144.499 194.261 145.176C194.186 146.605 194.073 148.599 193.943 150.982C193.525 153.406 192.271 156.094 190.599 158.706C189.383 160.629 188.091 162.376 187.004 164.002C186.013 165.429 185.121 166.924 184.338 168.475C183.819 169.523 183.399 170.617 183.084 171.744C182.979 172.141 182.895 172.454 182.849 172.668C182.83 172.779 182.8 172.888 182.762 172.994C182.763 172.881 182.777 172.769 182.804 172.659C182.833 172.442 182.895 172.124 182.992 171.719C183.273 170.573 183.672 169.459 184.183 168.396C184.96 166.832 185.85 165.328 186.846 163.894C187.941 162.255 189.207 160.504 190.419 158.593C192.071 155.994 193.299 153.348 193.763 150.961C193.931 148.582 194.069 146.593 194.181 145.163C194.236 144.486 194.282 143.947 194.315 143.541C194.315 143.374 194.344 143.232 194.357 143.123C194.343 143.079 194.334 143.032 194.332 142.985Z" fill="#263238"/>
<path id="Vector_124" d="M190.717 158.226C190.717 158.226 193.288 152.039 190.056 147.98C190.031 147.948 189.998 147.923 189.959 147.908C189.921 147.894 189.879 147.89 189.839 147.898C189.798 147.906 189.761 147.925 189.731 147.953C189.701 147.98 189.679 148.016 189.668 148.056C189.379 149.092 188.848 152.273 190.717 158.226Z" fill="#ED6D2C"/>
<path id="Vector_125" d="M190.249 150.142C190.36 150.523 190.428 150.916 190.454 151.312C190.546 152.039 190.646 153.047 190.725 154.163C190.805 155.279 190.842 156.29 190.842 157.026C190.868 157.423 190.844 157.822 190.771 158.213C190.699 157.823 190.664 157.427 190.667 157.03C190.613 156.194 190.546 155.245 190.475 154.179C190.404 153.114 190.337 152.148 190.278 151.329C190.229 150.935 190.22 150.537 190.249 150.142Z" fill="#263238"/>
<g id="Group_7" opacity="0.3">
<path id="Vector_126" d="M190.717 158.226C190.717 158.226 193.288 152.039 190.056 147.98C190.031 147.948 189.998 147.923 189.959 147.908C189.921 147.894 189.879 147.89 189.839 147.898C189.798 147.906 189.761 147.925 189.731 147.953C189.701 147.98 189.679 148.016 189.668 148.056C189.379 149.092 188.848 152.273 190.717 158.226Z" fill="black"/>
</g>
<path id="Vector_127" d="M182.754 173.144C182.754 173.144 184.814 166.765 181.261 162.987C181.234 162.956 181.199 162.935 181.159 162.923C181.12 162.912 181.079 162.912 181.039 162.922C181 162.933 180.964 162.955 180.936 162.984C180.909 163.014 180.889 163.051 180.881 163.091C180.68 164.144 180.409 167.363 182.754 173.144Z" fill="#ED6D2C"/>
<path id="Vector_128" d="M181.629 165.11C181.774 165.481 181.875 165.869 181.93 166.264C182.08 166.978 182.26 167.977 182.431 169.081C182.603 170.184 182.72 171.192 182.783 171.923C182.837 172.318 182.844 172.718 182.803 173.115C182.704 172.731 182.637 172.339 182.603 171.944C182.482 171.129 182.34 170.176 182.185 169.118C182.03 168.061 181.88 167.108 181.767 166.293C181.682 165.904 181.636 165.508 181.629 165.11Z" fill="#263238"/>
<g id="Group_8" opacity="0.3">
<path id="Vector_129" d="M182.754 173.144C182.754 173.144 184.814 166.765 181.261 162.987C181.234 162.956 181.199 162.935 181.159 162.923C181.12 162.912 181.079 162.912 181.039 162.922C181 162.933 180.964 162.955 180.936 162.984C180.909 163.014 180.889 163.051 180.881 163.091C180.68 164.144 180.409 167.363 182.754 173.144Z" fill="black"/>
</g>
<path id="Vector_130" d="M193.994 150.664C193.994 150.664 199.482 146.818 198.931 141.66C198.926 141.62 198.911 141.581 198.886 141.549C198.862 141.516 198.828 141.491 198.79 141.477C198.752 141.462 198.711 141.458 198.671 141.465C198.631 141.473 198.593 141.491 198.563 141.518C197.764 142.237 195.624 144.628 193.994 150.664Z" fill="#ED6D2C"/>
<g id="Group_9" opacity="0.3">
<path id="Vector_131" d="M193.994 150.664C193.994 150.664 199.482 146.818 198.931 141.66C198.926 141.62 198.911 141.581 198.886 141.549C198.862 141.516 198.828 141.491 198.79 141.477C198.752 141.462 198.711 141.458 198.671 141.465C198.631 141.473 198.593 141.491 198.563 141.518C197.764 142.237 195.624 144.628 193.994 150.664Z" fill="black"/>
</g>
<path id="Vector_132" d="M197.936 143.587C197.827 143.97 197.674 144.339 197.481 144.687C197.167 145.347 196.711 146.25 196.181 147.237C195.65 148.223 195.14 149.097 194.747 149.715C194.554 150.063 194.319 150.385 194.049 150.677C194.196 150.309 194.378 149.956 194.592 149.623C194.985 148.9 195.449 148.056 195.959 147.115L197.322 144.607C197.493 144.248 197.699 143.907 197.936 143.587Z" fill="#263238"/>
<path id="Vector_133" d="M184.969 166.82C184.969 166.82 191.59 165.787 193.362 160.914C193.377 160.876 193.38 160.834 193.373 160.794C193.365 160.754 193.347 160.717 193.32 160.687C193.292 160.657 193.257 160.635 193.218 160.623C193.18 160.611 193.138 160.611 193.099 160.621C192.066 160.93 189.074 162.122 184.969 166.82Z" fill="#ED6D2C"/>
<g id="Group_10" opacity="0.3">
<path id="Vector_134" d="M184.969 166.82C184.969 166.82 191.59 165.787 193.362 160.914C193.377 160.876 193.38 160.834 193.373 160.794C193.365 160.754 193.347 160.717 193.32 160.687C193.292 160.657 193.257 160.635 193.218 160.623C193.18 160.611 193.138 160.611 193.099 160.621C192.066 160.93 189.074 162.122 184.969 166.82Z" fill="black"/>
</g>
<path id="Vector_135" d="M191.623 162.205C191.354 162.498 191.054 162.76 190.728 162.987C190.156 163.447 189.349 164.057 188.442 164.709C187.535 165.361 186.686 165.917 186.059 166.301C185.732 166.529 185.379 166.716 185.006 166.857C185.303 166.593 185.623 166.356 185.963 166.151L188.296 164.504L190.624 162.832C190.934 162.588 191.268 162.378 191.623 162.205Z" fill="#263238"/>
<path id="Vector_136" d="M178.648 179.009L176.717 192.009H188.755L187.196 179.009H178.648Z" fill="black"/>
<path id="Vector_137" d="M187.681 183.034C187.681 183.105 185.507 183.159 182.828 183.159C180.148 183.159 177.971 183.105 177.971 183.034C179.587 182.91 181.208 182.868 182.828 182.908C184.447 182.868 186.066 182.91 187.681 183.034Z" fill="#263238"/>
<path id="Vector_138" d="M187.917 184.071C187.917 184.142 185.672 184.196 182.901 184.196C180.129 184.196 177.885 184.142 177.885 184.071C177.885 184 180.129 183.945 182.901 183.945C185.672 183.945 187.917 184 187.917 184.071Z" fill="#263238"/>
</g>
<g id="freepik--Boxes--inject-67">
<path id="Vector_139" d="M141.105 52.8935C141.105 52.8935 140.992 52.8935 140.775 52.8935C140.457 52.8747 140.139 52.8747 139.822 52.8935C138.594 52.9654 137.388 53.2482 136.256 53.7295C134.462 54.4814 132.901 55.6977 131.733 57.2533C131.013 58.2245 130.478 59.3197 130.153 60.4844C129.422 63.2587 129.817 66.2098 131.253 68.6939C131.644 69.3817 132.121 70.0166 132.674 70.5833C133.231 71.1836 133.88 71.6916 134.597 72.0881C135.332 72.5019 136.165 72.7112 137.008 72.6942C137.878 72.6837 138.712 72.3465 139.345 71.7495C139.651 71.429 139.891 71.0515 140.051 70.6384C140.21 70.2253 140.287 69.7847 140.277 69.3418C140.271 68.4217 139.979 67.5263 139.441 66.7795C138.359 65.2538 136.603 64.2297 134.734 63.6779C132.797 63.1338 130.751 63.1049 128.799 63.5943C127.802 63.8535 126.842 64.2354 125.94 64.7313C125.029 65.2453 124.201 65.8951 123.486 66.6583C123.315 66.8547 123.118 67.0345 122.964 67.2518L122.491 67.8872C122.204 68.3349 121.947 68.8013 121.722 69.2833C121.275 70.2619 120.97 71.2992 120.815 72.364C120.512 74.4911 120.801 76.6607 121.651 78.634C122.464 80.5621 123.879 82.1753 125.685 83.232C126.56 83.7322 127.538 84.028 128.544 84.0972C129.53 84.1524 130.511 83.917 131.365 83.4201C132.213 82.9516 132.883 82.2171 133.271 81.3301C133.638 80.4558 133.663 79.4758 133.343 78.5838C133.012 77.7231 132.472 76.9587 131.771 76.36C131.091 75.7724 130.307 75.3173 129.459 75.0183C127.806 74.4971 126.038 74.4666 124.368 74.9305C122.806 75.3539 121.371 76.1532 120.188 77.2587C119.111 78.2906 118.291 79.5604 117.793 80.9664C116.922 83.406 116.962 86.078 117.906 88.4904C118.642 90.2913 119.826 91.8742 121.346 93.0884C122.303 93.8564 123.37 94.4776 124.51 94.9318C124.903 95.0781 125.208 95.1868 125.417 95.2453L125.727 95.3456C125.727 95.3456 125.618 95.3247 125.409 95.2662C125.1 95.1835 124.796 95.0845 124.498 94.9694C123.342 94.5352 122.262 93.9231 121.296 93.1553C119.75 91.9419 118.542 90.3513 117.789 88.5364C116.829 86.1012 116.78 83.4013 117.651 80.933C118.15 79.5056 118.979 78.2165 120.071 77.171C121.27 76.0432 122.727 75.2254 124.314 74.7884C126.019 74.3127 127.825 74.3417 129.514 74.872C130.386 75.1762 131.193 75.6428 131.892 76.2472C132.621 76.8655 133.181 77.6577 133.522 78.5504C133.866 79.4823 133.851 80.5088 133.48 81.4304C133.068 82.3524 132.369 83.1163 131.487 83.6082C130.601 84.1243 129.584 84.3712 128.561 84.3188C127.53 84.2469 126.529 83.9409 125.635 83.4242C123.787 82.3528 122.337 80.7117 121.501 78.7468C120.632 76.7374 120.334 74.5275 120.64 72.3598C120.799 71.2735 121.112 70.2152 121.567 69.2164C121.797 68.7242 122.06 68.248 122.353 67.791L122.838 67.1431C122.993 66.9216 123.193 66.7251 123.369 66.5329C124.101 65.7552 124.947 65.0929 125.877 64.5683C126.8 64.0629 127.783 63.6754 128.803 63.4146C130.792 62.9161 132.877 62.9463 134.852 63.5024C136.758 64.0708 138.542 65.1117 139.667 66.6917C140.232 67.4697 140.539 68.4053 140.545 69.3669C140.565 70.3132 140.209 71.2289 139.554 71.9125C138.885 72.5403 138.005 72.8939 137.088 72.9032C136.21 72.9231 135.343 72.705 134.58 72.272C133.846 71.8672 133.183 71.3463 132.615 70.7296C132.056 70.1502 131.571 69.5028 131.173 68.8026C129.712 66.2723 129.315 63.2654 130.07 60.4426C130.404 59.2644 130.952 58.1579 131.687 57.178C132.877 55.6107 134.464 54.391 136.285 53.6459C137.426 53.1739 138.642 52.9078 139.876 52.8601C140.196 52.839 140.517 52.839 140.837 52.8601L141.105 52.8935Z" fill="#263238"/>
<path id="Vector_140" d="M155.061 94.7188H96.4531V139.921H155.061V94.7188Z" fill="#B0BCD3"/>
<path id="Vector_141" d="M96.4531 94.7188L107.279 104.818H164.892L155.061 94.7188H96.4531Z" fill="#CFD7E5"/>
<path id="Vector_142" d="M96.4531 94.7188L155.078 94.6143H155.124L155.157 94.6435L164.888 104.638L164.988 104.742L165.168 104.926H164.909L107.296 104.88H107.271L96.4531 94.7188L107.321 104.751H107.275L164.888 104.709L164.813 104.893L164.708 104.788L154.981 94.794L155.057 94.8274L96.4531 94.7188Z" fill="#263238"/>
<path id="Vector_143" d="M114.061 115.564C113.743 115.576 113.443 115.712 113.225 115.942C113.006 116.173 112.887 116.48 112.893 116.798C112.899 117.115 113.029 117.418 113.255 117.641C113.482 117.863 113.787 117.988 114.105 117.988C114.422 117.988 114.727 117.863 114.954 117.641C115.181 117.418 115.311 117.115 115.317 116.798C115.323 116.48 115.203 116.173 114.985 115.942C114.766 115.712 114.466 115.576 114.149 115.564" fill="#263238"/>
<path id="Vector_144" d="M127.908 115.564C127.592 115.576 127.293 115.712 127.076 115.942C126.859 116.172 126.74 116.478 126.746 116.795C126.752 117.111 126.882 117.412 127.108 117.634C127.334 117.855 127.638 117.98 127.954 117.98C128.271 117.98 128.574 117.855 128.8 117.634C129.026 117.412 129.156 117.111 129.162 116.795C129.168 116.478 129.05 116.172 128.832 115.942C128.615 115.712 128.316 115.576 128 115.564" fill="#263238"/>
<path id="Vector_145" d="M127.988 126.382C127.747 125.459 127.354 124.582 126.826 123.786C126.239 122.936 125.486 122.213 124.611 121.663C123.556 120.963 122.325 120.573 121.059 120.538C119.793 120.503 118.543 120.825 117.451 121.466C116.549 121.97 115.757 122.649 115.122 123.464C114.551 124.23 114.111 125.087 113.822 125.998C113.825 125.93 113.837 125.862 113.856 125.797C113.896 125.609 113.947 125.423 114.01 125.241C114.239 124.57 114.574 123.939 115.001 123.373C115.631 122.519 116.433 121.807 117.354 121.283C118.475 120.614 119.762 120.278 121.066 120.313C122.37 120.349 123.637 120.754 124.72 121.483C125.609 122.055 126.37 122.807 126.952 123.69C127.349 124.28 127.649 124.929 127.842 125.613C127.893 125.799 127.934 125.987 127.963 126.177C127.978 126.245 127.986 126.313 127.988 126.382Z" fill="#263238"/>
<path id="Vector_146" opacity="0.5" d="M96.5879 95.2158L106.954 108.358H155.062V104.817H107.28L96.5879 95.2158Z" fill="black"/>
<path id="Vector_147" d="M143.503 139.821C143.445 139.821 143.395 131.958 143.395 122.265C143.395 112.572 143.445 104.709 143.503 104.709C143.562 104.709 143.616 112.567 143.616 122.265C143.616 131.963 143.566 139.821 143.503 139.821Z" fill="#263238"/>
<path id="Vector_148" d="M96.4539 94.7188L84.4238 104.818H96.4539V94.7188Z" fill="#6E7685"/>
<g id="Group_11" opacity="0.4">
<path id="Vector_149" d="M96.4539 94.7188L84.4238 104.818H96.4539V94.7188Z" fill="#B0BCD3"/>
</g>
<path id="Vector_150" d="M156.792 139.921H89.4062V191.895H156.792V139.921Z" fill="#6E7685"/>
<path id="Vector_151" d="M156.792 139.921H89.4062V191.895H156.792V139.921Z" fill="#889BBD"/>
<path id="Vector_152" d="M139.909 191.527C139.851 191.527 139.801 179.945 139.801 165.657C139.801 151.37 139.851 139.783 139.909 139.783C139.968 139.783 140.018 151.366 140.018 165.657C140.018 179.949 139.968 191.527 139.909 191.527Z" fill="#263238"/>
<path id="Vector_153" d="M117.616 140.059H109.963V151.149H117.616V140.059Z" fill="#17305D"/>
<path id="Vector_154" d="M117.616 180.651H109.963V191.74H117.616V180.651Z" fill="#17305D"/>
<path id="Vector_155" d="M156.207 139.921H156.031H155.525L153.582 139.942L146.421 139.975L122.809 140.03L99.1874 140.001L92.0313 139.967L90.0876 139.946L92.0313 139.925L99.1874 139.892L122.809 139.858L146.421 139.892L153.582 139.925L155.525 139.946H156.031L156.207 139.921Z" fill="#263238"/>
</g>
<g id="freepik--speech-bubble--inject-67">
<path id="Vector_156" d="M40.7218 49.9382L33.3818 48.1325H33.4361C31.5408 49.338 29.3492 49.9962 27.1034 50.0344C25.7738 50.0404 24.4508 49.8474 23.1784 49.4617C20.9413 48.7434 18.9566 47.3997 17.4589 45.5894C15.9611 43.7791 15.013 41.5778 14.7264 39.2458C14.5014 37.4821 14.667 35.6905 15.2117 33.998C15.7564 32.3055 16.6667 30.7535 17.8781 29.4521C18.515 28.7526 19.2287 28.1272 20.0058 27.5878C20.3987 27.3412 20.7916 27.0862 21.2012 26.873L21.8241 26.572L22.1334 26.4216L22.4594 26.3045C24.1379 25.6539 25.9384 25.3786 27.7346 25.4978C30.1418 25.6541 32.4489 26.5195 34.3651 27.9849C36.2813 29.4503 37.7208 31.4502 38.5023 33.7324C38.9364 35.0091 39.165 36.3466 39.1794 37.695C39.1899 39.936 38.5809 42.1362 37.4196 44.0528V43.9859C39.4595 47.6685 40.4878 49.5286 40.7177 49.9382C40.4794 49.5202 39.4135 47.6936 37.3026 44.0486V44.0152V43.9817C38.4221 42.0837 39.0004 39.9152 38.9746 37.7117C38.9552 36.3849 38.7238 35.0697 38.2891 33.816C37.5161 31.5804 36.1009 29.6226 34.2205 28.1876C32.3401 26.7525 30.0781 25.9041 27.7179 25.7486C25.957 25.6338 24.1924 25.9049 22.5472 26.5428L22.2295 26.6556L21.9244 26.8061L21.3141 27.0987C20.8961 27.3119 20.5283 27.5585 20.1395 27.801C19.3774 28.3259 18.6764 28.9344 18.0495 29.6151C16.8602 30.8927 15.9663 32.4161 15.4311 34.0774C14.8958 35.7388 14.7323 37.4975 14.9521 39.2291C15.3397 42.4014 16.9672 45.2913 19.4791 47.2672C20.6021 48.157 21.8765 48.8367 23.2411 49.2736C24.4907 49.6599 25.7913 49.8558 27.0992 49.8546C29.3181 49.8309 31.4876 49.196 33.3692 48.0196H33.3943H33.4403L40.7218 49.9382Z" fill="#263238"/>
<path id="Vector_157" d="M25.916 32.3114L26.288 38.456C26.3029 38.6984 26.4058 38.9269 26.5775 39.0986C26.7492 39.2703 26.9778 39.3733 27.2201 39.3882C27.4752 39.4026 27.726 39.3188 27.9212 39.1539C28.1163 38.9891 28.2409 38.7558 28.2693 38.502L28.9507 32.3449C28.9625 32.2347 28.9508 32.1233 28.9164 32.018C28.8819 31.9127 28.8255 31.8159 28.7507 31.7341C28.676 31.6523 28.5848 31.5873 28.4831 31.5434C28.3813 31.4995 28.2714 31.4778 28.1606 31.4796H26.6684C26.5637 31.4827 26.4607 31.507 26.3656 31.5509C26.2705 31.5948 26.1852 31.6575 26.1149 31.7352C26.0447 31.8129 25.9908 31.904 25.9566 32.003C25.9224 32.102 25.9086 32.2069 25.916 32.3114Z" fill="#ED6D2C"/>
<path id="Vector_158" d="M28.8419 42.8196C28.7484 43.1003 28.5737 43.347 28.34 43.5285C28.1064 43.7099 27.8241 43.818 27.529 43.8392C27.2339 43.8603 26.9392 43.7934 26.682 43.6471C26.4249 43.5007 26.2169 43.2815 26.0844 43.0169C25.9518 42.7524 25.9006 42.4546 25.9373 42.161C25.974 41.8674 26.0969 41.5913 26.2905 41.3675C26.484 41.1438 26.7396 40.9824 27.0248 40.9038C27.3101 40.8253 27.6122 40.833 27.8931 40.9261C28.0798 40.988 28.2525 41.0861 28.4012 41.2148C28.55 41.3435 28.672 41.5003 28.7601 41.6761C28.8482 41.852 28.9008 42.0435 28.9148 42.2397C28.9289 42.436 28.9041 42.633 28.8419 42.8196Z" fill="#ED6D2C"/>
</g>
</g>
</svg>
