<svg width="48" height="48" viewBox="0 0 48 48" fill="none" xmlns="http://www.w3.org/2000/svg">
<g id="Group">
<path id="Vector" d="M29.6563 24L46.8281 6.82813C48.3906 5.26563 48.3906 2.73438 46.8281 1.17188C45.2656 -0.390625 42.7344 -0.390625 41.1719 1.17188L24 18.3438L6.82813 1.17188C5.26563 -0.390625 2.73438 -0.390625 1.17188 1.17188C-0.390625 2.73438 -0.390625 5.26563 1.17188 6.82813L18.3438 24L1.17188 41.1719C-0.390625 42.7344 -0.390625 45.2656 1.17188 46.8281C1.95312 47.6094 2.97656 48 4 48C5.02344 48 6.04688 47.6094 6.82813 46.8281L24 29.6563L41.1719 46.8281C41.9531 47.6094 42.9766 48 44 48C45.0234 48 46.0469 47.6094 46.8281 46.8281C48.3906 45.2656 48.3906 42.7344 46.8281 41.1719L29.6563 24Z" fill="#ED6D2C"/>
</g>
</svg>
