<svg width="16" height="16" viewBox="0 0 16 16" fill="none" xmlns="http://www.w3.org/2000/svg">
<g id="svgexport-15 (19) 1">
<g id="Group">
<path id="Vector" d="M12.5383 4.40498C12.6598 4.27925 12.7269 4.11084 12.7254 3.93605C12.7239 3.76125 12.6538 3.59404 12.5302 3.47044C12.4066 3.34683 12.2394 3.27672 12.0646 3.2752C11.8898 3.27368 11.7214 3.34088 11.5956 3.46231L8.00031 7.05765L4.40498 3.46231C4.34348 3.39864 4.26992 3.34785 4.18858 3.31291C4.10725 3.27797 4.01977 3.25958 3.93125 3.25881C3.84273 3.25805 3.75494 3.27491 3.67301 3.30843C3.59108 3.34195 3.51665 3.39146 3.45405 3.45405C3.39146 3.51665 3.34195 3.59108 3.30843 3.67301C3.27491 3.75494 3.25805 3.84273 3.25881 3.93125C3.25958 4.01977 3.27797 4.10725 3.31291 4.18858C3.34785 4.26992 3.39864 4.34348 3.46231 4.40498L7.05765 8.00031L3.46231 11.5956C3.39864 11.6571 3.34785 11.7307 3.31291 11.812C3.27797 11.8934 3.25958 11.9809 3.25881 12.0694C3.25805 12.1579 3.27491 12.2457 3.30843 12.3276C3.34195 12.4095 3.39146 12.484 3.45405 12.5466C3.51665 12.6092 3.59108 12.6587 3.67301 12.6922C3.75494 12.7257 3.84273 12.7426 3.93125 12.7418C4.01977 12.741 4.10725 12.7227 4.18858 12.6877C4.26992 12.6528 4.34348 12.602 4.40498 12.5383L8.00031 8.94298L11.5956 12.5383C11.7214 12.6598 11.8898 12.7269 12.0646 12.7254C12.2394 12.7239 12.4066 12.6538 12.5302 12.5302C12.6538 12.4066 12.7239 12.2394 12.7254 12.0646C12.7269 11.8898 12.6598 11.7214 12.5383 11.5956L8.94298 8.00031L12.5383 4.40498Z" fill="black"/>
</g>
</g>
</svg>
