<svg width="13" height="12" viewBox="0 0 13 12" fill="none" xmlns="http://www.w3.org/2000/svg">
<g id="phone-call (1) 1" clip-path="url(#clip0_709_17867)">
<path id="Vector" d="M1 5.50003C1.13261 5.50003 1.25979 5.44735 1.35356 5.35358C1.44733 5.25981 1.5 5.13263 1.5 5.00003C1.50106 3.93948 1.92283 2.92268 2.67275 2.17277C3.42266 1.42285 4.43946 1.00108 5.5 1.00003C5.63261 1.00003 5.75979 0.947347 5.85356 0.853579C5.94733 0.759811 6 0.632634 6 0.500025C6 0.367417 5.94733 0.24024 5.85356 0.146472C5.75979 0.0527038 5.63261 2.53406e-05 5.5 2.53406e-05C4.17437 0.00148114 2.90345 0.528733 1.96608 1.4661C1.02871 2.40347 0.501461 3.67439 0.500005 5.00003C0.500005 5.13263 0.552683 5.25981 0.646451 5.35358C0.740219 5.44735 0.867396 5.50003 1 5.50003ZM2.5 5.00003C2.5 4.20438 2.81608 3.44131 3.37868 2.87871C3.94129 2.3161 4.70436 2.00003 5.5 2.00003C5.63261 2.00003 5.75979 2.0527 5.85356 2.14647C5.94733 2.24024 6 2.36742 6 2.50003C6 2.63263 5.94733 2.75981 5.85356 2.85358C5.75979 2.94735 5.63261 3.00003 5.5 3.00003C4.96957 3.00003 4.46086 3.21074 4.08579 3.58581C3.71072 3.96088 3.5 4.46959 3.5 5.00003C3.5 5.13263 3.44733 5.25981 3.35356 5.35358C3.25979 5.44735 3.13261 5.50003 3 5.50003C2.8674 5.50003 2.74022 5.44735 2.64645 5.35358C2.55268 5.25981 2.5 5.13263 2.5 5.00003ZM1.4085 11.082L0.953505 10.5575C0.663901 10.267 0.501283 9.8735 0.501283 9.46328C0.501283 9.05306 0.663901 8.65956 0.953505 8.36903C0.969005 8.35353 2.172 7.42803 2.172 7.42803C2.46073 7.15319 2.84424 7.00016 3.24286 7.00071C3.64147 7.00127 4.02455 7.15538 4.3125 7.43103L5.2655 8.23403C6.04342 7.91207 6.75006 7.43961 7.34486 6.84379C7.93966 6.24796 8.4109 5.54049 8.7315 4.76203L7.9315 3.81203C7.65565 3.52411 7.50136 3.14096 7.5007 2.74223C7.50005 2.34349 7.65309 1.95984 7.928 1.67103C7.928 1.67103 8.8545 0.469525 8.87 0.454025C9.15528 0.166899 9.54206 0.00353635 9.94679 -0.000767268C10.3515 -0.00507088 10.7417 0.150031 11.033 0.431025L11.608 0.931025C15.005 4.87203 7.69001 12.1305 3.61901 12C3.20791 12.0024 2.80051 11.9224 2.42085 11.7647C2.04119 11.6071 1.69697 11.3749 1.4085 11.082Z" fill="#ED6D2C"/>
</g>
<defs>
<clipPath id="clip0_709_17867">
<rect width="12" height="12" fill="white" transform="matrix(-1 0 0 1 12.5 0)"/>
</clipPath>
</defs>
</svg>
