<svg width="17" height="16" viewBox="0 0 17 16" fill="none" xmlns="http://www.w3.org/2000/svg">
<g id="Component 2" clip-path="url(#clip0_1044_2266)">
<path id="Vector" d="M5.83333 8H4.5C3.76467 8 3.16667 8.598 3.16667 9.33333V10.6667C3.16667 11.402 3.76467 12 4.5 12H5.83333C6.56867 12 7.16667 11.402 7.16667 10.6667V9.33333C7.16667 8.598 6.56867 8 5.83333 8ZM4.5 10.6667V9.33333H5.83333V10.6667H4.5ZM13.1667 1.33333H12.5V0.666667C12.5 0.298667 12.202 0 11.8333 0C11.4647 0 11.1667 0.298667 11.1667 0.666667V1.33333H5.83333V0.666667C5.83333 0.298667 5.53533 0 5.16667 0C4.798 0 4.5 0.298667 4.5 0.666667V1.33333H3.83333C1.99533 1.33333 0.5 2.82867 0.5 4.66667V12.6667C0.5 14.5047 1.99533 16 3.83333 16H13.1667C15.0047 16 16.5 14.5047 16.5 12.6667V4.66667C16.5 2.82867 15.0047 1.33333 13.1667 1.33333ZM3.83333 2.66667H13.1667C14.2693 2.66667 15.1667 3.564 15.1667 4.66667V5.33333H1.83333V4.66667C1.83333 3.564 2.73067 2.66667 3.83333 2.66667ZM13.1667 14.6667H3.83333C2.73067 14.6667 1.83333 13.7693 1.83333 12.6667V6.66667H15.1667V12.6667C15.1667 13.7693 14.2693 14.6667 13.1667 14.6667Z" fill="#6E7685"/>
</g>
<defs>
<clipPath id="clip0_1044_2266">
<rect width="16" height="16" fill="white" transform="translate(0.5)"/>
</clipPath>
</defs>
</svg>
