<svg width="16" height="16" viewBox="0 0 16 16" fill="none" xmlns="http://www.w3.org/2000/svg">
<g id="Component 2" clip-path="url(#clip0_1044_1819)">
<path id="Vector" d="M14.6667 3.81595V1.33328C14.6667 0.965282 14.3687 0.666615 14 0.666615C13.6313 0.666615 13.3333 0.965282 13.3333 1.33328V2.91061L9.86467 0.569948C8.732 -0.194052 7.268 -0.194052 6.13533 0.569948L1.46867 3.71928C0.549333 4.33995 0 5.37262 0 6.48262V12.6666C0 14.5046 1.49533 15.9999 3.33333 15.9999H5.33333C5.702 15.9999 6 15.7013 6 15.3333V9.99995C6 9.63262 6.29867 9.33328 6.66667 9.33328H9.33333C9.70133 9.33328 10 9.63262 10 9.99995V15.3333C10 15.7013 10.298 15.9999 10.6667 15.9999H12.6667C14.5047 15.9999 16 14.5046 16 12.6666V6.48262C16 5.42862 15.504 4.44395 14.6667 3.81595ZM14.6667 12.6666C14.6667 13.7693 13.7693 14.6666 12.6667 14.6666H11.3333V9.99995C11.3333 8.89728 10.436 7.99995 9.33333 7.99995H6.66667C5.564 7.99995 4.66667 8.89728 4.66667 9.99995V14.6666H3.33333C2.23067 14.6666 1.33333 13.7693 1.33333 12.6666V6.48262C1.33333 5.81662 1.66267 5.19662 2.21467 4.82462L6.88133 1.67528C7.56133 1.21661 8.43867 1.21661 9.118 1.67528L13.7847 4.82462C14.3367 5.19662 14.666 5.81662 14.666 6.48262L14.6667 12.6666Z" fill="#6E7685"/>
</g>
<defs>
<clipPath id="clip0_1044_1819">
<rect width="16" height="16" fill="white"/>
</clipPath>
</defs>
</svg>
