<svg width="17" height="16" viewBox="0 0 17 16" fill="none" xmlns="http://www.w3.org/2000/svg">
<g id="Group">
<path id="Vector" d="M14.9234 2.83323C14.8371 1.72024 13.9046 0.84082 12.7699 0.84082H2.66069C1.46928 0.84082 0.5 1.8101 0.5 3.00151V12.9985C0.5 14.1899 1.46928 15.1592 2.66069 15.1592H14.3393C15.5308 15.1592 16.5 14.1899 16.5 12.9985V4.91304C16.5 3.92404 15.8318 3.08872 14.9234 2.83323ZM2.66069 1.85019H12.7699C13.3192 1.85019 13.7796 2.23694 13.8938 2.75238H2.66069C2.23767 2.75238 1.84297 2.87505 1.50937 3.08601V3.00151C1.50937 2.36668 2.02586 1.85019 2.66069 1.85019ZM14.3393 14.1498H2.66069C2.02586 14.1498 1.50937 13.6334 1.50937 12.9985V4.91304C1.50937 4.27821 2.02586 3.76172 2.66069 3.76172H14.3393C14.9742 3.76172 15.4907 4.27821 15.4907 4.91304V6.67433H12.2725C10.9972 6.67433 9.95968 7.71187 9.95968 8.98715C9.95968 10.2624 10.9972 11.3 12.2725 11.3H15.4906V12.9985C15.4906 13.6334 14.9741 14.1498 14.3393 14.1498ZM15.4906 10.2906H12.2725C11.5538 10.2906 10.9691 9.70588 10.9691 8.98715C10.9691 8.26841 11.5538 7.6837 12.2725 7.6837H15.4906V10.2906Z" fill="#6E7685"/>
<path id="Vector_2" d="M12.46 9.55088C12.7502 9.55088 12.9855 9.31563 12.9855 9.02544C12.9855 8.73525 12.7502 8.5 12.46 8.5C12.1698 8.5 11.9346 8.73525 11.9346 9.02544C11.9346 9.31563 12.1698 9.55088 12.46 9.55088Z" fill="#6E7685"/>
</g>
</svg>
