<svg width="16" height="16" viewBox="0 0 16 16" fill="none" xmlns="http://www.w3.org/2000/svg">
<g id="svgexport-15 (17) 1" clip-path="url(#clip0_520_1423)">
<g id="Group">
<path id="Vector" d="M8.00305 15.9946C6.7792 15.9946 5.62897 15.7434 4.58422 15.248C4.27282 15.1003 4.14009 14.7282 4.28777 14.4167C4.43545 14.1053 4.80763 13.9726 5.11903 14.1203C10.8166 16.749 16.7874 10.8464 14.0852 5.12277C13.7577 4.36705 14.8297 3.85165 15.213 4.58802C17.758 9.82039 13.807 16.0428 8.00305 15.9946ZM1.62638 11.7524C1.93728 11.6036 2.06867 11.231 1.9199 10.9201C-0.789175 5.23647 5.18206 -0.793704 10.8872 1.9247C11.1986 2.07235 11.5707 1.93958 11.7183 1.62818C11.866 1.31678 11.7333 0.944603 11.4219 0.796923C4.61187 -2.40052 -2.39662 4.67704 0.794151 11.4589C0.94336 11.7728 1.3224 11.8999 1.62638 11.7524ZM1.08059 15.8118L15.808 1.08439C16.0518 0.840669 16.0518 0.445555 15.808 0.201866C15.5643 -0.0418238 15.1692 -0.041855 14.9255 0.201866L0.198063 14.9293C-0.0456572 15.173 -0.0456572 15.5681 0.198063 15.8118C0.441784 16.0556 0.836898 16.0556 1.08059 15.8118Z" fill="#423E3E"/>
</g>
</g>
<defs>
<clipPath id="clip0_520_1423">
<rect width="16" height="16" fill="white"/>
</clipPath>
</defs>
</svg>
