<svg width="16" height="16" viewBox="0 0 16 16" fill="none" xmlns="http://www.w3.org/2000/svg">
<g id="loveseat 1" clip-path="url(#clip0_511_1907)">
<path id="Vector" d="M16 5.33335H14.6667V3.66669C14.6667 2.01269 13.3207 0.666687 11.6667 0.666687H4.33333C2.67933 0.666687 1.33333 2.01269 1.33333 3.66669V5.33335H0V14H1.33333V15.3334H2V14H14V15.3334H14.6667V14H16V5.33335ZM4.33333 1.33335H11.6667C12.9533 1.33335 14 2.38002 14 3.66669V5.33335C13.2647 5.33335 12.6667 5.93135 12.6667 6.66669V10H10C9.15267 10 8.40867 10.4547 8 11.1327C7.59133 10.4547 6.84733 10 6 10H3.33333V7.00002C3.33333 6.19535 2.76 5.52202 2 5.36669V3.66669C2 2.38002 3.04667 1.33335 4.33333 1.33335ZM0.666667 13.3334V6.00002H1.66667C2.218 6.00002 2.66667 6.44869 2.66667 7.00002V10.6667H6C6.91933 10.6667 7.66667 11.4147 7.66667 12.3334V13.3334H0.666667ZM15.3333 13.3334H8.33333V12.3334C8.33333 11.4147 9.08067 10.6667 10 10.6667H13.3333V6.66669C13.3333 6.29935 13.632 6.00002 14 6.00002H15.3333V13.3334Z" fill="#17305D"/>
</g>
<defs>
<clipPath id="clip0_511_1907">
<rect width="16" height="16" fill="white"/>
</clipPath>
</defs>
</svg>
