<svg width="280" height="216" viewBox="0 0 280 216" fill="none" xmlns="http://www.w3.org/2000/svg">
<g clip-path="url(#clip0_737_23025)">
<path opacity="0.1" d="M128.304 189.974C192.567 189.974 244.663 185.929 244.663 180.939C244.663 175.949 192.567 171.904 128.304 171.904C64.0409 171.904 11.9453 175.949 11.9453 180.939C11.9453 185.929 64.0409 189.974 128.304 189.974Z" fill="#17305D"/>
<g opacity="0.1">
<path d="M231.362 129.457C230.666 127.346 227.846 126.374 225.065 127.288C224.664 127.419 224.276 127.587 223.907 127.789C223.729 127.74 223.545 127.696 223.359 127.663C223.511 127.056 223.569 126.429 223.532 125.804C224.491 125.162 225.27 124.285 225.792 123.255C226.315 122.226 226.564 121.08 226.516 119.926C227.473 119.282 228.249 118.404 228.769 117.375C229.29 116.346 229.538 115.2 229.489 114.048C230.453 113.413 231.231 112.532 231.742 111.496C233.084 108.841 232.528 105.856 230.499 104.83C228.471 103.803 225.736 105.125 224.394 107.781C223.862 108.806 223.614 109.954 223.674 111.108C222.717 111.751 221.941 112.63 221.421 113.659C220.9 114.688 220.652 115.833 220.701 116.986C219.744 117.629 218.968 118.508 218.447 119.537C217.927 120.566 217.679 121.712 217.727 122.864C216.768 123.507 215.99 124.385 215.468 125.415C214.945 126.445 214.696 127.591 214.743 128.745C213.779 129.38 213.001 130.261 212.49 131.296C212.238 131.796 212.047 132.323 211.92 132.868C211.584 132.376 211.174 131.94 210.705 131.573C210.651 131.155 210.559 130.742 210.431 130.341C209.517 127.557 207.063 125.859 204.955 126.555C202.847 127.25 201.872 130.067 202.787 132.852C203.161 134.045 203.882 135.101 204.857 135.885C204.91 136.303 205.002 136.716 205.131 137.117C205.662 138.732 206.71 139.981 207.909 140.608C207.803 140.957 207.727 141.314 207.682 141.676C206.552 142.763 205.824 144.203 205.618 145.758C204.486 146.846 203.758 148.286 203.554 149.843C202.993 150.381 202.53 151.011 202.185 151.707C200.84 154.363 201.396 157.35 203.425 158.374C205.454 159.398 208.189 158.081 209.533 155.422C209.887 154.729 210.119 153.98 210.217 153.207C211.348 152.12 212.076 150.681 212.282 149.125C213.413 148.037 214.141 146.597 214.346 145.04C215.469 143.95 216.188 142.511 216.386 140.958C217.522 139.871 218.252 138.427 218.456 136.868C218.804 136.538 219.115 136.171 219.384 135.773C220.502 136.002 221.662 135.93 222.743 135.562C223.144 135.431 223.532 135.264 223.901 135.061C225.112 135.38 226.39 135.335 227.575 134.93C230.349 134.023 232.055 131.57 231.362 129.457Z" fill="#3F3D56"/>
<g opacity="0.1">
<path d="M226.453 121.134C226.165 121.416 225.85 121.668 225.511 121.886C225.554 122.668 225.451 123.451 225.207 124.194C225.422 123.897 225.615 123.583 225.782 123.255C226.121 122.59 226.348 121.873 226.453 121.134Z" fill="black"/>
<path d="M229.426 115.255C229.139 115.538 228.823 115.79 228.485 116.008C228.528 116.79 228.425 117.573 228.181 118.316C228.397 118.018 228.589 117.703 228.756 117.374C229.094 116.71 229.32 115.994 229.426 115.255Z" fill="black"/>
<path d="M222.683 113.067C222.658 112.665 222.674 112.26 222.73 111.86C222.198 112.384 221.756 112.992 221.421 113.659C221.256 113.987 221.117 114.329 221.005 114.68C221.458 114.042 222.027 113.495 222.683 113.067Z" fill="black"/>
<path d="M203.812 148.64C204.051 148.307 204.321 147.997 204.619 147.715C204.666 147.344 204.745 146.977 204.857 146.62C204.619 146.94 204.41 147.28 204.23 147.636C204.065 147.959 203.925 148.295 203.812 148.64Z" fill="black"/>
<path d="M205.876 144.561C206.115 144.227 206.386 143.918 206.684 143.636C206.728 143.274 206.804 142.917 206.911 142.568C206.684 142.879 206.482 143.207 206.309 143.551C206.139 143.876 205.995 144.214 205.876 144.561Z" fill="black"/>
<path d="M223.477 127.012C223.191 127.294 222.876 127.546 222.538 127.762C222.575 128.387 222.517 129.014 222.365 129.621C222.55 129.653 222.733 129.695 222.913 129.747C223.282 129.544 223.67 129.376 224.071 129.246C226.858 128.331 229.675 129.303 230.368 131.414C230.54 131.945 230.57 132.511 230.456 133.057C231.373 131.978 231.753 130.664 231.359 129.459C230.664 127.348 227.844 126.377 225.062 127.291C224.661 127.422 224.274 127.589 223.904 127.792C223.726 127.743 223.543 127.699 223.356 127.666C223.408 127.447 223.447 127.231 223.477 127.012Z" fill="black"/>
<path d="M202.793 150.691C202.555 151.011 202.345 151.351 202.166 151.707C201.999 152.037 201.858 152.379 201.744 152.731C201.989 152.396 202.264 152.084 202.565 151.8C202.608 151.424 202.684 151.053 202.793 150.691Z" fill="black"/>
<path d="M219.696 118.946C219.671 118.543 219.686 118.138 219.742 117.739C219.211 118.262 218.769 118.87 218.434 119.537C218.268 119.866 218.129 120.207 218.018 120.558C218.471 119.92 219.04 119.373 219.696 118.946Z" fill="black"/>
<path d="M215.401 142.918C215.347 143.326 215.255 143.727 215.127 144.117C215.341 143.818 215.532 143.503 215.699 143.176C215.879 142.824 216.028 142.458 216.145 142.081C215.921 142.38 215.672 142.661 215.401 142.918Z" fill="black"/>
<path d="M211.272 151.083C211.218 151.49 211.126 151.891 210.998 152.282C211.214 151.983 211.406 151.668 211.573 151.34C211.751 150.988 211.901 150.622 212.019 150.245C211.795 150.545 211.545 150.826 211.272 151.083Z" fill="black"/>
<path d="M213.336 146.998C213.283 147.405 213.191 147.806 213.062 148.196C213.281 147.903 213.477 147.594 213.648 147.271C213.828 146.92 213.977 146.553 214.095 146.177C213.865 146.471 213.612 146.746 213.336 146.998Z" fill="black"/>
<path d="M217.465 138.836C217.411 139.243 217.32 139.643 217.191 140.032C217.406 139.735 217.597 139.421 217.764 139.093C217.945 138.736 218.095 138.363 218.213 137.979C217.99 138.287 217.739 138.574 217.465 138.836Z" fill="black"/>
<path d="M203.948 128.512C206.062 127.819 208.515 129.514 209.424 132.299C209.552 132.701 209.644 133.114 209.698 133.533C210.167 133.9 210.577 134.337 210.913 134.828C211.04 134.283 211.231 133.754 211.483 133.254C211.579 133.068 211.683 132.89 211.79 132.706C211.479 132.276 211.11 131.891 210.694 131.562C210.641 131.144 210.549 130.732 210.421 130.33C209.506 127.546 207.053 125.848 204.945 126.544C203.74 126.938 202.908 128.025 202.585 129.399C202.955 128.991 203.425 128.685 203.948 128.512Z" fill="black"/>
<path d="M213.75 130.702C213.725 130.3 213.742 129.896 213.799 129.498C213.265 130.021 212.822 130.628 212.487 131.296C212.322 131.624 212.183 131.964 212.071 132.314C212.526 131.677 213.095 131.13 213.75 130.702Z" fill="black"/>
<path d="M216.723 124.821C216.699 124.419 216.716 124.015 216.773 123.617C216.239 124.138 215.795 124.745 215.461 125.412C215.296 125.741 215.157 126.082 215.045 126.433C215.498 125.795 216.067 125.248 216.723 124.821Z" fill="black"/>
<path d="M209.207 155.165C209.154 155.573 209.062 155.975 208.934 156.366C209.384 155.743 209.729 155.051 209.955 154.316C209.731 154.62 209.481 154.904 209.207 155.165Z" fill="black"/>
</g>
<path d="M235.419 102.292C236.384 101.657 237.162 100.776 237.672 99.74C239.017 97.0843 238.461 94.0973 236.432 93.0706C234.403 92.0439 231.668 93.3663 230.324 96.0247C229.792 97.0524 229.544 98.2038 229.607 99.3594C228.65 100.003 227.874 100.882 227.354 101.911C226.833 102.94 226.585 104.085 226.633 105.238C225.668 105.872 224.89 106.753 224.38 107.789C224.215 108.114 224.077 108.452 223.967 108.8C224.682 107.765 225.718 106.995 226.915 106.609C227.052 107.031 227.27 107.421 227.559 107.758C227.847 108.095 228.199 108.371 228.595 108.571C228.99 108.77 229.422 108.889 229.864 108.921C230.306 108.953 230.75 108.897 231.17 108.756C231.574 109.946 231.574 111.237 231.17 112.427C231.384 112.132 231.574 111.821 231.74 111.496C232.271 110.471 232.518 109.323 232.457 108.17C233.415 107.527 234.192 106.649 234.712 105.62C235.233 104.59 235.48 103.444 235.43 102.292H235.419Z" fill="#3F3D56"/>
<path d="M268.098 64.608C268.923 64.2229 269.721 63.781 270.485 63.2856L261.634 56.8188L272.038 62.1768C274.142 60.5048 275.884 58.4208 277.155 56.0523C278.426 53.6838 279.2 51.0808 279.43 48.4026L261.749 48.5833L279.468 45.621C279.285 42.9402 278.556 40.3251 277.325 37.9365C276.094 35.5479 274.388 33.436 272.312 31.7308C270.235 30.0255 267.832 28.7628 265.249 28.0202C262.667 27.2776 259.96 27.0708 257.295 27.4125C254.63 27.7542 252.062 28.6372 249.751 30.0072C247.439 31.3773 245.432 33.2054 243.853 35.3794C242.274 37.5534 241.156 40.0273 240.567 42.6492C239.979 45.271 239.933 47.9855 240.432 50.6258C239.147 51.2234 237.93 51.9577 236.802 52.8161L246.042 65.6648L234.948 54.4177C232.607 56.7167 230.876 59.5632 229.911 62.6997C228.947 65.8361 228.78 69.1635 229.426 72.3807C226.075 73.945 223.231 76.4204 221.22 79.5243C219.209 82.6281 218.111 86.235 218.053 89.9329C217.995 93.6309 218.978 97.2706 220.891 100.436C222.803 103.602 225.567 106.165 228.868 107.834C232.168 109.503 235.871 110.21 239.554 109.874C243.237 109.538 246.752 108.173 249.696 105.934C252.639 103.695 254.894 100.674 256.202 97.2144C257.51 93.755 257.818 89.9975 257.092 86.3712C261.102 84.5045 264.368 81.3433 266.364 77.3959C268.361 73.4485 268.971 68.9444 268.098 64.608Z" fill="#17305D"/>
<path opacity="0.1" d="M231.17 59.592C229.167 63.5375 228.555 68.0436 229.432 72.3805C226.08 73.9448 223.237 76.4202 221.226 79.5241C219.215 82.6279 218.117 86.2348 218.059 89.9327C218.001 93.6307 218.984 97.2704 220.896 100.436C222.809 103.602 225.573 106.165 228.873 107.834C232.174 109.503 235.877 110.21 239.56 109.874C243.243 109.538 246.758 108.173 249.701 105.934C252.645 103.695 254.9 100.674 256.208 97.2142C257.516 93.7548 257.824 89.9973 257.098 86.371C260.966 84.5749 232.161 57.6181 231.17 59.592Z" fill="black"/>
<path d="M253.385 31.0501C255.001 31.0501 256.312 29.7397 256.312 28.1233C256.312 26.5069 255.001 25.1965 253.385 25.1965C251.768 25.1965 250.458 26.5069 250.458 28.1233C250.458 29.7397 251.768 31.0501 253.385 31.0501Z" fill="#17305D"/>
<path d="M270.48 32.9282C272.097 32.9282 273.407 31.6179 273.407 30.0015C273.407 28.3851 272.097 27.0747 270.48 27.0747C268.864 27.0747 267.554 28.3851 267.554 30.0015C267.554 31.6179 268.864 32.9282 270.48 32.9282Z" fill="#17305D"/>
<path d="M277.073 59.228C278.69 59.228 280 57.9177 280 56.3013C280 54.6849 278.69 53.3745 277.073 53.3745C275.457 53.3745 274.146 54.6849 274.146 56.3013C274.146 57.9177 275.457 59.228 277.073 59.228Z" fill="#17305D"/>
<path d="M268.175 72.3616C269.791 72.3616 271.102 71.0512 271.102 69.4348C271.102 67.8184 269.791 66.5081 268.175 66.5081C266.558 66.5081 265.248 67.8184 265.248 69.4348C265.248 71.0512 266.558 72.3616 268.175 72.3616Z" fill="#17305D"/>
<path d="M256.019 99.6387C257.635 99.6387 258.945 98.3283 258.945 96.7119C258.945 95.0955 257.635 93.7852 256.019 93.7852C254.402 93.7852 253.092 95.0955 253.092 96.7119C253.092 98.3283 254.402 99.6387 256.019 99.6387Z" fill="#17305D"/>
<path opacity="0.1" d="M256.019 99.6387C257.635 99.6387 258.945 98.3283 258.945 96.7119C258.945 95.0955 257.635 93.7852 256.019 93.7852C254.402 93.7852 253.092 95.0955 253.092 96.7119C253.092 98.3283 254.402 99.6387 256.019 99.6387Z" fill="black"/>
<path d="M228.991 68.7449C230.608 68.7449 231.918 67.4345 231.918 65.8181C231.918 64.2017 230.608 62.8914 228.991 62.8914C227.375 62.8914 226.064 64.2017 226.064 65.8181C226.064 67.4345 227.375 68.7449 228.991 68.7449Z" fill="#17305D"/>
<path opacity="0.1" d="M228.991 68.7449C230.608 68.7449 231.918 67.4345 231.918 65.8181C231.918 64.2017 230.608 62.8914 228.991 62.8914C227.375 62.8914 226.064 64.2017 226.064 65.8181C226.064 67.4345 227.375 68.7449 228.991 68.7449Z" fill="black"/>
<path opacity="0.1" d="M225.869 113.958C223.923 112.975 223.334 110.19 224.47 107.622C224.41 107.726 224.353 107.833 224.298 107.945C222.954 110.601 223.509 113.585 225.538 114.612C227.567 115.639 230.302 114.316 231.644 111.661C231.701 111.551 231.75 111.439 231.8 111.329C230.406 113.769 227.813 114.943 225.869 113.958Z" fill="black"/>
<path opacity="0.1" d="M222.979 119.674C221.035 118.691 220.444 115.907 221.582 113.336C221.522 113.443 221.462 113.55 221.407 113.659C220.063 116.315 220.619 119.302 222.648 120.326C224.676 121.35 227.411 120.033 228.756 117.375C228.81 117.265 228.862 117.155 228.912 117.043C227.515 119.483 224.925 120.657 222.979 119.674Z" fill="black"/>
<path opacity="0.1" d="M220.087 125.388C218.143 124.405 217.552 121.621 218.691 119.053C218.631 119.157 218.571 119.264 218.516 119.376C217.172 122.032 217.73 125.016 219.759 126.042C221.788 127.069 224.52 125.747 225.864 123.091C225.919 122.982 225.971 122.869 226.02 122.76C224.627 125.199 222.034 126.374 220.087 125.388Z" fill="black"/>
<path opacity="0.1" d="M217.207 131.119C215.26 130.136 214.672 127.351 215.808 124.783C215.748 124.887 215.69 124.994 215.633 125.104C214.291 127.759 214.847 130.746 216.876 131.773C218.904 132.8 221.64 131.477 222.981 128.819C223.039 128.709 223.088 128.6 223.137 128.488C221.735 130.913 219.143 132.088 217.207 131.119Z" fill="black"/>
<path opacity="0.1" d="M214.308 136.819C212.361 135.836 211.773 133.052 212.909 130.483C212.849 130.587 212.791 130.694 212.736 130.806C211.392 133.462 211.948 136.446 213.977 137.473C216.005 138.5 218.74 137.177 220.085 134.522C220.14 134.412 220.192 134.3 220.241 134.19C218.85 136.63 216.252 137.804 214.308 136.819Z" fill="black"/>
<path opacity="0.1" d="M211.417 142.535C209.473 141.552 208.882 138.768 210.021 136.2C209.961 136.304 209.9 136.411 209.846 136.52C208.501 139.176 209.057 142.163 211.089 143.19C213.12 144.216 215.839 142.891 217.208 140.236C217.262 140.126 217.314 140.017 217.364 139.904C215.954 142.344 213.375 143.518 211.417 142.535Z" fill="black"/>
<path opacity="0.1" d="M208.526 148.249C206.582 147.266 205.99 144.482 207.129 141.914C207.069 142.021 207.012 142.125 206.954 142.237C205.612 144.893 206.168 147.877 208.197 148.904C210.226 149.93 212.961 148.608 214.302 145.952C214.36 145.843 214.409 145.73 214.458 145.621C213.065 148.06 210.472 149.235 208.526 148.249Z" fill="black"/>
<path opacity="0.1" d="M205.637 153.966C203.69 152.983 203.102 150.198 204.238 147.63C204.178 147.734 204.12 147.841 204.065 147.951C202.721 150.606 203.277 153.593 205.306 154.62C207.334 155.647 210.07 154.324 211.414 151.666C211.469 151.556 211.518 151.447 211.567 151.335C210.174 153.774 207.581 154.938 205.637 153.966Z" fill="black"/>
<path opacity="0.1" d="M203.737 157.722C201.793 156.737 201.201 153.955 202.34 151.384C202.28 151.491 202.22 151.598 202.165 151.707C200.821 154.363 201.377 157.35 203.405 158.374C205.434 159.398 208.169 158.081 209.513 155.422C209.568 155.313 209.62 155.203 209.67 155.091C208.273 157.531 205.68 158.705 203.737 157.722Z" fill="black"/>
<path d="M255.972 132.285C256.274 131.42 256.458 130.518 256.52 129.604C256.721 129.604 256.92 129.562 257.104 129.481C257.288 129.4 257.454 129.283 257.59 129.135C257.727 128.987 257.831 128.813 257.897 128.623C257.963 128.433 257.99 128.232 257.974 128.031C257.959 127.831 257.903 127.635 257.808 127.458C257.714 127.28 257.584 127.124 257.427 126.999C257.27 126.873 257.088 126.782 256.894 126.73C256.7 126.678 256.497 126.667 256.298 126.697C255.973 125.215 255.321 123.824 254.391 122.626C253.461 121.427 252.276 120.451 250.921 119.767C251.096 119.421 251.126 119.019 251.005 118.651C250.884 118.282 250.621 117.977 250.275 117.802C249.928 117.627 249.527 117.596 249.158 117.717C248.789 117.839 248.484 118.101 248.309 118.448C248.246 118.571 248.201 118.703 248.178 118.839C246.571 118.54 244.917 118.628 243.351 119.098C241.786 119.567 240.355 120.403 239.178 121.536C238.289 121.392 237.386 121.365 236.49 121.457L235.304 126.853L235.233 121.651C233.872 121.949 232.587 122.522 231.455 123.334C230.323 124.146 229.369 125.18 228.65 126.373C227.932 127.566 227.464 128.894 227.276 130.274C227.087 131.654 227.183 133.058 227.555 134.4C227.928 135.743 228.571 136.995 229.444 138.08C230.317 139.165 231.402 140.061 232.633 140.713C233.865 141.365 235.216 141.758 236.604 141.87C237.993 141.982 239.389 141.81 240.709 141.363C240.85 141.618 241.065 141.824 241.325 141.955C241.593 142.091 241.896 142.141 242.194 142.099C242.492 142.056 242.769 141.923 242.988 141.717C243.207 141.511 243.358 141.242 243.419 140.948C243.48 140.653 243.448 140.347 243.329 140.071C243.796 139.75 244.235 139.391 244.643 138.998C246.78 139.345 248.973 139.007 250.906 138.032C252.84 137.057 254.415 135.494 255.406 133.569L249.889 132.641L255.972 132.285Z" fill="#17305D"/>
<g opacity="0.1">
<path d="M247.449 134.905C245.412 132.217 244.164 129.032 242.727 125.977C242.149 124.723 241.503 123.502 240.791 122.319L239.712 121.062C239.532 121.216 239.351 121.375 239.165 121.542C238.276 121.398 237.372 121.371 236.476 121.462L235.291 126.859L235.219 121.657C233.859 121.955 232.573 122.527 231.441 123.339C230.309 124.151 229.355 125.186 228.636 126.379C227.918 127.572 227.45 128.899 227.262 130.28C227.074 131.66 227.169 133.064 227.542 134.406C227.915 135.748 228.557 137 229.43 138.086C230.303 139.171 231.389 140.067 232.62 140.719C233.851 141.37 235.202 141.764 236.59 141.876C237.979 141.988 239.376 141.815 240.695 141.369C240.836 141.624 241.051 141.83 241.311 141.961C241.579 142.097 241.883 142.147 242.18 142.104C242.478 142.062 242.755 141.928 242.975 141.722C243.194 141.516 243.344 141.248 243.405 140.953C243.466 140.659 243.435 140.353 243.315 140.077C243.782 139.756 244.222 139.397 244.629 139.004C246.722 139.342 248.868 139.025 250.773 138.095C249.502 137.216 248.379 136.139 247.449 134.905Z" fill="black"/>
</g>
<path d="M211.378 123.351C211.491 123.128 211.545 122.88 211.534 122.63C211.524 122.38 211.449 122.137 211.318 121.924C211.187 121.711 211.003 121.535 210.784 121.414C210.566 121.292 210.32 121.229 210.07 121.229C209.655 119.029 208.529 117.026 206.866 115.526C207.134 114.481 207.236 113.4 207.168 112.323L201.788 111.406L207.011 111.077C206.918 110.587 206.789 110.104 206.625 109.632C206.829 109.492 206.994 109.304 207.107 109.084C207.239 108.823 207.289 108.527 207.252 108.237C207.214 107.946 207.09 107.674 206.895 107.454C206.701 107.235 206.446 107.079 206.162 107.006C205.878 106.934 205.579 106.948 205.303 107.047C203.92 105.092 201.895 103.684 199.581 103.067C197.267 102.449 194.81 102.662 192.636 103.668C190.463 104.675 188.711 106.41 187.684 108.574C186.658 110.738 186.421 113.193 187.017 115.513C186.7 115.646 186.442 115.889 186.289 116.197C186.154 116.462 186.104 116.762 186.144 117.057C186.185 117.351 186.314 117.626 186.515 117.845C186.715 118.065 186.978 118.217 187.268 118.283C187.558 118.349 187.861 118.326 188.137 118.215C188.662 119.097 189.316 119.895 190.078 120.583C189.523 122.746 189.691 125.03 190.554 127.088L197.768 125.216L191.335 128.6C192.472 130.407 194.146 131.814 196.123 132.624C198.099 133.433 200.279 133.605 202.358 133.114C204.437 132.624 206.311 131.496 207.717 129.888C209.123 128.28 209.992 126.274 210.201 124.148C210.449 124.127 210.687 124.042 210.893 123.903C211.099 123.763 211.266 123.573 211.378 123.351Z" fill="#17305D"/>
<path opacity="0.1" d="M211.378 123.351C211.491 123.128 211.545 122.88 211.534 122.63C211.524 122.38 211.449 122.137 211.318 121.924C211.187 121.711 211.003 121.535 210.784 121.414C210.566 121.292 210.32 121.229 210.07 121.229C209.655 119.029 208.529 117.026 206.866 115.526C206.91 115.354 206.948 115.184 206.981 115.012C206.79 115.15 206.613 115.307 206.453 115.48C205.481 116.545 204.983 117.977 204.022 119.053C202.888 120.323 201.191 120.986 199.496 121.164C197.801 121.342 196.096 121.082 194.423 120.756C193.037 120.482 191.633 120.164 190.228 120.299C190.092 120.299 189.955 120.329 189.829 120.351C189.911 120.43 189.993 120.509 190.078 120.586C189.523 122.748 189.691 125.033 190.554 127.091L197.768 125.216L191.334 128.6C192.472 130.407 194.146 131.814 196.123 132.624C198.099 133.433 200.279 133.605 202.358 133.114C204.437 132.624 206.31 131.496 207.717 129.888C209.123 128.28 209.991 126.273 210.201 124.148C210.449 124.127 210.687 124.042 210.893 123.903C211.099 123.763 211.266 123.573 211.378 123.351Z" fill="black"/>
</g>
<g opacity="0.1">
<path d="M24.5009 139.97C24.8513 138.905 26.2722 138.415 27.674 138.875C27.8756 138.941 28.0708 139.025 28.2572 139.127C28.3475 139.102 28.4406 139.08 28.531 139.064C28.454 138.758 28.4245 138.442 28.4434 138.127C27.9622 137.802 27.572 137.359 27.31 136.841C27.0479 136.322 26.9225 135.746 26.9458 135.165C26.4603 134.846 26.069 134.402 25.8123 133.881C25.5447 133.365 25.4191 132.786 25.4481 132.206C24.9631 131.884 24.5719 131.44 24.3147 130.919C23.6412 129.583 23.915 128.08 24.9416 127.559C25.9683 127.039 27.3427 127.71 28.019 129.046C28.2861 129.564 28.4108 130.143 28.3804 130.724C28.8629 131.048 29.254 131.49 29.5163 132.008C29.7786 132.527 29.9031 133.104 29.878 133.684C30.3603 134.008 30.7513 134.451 31.0135 134.97C31.2757 135.488 31.4004 136.066 31.3756 136.646C31.8581 136.97 32.2493 137.412 32.5115 137.93C32.7738 138.449 32.8983 139.026 32.8732 139.606C33.3593 139.927 33.7514 140.371 34.0094 140.893C34.1325 141.145 34.2244 141.412 34.2832 141.687C34.4519 141.438 34.6578 141.218 34.8937 141.032C34.9219 140.821 34.9695 140.613 35.0361 140.411C35.4988 139.009 36.7336 138.155 37.7986 138.494C38.8636 138.834 39.351 140.266 38.8937 141.668C38.7048 142.269 38.3418 142.802 37.8506 143.198C37.8222 143.408 37.7745 143.615 37.7082 143.817C37.4835 144.56 36.9829 145.189 36.3092 145.574C36.362 145.754 36.4005 145.937 36.4242 146.122C36.7069 146.393 36.9411 146.711 37.1169 147.061C37.296 147.411 37.4127 147.789 37.4618 148.178C37.7456 148.449 37.9808 148.767 38.1573 149.117C38.336 149.467 38.4527 149.845 38.5022 150.234C38.7866 150.506 39.0219 150.824 39.1976 151.176C39.8739 152.512 39.5946 154.018 38.5734 154.533C37.5522 155.047 36.1723 154.385 35.4961 153.046C35.3178 152.696 35.2011 152.318 35.1511 151.929C34.5807 151.382 34.2137 150.657 34.1107 149.873C33.5403 149.326 33.1733 148.6 33.0703 147.817C32.7868 147.546 32.5516 147.228 32.3749 146.878C32.1978 146.527 32.0812 146.15 32.0299 145.761C31.7473 145.489 31.513 145.172 31.3373 144.822C31.1581 144.472 31.0414 144.094 30.9923 143.704C30.816 143.54 30.659 143.357 30.5241 143.157C29.9608 143.272 29.3771 143.236 28.8321 143.053C28.6297 142.985 28.4337 142.9 28.2462 142.798C27.6373 142.96 26.9941 142.937 26.3982 142.733C25.0101 142.27 24.1531 141.035 24.5009 139.97Z" fill="#3F3D56"/>
<g opacity="0.1">
<path d="M26.9727 135.773C27.1178 135.916 27.2775 136.043 27.449 136.153C27.4259 136.546 27.4779 136.94 27.6024 137.314C27.4924 137.164 27.3953 137.006 27.3122 136.84C27.1409 136.505 27.0262 136.145 26.9727 135.773Z" fill="black"/>
<path d="M25.4756 132.816C25.6215 132.957 25.7811 133.084 25.952 133.194C25.929 133.588 25.981 133.982 26.1053 134.357C25.7736 133.902 25.5576 133.373 25.4756 132.816Z" fill="black"/>
<path d="M28.8783 131.712C28.8914 131.509 28.884 131.306 28.8564 131.105C29.1241 131.369 29.347 131.675 29.5163 132.01C29.5989 132.176 29.6685 132.348 29.7243 132.524C29.4962 132.203 29.2091 131.927 28.8783 131.712Z" fill="black"/>
<path d="M38.3792 149.634C38.2595 149.466 38.1238 149.31 37.974 149.169C37.949 148.983 37.9087 148.8 37.8535 148.622C37.9723 148.782 38.0776 148.952 38.1684 149.13C38.2514 149.292 38.3219 149.461 38.3792 149.634Z" fill="black"/>
<path d="M37.3298 147.577C37.2101 147.41 37.0744 147.254 36.9246 147.112C36.9022 146.927 36.8637 146.744 36.8096 146.565C37.0351 146.871 37.209 147.211 37.3243 147.572L37.3298 147.577Z" fill="black"/>
<path d="M28.4732 138.741C28.6169 138.882 28.7757 139.008 28.9468 139.116C28.9264 139.43 28.9559 139.746 29.0344 140.052C28.9421 140.068 28.8508 140.089 28.7606 140.115C28.5731 140.014 28.3771 139.93 28.1747 139.863C26.773 139.403 25.352 139.893 25.0043 140.958C24.9172 141.223 24.9011 141.506 24.9578 141.78C24.7325 141.543 24.5723 141.251 24.4927 140.934C24.4131 140.617 24.4167 140.285 24.5033 139.97C24.8537 138.905 26.2747 138.415 27.6765 138.875C27.8781 138.941 28.0733 139.025 28.2596 139.127C28.35 139.102 28.4431 139.08 28.5334 139.064C28.5071 138.957 28.487 138.849 28.4732 138.741Z" fill="black"/>
<path d="M38.8936 150.667C39.013 150.828 39.1183 150.999 39.2084 151.178C39.292 151.344 39.3625 151.516 39.4192 151.692C39.2995 151.524 39.1638 151.367 39.014 151.225C38.9896 151.036 38.9493 150.849 38.8936 150.667Z" fill="black"/>
<path d="M30.3764 134.677C30.3895 134.474 30.3821 134.271 30.3545 134.07C30.6228 134.333 30.8457 134.639 31.0143 134.975C31.097 135.14 31.1665 135.311 31.2224 135.487C30.9942 135.166 30.7071 134.891 30.3764 134.677Z" fill="black"/>
<path d="M32.5417 146.751C32.5673 146.956 32.6122 147.157 32.6759 147.353C32.4477 147.04 32.2737 146.692 32.1611 146.322C32.2749 146.476 32.4023 146.62 32.5417 146.751Z" fill="black"/>
<path d="M34.62 150.863C34.6476 151.068 34.6934 151.269 34.7569 151.465C34.6469 151.316 34.5498 151.158 34.4667 150.992C34.3766 150.816 34.3015 150.633 34.2422 150.445C34.3568 150.594 34.4832 150.734 34.62 150.863Z" fill="black"/>
<path d="M33.5817 148.807C33.6074 149.012 33.6523 149.213 33.7159 149.409C33.6068 149.259 33.5098 149.101 33.4257 148.936C33.3353 148.76 33.2602 148.577 33.2012 148.389C33.3154 148.539 33.4428 148.679 33.5817 148.807Z" fill="black"/>
<path d="M31.5016 144.692C31.527 144.898 31.5719 145.1 31.6358 145.297C31.532 145.147 31.4404 144.988 31.362 144.824C31.2702 144.648 31.1942 144.465 31.1348 144.277C31.2441 144.426 31.367 144.565 31.5016 144.692Z" fill="black"/>
<path d="M38.3107 139.493C37.2457 139.143 36.0109 139.997 35.5509 141.41C35.4844 141.612 35.4367 141.82 35.4086 142.031C35.1718 142.216 34.9649 142.436 34.7953 142.683C34.7317 142.408 34.6352 142.141 34.5078 141.889C34.4613 141.796 34.4092 141.706 34.3545 141.615C34.5099 141.4 34.6941 141.206 34.9021 141.04C34.9302 140.829 34.9779 140.621 35.0444 140.419C35.5071 139.017 36.7419 138.163 37.8069 138.502C38.1123 138.62 38.3822 138.814 38.5904 139.066C38.7986 139.318 38.938 139.62 38.9951 139.942C38.8091 139.737 38.5734 139.582 38.3107 139.493Z" fill="black"/>
<path d="M33.3715 140.596C33.3845 140.394 33.3772 140.19 33.3496 139.989C33.6179 140.252 33.8408 140.558 34.0094 140.894C34.0921 141.06 34.1617 141.232 34.2175 141.409C33.9901 141.086 33.7029 140.811 33.3715 140.596Z" fill="black"/>
<path d="M31.8735 137.634C31.8865 137.431 31.8791 137.228 31.8516 137.027C32.1186 137.291 32.3414 137.597 32.5114 137.932C32.594 138.098 32.6636 138.27 32.7195 138.446C32.4913 138.125 32.2043 137.849 31.8735 137.634Z" fill="black"/>
<path d="M35.66 152.919C35.6863 153.125 35.7322 153.327 35.7969 153.524C35.6875 153.373 35.5905 153.214 35.5067 153.048C35.4167 152.872 35.3416 152.689 35.2822 152.501C35.3969 152.65 35.5232 152.79 35.66 152.919Z" fill="black"/>
</g>
<path d="M22.4556 126.284C21.9702 125.964 21.5789 125.521 21.3222 124.999C20.6459 123.661 20.9252 122.158 21.9464 121.64C22.9676 121.123 24.3475 121.788 25.0237 123.127C25.2912 123.643 25.416 124.222 25.3851 124.802C25.8674 125.127 26.2584 125.569 26.5207 126.088C26.7829 126.607 26.9076 127.184 26.8827 127.765C27.3684 128.085 27.7605 128.528 28.0189 129.049C28.1011 129.213 28.1707 129.383 28.227 129.558C27.8643 129.04 27.3422 128.656 26.7404 128.463C26.6733 128.677 26.5643 128.875 26.4197 129.046C26.2752 129.218 26.0979 129.358 25.8983 129.46C25.6987 129.562 25.4808 129.623 25.2573 129.64C25.0338 129.657 24.8092 129.629 24.5966 129.558C24.3936 130.157 24.3936 130.807 24.5966 131.406C24.4938 131.257 24.4022 131.101 24.3228 130.938C24.0553 130.421 23.9296 129.843 23.9587 129.262C23.4769 128.937 23.0864 128.495 22.8242 127.976C22.5621 127.458 22.4371 126.881 22.4611 126.3L22.4556 126.284Z" fill="#3F3D56"/>
<path d="M5.99633 107.299C5.58103 107.105 5.17946 106.883 4.79441 106.634L9.25164 103.376L4.01139 106.073C2.95187 105.23 2.07541 104.18 1.43565 102.987C0.795884 101.795 0.406269 100.484 0.290649 99.135L9.19962 99.2281L0.271484 97.7332C0.348359 96.3712 0.70489 95.0396 1.31887 93.8214C1.93284 92.6032 2.79111 91.5244 3.84019 90.6524C4.88927 89.7804 6.10668 89.1337 7.41659 88.7527C8.7265 88.3718 10.1008 88.2646 11.454 88.438C12.8071 88.6113 14.11 89.0615 15.2816 89.7604C16.4531 90.4593 17.4682 91.3919 18.2636 92.5003C19.0589 93.6086 19.6175 94.8688 19.9046 96.2025C20.1916 97.5361 20.201 98.9146 19.932 100.252C20.5787 100.551 21.1918 100.918 21.7609 101.347L17.1065 107.819L22.6945 102.158C23.8736 103.316 24.7455 104.75 25.2312 106.33C25.7168 107.909 25.801 109.586 25.4761 111.206C27.1665 111.994 28.6012 113.241 29.6161 114.805C30.6311 116.369 31.1853 118.188 31.2154 120.052C31.2455 121.917 30.7503 123.752 29.7864 125.348C28.8225 126.945 27.4288 128.238 25.7648 129.079C24.1007 129.921 22.2334 130.277 20.3764 130.107C18.5194 129.937 16.7476 129.248 15.2637 128.119C13.7799 126.99 12.6437 125.466 11.9853 123.721C11.3269 121.976 11.1727 120.082 11.5405 118.253C9.52294 117.313 7.87968 115.722 6.87431 113.737C5.86895 111.751 5.55976 109.485 5.99633 107.302V107.299Z" fill="#17305D"/>
<path opacity="0.1" d="M24.5994 104.775C25.6091 106.762 25.9179 109.032 25.4755 111.217C27.1659 112.004 28.6006 113.252 29.6155 114.816C30.6304 116.38 31.1846 118.199 31.2148 120.063C31.2449 121.928 30.7497 123.763 29.7858 125.359C28.8219 126.956 27.4282 128.249 25.7641 129.09C24.1 129.932 22.2327 130.288 20.3757 130.118C18.5187 129.948 16.747 129.259 15.2631 128.13C13.7792 127.001 12.6431 125.476 11.9847 123.732C11.3263 121.987 11.1721 120.092 11.5398 118.264C9.58775 117.358 24.0984 103.781 24.5994 104.775Z" fill="black"/>
<path d="M13.4073 90.3957C14.2223 90.3957 14.883 89.735 14.883 88.92C14.883 88.105 14.2223 87.4443 13.4073 87.4443C12.5923 87.4443 11.9316 88.105 11.9316 88.92C11.9316 89.735 12.5923 90.3957 13.4073 90.3957Z" fill="#17305D"/>
<path d="M4.79406 91.343C5.60907 91.343 6.26976 90.6823 6.26976 89.8673C6.26976 89.0523 5.60907 88.3916 4.79406 88.3916C3.97905 88.3916 3.31836 89.0523 3.31836 89.8673C3.31836 90.6823 3.97905 91.343 4.79406 91.343Z" fill="#17305D"/>
<path d="M1.4757 104.592C2.29071 104.592 2.9514 103.931 2.9514 103.116C2.9514 102.301 2.29071 101.64 1.4757 101.64C0.660694 101.64 0 102.301 0 103.116C0 103.931 0.660694 104.592 1.4757 104.592Z" fill="#17305D"/>
<path d="M5.95715 111.209C6.77215 111.209 7.43285 110.548 7.43285 109.733C7.43285 108.918 6.77215 108.258 5.95715 108.258C5.14214 108.258 4.48145 108.918 4.48145 109.733C4.48145 110.548 5.14214 111.209 5.95715 111.209Z" fill="#17305D"/>
<path d="M12.0792 124.95C12.8942 124.95 13.5549 124.289 13.5549 123.474C13.5549 122.659 12.8942 121.999 12.0792 121.999C11.2642 121.999 10.6035 122.659 10.6035 123.474C10.6035 124.289 11.2642 124.95 12.0792 124.95Z" fill="#17305D"/>
<path opacity="0.1" d="M12.0792 124.95C12.8942 124.95 13.5549 124.289 13.5549 123.474C13.5549 122.659 12.8942 121.999 12.0792 121.999C11.2642 121.999 10.6035 122.659 10.6035 123.474C10.6035 124.289 11.2642 124.95 12.0792 124.95Z" fill="black"/>
<path d="M25.6945 109.385C26.5095 109.385 27.1702 108.725 27.1702 107.91C27.1702 107.095 26.5095 106.434 25.6945 106.434C24.8794 106.434 24.2188 107.095 24.2188 107.91C24.2188 108.725 24.8794 109.385 25.6945 109.385Z" fill="#17305D"/>
<path opacity="0.1" d="M25.6945 109.385C26.5095 109.385 27.1702 108.725 27.1702 107.91C27.1702 107.095 26.5095 106.434 25.6945 106.434C24.8794 106.434 24.2188 107.095 24.2188 107.91C24.2188 108.725 24.8794 109.385 25.6945 109.385Z" fill="black"/>
<path opacity="0.1" d="M27.269 132.162C28.2492 131.666 28.5449 130.264 27.9727 128.969C28.0028 129.024 28.0329 129.076 28.0603 129.131C28.7365 130.47 28.4573 131.973 27.4333 132.49C26.4093 133.008 25.0349 132.342 24.3587 131.003C24.3313 130.949 24.3039 130.894 24.2793 130.836C24.9829 132.066 26.2889 132.657 27.269 132.162Z" fill="black"/>
<path opacity="0.1" d="M28.7223 135.042C29.7025 134.546 30.0009 133.142 29.4287 131.85C29.4588 131.902 29.4889 131.956 29.5163 132.011C30.1926 133.35 29.9133 134.853 28.8894 135.37C27.8654 135.888 26.491 135.223 25.8148 133.884C25.7846 133.829 25.76 133.772 25.7354 133.717C26.439 134.952 27.7477 135.538 28.7223 135.042Z" fill="black"/>
<path opacity="0.1" d="M30.1794 137.919C31.1595 137.424 31.458 136.022 30.883 134.727C30.9159 134.782 30.9432 134.834 30.9734 134.891C31.6496 136.227 31.3676 137.733 30.3464 138.248C29.3252 138.763 27.948 138.1 27.2718 136.761C27.2417 136.707 27.217 136.652 27.1924 136.594C27.8933 137.824 29.1992 138.415 30.1794 137.919Z" fill="black"/>
<path opacity="0.1" d="M31.6354 140.8C32.6156 140.304 32.914 138.902 32.3391 137.607C32.3692 137.659 32.3993 137.714 32.4267 137.769C33.1057 139.108 32.8237 140.611 31.8024 141.128C30.7812 141.646 29.4014 140.98 28.7251 139.641C28.6977 139.587 28.6731 139.529 28.6484 139.474C29.3493 140.701 30.6553 141.295 31.6354 140.8Z" fill="black"/>
<path opacity="0.1" d="M33.0923 143.677C34.0724 143.182 34.3681 141.78 33.7959 140.488C33.826 140.54 33.8561 140.594 33.8835 140.649C34.5598 141.988 34.2805 143.491 33.2593 144.008C32.2381 144.526 30.8582 143.858 30.1819 142.522C30.1546 142.464 30.1299 142.41 30.1025 142.355C30.8062 143.581 32.1121 144.173 33.0923 143.677Z" fill="black"/>
<path opacity="0.1" d="M34.5493 146.557C35.5295 146.062 35.8251 144.66 35.2529 143.365C35.283 143.42 35.3132 143.472 35.3405 143.527C36.0168 144.865 35.7375 146.368 34.7163 146.886C33.6951 147.403 32.3152 146.738 31.639 145.399C31.6116 145.344 31.5842 145.29 31.5596 145.232C32.2632 146.451 33.5692 147.053 34.5493 146.557Z" fill="black"/>
<path opacity="0.1" d="M36.0054 149.437C36.9828 148.942 37.2812 147.537 36.709 146.245C36.7391 146.297 36.7692 146.352 36.7966 146.407C37.4728 147.745 37.1936 149.249 36.1696 149.766C35.1457 150.283 33.7713 149.615 33.095 148.279C33.0676 148.222 33.0403 148.167 33.0156 148.112C33.7193 149.339 35.0252 149.933 36.0054 149.437Z" fill="black"/>
<path opacity="0.1" d="M37.4597 152.315C38.4398 151.819 38.7382 150.418 38.1633 149.123C38.1961 149.177 38.2235 149.229 38.2536 149.287C38.9299 150.623 38.6479 152.129 37.6267 152.643C36.6054 153.158 35.2283 152.496 34.5521 151.157C34.5219 151.102 34.4973 151.047 34.4727 150.99C35.1763 152.219 36.4795 152.81 37.4597 152.315Z" fill="black"/>
<path opacity="0.1" d="M38.4253 154.207C39.4054 153.711 39.7011 152.309 39.1289 151.014C39.159 151.069 39.1891 151.121 39.2165 151.179C39.8928 152.515 39.6135 154.021 38.5923 154.535C37.5711 155.05 36.1912 154.387 35.5149 153.049C35.4876 152.994 35.4602 152.939 35.4355 152.882C36.131 154.116 37.4369 154.702 38.4253 154.207Z" fill="black"/>
<path d="M12.1044 141.394C11.9523 140.958 11.8602 140.504 11.8306 140.044C11.7293 140.044 11.6292 140.022 11.5366 139.982C11.4439 139.941 11.3606 139.881 11.292 139.807C11.2233 139.733 11.1707 139.645 11.1375 139.549C11.1043 139.454 11.0911 139.352 11.0988 139.251C11.1066 139.15 11.135 139.052 11.1824 138.963C11.2299 138.873 11.2952 138.794 11.3744 138.731C11.4536 138.668 11.545 138.622 11.6428 138.596C11.7406 138.57 11.8427 138.564 11.9428 138.579C12.1071 137.833 12.4353 137.133 12.9036 136.529C13.3719 135.925 13.9686 135.433 14.6506 135.088C14.5623 134.914 14.5471 134.711 14.6082 134.525C14.6693 134.34 14.8017 134.186 14.9764 134.097C15.151 134.009 15.3535 133.994 15.5394 134.055C15.7253 134.116 15.8792 134.248 15.9675 134.423C15.9995 134.485 16.0217 134.552 16.0332 134.62C16.8433 134.472 17.6772 134.518 18.4657 134.756C19.2542 134.994 19.9746 135.417 20.567 135.989C21.0196 135.915 21.48 135.902 21.936 135.951L22.5328 138.667L22.5465 136.047C23.2254 136.204 23.8654 136.496 24.428 136.907C24.9907 137.318 25.4643 137.839 25.8203 138.438C26.1764 139.037 26.4074 139.701 26.4996 140.392C26.5918 141.083 26.5432 141.785 26.3567 142.456C26.1703 143.127 25.8498 143.754 25.4146 144.298C24.9795 144.842 24.4387 145.293 23.8248 145.622C23.2108 145.952 22.5366 146.153 21.8426 146.215C21.1486 146.277 20.4493 146.198 19.7868 145.982C19.7147 146.11 19.6072 146.213 19.4774 146.281C19.3421 146.349 19.189 146.374 19.039 146.353C18.8889 146.331 18.7492 146.264 18.6386 146.16C18.528 146.056 18.452 145.921 18.4209 145.773C18.3897 145.624 18.4049 145.47 18.4644 145.331C18.2296 145.167 18.0089 144.984 17.8046 144.783C16.7276 144.958 15.6231 144.787 14.6493 144.295C13.6755 143.803 12.8824 143.016 12.3836 142.045L15.1625 141.577L12.1044 141.394Z" fill="#17305D"/>
<g opacity="0.1">
<path d="M16.3973 142.713C17.424 141.344 18.0537 139.756 18.7765 138.218C19.0659 137.585 19.3913 136.968 19.7511 136.372L20.2987 135.74C20.3918 135.819 20.4821 135.899 20.5725 135.981C21.025 135.907 21.4854 135.894 21.9414 135.943L22.5383 138.659L22.5465 136.047C23.2253 136.204 23.8653 136.496 24.428 136.907C24.9906 137.318 25.4643 137.839 25.8203 138.438C26.1763 139.037 26.4074 139.701 26.4996 140.392C26.5918 141.083 26.5432 141.785 26.3567 142.456C26.1702 143.127 25.8498 143.754 25.4146 144.298C24.9794 144.842 24.4386 145.293 23.8247 145.622C23.2108 145.952 22.5365 146.153 21.8426 146.215C21.1486 146.277 20.4492 146.198 19.7867 145.982C19.7147 146.11 19.6072 146.213 19.4773 146.281C19.342 146.349 19.189 146.374 19.0389 146.352C18.8889 146.331 18.7491 146.264 18.6386 146.16C18.528 146.056 18.452 145.921 18.4208 145.773C18.3897 145.624 18.4048 145.47 18.4643 145.331C18.2296 145.167 18.0089 144.984 17.8045 144.783C16.7499 144.952 15.6688 144.793 14.708 144.326C15.3542 143.883 15.9246 143.338 16.3973 142.713Z" fill="black"/>
</g>
<path d="M34.5678 136.893C34.524 136.806 34.4977 136.712 34.4904 136.616C34.4831 136.519 34.4949 136.423 34.5252 136.331C34.5554 136.239 34.6036 136.154 34.6668 136.081C34.73 136.007 34.8071 135.948 34.8936 135.904C34.997 135.851 35.1115 135.824 35.2276 135.825C35.4365 134.716 36.0029 133.706 36.8402 132.95C36.7048 132.424 36.654 131.88 36.6896 131.338L39.3974 130.883L36.7663 130.716C36.814 130.469 36.8798 130.225 36.9634 129.988C36.86 129.919 36.7761 129.825 36.7198 129.714C36.6539 129.582 36.629 129.434 36.6482 129.287C36.6675 129.141 36.73 129.004 36.8277 128.894C36.9254 128.783 37.0539 128.705 37.1966 128.668C37.3393 128.631 37.4898 128.638 37.6287 128.687C38.1123 127.999 38.7584 127.442 39.5096 127.064C40.3944 126.615 41.39 126.43 42.3768 126.533C43.3637 126.636 44.3001 127.021 45.0737 127.642C45.8473 128.263 46.4253 129.094 46.7384 130.036C47.0515 130.977 47.0863 131.989 46.8389 132.95C46.9675 133.005 47.0778 133.096 47.1568 133.212C47.2358 133.327 47.2802 133.463 47.2848 133.603C47.2894 133.743 47.254 133.881 47.1828 134.002C47.1115 134.122 47.0074 134.22 46.8827 134.283C46.7891 134.331 46.6865 134.358 46.5817 134.363C46.4769 134.367 46.3723 134.35 46.2749 134.311C46.0106 134.754 45.6811 135.154 45.2974 135.499C45.578 136.591 45.4944 137.745 45.0592 138.784L41.4371 137.832L44.6759 139.537C44.1897 140.313 43.5058 140.946 42.6944 141.371C41.883 141.795 40.9733 141.996 40.0585 141.953C39.1438 141.91 38.2569 141.625 37.4888 141.126C36.7207 140.628 36.0991 139.934 35.6876 139.116C35.4011 138.546 35.2211 137.929 35.1564 137.295C35.0321 137.284 34.9128 137.241 34.8097 137.17C34.7067 137.1 34.6234 137.004 34.5678 136.893Z" fill="#17305D"/>
<path opacity="0.1" d="M34.5678 136.893C34.524 136.807 34.4977 136.712 34.4904 136.616C34.4831 136.52 34.4949 136.423 34.5252 136.331C34.5554 136.239 34.6036 136.154 34.6668 136.081C34.73 136.008 34.8071 135.948 34.8936 135.904C34.997 135.851 35.1115 135.824 35.2276 135.825C35.4365 134.716 36.0029 133.706 36.8402 132.95C36.8183 132.865 36.7992 132.778 36.7827 132.693C36.8809 132.763 36.9726 132.842 37.0565 132.928C37.5466 133.476 37.7985 134.185 38.2803 134.727C38.8841 135.35 39.6958 135.729 40.561 135.792C41.4179 135.851 42.2789 135.782 43.1154 135.587C43.8053 135.409 44.517 135.331 45.229 135.354L45.4316 135.381L45.3057 135.499C45.5863 136.591 45.5026 137.745 45.0675 138.785L41.4371 137.832L44.6759 139.537C44.1897 140.313 43.5058 140.946 42.6944 141.371C41.883 141.795 40.9733 141.996 40.0585 141.954C39.1438 141.911 38.2569 141.625 37.4888 141.127C36.7207 140.628 36.0991 139.934 35.6876 139.116C35.4011 138.546 35.2211 137.929 35.1564 137.295C35.0321 137.284 34.9128 137.241 34.8097 137.171C34.7067 137.1 34.6234 137.005 34.5678 136.893Z" fill="black"/>
</g>
<path opacity="0.1" d="M94.8256 14.2122C93.7432 14.0068 92.6241 14.1288 91.6113 14.5627C91.0039 14.8334 90.3462 14.9733 89.6812 14.9733C89.0161 14.9733 88.3585 14.8334 87.751 14.5627C87.033 14.248 86.2552 14.093 85.4714 14.1086C84.6876 14.1242 83.9165 14.31 83.2116 14.653C82.809 14.8657 82.3609 14.9775 81.9057 14.9788C80.0658 14.9788 78.5354 13.1253 78.2178 10.6804C78.5846 10.4115 78.8968 10.0751 79.1377 9.68932C80.2164 7.95078 81.8755 6.83374 83.7619 6.83374C85.6483 6.83374 87.291 7.92888 88.3697 9.65646C88.692 10.1753 89.1423 10.6024 89.6775 10.8968C90.2126 11.1912 90.8144 11.343 91.4252 11.3375H91.4745C92.9255 11.3293 94.1931 12.5038 94.8256 14.2122Z" fill="#17305D"/>
<path opacity="0.1" d="M100.416 6.5462L97.4432 8.43258L99.2474 5.14716C98.7358 4.73945 98.1028 4.51401 97.4486 4.5065H97.4021C97.1958 4.50903 96.9897 4.49345 96.7861 4.45996L95.7758 5.10062L96.2084 4.31485C95.4965 4.0671 94.88 3.60278 94.4452 2.987L92.6355 4.11773L93.7745 2.04517C92.7204 0.777549 91.2967 0 89.7334 0C87.858 0 86.1742 1.11704 85.1064 2.85558C84.7869 3.37487 84.3357 3.80037 83.7986 4.08888C83.2615 4.3774 82.6576 4.51865 82.0482 4.49829H81.9579C79.8881 4.49829 78.207 6.84463 78.207 9.74401C78.207 12.6434 79.8881 14.987 81.9579 14.987C82.4132 14.9856 82.8613 14.8738 83.2638 14.6612C83.9687 14.3179 84.7399 14.1322 85.5239 14.117C86.3078 14.1019 87.0856 14.2577 87.8032 14.5736C88.4109 14.8435 89.0684 14.9829 89.7334 14.9829C90.3983 14.9829 91.0559 14.8435 91.6636 14.5736C92.3757 14.2644 93.1461 14.1122 93.9223 14.1273C94.6985 14.1424 95.4623 14.3245 96.1619 14.6612C96.5613 14.8681 97.0043 14.977 97.4541 14.9788C99.5267 14.9788 101.205 12.6324 101.205 9.7358C101.212 8.62348 100.941 7.52701 100.416 6.5462Z" fill="#17305D"/>
<path opacity="0.1" d="M32.9499 52.1424C31.4038 51.8498 29.8057 52.0233 28.3585 52.6406C27.4899 53.0257 26.55 53.2234 25.6 53.2211C24.65 53.2187 23.7111 53.0163 22.8444 52.627C21.819 52.1774 20.7081 51.956 19.5887 51.9782C18.4692 52.0004 17.368 52.2657 16.3612 52.7556C15.7854 53.059 15.1448 53.2187 14.494 53.2211C11.8657 53.2211 9.67812 50.5736 9.22363 47.0801C9.74884 46.6974 10.1951 46.2167 10.5378 45.6646C12.0792 43.1814 14.4666 41.5852 17.147 41.5852C19.8273 41.5852 22.1846 43.1622 23.7178 45.6181C24.1786 46.3624 24.8242 46.9747 25.5919 47.3955C26.3595 47.8163 27.2231 48.0311 28.0984 48.0192H28.1668C30.2421 48.0164 32.0546 49.6947 32.9499 52.1424Z" fill="#17305D"/>
<path opacity="0.1" d="M40.9444 41.1774L36.6953 43.8714L39.2743 39.1815C38.5434 38.5981 37.6386 38.2753 36.7035 38.2643H36.635C36.3398 38.2686 36.0448 38.2467 35.7534 38.1986L34.3188 39.1267L34.9376 38.0042C33.9166 37.6475 33.0349 36.9766 32.4187 36.0877L29.8397 37.7304L31.4632 34.7462C29.9547 32.9365 27.9232 31.8276 25.6891 31.8276C23.0087 31.8276 20.6213 33.4211 19.0799 35.9043C18.6234 36.6494 17.9774 37.2602 17.2079 37.6743C16.4383 38.0884 15.5728 38.2911 14.6994 38.2616H14.5543C11.5946 38.2616 9.19629 41.6155 9.19629 45.7551C9.19629 49.8947 11.5946 53.2486 14.5543 53.2486C15.2055 53.2469 15.8465 53.0861 16.4215 52.7804C17.4285 52.2909 18.5298 52.0261 19.6492 52.0044C20.7687 51.9826 21.8795 52.2044 22.9047 52.6545C23.7713 53.0438 24.7102 53.2462 25.6603 53.2486C26.6103 53.2509 27.5502 53.0532 28.4187 52.6682C29.4364 52.2265 30.5372 52.0088 31.6464 52.0301C32.7556 52.0514 33.8472 52.311 34.8472 52.7914C35.4168 53.0894 36.0497 53.2463 36.6925 53.2486C39.6521 53.2486 42.0505 49.892 42.0505 45.7551C42.0711 44.1606 41.6908 42.5865 40.9444 41.1774Z" fill="#17305D"/>
<path opacity="0.1" d="M204.783 24.8898C205.866 24.6845 206.985 24.8065 207.997 25.2402C208.604 25.511 209.262 25.651 209.926 25.651C210.591 25.651 211.248 25.511 211.855 25.2402C212.573 24.9255 213.351 24.7705 214.135 24.7861C214.918 24.8017 215.69 24.9875 216.394 25.3306C216.797 25.5429 217.245 25.6546 217.7 25.6564C219.54 25.6564 221.073 23.8028 221.391 21.3579C221.024 21.0897 220.711 20.7532 220.471 20.3668C219.398 18.6228 217.72 17.4976 215.839 17.4976C213.958 17.4976 212.312 18.5927 211.234 20.3203C210.912 20.8414 210.461 21.2707 209.925 21.5666C209.389 21.8626 208.785 22.0151 208.173 22.0095H208.126C206.67 22.0068 205.399 23.1813 204.783 24.8898Z" fill="#17305D"/>
<path opacity="0.1" d="M199.176 17.2239L202.149 19.1048L200.342 15.8194C200.854 15.4121 201.487 15.1867 202.141 15.1787H202.19C202.397 15.1811 202.603 15.1655 202.806 15.1322L203.814 15.7729L203.381 14.9871C204.098 14.7435 204.721 14.2809 205.161 13.6647L206.965 14.8091L205.823 12.7366C206.88 11.469 208.288 10.6914 209.867 10.6914C211.743 10.6914 213.426 11.8084 214.494 13.547C214.814 14.0665 215.265 14.4921 215.802 14.7807C216.339 15.0692 216.943 15.2103 217.552 15.1897H217.651C219.724 15.1897 221.402 17.536 221.402 20.4354C221.402 23.3348 219.724 25.6784 217.651 25.6784C217.196 25.6764 216.748 25.5646 216.345 25.3526C215.64 25.0093 214.869 24.8236 214.085 24.8084C213.301 24.7933 212.523 24.9491 211.806 25.265C211.198 25.5348 210.541 25.6742 209.877 25.6742C209.212 25.6742 208.555 25.5348 207.948 25.265C207.235 24.9558 206.465 24.8035 205.688 24.8186C204.911 24.8338 204.147 25.0159 203.447 25.3526C203.048 25.5598 202.605 25.6687 202.155 25.6702C200.085 25.6702 198.404 23.3238 198.404 20.4272C198.389 19.3117 198.655 18.2103 199.176 17.2239Z" fill="#17305D"/>
<path opacity="0.1" d="M168.551 212.698C185.94 212.698 200.036 210.247 200.036 207.223C200.036 204.198 185.94 201.747 168.551 201.747C151.162 201.747 137.065 204.198 137.065 207.223C137.065 210.247 151.162 212.698 168.551 212.698Z" fill="#17305D"/>
<path d="M152.071 181.213L103.285 180.586L103.43 179.335L105.788 158.694H148.632L151.783 179.335L152.024 180.901L152.071 181.213Z" fill="#D0D2D5"/>
<path opacity="0.1" d="M152.024 180.9H127.679L103.285 180.586L103.43 179.335H151.783L152.024 180.9Z" fill="black"/>
<path d="M159.891 179.649H95.1543V181.212H159.891V179.649Z" fill="#D0D2D5"/>
<path d="M221.654 34.7243C221.657 33.6455 221.232 32.6093 220.473 31.8434C219.713 31.0775 218.68 30.6445 217.602 30.6394H36.8157C36.2811 30.6419 35.7522 30.7497 35.2592 30.9566C34.7662 31.1635 34.3188 31.4655 33.9426 31.8454C33.5663 32.2252 33.2685 32.6754 33.0663 33.1703C32.864 33.6652 32.7612 34.1951 32.7637 34.7298V144.312H221.654V34.7243Z" fill="#3F3D56"/>
<path d="M32.7637 143.217V156.052C32.7637 157.127 33.1906 158.157 33.9505 158.917C34.7104 159.677 35.741 160.104 36.8157 160.104H217.601C218.676 160.104 219.707 159.677 220.467 158.917C221.227 158.157 221.653 157.127 221.653 156.052V143.217H32.7637Z" fill="#D0D2D5"/>
<path d="M214.773 37.5112H40.583V136.022H214.773V37.5112Z" fill="white"/>
<path d="M128.148 155.234C128.787 155.234 129.419 155.089 129.994 154.81C130.569 154.531 131.074 154.124 131.469 153.621C131.589 153.468 131.698 153.307 131.797 153.139L129.478 152.748L131.983 152.764C132.223 152.242 132.354 151.676 132.368 151.101C132.382 150.526 132.278 149.954 132.063 149.421L128.703 151.162L131.803 148.884C131.511 148.384 131.121 147.949 130.654 147.606C130.188 147.263 129.656 147.02 129.092 146.891C128.528 146.763 127.943 146.751 127.374 146.858C126.805 146.965 126.264 147.188 125.785 147.513C125.306 147.837 124.899 148.257 124.589 148.746C124.278 149.234 124.072 149.782 123.983 150.354C123.893 150.925 123.922 151.51 124.067 152.07C124.213 152.63 124.472 153.154 124.829 153.61C125.223 154.115 125.726 154.523 126.301 154.805C126.876 155.086 127.507 155.233 128.148 155.234Z" fill="#17305D"/>
<path opacity="0.1" d="M132.369 160.101L151.833 179.65L148.846 160.101H132.369Z" fill="black"/>
<path opacity="0.1" d="M214.826 37.5222H40.4463V43.2772H214.826V37.5222Z" fill="#444053"/>
<path opacity="0.3" d="M153.372 38.5244H101.15C101.062 38.5244 100.991 38.5955 100.991 38.6832V41.8673C100.991 41.955 101.062 42.0261 101.15 42.0261H153.372C153.459 42.0261 153.531 41.955 153.531 41.8673V38.6832C153.531 38.5955 153.459 38.5244 153.372 38.5244Z" fill="#17305D"/>
<path d="M151.97 40.6374H151.842L151.795 40.5964C151.954 40.405 152.042 40.1638 152.041 39.9148C152.04 39.7104 151.978 39.5111 151.863 39.342C151.748 39.1729 151.586 39.0416 151.396 38.9646C151.207 38.8876 150.999 38.8685 150.799 38.9095C150.598 38.9506 150.415 39.05 150.271 39.1953C150.127 39.3406 150.03 39.5252 149.991 39.7259C149.952 39.9265 149.973 40.1342 150.052 40.3228C150.131 40.5113 150.264 40.6722 150.434 40.7852C150.605 40.8982 150.805 40.9582 151.009 40.9577C151.259 40.9568 151.5 40.8687 151.691 40.7086L151.738 40.7496V40.8783L152.54 41.6803L152.778 41.4394L151.97 40.6374ZM151.009 40.6374C150.866 40.638 150.726 40.5961 150.607 40.517C150.488 40.4379 150.395 40.3253 150.34 40.1933C150.284 40.0613 150.27 39.9159 150.297 39.7756C150.325 39.6352 150.394 39.5062 150.495 39.4049C150.595 39.3035 150.724 39.2344 150.865 39.2063C151.005 39.1782 151.15 39.1924 151.283 39.247C151.415 39.3016 151.528 39.3942 151.607 39.5131C151.687 39.632 151.729 39.7718 151.729 39.9148C151.73 40.0097 151.712 40.1038 151.676 40.1916C151.64 40.2794 151.587 40.3592 151.52 40.4264C151.453 40.4936 151.374 40.5469 151.286 40.5831C151.198 40.6193 151.104 40.6378 151.009 40.6374Z" fill="#3F3D56"/>
<path opacity="0.8" d="M43.5814 41.4533C44.1636 41.4533 44.6355 40.9815 44.6355 40.3995C44.6355 39.8175 44.1636 39.3457 43.5814 39.3457C42.9993 39.3457 42.5273 39.8175 42.5273 40.3995C42.5273 40.9815 42.9993 41.4533 43.5814 41.4533Z" fill="#FA5959"/>
<path opacity="0.8" d="M46.4808 41.4533C47.063 41.4533 47.5349 40.9815 47.5349 40.3995C47.5349 39.8175 47.063 39.3457 46.4808 39.3457C45.8987 39.3457 45.4268 39.8175 45.4268 40.3995C45.4268 40.9815 45.8987 41.4533 46.4808 41.4533Z" fill="#FED253"/>
<path opacity="0.8" d="M49.3822 41.4533C49.9643 41.4533 50.4363 40.9815 50.4363 40.3995C50.4363 39.8175 49.9643 39.3457 49.3822 39.3457C48.8 39.3457 48.3281 39.8175 48.3281 40.3995C48.3281 40.9815 48.8 41.4533 49.3822 41.4533Z" fill="#8CCF4D"/>
<path d="M136.906 79.7811C134.516 76.6052 131.053 74.6011 127.198 74.6011C123.343 74.6011 119.879 76.6052 117.489 79.7811C118.018 81.0772 118.799 82.2546 119.789 83.2445C121.012 84.4667 122.518 85.3675 124.173 85.8664C125.829 86.3654 127.582 86.4471 129.277 86.1042C130.971 85.7613 132.555 85.0045 133.886 83.9013C135.217 82.798 136.255 81.3826 136.906 79.7811Z" fill="#ED6D2C"/>
<path d="M116.227 81.6399C116.057 81.5667 115.896 81.4749 115.746 81.3662C115.519 81.1804 115.337 80.9453 115.214 80.679C115.371 80.3572 115.437 79.9988 115.405 79.6423C115.373 79.2859 115.244 78.945 115.032 78.6563C114.821 78.3677 114.534 78.1423 114.204 78.0045C113.874 77.8666 113.512 77.8215 113.158 77.8741C112.804 77.9267 112.471 78.0749 112.195 78.3027C111.919 78.5306 111.711 78.8294 111.592 79.1671C111.474 79.5047 111.449 79.8683 111.522 80.2187C111.595 80.5691 111.762 80.893 112.006 81.1553C112.143 81.3011 112.299 81.4273 112.471 81.5304C112.694 81.6594 112.875 81.8494 112.994 82.078C113.218 82.5303 113.527 82.9355 113.903 83.2717C114.289 83.603 114.706 83.8964 115.149 84.1478C114.54 85.8712 114.194 87.6766 114.125 89.5031C113.417 89.515 112.714 89.6284 112.038 89.8398C111.692 89.9474 111.366 90.1101 111.072 90.3217C110.993 90.3121 110.913 90.3066 110.834 90.3052C110.475 90.3052 110.122 90.4035 109.815 90.5895C109.507 90.7754 109.257 91.042 109.09 91.3602C108.923 91.6784 108.847 92.0362 108.869 92.3947C108.891 92.7533 109.011 93.099 109.215 93.3943C109.42 93.6897 109.701 93.9235 110.029 94.0703C110.357 94.2171 110.719 94.2715 111.075 94.2274C111.432 94.1833 111.769 94.0425 112.052 93.8202C112.334 93.598 112.55 93.3027 112.676 92.9664C112.754 92.7496 112.89 92.5583 113.069 92.4134C113.248 92.2686 113.464 92.1757 113.692 92.1451C113.86 92.1248 114.029 92.1138 114.199 92.1122C114.434 94.6884 115.233 97.1813 116.539 99.4141C115.379 100.315 114.664 101.298 114.363 102.387C114.307 102.419 114.254 102.456 114.207 102.5C114.124 102.564 114.047 102.636 113.977 102.713C113.742 102.971 113.581 103.287 113.508 103.628C113.436 103.969 113.456 104.323 113.565 104.654C113.675 104.985 113.871 105.281 114.133 105.511C114.394 105.742 114.713 105.898 115.055 105.965C115.397 106.032 115.751 106.006 116.08 105.891C116.409 105.776 116.702 105.576 116.928 105.31C117.154 105.045 117.305 104.724 117.367 104.38C117.428 104.037 117.396 103.684 117.276 103.357C117.187 103.119 117.169 102.86 117.226 102.613C117.283 102.365 117.412 102.14 117.596 101.966C117.728 101.843 117.87 101.711 118.062 101.566C120.282 104.159 122.924 105.821 126.223 106.018V88.4271C121.862 88.1889 118.062 85.3497 116.227 81.6399ZM143.559 90.3244C143.48 90.3255 143.4 90.331 143.321 90.3408C143.024 90.134 142.699 89.9716 142.355 89.859C141.679 89.6469 140.976 89.5334 140.268 89.5222C140.192 87.6974 139.847 85.8938 139.244 84.1697C139.687 83.9183 140.104 83.6249 140.49 83.2936C140.879 82.9382 141.198 82.514 141.432 82.0424C141.542 81.8376 141.711 81.6706 141.917 81.5633C142.251 81.3755 142.522 81.0943 142.699 80.7541C142.875 80.4139 142.948 80.0296 142.909 79.6484C142.87 79.2673 142.72 78.9059 142.478 78.6088C142.236 78.3116 141.913 78.0916 141.547 77.9758C141.182 77.86 140.791 77.8535 140.422 77.9571C140.053 78.0606 139.723 78.2697 139.471 78.5586C139.219 78.8476 139.058 79.2037 139.006 79.5834C138.954 79.963 139.014 80.3495 139.179 80.6954C139.058 80.963 138.876 81.1985 138.648 81.3826C138.494 81.5095 138.333 81.6274 138.166 81.7358C136.331 85.4428 132.534 88.2026 128.178 88.4408V106.048C131.464 105.851 134.122 104.181 136.34 101.596C136.512 101.733 136.657 101.856 136.78 101.971C136.972 102.149 137.108 102.38 137.169 102.635C137.23 102.89 137.215 103.157 137.125 103.403C137.006 103.73 136.975 104.083 137.036 104.425C137.097 104.768 137.248 105.088 137.474 105.354C137.699 105.619 137.991 105.819 138.32 105.934C138.648 106.05 139.002 106.076 139.343 106.01C139.685 105.944 140.003 105.788 140.265 105.559C140.527 105.33 140.724 105.035 140.835 104.705C140.945 104.375 140.967 104.022 140.896 103.681C140.825 103.34 140.665 103.024 140.433 102.765C140.362 102.688 140.285 102.616 140.203 102.552C140.112 102.48 140.047 102.439 140.047 102.439C139.745 101.344 139.034 100.367 137.856 99.4661C139.163 97.2333 139.962 94.7404 140.197 92.1642C140.359 92.1662 140.521 92.1771 140.682 92.1971C140.915 92.2272 141.136 92.3193 141.321 92.4638C141.506 92.6083 141.65 92.7998 141.736 93.0185C141.899 93.435 142.2 93.7834 142.588 94.0059C142.977 94.2284 143.429 94.3117 143.871 94.2422C144.314 94.1726 144.719 93.9542 145.02 93.6232C145.321 93.2922 145.5 92.8683 145.528 92.4216C145.541 92.1534 145.501 91.8852 145.408 91.633C145.316 91.3809 145.174 91.15 144.99 90.9542C144.806 90.7584 144.585 90.6017 144.339 90.4935C144.093 90.3852 143.828 90.3277 143.559 90.3244Z" fill="#ED6D2C"/>
<path d="M186.448 204.03C186.289 203.778 186.088 203.555 185.854 203.37C184.657 202.239 184.102 200.58 183.806 198.954C183.51 197.328 183.425 195.669 182.952 194.078C182.694 193.262 182.372 192.469 181.988 191.704C181.714 191.118 181.369 189.971 180.868 189.56C180.77 189.475 180.651 189.418 180.523 189.393C180.287 188.89 179.949 188.441 179.532 188.074C178.749 187.365 177.794 186.801 177.271 185.884C177.127 185.565 176.95 185.263 176.742 184.983C176.389 184.594 175.831 184.435 175.505 184.025C175.081 183.493 175.176 182.732 175.231 182.056C175.286 181.38 175.231 180.569 174.645 180.213C174.295 179.997 173.843 180.019 173.479 179.827C172.931 179.554 172.715 178.864 172.726 178.248C172.737 177.632 172.929 177.032 172.978 176.416C173.131 174.456 171.839 172.506 172.337 170.606C172.526 169.886 172.959 169.262 173.279 168.591C173.391 168.368 173.482 168.135 173.553 167.896C174.407 168.235 175.305 168.451 176.219 168.539C174.711 165.155 175.094 161.224 174.391 157.588L174.481 157.465C175.192 156.527 175.595 155.393 175.636 154.218C175.636 152.865 175.004 151.6 174.719 150.275C174.475 149.15 174.486 147.973 174.172 146.866C173.953 146.179 173.663 145.517 173.306 144.89C172.965 144.256 172.606 143.633 172.23 143.02C171.88 141.859 171.529 140.698 171.176 139.537C170.684 137.908 170.177 136.252 169.219 134.845C168.868 134.33 168.762 133.284 168.222 132.972C167.784 132.745 167.287 132.658 166.799 132.723C166.037 132.296 165.369 131.68 165.274 130.836C165.264 130.652 165.283 130.467 165.328 130.289H165.421C166.626 130.179 167.237 129.117 167.864 128.186C168.877 126.68 168.491 124.643 167.864 122.929C167.708 122.388 167.427 121.892 167.042 121.481C166.163 120.66 164.773 120.84 163.639 120.443C163.258 120.312 162.903 120.112 162.514 120.019C161.761 119.844 160.972 120.09 160.282 120.438C159.592 120.786 158.949 121.235 158.226 121.508C157.504 121.782 156.611 121.999 156.433 122.741C156.383 122.99 156.404 123.249 156.493 123.488C156.66 123.964 156.952 124.386 157.339 124.709C157.031 125.344 156.865 126.037 156.851 126.742C156.838 127.447 156.977 128.147 157.26 128.793C157.543 129.439 157.963 130.016 158.49 130.484C159.018 130.952 159.64 131.3 160.315 131.504C160.523 131.838 160.718 132.178 160.896 132.526C161.213 133.139 161.482 133.862 161.372 134.519C161.174 134.729 160.991 134.953 160.825 135.19C160.039 136.285 159.592 137.569 159.182 138.85C158.63 140.486 158.188 142.157 157.859 143.852C157.191 145.273 156.375 146.631 155.891 148.123C155.023 148.124 154.159 148.008 153.323 147.778L151.012 147.255C150.207 147.072 149.369 146.875 148.74 146.344C148.406 146.07 148.146 145.706 147.806 145.435C147.467 145.163 146.785 144.846 146.412 145.07C146.344 145.112 146.281 145.16 146.224 145.216C145.884 144.528 145.561 143.847 145.167 143.181C144.6 142.25 143.757 141.399 142.689 141.221C142.037 141.116 141.369 141.271 140.83 141.654C140.206 142.097 139.814 143.023 140.282 143.647C140.399 143.786 140.527 143.916 140.663 144.036C140.98 144.401 141.263 144.794 141.509 145.21C142.392 146.449 143.712 147.306 145.202 147.608L145.107 147.882C144.912 148.452 144.499 149.139 144.603 149.73L154.881 153.248C155.54 153.516 156.24 153.671 156.95 153.706C157.228 153.703 157.504 153.667 157.772 153.596V154.122V154.144C157.799 157.755 157.224 161.341 157.117 164.95C157.098 165.61 157.117 166.319 157.534 166.834C157.999 167.398 158.826 167.51 159.546 167.381C159.719 167.352 159.889 167.314 160.055 167.266C160.299 168.175 160.474 169.1 160.581 170.034L161.26 174.924C161.347 175.425 161.383 175.933 161.367 176.441C161.287 177.588 160.682 178.615 160.244 179.674C159.806 180.734 159.546 182.001 160.121 182.992C160.302 183.299 160.551 183.559 160.712 183.877C160.918 184.368 161.011 184.9 160.986 185.432C161.028 186.907 161.068 188.383 161.107 189.862C160.987 189.842 160.864 189.866 160.762 189.93C160.192 190.374 160.255 192.485 160.214 193.139C160.17 194.234 160.214 195.351 160.154 196.457C160.083 197.948 159.843 199.426 159.439 200.862C159.34 201.329 159.125 201.764 158.812 202.124C158.492 202.403 158.11 202.601 157.698 202.702C156.334 203.129 154.908 203.324 153.479 203.277C152.901 203.258 152.299 203.203 151.762 203.422C151.226 203.641 150.793 204.244 150.987 204.791C151.154 205.251 151.661 205.47 152.118 205.643C153.163 206.01 154.171 206.474 155.13 207.028C155.499 207.279 155.888 207.5 156.293 207.688C156.682 207.827 157.084 207.926 157.493 207.983L162.347 208.821C163.341 208.991 164.537 209.095 165.169 208.274C165.512 207.83 165.561 207.228 165.545 206.664C165.517 205.569 165.298 204.454 165.441 203.359C165.549 202.712 165.719 202.076 165.95 201.462C166.433 200.025 166.919 198.59 167.406 197.155C167.894 195.715 168.386 194.261 168.575 192.75C168.644 192.203 168.638 191.578 168.219 191.236C168.114 191.149 167.99 191.086 167.858 191.05C167.842 189.73 167.669 188.408 167.743 187.088C167.762 186.76 167.795 186.431 167.822 186.1C168.076 186.341 168.303 186.609 168.499 186.899C168.967 187.633 169.139 188.602 169.854 189.09C170.462 189.506 171.362 189.484 171.79 190.086C171.927 190.318 172.03 190.567 172.096 190.828C172.344 191.474 172.716 192.064 173.191 192.567C173.354 193.168 173.581 193.75 173.868 194.302C174.271 195.155 174.673 196.004 175.072 196.851C175.483 197.766 175.94 198.658 176.441 199.526C176.824 200.073 177.132 200.667 177.358 201.295C177.744 202.647 177.115 204.131 176.118 205.128C175.122 206.124 173.807 206.697 172.512 207.231C172.376 207.277 172.251 207.351 172.146 207.45C172.033 207.583 171.974 207.752 171.979 207.926C171.979 208.558 172.499 209.101 173.096 209.295C173.706 209.459 174.345 209.482 174.966 209.363C178.464 208.939 181.953 208.085 185.046 206.385C185.509 206.165 185.919 205.849 186.248 205.456C186.407 205.259 186.51 205.022 186.545 204.771C186.58 204.52 186.547 204.264 186.448 204.03Z" fill="url(#paint0_linear_737_23025)"/>
<path d="M171.66 142.634C172.244 143.53 172.792 144.448 173.303 145.388C173.661 146.01 173.952 146.668 174.171 147.351C174.489 148.446 174.48 149.615 174.718 150.732C174.992 152.047 175.633 153.3 175.633 154.648C175.591 155.815 175.187 156.94 174.478 157.867C173.77 158.787 172.96 159.623 172.063 160.359C169.995 155.003 168.84 149.338 168.646 143.6C168.619 142.806 168.613 141.988 168.903 141.246C169.081 140.78 169.935 139.504 170.486 140.005C170.686 140.189 170.738 141.016 170.861 141.292C171.092 141.76 171.359 142.208 171.66 142.634Z" fill="#2F2E41"/>
<path opacity="0.1" d="M171.66 142.634C172.244 143.53 172.792 144.448 173.303 145.388C173.661 146.01 173.952 146.668 174.171 147.351C174.489 148.446 174.48 149.615 174.718 150.732C174.992 152.047 175.633 153.3 175.633 154.648C175.591 155.815 175.187 156.94 174.478 157.867C173.77 158.787 172.96 159.623 172.063 160.359C169.995 155.003 168.84 149.338 168.646 143.6C168.619 142.806 168.613 141.988 168.903 141.246C169.081 140.78 169.935 139.504 170.486 140.005C170.686 140.189 170.738 141.016 170.861 141.292C171.092 141.76 171.359 142.208 171.66 142.634Z" fill="black"/>
<path d="M99.4797 105.281C97.3141 107.444 97.054 108.397 95.7535 108.827C94.453 109.257 89.774 111.68 91.2443 114.366L95.1977 116.977L95.3127 117.054L95.9178 118.872L89.9383 129.517C89.9383 129.517 80.082 125.01 79.1156 131.677C78.1491 138.344 78.7624 140.164 78.5023 143.724C78.2422 147.283 78.5872 148.312 77.7193 148.312C76.8514 148.312 76.5092 145.974 76.5092 145.974C76.5092 145.974 76.4544 145.867 76.3586 145.667C75.069 142.987 66.3161 123.31 80.3367 109.785C80.3367 109.785 86.8309 109.358 88.3942 101.911C89.4729 96.7639 93.2456 97.2074 95.7535 98.256C96.5686 98.5756 97.3281 99.0219 98.004 99.5784C98.6122 100.154 99.1532 100.797 99.6166 101.495C100.331 102.623 100.72 104.038 99.4797 105.281Z" fill="#D0D2D5"/>
<path opacity="0.1" d="M95.3132 117.054L95.9182 118.872L89.9388 129.517C89.9388 129.517 80.0825 125.01 79.1161 131.677C78.1496 138.344 78.7629 140.164 78.5028 143.724C78.2427 147.283 78.5876 148.312 77.7197 148.312C76.8519 148.312 76.5096 145.974 76.5096 145.974C76.5096 145.974 76.4549 145.867 76.359 145.667C75.9237 142.338 73.717 122.864 81.717 123.899C81.717 123.899 88.2085 126.932 89.2461 125.722C90.0675 124.764 93.7143 119.253 95.1982 116.991L95.3132 117.054Z" fill="black"/>
<path opacity="0.1" d="M99.6166 101.478L95.6631 105.971C95.6631 105.971 91.0717 112.115 90.119 111.855C89.8337 111.793 89.543 111.759 89.2511 111.753C88.9332 111.729 88.6288 111.615 88.3731 111.425C88.1174 111.235 87.9208 110.976 87.8062 110.678C87.6915 110.381 87.6636 110.057 87.7255 109.744C87.7874 109.432 87.9366 109.143 88.1559 108.912C89.722 107.269 92.6077 104.15 92.7966 103.458C92.9855 102.765 94.8226 99.7288 95.7425 98.2422C96.5576 98.5618 97.3171 99.0081 97.993 99.5646C98.6049 100.139 99.1496 100.781 99.6166 101.478Z" fill="black"/>
<path d="M211.474 166.116C210.803 167.458 207.367 172.49 205.864 174.688L205.161 175.723C205.161 175.723 204.887 177.541 200.399 175.288C195.912 173.035 90.4802 128.547 90.4802 128.547L89.7656 126.401L94.9675 118.612L210.524 163.258C210.524 163.258 212.342 164.383 211.474 166.116Z" fill="#454B69"/>
<path opacity="0.1" d="M205.864 174.689L205.161 175.723C205.161 175.723 204.887 177.541 200.399 175.288C195.912 173.035 90.4802 128.548 90.4802 128.548L89.7656 126.401L205.864 174.689Z" fill="black"/>
<path d="M142.27 145.629C141.199 145.454 140.011 145.539 139.179 146.234C138.676 146.66 138.358 147.265 138.292 147.921C138.22 148.679 138.661 149.58 139.422 149.637C139.606 149.639 139.789 149.627 139.97 149.602C140.451 149.6 140.931 149.64 141.405 149.722C142.337 149.81 143.277 149.673 144.145 149.322C145.014 148.971 145.786 148.418 146.396 147.707C147.05 146.886 146.188 146.53 145.416 146.366C144.359 146.141 143.327 145.799 142.27 145.629Z" fill="#FBBEBE"/>
<path d="M160.58 170.355L161.259 175.179C161.346 175.677 161.381 176.182 161.363 176.687C161.284 177.824 160.679 178.842 160.244 179.893C159.808 180.945 159.543 182.204 160.12 183.179C160.298 183.483 160.548 183.743 160.709 184.058C160.914 184.545 161.008 185.071 160.983 185.599L161.169 192.444C163.283 192.588 165.404 192.576 167.515 192.408C167.598 192.412 167.679 192.387 167.745 192.337C167.801 192.266 167.829 192.178 167.825 192.088C167.918 190.486 167.639 188.882 167.729 187.28C167.762 186.694 167.844 186.111 167.855 185.522C167.888 183.138 166.71 180.802 167.066 178.445C167.178 177.85 167.324 177.262 167.504 176.685C168.63 172.578 168.392 168.263 168.142 164.022C168.147 163.954 168.127 163.886 168.088 163.83C168.047 163.79 167.996 163.762 167.94 163.751C166.742 163.392 165.475 163.326 164.247 163.559C163.018 163.793 161.864 164.319 160.882 165.093C160.583 165.333 159.83 165.566 159.633 165.854C159.359 166.253 159.718 166.653 159.877 167.077C160.229 168.141 160.464 169.24 160.58 170.355Z" fill="#3F3D56"/>
<path opacity="0.1" d="M160.58 170.355L161.259 175.179C161.346 175.677 161.381 176.182 161.363 176.687C161.284 177.824 160.679 178.842 160.244 179.893C159.808 180.945 159.543 182.204 160.12 183.179C160.298 183.483 160.548 183.743 160.709 184.058C160.914 184.545 161.008 185.071 160.983 185.599L161.169 192.444C163.283 192.588 165.404 192.576 167.515 192.408C167.598 192.412 167.679 192.387 167.745 192.337C167.801 192.266 167.829 192.178 167.825 192.088C167.918 190.486 167.639 188.882 167.729 187.28C167.762 186.694 167.844 186.111 167.855 185.522C167.888 183.138 166.71 180.802 167.066 178.445C167.178 177.85 167.324 177.262 167.504 176.685C168.63 172.578 168.392 168.263 168.142 164.022C168.147 163.954 168.127 163.886 168.088 163.83C168.047 163.79 167.996 163.762 167.94 163.751C166.742 163.392 165.475 163.326 164.247 163.559C163.018 163.793 161.864 164.319 160.882 165.093C160.583 165.333 159.83 165.566 159.633 165.854C159.359 166.253 159.718 166.653 159.877 167.077C160.229 168.141 160.464 169.24 160.58 170.355Z" fill="black"/>
<path d="M173.275 168.901C172.955 169.566 172.525 170.185 172.334 170.899C171.835 172.786 173.125 174.732 172.972 176.665C172.922 177.276 172.733 177.87 172.72 178.48C172.706 179.091 172.93 179.77 173.473 180.052C173.837 180.238 174.294 180.219 174.636 180.433C175.214 180.786 175.28 181.588 175.222 182.261C175.165 182.935 175.069 183.688 175.496 184.214C175.822 184.621 176.38 184.78 176.731 185.166C176.939 185.443 177.116 185.743 177.259 186.059C177.782 186.973 178.737 187.532 179.52 188.249C180.304 188.966 180.966 190.018 180.616 191.012C180.358 191.74 179.635 192.189 178.94 192.531C177.671 193.158 176.332 193.632 174.951 193.941C174.803 193.986 174.646 193.994 174.494 193.966C174.34 193.909 174.202 193.815 174.094 193.692C173.286 192.901 172.451 192.071 172.079 191.006C172.013 190.748 171.91 190.501 171.772 190.272C171.345 189.673 170.445 189.695 169.837 189.281C169.125 188.797 168.952 187.836 168.487 187.11C168.022 186.385 167.34 185.952 166.844 185.314C166.006 184.252 165.801 182.834 165.202 181.621C164.947 181.106 164.621 180.624 164.419 180.088C164.214 179.444 164.088 178.779 164.043 178.105C163.657 174.908 162.675 171.688 163.293 168.523C163.43 167.827 163.641 167.154 163.729 166.437C163.879 165.196 163.641 163.926 163.824 162.689C163.829 162.533 163.868 162.381 163.94 162.243C164.012 162.105 164.113 161.985 164.238 161.892C164.386 161.825 164.547 161.793 164.709 161.796C166.332 161.709 167.959 161.746 169.577 161.906C170.398 161.985 171.318 162.152 171.811 162.823C172.23 163.398 172.208 164.167 172.342 164.865C172.509 165.725 172.944 166.193 173.401 166.867C173.859 167.54 173.612 168.205 173.275 168.901Z" fill="#3F3D56"/>
<path d="M166.96 191.148C167.392 191.148 167.872 191.121 168.206 191.395C168.622 191.737 168.627 192.364 168.561 192.898C168.37 194.398 167.88 195.841 167.39 197.278L165.933 201.552C165.703 202.162 165.532 202.793 165.424 203.436C165.282 204.531 165.501 205.626 165.528 206.721C165.528 207.269 165.492 207.877 165.15 208.317C164.531 209.114 163.324 209.021 162.33 208.865L157.481 208.044C157.072 207.989 156.67 207.891 156.282 207.751C155.878 207.564 155.488 207.345 155.119 207.096C154.159 206.548 153.151 206.09 152.107 205.727C151.653 205.558 151.143 205.341 150.979 204.884C150.785 204.337 151.217 203.734 151.754 203.515C152.29 203.296 152.89 203.351 153.47 203.367C154.898 203.413 156.323 203.22 157.687 202.798C158.098 202.697 158.479 202.5 158.798 202.223C159.123 201.858 159.344 201.413 159.439 200.933C159.852 199.507 160.098 198.037 160.173 196.553C160.23 195.458 160.192 194.363 160.236 193.267C160.263 192.619 160.2 190.53 160.77 190.083C161.205 189.749 162.995 190.672 163.584 190.806C164.691 191.06 165.825 191.175 166.96 191.148Z" fill="#2F2E41"/>
<path d="M182.933 194.193C183.406 195.762 183.48 197.421 183.787 199.034C184.094 200.646 184.636 202.292 185.832 203.414C186.065 203.599 186.266 203.821 186.426 204.071C186.527 204.306 186.561 204.563 186.525 204.816C186.489 205.069 186.384 205.306 186.221 205.503C185.89 205.893 185.481 206.207 185.019 206.426C181.928 208.112 178.448 208.964 174.941 209.385C174.321 209.501 173.683 209.478 173.074 209.317C172.477 209.114 171.948 208.578 171.959 207.948C171.954 207.775 172.012 207.606 172.124 207.474C172.23 207.377 172.356 207.303 172.493 207.258C173.786 206.727 175.097 206.149 176.096 205.169C177.096 204.189 177.723 202.705 177.337 201.374C177.108 200.751 176.798 200.161 176.414 199.619C175.913 198.759 175.456 197.873 175.045 196.966L173.84 194.439C173.487 193.7 173.131 192.939 173.071 192.123C174.584 192.191 176.095 191.949 177.512 191.411C178.173 191.142 178.789 190.772 179.338 190.316C179.803 189.927 180.228 189.202 180.855 189.708C181.358 190.114 181.676 191.255 181.972 191.833C182.356 192.592 182.677 193.381 182.933 194.193Z" fill="#2F2E41"/>
<path d="M165.278 131.444C165.399 132.495 166.417 133.188 167.389 133.604L161.237 135.567C161.634 134.806 161.314 133.875 160.919 133.103C160.598 132.492 160.232 131.905 159.824 131.348C159.764 131.263 159.696 131.157 159.739 131.058C159.779 130.994 159.84 130.946 159.912 130.924C161.177 130.36 162.48 129.777 163.863 129.571C164.262 129.514 165.018 129.355 165.316 129.76C165.615 130.166 165.221 130.96 165.278 131.444Z" fill="#FBBEBE"/>
<path opacity="0.1" d="M165.278 131.444C165.399 132.495 166.417 133.188 167.389 133.604L161.237 135.567C161.634 134.806 161.314 133.875 160.919 133.103C160.598 132.492 160.232 131.905 159.824 131.348C159.764 131.263 159.696 131.157 159.739 131.058C159.779 130.994 159.84 130.946 159.912 130.924C161.177 130.36 162.48 129.777 163.863 129.571C164.262 129.514 165.018 129.355 165.316 129.76C165.615 130.166 165.221 130.96 165.278 131.444Z" fill="black"/>
<path d="M161.703 132.296C164.367 132.296 166.527 130.136 166.527 127.472C166.527 124.807 164.367 122.647 161.703 122.647C159.039 122.647 156.879 124.807 156.879 127.472C156.879 130.136 159.039 132.296 161.703 132.296Z" fill="#FBBEBE"/>
<path d="M157.522 167.17C157.99 167.732 158.814 167.841 159.535 167.718C161.218 167.444 162.595 166.204 164.244 165.758C166.264 165.21 168.402 165.914 170.311 166.776C172.219 167.639 174.116 168.693 176.203 168.84C174.316 164.635 175.395 159.576 173.591 155.335C173.15 154.297 172.534 153.298 172.435 152.175C172.312 150.782 173.007 149.437 173.114 148.052C173.213 146.817 172.84 145.588 172.485 144.411C172.045 142.965 171.605 141.519 171.165 140.074C170.672 138.456 170.166 136.81 169.21 135.419C168.857 134.908 168.75 133.87 168.213 133.56C167.042 132.884 165.265 133.736 163.994 133.782C162.724 133.829 161.566 134.732 160.824 135.754C160.038 136.832 159.592 138.116 159.181 139.387C158.527 141.278 158.039 143.223 157.722 145.199C157.681 145.495 157.645 145.79 157.618 146.089C157.344 148.901 157.744 151.729 157.766 154.554V154.573C157.793 158.157 157.218 161.719 157.112 165.3C157.101 165.955 157.117 166.669 157.522 167.17Z" fill="#2F2E41"/>
<path opacity="0.1" d="M157.774 154.557C158.719 154.319 159.573 153.708 160.307 153.04C160.942 152.472 161.507 151.828 161.988 151.124C162.594 150.177 163.08 149.159 163.436 148.093C164.45 145.242 165.094 142.273 165.353 139.258C165.424 138.437 165.446 137.555 164.956 136.903C164.681 136.551 164.294 136.301 163.859 136.196C163.424 136.09 162.966 136.135 162.56 136.323C161.914 136.638 161.495 137.276 161.106 137.886C160.337 139.097 159.562 140.323 159.067 141.67C158.848 142.267 158.686 142.88 158.473 143.48C158.255 144.071 158.005 144.65 157.722 145.213C157.681 145.509 157.646 145.804 157.618 146.103C157.364 148.914 157.753 151.732 157.774 154.557Z" fill="black"/>
<path d="M164.942 136.375C165.432 137.027 165.41 137.916 165.342 138.727C165.084 141.742 164.44 144.711 163.425 147.562C163.072 148.637 162.586 149.663 161.977 150.617C161.495 151.321 160.931 151.964 160.296 152.534C159.365 153.383 158.232 154.141 156.97 154.152C156.259 154.118 155.559 153.966 154.9 153.7L144.619 150.201C144.515 149.615 144.928 148.931 145.123 148.367L145.67 146.743C145.826 146.294 146.007 145.81 146.415 145.566C146.823 145.322 147.469 145.656 147.809 145.927C148.148 146.198 148.406 146.554 148.74 146.831C149.372 147.357 150.207 147.554 151.012 147.734L153.32 148.252C154.157 148.481 155.021 148.596 155.888 148.594C156.531 146.628 157.755 144.898 158.448 142.949C158.662 142.352 158.823 141.736 159.045 141.139C159.538 139.792 160.315 138.568 161.085 137.355C161.471 136.747 161.889 136.109 162.538 135.792C162.946 135.602 163.406 135.556 163.843 135.662C164.279 135.768 164.667 136.019 164.942 136.375Z" fill="#2F2E41"/>
<path d="M163.242 128.561C163.205 128.244 163.107 127.937 162.952 127.658C162.871 127.518 162.748 127.408 162.6 127.343C162.452 127.278 162.288 127.261 162.13 127.296C161.648 127.447 161.487 128.192 160.983 128.216C160.644 128.233 160.4 127.888 160.293 127.565C160.186 127.242 160.129 126.872 159.874 126.645C159.697 126.512 159.494 126.419 159.277 126.371C158.108 126.001 156.901 125.32 156.512 124.156C156.421 123.92 156.399 123.662 156.449 123.414C156.627 122.678 157.544 122.456 158.243 122.19C158.941 121.925 159.612 121.47 160.296 121.125C160.98 120.78 161.774 120.537 162.527 120.712C162.909 120.832 163.285 120.972 163.653 121.131C164.786 121.525 166.174 121.342 167.053 122.16C167.437 122.566 167.719 123.058 167.874 123.595C168.488 125.298 168.876 127.318 167.861 128.813C167.234 129.736 166.626 130.79 165.421 130.902C164.019 131.02 163.464 129.749 163.242 128.561Z" fill="#2F2E41"/>
<g opacity="0.1">
<path d="M161.101 126.984C160.994 126.661 160.936 126.292 160.685 126.064C160.507 125.932 160.304 125.838 160.088 125.79C158.916 125.421 157.711 124.739 157.32 123.576C157.231 123.339 157.21 123.082 157.259 122.834C157.286 122.717 157.336 122.606 157.405 122.508C156.958 122.702 156.57 122.96 156.46 123.414C156.41 123.662 156.432 123.92 156.523 124.156C156.912 125.32 158.119 126.001 159.288 126.371C159.504 126.419 159.708 126.512 159.885 126.645C160.14 126.872 160.194 127.239 160.304 127.565C160.413 127.89 160.654 128.233 160.994 128.216C161.333 128.2 161.498 127.89 161.714 127.63C161.416 127.592 161.199 127.285 161.101 126.984Z" fill="black"/>
<path d="M166.226 130.313C164.819 130.442 164.263 129.161 164.036 127.981C164.006 127.664 163.913 127.357 163.762 127.077C163.681 126.938 163.558 126.828 163.411 126.763C163.263 126.698 163.099 126.681 162.941 126.716C162.691 126.837 162.481 127.027 162.336 127.263C162.462 127.276 162.583 127.316 162.69 127.383C162.797 127.449 162.888 127.54 162.955 127.647C163.11 127.926 163.208 128.233 163.245 128.55C163.467 129.73 164.022 131.014 165.435 130.883C165.994 130.821 166.509 130.554 166.881 130.133C166.674 130.229 166.453 130.29 166.226 130.313Z" fill="black"/>
</g>
<path d="M222.618 181.243C227.5 181.243 231.458 180.482 231.458 179.543C231.458 178.604 227.5 177.843 222.618 177.843C217.735 177.843 213.777 178.604 213.777 179.543C213.777 180.482 217.735 181.243 222.618 181.243Z" fill="#17305D"/>
<path d="M222.47 180.166C223.038 180.166 223.499 179.563 223.499 178.82C223.499 178.076 223.038 177.473 222.47 177.473C221.901 177.473 221.44 178.076 221.44 178.82C221.44 179.563 221.901 180.166 222.47 180.166Z" fill="#3F3D56"/>
<path d="M222.47 178.518C223.038 178.518 223.499 177.915 223.499 177.171C223.499 176.428 223.038 175.825 222.47 175.825C221.901 175.825 221.44 176.428 221.44 177.171C221.44 177.915 221.901 178.518 222.47 178.518Z" fill="#3F3D56"/>
<path d="M222.47 176.873C223.038 176.873 223.499 176.27 223.499 175.526C223.499 174.782 223.038 174.179 222.47 174.179C221.901 174.179 221.44 174.782 221.44 175.526C221.44 176.27 221.901 176.873 222.47 176.873Z" fill="#3F3D56"/>
<path d="M222.47 175.225C223.038 175.225 223.499 174.622 223.499 173.878C223.499 173.134 223.038 172.531 222.47 172.531C221.901 172.531 221.44 173.134 221.44 173.878C221.44 174.622 221.901 175.225 222.47 175.225Z" fill="#3F3D56"/>
<path d="M222.47 173.576C223.038 173.576 223.499 172.973 223.499 172.23C223.499 171.486 223.038 170.883 222.47 170.883C221.901 170.883 221.44 171.486 221.44 172.23C221.44 172.973 221.901 173.576 222.47 173.576Z" fill="#3F3D56"/>
<path d="M222.47 171.931C223.038 171.931 223.499 171.328 223.499 170.584C223.499 169.84 223.038 169.238 222.47 169.238C221.901 169.238 221.44 169.84 221.44 170.584C221.44 171.328 221.901 171.931 222.47 171.931Z" fill="#3F3D56"/>
<path d="M222.47 170.283C223.038 170.283 223.499 169.68 223.499 168.936C223.499 168.192 223.038 167.589 222.47 167.589C221.901 167.589 221.44 168.192 221.44 168.936C221.44 169.68 221.901 170.283 222.47 170.283Z" fill="#3F3D56"/>
<path d="M226.322 157.676C226.462 157.496 226.59 157.308 226.705 157.112L224 156.668L226.927 156.687C227.206 156.076 227.359 155.415 227.375 154.743C227.391 154.072 227.27 153.404 227.02 152.78L223.094 154.817L226.713 152.156C226.374 151.571 225.917 151.063 225.373 150.662C224.828 150.261 224.207 149.977 223.548 149.827C222.889 149.676 222.206 149.663 221.541 149.788C220.877 149.913 220.245 150.174 219.686 150.553C219.126 150.933 218.651 151.423 218.289 151.994C217.927 152.566 217.687 153.205 217.583 153.873C217.479 154.541 217.513 155.224 217.684 155.878C217.855 156.532 218.159 157.144 218.576 157.676C218.357 157.954 218.167 158.255 218.012 158.574L221.525 160.4L217.78 159.143C217.518 159.919 217.454 160.748 217.593 161.555C217.732 162.361 218.07 163.121 218.576 163.764C218.005 164.492 217.65 165.365 217.552 166.284C217.453 167.203 217.615 168.132 218.02 168.963C218.424 169.795 219.054 170.496 219.838 170.986C220.621 171.477 221.527 171.737 222.452 171.737C223.376 171.737 224.282 171.477 225.066 170.986C225.85 170.496 226.48 169.795 226.884 168.963C227.288 168.132 227.45 167.203 227.352 166.284C227.254 165.365 226.898 164.492 226.327 163.764C227.011 162.896 227.383 161.822 227.383 160.716C227.383 159.61 227.011 158.536 226.327 157.667L226.322 157.676Z" fill="#17305D"/>
<path opacity="0.1" d="M217.514 160.715C217.513 161.822 217.888 162.897 218.576 163.765C218.005 164.492 217.65 165.365 217.551 166.284C217.453 167.203 217.615 168.132 218.019 168.963C218.423 169.795 219.053 170.496 219.837 170.986C220.621 171.477 221.527 171.737 222.451 171.737C223.376 171.737 224.282 171.477 225.066 170.986C225.849 170.496 226.479 169.795 226.884 168.963C227.288 168.132 227.45 167.203 227.352 166.284C227.253 165.365 226.898 164.492 226.327 163.765C226.981 162.924 217.514 160.162 217.514 160.715Z" fill="black"/>
<path d="M40.6355 215.143C47.6651 215.143 53.3638 214.047 53.3638 212.695C53.3638 211.344 47.6651 210.248 40.6355 210.248C33.6059 210.248 27.9072 211.344 27.9072 212.695C27.9072 214.047 33.6059 215.143 40.6355 215.143Z" fill="#17305D"/>
<path d="M40.4216 213.596C41.2396 213.596 41.9028 212.727 41.9028 211.655C41.9028 210.583 41.2396 209.714 40.4216 209.714C39.6036 209.714 38.9404 210.583 38.9404 211.655C38.9404 212.727 39.6036 213.596 40.4216 213.596Z" fill="#3F3D56"/>
<path d="M40.4216 211.225C41.2396 211.225 41.9028 210.356 41.9028 209.284C41.9028 208.212 41.2396 207.343 40.4216 207.343C39.6036 207.343 38.9404 208.212 38.9404 209.284C38.9404 210.356 39.6036 211.225 40.4216 211.225Z" fill="#3F3D56"/>
<path d="M40.4216 208.854C41.2396 208.854 41.9028 207.985 41.9028 206.913C41.9028 205.841 41.2396 204.972 40.4216 204.972C39.6036 204.972 38.9404 205.841 38.9404 206.913C38.9404 207.985 39.6036 208.854 40.4216 208.854Z" fill="#3F3D56"/>
<path d="M40.4216 206.483C41.2396 206.483 41.9028 205.614 41.9028 204.542C41.9028 203.47 41.2396 202.601 40.4216 202.601C39.6036 202.601 38.9404 203.47 38.9404 204.542C38.9404 205.614 39.6036 206.483 40.4216 206.483Z" fill="#3F3D56"/>
<path d="M40.4216 204.112C41.2396 204.112 41.9028 203.243 41.9028 202.171C41.9028 201.099 41.2396 200.23 40.4216 200.23C39.6036 200.23 38.9404 201.099 38.9404 202.171C38.9404 203.243 39.6036 204.112 40.4216 204.112Z" fill="#3F3D56"/>
<path d="M40.4216 201.738C41.2396 201.738 41.9028 200.869 41.9028 199.797C41.9028 198.725 41.2396 197.856 40.4216 197.856C39.6036 197.856 38.9404 198.725 38.9404 199.797C38.9404 200.869 39.6036 201.738 40.4216 201.738Z" fill="#3F3D56"/>
<path d="M40.4216 199.368C41.2396 199.368 41.9028 198.499 41.9028 197.426C41.9028 196.354 41.2396 195.485 40.4216 195.485C39.6036 195.485 38.9404 196.354 38.9404 197.426C38.9404 198.499 39.6036 199.368 40.4216 199.368Z" fill="#3F3D56"/>
<path d="M45.9685 181.202C46.169 180.941 46.3519 180.666 46.5161 180.381L42.6228 179.74L46.8336 179.773C47.2372 178.893 47.4573 177.941 47.4803 176.973C47.5034 176.006 47.329 175.044 46.9678 174.147L41.3224 177.087L46.5243 173.254C46.0371 172.409 45.3811 171.673 44.597 171.093C43.8128 170.512 42.9175 170.1 41.9669 169.881C41.0163 169.662 40.0307 169.641 39.0718 169.82C38.1128 169.999 37.2009 170.374 36.3932 170.92C35.5854 171.467 34.899 172.175 34.3769 172.999C33.8547 173.823 33.508 174.746 33.3583 175.71C33.2086 176.674 33.2592 177.658 33.5069 178.602C33.7546 179.545 34.1942 180.428 34.7981 181.194C34.4783 181.594 34.2029 182.027 33.9767 182.486L39.0335 185.114L33.6427 183.305C33.2649 184.427 33.1737 185.625 33.3774 186.792C33.5811 187.958 34.0732 189.055 34.809 189.982C33.9853 191.029 33.4728 192.287 33.3303 193.612C33.1877 194.937 33.4208 196.275 34.0028 197.473C34.5849 198.671 35.4924 199.682 36.6217 200.389C37.751 201.096 39.0564 201.471 40.3887 201.471C41.7211 201.471 43.0265 201.096 44.1558 200.389C45.2851 199.682 46.1926 198.671 46.7747 197.473C47.3567 196.275 47.5898 194.937 47.4472 193.612C47.3047 192.287 46.7922 191.029 45.9685 189.982C46.953 188.731 47.4883 187.185 47.4883 185.593C47.4883 184.001 46.953 182.456 45.9685 181.205V181.202Z" fill="#17305D"/>
<path opacity="0.1" d="M33.2891 185.602C33.2893 187.191 33.8246 188.734 34.8086 189.982C33.9848 191.029 33.4724 192.287 33.3298 193.612C33.1873 194.937 33.4203 196.275 34.0024 197.473C34.5845 198.671 35.492 199.682 36.6213 200.389C37.7506 201.096 39.056 201.471 40.3883 201.471C41.7206 201.471 43.0261 201.096 44.1553 200.389C45.2846 199.682 46.1922 198.671 46.7742 197.473C47.3563 196.275 47.5894 194.937 47.4468 193.612C47.3042 192.287 46.7918 191.029 45.9681 189.982C46.9126 188.772 33.2891 184.794 33.2891 185.602Z" fill="black"/>
</g>
<defs>
<linearGradient id="paint0_linear_737_23025" x1="164.787" y1="209.814" x2="161.163" y2="119.979" gradientUnits="userSpaceOnUse">
<stop stop-color="#808080" stop-opacity="0.25"/>
<stop offset="0.54" stop-color="#808080" stop-opacity="0.12"/>
<stop offset="1" stop-color="#808080" stop-opacity="0.1"/>
</linearGradient>
<clipPath id="clip0_737_23025">
<rect width="280" height="215.143" fill="white"/>
</clipPath>
</defs>
</svg>
