<svg width="12" height="13" viewBox="0 0 12 13" fill="none" xmlns="http://www.w3.org/2000/svg">
<g id="010-selection" clip-path="url(#clip0_193_2275)">
<path id="Vector" d="M8.4269 6.49268C8.4269 6.61394 8.32843 6.7124 8.20717 6.7124H6.22441V8.69543C6.22441 8.8167 6.12595 8.91516 6.00469 8.91516C5.88342 8.91516 5.78496 8.8167 5.78496 8.69543V6.7124H3.80206C3.6808 6.7124 3.58234 6.61394 3.58234 6.49268C3.58234 6.37135 3.6808 6.27295 3.80206 6.27295H5.78496V4.28992C5.78496 4.16838 5.88342 4.07019 6.00469 4.07019C6.12595 4.07019 6.22441 4.16838 6.22441 4.28992V6.27295H8.20717C8.32843 6.27295 8.4269 6.37135 8.4269 6.49268Z" fill="#7B7B7B"/>
<path id="Vector_2" d="M11.3994 2.62737C11.5207 2.62737 11.6191 2.5289 11.6191 2.40764V1.08887C11.6191 0.967606 11.5207 0.869141 11.3994 0.869141H10.0806C9.95938 0.869141 9.86092 0.967606 9.86092 1.08887V1.52859H9.14323C9.02197 1.52859 8.92351 1.62692 8.92351 1.74832C8.92351 1.86958 9.02197 1.96805 9.14323 1.96805H9.86092V2.40764C9.86092 2.5289 9.95938 2.62737 10.0806 2.62737H10.5202V5.62492H10.0806C9.95938 5.62492 9.86092 5.72338 9.86092 5.84464V7.16348C9.86092 7.28474 9.95938 7.38321 10.0806 7.38321H10.5202V10.3611H10.0806C9.95938 10.3611 9.86092 10.4594 9.86092 10.5808V11.0202H6.88376V10.5808C6.88376 10.4594 6.78543 10.3611 6.66403 10.3611H5.34526C5.224 10.3611 5.12553 10.4594 5.12553 10.5808V11.0202H2.12723V10.5808C2.12723 10.4594 2.0289 10.3611 1.9075 10.3611H1.46805V7.38321H1.9075C2.0289 7.38321 2.12723 7.28474 2.12723 7.16348V5.84464C2.12723 5.72338 2.0289 5.62492 1.9075 5.62492H1.46805V2.62737H1.9075C2.0289 2.62737 2.12723 2.5289 2.12723 2.40764V1.96805H5.12553V2.40764C5.12553 2.5289 5.224 2.62737 5.34526 2.62737H6.66403C6.78543 2.62737 6.88376 2.5289 6.88376 2.40764V1.96805H7.60144C7.72298 1.96805 7.82117 1.86958 7.82117 1.74832C7.82117 1.62692 7.72298 1.52859 7.60144 1.52859H6.88376V1.08887C6.88376 0.967606 6.78543 0.869141 6.66403 0.869141H5.34526C5.224 0.869141 5.12553 0.967606 5.12553 1.08887V1.52859H2.12723V1.08887C2.12723 0.967606 2.0289 0.869141 1.9075 0.869141H0.588867C0.467606 0.869141 0.369141 0.967606 0.369141 1.08887V2.40764C0.369141 2.5289 0.467606 2.62737 0.588867 2.62737H1.02859V5.62492H0.588867C0.467606 5.62492 0.369141 5.72338 0.369141 5.84464V7.16348C0.369141 7.28474 0.467606 7.38321 0.588867 7.38321H1.02859V10.3611H0.588867C0.467606 10.3611 0.369141 10.4594 0.369141 10.5808V11.8994C0.369141 12.0207 0.467606 12.1191 0.588867 12.1191H1.9075C2.0289 12.1191 2.12723 12.0207 2.12723 11.8994V11.4597H5.12553V11.8994C5.12553 12.0207 5.224 12.1191 5.34526 12.1191H6.66403C6.78543 12.1191 6.88376 12.0207 6.88376 11.8994V11.4597H9.86092V11.8994C9.86092 12.0207 9.95938 12.1191 10.0806 12.1191H11.3994C11.5207 12.1191 11.6191 12.0207 11.6191 11.8994V10.5808C11.6191 10.4594 11.5207 10.3611 11.3994 10.3611H10.9597V7.38321H11.3994C11.5207 7.38321 11.6191 7.28474 11.6191 7.16348V5.84464C11.6191 5.72338 11.5207 5.62492 11.3994 5.62492H10.9597V2.62737H11.3994ZM5.56499 1.30859H6.44431V2.18791H5.56499V1.30859ZM0.808594 2.18791V1.30859H1.68777V2.18791H0.808594ZM0.808594 6.94376V6.06437H1.68777V6.94376H0.808594ZM1.68777 11.6797H0.808594V10.8005H1.68777V11.6797ZM6.44431 11.6797H5.56499V10.8005H6.44431V11.6797ZM11.1797 10.8005V11.6797H10.3004V10.8005H11.1797ZM11.1797 6.06437V6.94376H10.3004V6.06437H11.1797ZM10.3004 2.18791V1.30859H11.1797V2.18791H10.3004Z" fill="#7B7B7B"/>
<path id="Vector_3" d="M8.37282 1.96802C8.25149 1.96802 8.15295 1.86955 8.15295 1.74829C8.15295 1.62689 8.25121 1.52856 8.37261 1.52856H8.37282C8.49415 1.52856 8.59254 1.62689 8.59254 1.74829C8.59254 1.86955 8.49415 1.96802 8.37282 1.96802Z" fill="#7B7B7B"/>
</g>
<defs>
<clipPath id="clip0_193_2275">
<rect width="12" height="12" fill="white" transform="translate(0 0.5)"/>
</clipPath>
</defs>
</svg>
