<svg width="12" height="13" viewBox="0 0 12 13" fill="none" xmlns="http://www.w3.org/2000/svg">
<g clip-path="url(#clip0_422_293)">
<path d="M11.8125 0.5C11.7628 0.5 11.7151 0.519754 11.6799 0.554917C11.6448 0.590081 11.625 0.637772 11.625 0.6875V6.00369H9.123C9.07327 6.00369 9.02558 6.02344 8.99042 6.05861C8.95525 6.09377 8.9355 6.14146 8.9355 6.19119V7.54128H6.06253C6.0128 7.54128 5.96511 7.56104 5.92995 7.5962C5.89479 7.63136 5.87503 7.67905 5.87503 7.72878V9.08722H3.03741C2.98768 9.08722 2.93999 9.10697 2.90482 9.14214C2.86966 9.1773 2.84991 9.22499 2.84991 9.27472V10.5934H0.375C0.275574 10.5935 0.180249 10.633 0.109945 10.7034C0.03964 10.7737 9.92769e-05 10.869 0 10.9684L0 12.125C9.92769e-05 12.2244 0.03964 12.3197 0.109945 12.3901C0.180249 12.4604 0.275574 12.4999 0.375 12.5H11.625C11.6747 12.5 11.7224 12.4802 11.7576 12.4451C11.7927 12.4099 11.8125 12.3622 11.8125 12.3125C11.8125 12.2628 11.7927 12.2151 11.7576 12.1799C11.7224 12.1448 11.6747 12.125 11.625 12.125H0.375V10.9684H3.0375C3.08723 10.9684 3.13492 10.9487 3.17008 10.9135C3.20525 10.8783 3.225 10.8306 3.225 10.7809V9.46222H6.06253C6.11226 9.46222 6.15995 9.44246 6.19511 9.4073C6.23028 9.37214 6.25003 9.32445 6.25003 9.27472V7.91628H9.123C9.17273 7.91628 9.22042 7.89653 9.25558 7.86136C9.29075 7.8262 9.3105 7.77851 9.3105 7.72878V6.37869H11.8125C11.8622 6.37869 11.9099 6.35893 11.9451 6.32377C11.9802 6.28861 12 6.24092 12 6.19119V0.6875C12 0.637772 11.9802 0.590081 11.9451 0.554917C11.9099 0.519754 11.8622 0.5 11.8125 0.5Z" fill="#7B7B7B"/>
</g>
<defs>
<clipPath id="clip0_422_293">
<rect width="12" height="12" fill="white" transform="translate(0 0.5)"/>
</clipPath>
</defs>
</svg>
