<svg width="17" height="16" viewBox="0 0 17 16" fill="none" xmlns="http://www.w3.org/2000/svg">
<path id="Ellipse 15" d="M1.43398 8C1.10261 8 0.831643 8.26901 0.85647 8.59945C0.959489 9.97057 1.41458 11.2957 2.18223 12.4446C3.06128 13.7602 4.31071 14.7855 5.77252 15.391C7.23432 15.9965 8.84286 16.155 10.3947 15.8463C11.9466 15.5376 13.372 14.7757 14.4908 13.6569C15.6097 12.538 16.3716 11.1126 16.6803 9.56072C16.9889 8.00887 16.8305 6.40034 16.225 4.93853C15.6195 3.47672 14.5941 2.22729 13.2785 1.34824C12.1297 0.580595 10.8046 0.125505 9.43343 0.0224859C9.10299 -0.00234155 8.83399 0.268629 8.83399 0.6C8.83399 0.931371 9.10314 1.19725 9.43323 1.22645C10.5667 1.32672 11.6604 1.71026 12.6119 2.34601C13.7301 3.0932 14.6017 4.15522 15.1164 5.39775C15.631 6.64029 15.7657 8.00754 15.5033 9.32661C15.2409 10.6457 14.5933 11.8573 13.6423 12.8083C12.6913 13.7593 11.4797 14.407 10.1606 14.6693C8.84153 14.9317 7.47427 14.7971 6.23174 14.2824C4.9892 13.7677 3.92718 12.8961 3.17999 11.7779C2.54425 10.8264 2.16071 9.73274 2.06043 8.59924C2.03124 8.26916 1.76536 8 1.43398 8Z" fill="white"/>
</svg>
