<svg width="16" height="16" viewBox="0 0 16 16" fill="none" xmlns="http://www.w3.org/2000/svg">
<g id="svgexport-15 (53) 1">
<g id="Group">
<path id="Vector" d="M14.6707 2.11324C14.451 2.01488 14.2063 2.00902 13.9819 2.09644C13.7576 2.18406 13.5814 2.35404 13.4861 2.57548L11.4484 7.3144C11.3706 7.32112 11.3024 7.36985 11.2728 7.44278L10.9656 8.20057L10.9578 8.21795C10.3841 7.98904 9.80115 7.7842 9.21038 7.60396C9.1099 7.57318 9.00229 7.6224 8.95928 7.7183L7.96753 9.93827C7.84728 10.2074 7.76411 10.4849 7.71131 10.7666C7.45099 10.5301 7.10526 10.3875 6.72548 10.3875C6.30414 10.3875 5.90648 10.5725 5.63211 10.8791C5.33329 10.1418 5.29118 9.32979 5.5188 8.55996C5.72897 7.84841 6.1491 7.23244 6.73345 6.77865C6.75445 6.76233 6.77048 6.74217 6.78337 6.7207C7.57614 6.55129 8.24452 5.99753 8.58478 5.21926C8.9396 4.40774 8.87396 3.4984 8.40926 2.78649C8.38708 2.75269 8.35557 2.72604 8.31855 2.70977C8.28153 2.6935 8.24059 2.68832 8.20069 2.69484C7.35969 2.83436 6.6452 3.40377 6.2891 4.21808C5.95489 4.98246 5.99403 5.83366 6.38804 6.52492C6.10321 6.75984 5.85403 7.0287 5.6484 7.32822C5.60913 6.83315 5.42411 6.34624 5.10145 5.92886C4.55972 5.2279 3.73259 4.84752 2.8828 4.91545C2.84247 4.91857 2.80392 4.93339 2.77188 4.95808C2.73984 4.98278 2.7157 5.01628 2.70241 5.05449C2.4212 5.859 2.57768 6.75926 3.1212 7.46249C3.6138 8.09948 4.34401 8.46841 5.10929 8.48089C4.90753 9.18995 4.90852 9.92902 5.106 10.6264C4.87595 10.4758 4.60161 10.3875 4.3067 10.3875C3.61796 10.3875 3.03944 10.8551 2.88392 11.5052C2.87393 11.5048 2.86424 11.5058 2.85428 11.5055C2.84219 11.5052 2.83028 11.5038 2.81812 11.5038C2.81432 11.5038 2.81115 11.5058 2.80737 11.506C2.00824 11.513 1.35384 12.1645 1.35384 12.9681C1.35384 13.1691 1.39608 13.3659 1.47483 13.5482H1.00824C0.952957 13.5482 0.899942 13.5702 0.860853 13.6093C0.821764 13.6484 0.799805 13.7014 0.799805 13.7567C0.799805 13.8119 0.821764 13.8649 0.860853 13.904C0.899942 13.9431 0.952957 13.9651 1.00824 13.9651H14.8262C14.8815 13.9651 14.9345 13.9431 14.9736 13.904C15.0127 13.8649 15.0346 13.8119 15.0346 13.7567C15.0346 13.7014 15.0127 13.6484 14.9736 13.6093C14.9345 13.5702 14.8815 13.5482 14.8262 13.5482H12.386C12.7656 13.2114 13.0733 12.7938 13.2876 12.3142L14.2791 10.0947C14.2998 10.0483 14.3028 9.99598 14.2876 9.94749C14.2725 9.89901 14.2401 9.85774 14.1967 9.83142C13.5842 9.46041 13.0985 9.18908 12.6111 8.94598L12.9618 8.24793C12.9781 8.21549 12.9856 8.17938 12.9836 8.14315C12.9817 8.10692 12.9704 8.07182 12.9507 8.04131C12.9448 8.03206 12.9378 8.02444 12.9317 8.01539L15.1163 3.30393C15.2177 3.08544 15.227 2.84086 15.1425 2.61536C15.0582 2.38972 14.8905 2.21142 14.6707 2.11324ZM6.67112 4.38512C6.95067 3.74537 7.4906 3.28608 8.1323 3.13366C8.45323 3.70793 8.48155 4.41475 8.2028 5.05222C7.92321 5.69196 7.38328 6.15126 6.74161 6.30387C6.42049 5.7294 6.39236 5.02259 6.67112 4.38512ZM3.45108 7.20752C3.0587 6.69974 2.90875 6.07279 3.02177 5.4808C4.06849 6.28601 4.45371 7.41635 4.45764 7.42812C4.475 7.48057 4.51245 7.524 4.56178 7.54888C4.6111 7.57376 4.66829 7.57805 4.72078 7.56083C4.7732 7.54356 4.81664 7.50622 4.84157 7.45699C4.86651 7.40775 4.87091 7.35064 4.85381 7.29817C4.83784 7.24979 4.49556 6.23318 3.55675 5.3831C4.02616 5.49731 4.45614 5.77561 4.77156 6.1838C5.19851 6.73612 5.34244 7.43024 5.1682 8.0662C5.16184 8.06636 5.15566 8.06636 5.14929 8.06636C4.49822 8.06643 3.87249 7.75267 3.45108 7.20752ZM9.08584 13.5483H1.94027C1.93691 13.5414 1.93643 13.5339 1.93224 13.5273C1.82652 13.3599 1.77051 13.166 1.77073 12.9681C1.77073 12.3743 2.27416 11.8925 2.86846 11.923C2.88017 11.9236 2.89192 11.9238 2.9036 11.9247C2.9412 11.928 2.97902 11.9328 3.01716 11.9402C3.01825 11.9404 3.01937 11.9399 3.02049 11.9401C3.1839 11.972 3.33724 12.0428 3.4676 12.1464C3.30244 12.3885 3.21423 12.6749 3.21451 12.9681C3.21451 13.0832 3.30782 13.1765 3.42292 13.1765C3.53803 13.1765 3.63134 13.0832 3.63134 12.9681C3.63134 12.3906 4.10126 11.9206 4.6788 11.9206C4.79393 11.9206 4.88721 11.8274 4.88721 11.7122C4.88721 11.5971 4.79393 11.5038 4.6788 11.5038C4.3258 11.5038 4.00164 11.6294 3.74849 11.8381C3.61373 11.7271 3.46005 11.6412 3.29483 11.5847C3.41281 11.1299 3.82097 10.8043 4.30676 10.8043C4.8843 10.8043 5.35422 11.2743 5.35422 11.8518C5.35422 11.9669 5.4475 12.0602 5.56264 12.0602C5.67777 12.0602 5.77105 11.9669 5.77105 11.8518C5.77105 11.7202 5.75201 11.5933 5.71934 11.4719C5.74417 11.4526 5.76612 11.4294 5.78068 11.3991C5.95409 11.0378 6.32484 10.8043 6.72555 10.8043C7.21121 10.8043 7.61928 11.1295 7.73733 11.584C7.57206 11.6406 7.41845 11.7268 7.28395 11.8383C7.0308 11.6294 6.70657 11.5038 6.35348 11.5038C6.29821 11.5038 6.2452 11.5258 6.20611 11.5648C6.16703 11.6039 6.14507 11.6569 6.14507 11.7122C6.14507 11.7675 6.16703 11.8205 6.20611 11.8596C6.2452 11.8987 6.29821 11.9206 6.35348 11.9206C6.93102 11.9206 7.40094 12.3906 7.40094 12.9681C7.40094 13.0832 7.49422 13.1765 7.60936 13.1765C7.72449 13.1765 7.8178 13.0832 7.8178 12.9681C7.81811 12.6752 7.73007 12.3891 7.5652 12.147C7.69681 12.0425 7.84932 11.9717 8.01352 11.9402C8.01409 11.9401 8.0146 11.9403 8.01515 11.9402C8.052 11.9332 8.08919 11.9281 8.12657 11.925C8.14037 11.9239 8.15428 11.9235 8.1682 11.9229C8.76107 11.8947 9.26155 12.3757 9.26155 12.9681C9.26167 13.1746 9.20052 13.3765 9.08584 13.5483ZM13.8232 10.0931L12.907 12.1442C12.6439 12.7331 12.2246 13.2179 11.6946 13.5482H9.55569C9.63457 13.3659 9.67832 13.1699 9.67832 12.9681C9.67832 12.1644 9.0235 11.513 8.22475 11.506C8.221 11.5058 8.21784 11.5038 8.21403 11.5038C8.20229 11.5038 8.19083 11.5053 8.17915 11.5055C8.16881 11.5058 8.15876 11.5048 8.1484 11.5052C8.12837 11.4219 8.10105 11.3405 8.06676 11.2619C8.06683 11.2609 8.06744 11.2601 8.06747 11.2591C8.08798 10.8663 8.18244 10.4791 8.34817 10.1082L9.26456 8.05696C9.7787 8.21843 10.2888 8.40147 10.7864 8.59948L10.3363 9.60169C10.0236 10.2971 9.91396 11.0666 10.0199 11.8217L10.0364 11.9392C10.0412 11.9736 10.0545 12.0063 10.0751 12.0342C10.0958 12.0621 10.1231 12.0844 10.1546 12.0991C10.1822 12.1121 10.2123 12.1188 10.2428 12.1188C10.2818 12.1188 10.32 12.1079 10.3531 12.0874L10.4271 12.0411C11.1105 11.6163 11.6469 11.0044 11.9782 10.2714C11.9895 10.2464 11.9958 10.2195 11.9967 10.1922C11.9976 10.1648 11.9931 10.1375 11.9834 10.1119C11.9737 10.0863 11.9591 10.0629 11.9404 10.0429C11.9216 10.023 11.8991 10.0069 11.8742 9.99571C11.7691 9.94768 11.646 9.99504 11.5985 10.0997C11.3347 10.683 10.9263 11.1807 10.4094 11.5518C10.36 10.9423 10.4657 10.3301 10.7166 9.77244L11.3489 8.36416L11.607 7.72784C12.0065 7.73795 12.3113 7.88412 12.5334 8.17203L11.8711 9.48995C11.8463 9.53937 11.8421 9.59659 11.8595 9.64906C11.8769 9.70153 11.9144 9.74497 11.9637 9.76985C12.0671 9.82115 12.1918 9.77993 12.2436 9.67718L12.424 9.31833C12.8589 9.53536 13.2934 9.77593 13.8232 10.0931ZM14.7383 3.1286L12.6303 7.67494C12.4232 7.49904 12.1771 7.38608 11.8919 7.33843L13.8691 2.74028C13.8938 2.68221 13.93 2.62968 13.9754 2.5858C14.0208 2.54192 14.0745 2.50758 14.1334 2.4848C14.1921 2.46171 14.2548 2.45061 14.3179 2.45215C14.381 2.45368 14.4432 2.46783 14.5007 2.49376C14.5584 2.51928 14.6104 2.55613 14.6536 2.60211C14.6968 2.6481 14.7304 2.70228 14.7523 2.76147C14.7745 2.8205 14.7848 2.8834 14.7824 2.94645C14.78 3.0095 14.765 3.07144 14.7383 3.1286Z" fill="#423E3E"/>
</g>
</g>
</svg>
