<svg width="17" height="16" viewBox="0 0 17 16" fill="none" xmlns="http://www.w3.org/2000/svg">
<g id="calendar-day (2) 1" clip-path="url(#clip0_532_4034)">
<path id="Vector" d="M5.33691 8H4.00358C3.45225 8 3.00358 8.44867 3.00358 9V10.3333C3.00358 10.8847 3.45225 11.3333 4.00358 11.3333H5.33691C5.88825 11.3333 6.33691 10.8847 6.33691 10.3333V9C6.33691 8.44867 5.88825 8 5.33691 8ZM5.67025 10.3333C5.67025 10.5173 5.52025 10.6667 5.33691 10.6667H4.00358C3.82025 10.6667 3.67025 10.5173 3.67025 10.3333V9C3.67025 8.816 3.82025 8.66667 4.00358 8.66667H5.33691C5.52025 8.66667 5.67025 8.816 5.67025 9V10.3333ZM13.3369 1.33333H12.3369V0.333333C12.3369 0.149333 12.1876 0 12.0036 0C11.8196 0 11.6702 0.149333 11.6702 0.333333V1.33333H5.00358V0.333333C5.00358 0.149333 4.85425 0 4.67025 0C4.48625 0 4.33691 0.149333 4.33691 0.333333V1.33333H3.33691C1.68291 1.33333 0.336914 2.67933 0.336914 4.33333V13C0.336914 14.654 1.68291 16 3.33691 16H13.3369C14.9909 16 16.3369 14.654 16.3369 13V4.33333C16.3369 2.67933 14.9909 1.33333 13.3369 1.33333ZM3.33691 2H13.3369C14.6236 2 15.6702 3.04667 15.6702 4.33333V5.33333H1.00358V4.33333C1.00358 3.04667 2.05025 2 3.33691 2ZM13.3369 15.3333H3.33691C2.05025 15.3333 1.00358 14.2867 1.00358 13V6H15.6702V13C15.6702 14.2867 14.6236 15.3333 13.3369 15.3333Z" fill="#17305D"/>
</g>
<defs>
<clipPath id="clip0_532_4034">
<rect width="16" height="16" fill="white" transform="translate(0.336914)"/>
</clipPath>
</defs>
</svg>
