<svg width="17" height="16" viewBox="0 0 17 16" fill="none" xmlns="http://www.w3.org/2000/svg">
<g id="Group">
<path id="Vector" d="M8.16699 16C3.75599 16 0.166992 12.411 0.166992 8C0.166992 3.589 3.75599 0 8.16699 0C12.578 0 16.167 3.589 16.167 8C16.167 12.411 12.578 16 8.16699 16ZM8.16699 1C4.30699 1 1.16699 4.14 1.16699 8C1.16699 11.86 4.30699 15 8.16699 15C12.027 15 15.167 11.86 15.167 8C15.167 4.14 12.027 1 8.16699 1ZM10.73 11.075C10.6641 11.0751 10.5989 11.0621 10.5381 11.0369C10.4772 11.0117 10.422 10.9747 10.3755 10.928L8.16549 8.707L5.94499 10.9175C5.85082 11.0108 5.72352 11.0631 5.59093 11.0628C5.45835 11.0625 5.33127 11.0097 5.23749 10.916C5.14405 10.8219 5.09173 10.6946 5.09201 10.5619C5.09229 10.4293 5.14515 10.3022 5.23899 10.2085L7.45999 7.9985L5.24949 5.778C5.16043 5.68308 5.11184 5.55719 5.11405 5.42704C5.11626 5.29689 5.16909 5.17272 5.26133 5.08088C5.35356 4.98903 5.47795 4.93673 5.60811 4.93507C5.73827 4.93342 5.86395 4.98253 5.95849 5.072L8.16849 7.293L10.389 5.0825C10.4839 4.99343 10.6098 4.94485 10.74 4.94706C10.8701 4.94927 10.9943 5.0021 11.0861 5.09433C11.178 5.18657 11.2303 5.31096 11.2319 5.44112C11.2336 5.57127 11.1845 5.69695 11.095 5.7915L8.87399 8.0015L11.0845 10.222C11.1538 10.2922 11.2008 10.3813 11.2197 10.4781C11.2386 10.5749 11.2285 10.6752 11.1906 10.7663C11.1528 10.8574 11.0889 10.9353 11.0069 10.9902C10.925 11.0451 10.8286 11.0746 10.73 11.075Z" fill="#707070"/>
</g>
</svg>
