<svg width="20" height="20" viewBox="0 0 20 20" fill="none" xmlns="http://www.w3.org/2000/svg">
<g id="svgexport-15 (89) 1">
<g id="Group">
<g id="Group_2">
<path id="Vector" d="M4.0588 5.76831C3.97643 5.76831 3.89487 5.78458 3.81882 5.8162C3.74276 5.84782 3.6737 5.89415 3.6156 5.95254C3.5575 6.01093 3.51152 6.08022 3.48028 6.15644C3.44905 6.23265 3.43319 6.31429 3.4336 6.39666C3.43402 6.5622 3.50007 6.72081 3.61727 6.83772C3.73448 6.95463 3.89326 7.02028 4.0588 7.02028H14.9092C15.5864 7.02028 16.0541 7.47697 16.0541 7.98721V9.07855C16.0539 9.16065 16.0698 9.24199 16.1011 9.31792C16.1323 9.39385 16.1782 9.46289 16.2361 9.52109C16.294 9.57929 16.3628 9.62552 16.4386 9.65713C16.5143 9.68874 16.5956 9.70511 16.6777 9.70532C16.7599 9.70532 16.8414 9.6891 16.9173 9.65758C16.9933 9.62606 17.0623 9.57987 17.1203 9.52165C17.1784 9.46342 17.2244 9.39432 17.2558 9.31828C17.2871 9.24225 17.3031 9.16078 17.3029 9.07855V7.98721C17.3029 6.73209 16.1911 5.76831 14.9092 5.76831H4.0588Z" fill="#17305D"/>
<path id="Vector_2" d="M14.9282 8.45337C14.0148 8.45337 13.2589 9.20927 13.2589 10.1242V11.3762C13.2589 12.2896 14.0148 13.0455 14.9282 13.0455H16.6652C17.5786 13.0455 18.3345 12.2896 18.3345 11.3762V10.1242C18.3345 9.21085 17.5786 8.45494 16.6652 8.45494L14.9282 8.45337ZM14.9282 9.70534H16.6652C16.7206 9.70404 16.7756 9.714 16.827 9.73459C16.8784 9.75518 16.9251 9.78599 16.9643 9.82515C17.0035 9.86431 17.0343 9.91101 17.0549 9.96241C17.0755 10.0138 17.0854 10.0689 17.0841 10.1242V11.3762C17.0854 11.4316 17.0755 11.4866 17.0549 11.538C17.0343 11.5894 17.0035 11.6361 16.9643 11.6753C16.9251 11.7144 16.8784 11.7453 16.827 11.7658C16.7756 11.7864 16.7206 11.7964 16.6652 11.7951H14.9298C14.8744 11.7964 14.8194 11.7864 14.768 11.7658C14.7166 11.7453 14.6699 11.7144 14.6307 11.6753C14.5915 11.6361 14.5607 11.5894 14.5401 11.538C14.5195 11.4866 14.5096 11.4316 14.5109 11.3762V10.1242C14.5096 10.0689 14.5195 10.0138 14.5401 9.96241C14.5607 9.91101 14.5915 9.86431 14.6307 9.82515C14.6699 9.78599 14.7166 9.75518 14.768 9.73459C14.8194 9.714 14.8728 9.70404 14.9282 9.70534ZM9.57073 12.8817C9.48836 12.8813 9.40673 12.8972 9.33051 12.9284C9.25429 12.9596 9.185 13.0056 9.12661 13.0637C9.06822 13.1218 9.02189 13.1909 8.99027 13.2669C8.95866 13.343 8.94238 13.4245 8.94238 13.5069V16.7857C8.94238 16.868 8.95866 16.9496 8.99027 17.0256C9.02189 17.1017 9.06822 17.1708 9.12661 17.2289C9.185 17.2869 9.25429 17.3329 9.33051 17.3642C9.40673 17.3954 9.48836 17.4113 9.57073 17.4108C9.73627 17.4104 9.89489 17.3444 10.0118 17.2272C10.1287 17.11 10.1944 16.9512 10.1944 16.7857V13.5069C10.1939 13.3416 10.1281 13.1833 10.0112 13.0664C9.89438 12.9495 9.736 12.8821 9.57073 12.8817Z" fill="#17305D"/>
<path id="Vector_3" d="M7.91826 14.5038C7.75313 14.5035 7.59461 14.5686 7.47732 14.6849C7.35986 14.8017 7.29356 14.9603 7.29297 15.126C7.29238 15.2916 7.35755 15.4507 7.47417 15.5683L9.12771 17.2266C9.24445 17.3436 9.40275 17.4096 9.56801 17.4102C9.73326 17.4108 9.89203 17.3459 10.0096 17.2298C10.1266 17.113 10.1926 16.9547 10.1932 16.7895C10.1937 16.6242 10.1289 16.4654 10.0127 16.3479L8.36078 14.6865C8.30277 14.6281 8.23382 14.5818 8.15788 14.5502C8.08195 14.5186 8.00052 14.5023 7.91826 14.5022V14.5038Z" fill="#17305D"/>
<path id="Vector_4" d="M11.2176 14.5039C11.052 14.5045 10.8934 14.5707 10.7766 14.6881L9.12466 16.3464C9.00811 16.4635 8.94268 16.6221 8.94268 16.7873C8.94268 16.9526 9.00811 17.1111 9.12466 17.2283C9.18286 17.2866 9.25202 17.3328 9.32816 17.3643C9.40429 17.3958 9.4859 17.412 9.5683 17.4118C9.65069 17.4117 9.73224 17.3952 9.80826 17.3635C9.88429 17.3317 9.95328 17.2852 10.0113 17.2267L11.6601 15.5684C11.7762 15.4508 11.8411 15.2921 11.8405 15.1268C11.8399 14.9616 11.7739 14.8033 11.6569 14.6865C11.5399 14.5697 11.3829 14.504 11.2176 14.5039ZM2.29317 4.17944C2.12763 4.17944 1.96884 4.2451 1.85164 4.362C1.73444 4.47891 1.66839 4.63753 1.66797 4.80307V13.559C1.66797 14.8125 2.77663 15.7731 4.05852 15.7731H5.83332C5.99886 15.7727 6.15748 15.7067 6.27439 15.5895C6.39129 15.4723 6.45695 15.3135 6.45694 15.1479C6.45653 14.9827 6.39069 14.8243 6.27383 14.7074C6.15697 14.5906 5.99859 14.5247 5.83332 14.5243H4.05852C3.38135 14.5243 2.91679 14.0676 2.91679 13.559V4.80307C2.91637 4.6378 2.85054 4.47942 2.73367 4.36256C2.61681 4.2457 2.45843 4.17986 2.29317 4.17944ZM16.6774 11.7952C16.5953 11.7954 16.5141 11.8118 16.4383 11.8434C16.3625 11.875 16.2937 11.9212 16.2358 11.9794C16.1779 12.0376 16.132 12.1067 16.1008 12.1826C16.0696 12.2585 16.0536 12.3399 16.0538 12.422V13.5558C16.0538 14.0661 15.5861 14.5228 14.9089 14.5228H13.3341C13.252 14.5225 13.1707 14.5385 13.0947 14.5697C13.0188 14.601 12.9498 14.6468 12.8916 14.7048C12.8334 14.7627 12.7871 14.8315 12.7555 14.9072C12.7239 14.983 12.7075 15.0643 12.7073 15.1464C12.7073 15.2286 12.7236 15.31 12.7551 15.386C12.7866 15.4619 12.8328 15.5309 12.891 15.589C12.9492 15.6471 13.0183 15.6931 13.0944 15.7244C13.1704 15.7558 13.2519 15.7718 13.3341 15.7716H14.9089C16.1908 15.7716 17.3026 14.8109 17.3026 13.5574V12.422C17.3028 12.3397 17.2868 12.2583 17.2555 12.1822C17.2241 12.1062 17.1781 12.0371 17.1201 11.9789C17.062 11.9206 16.993 11.8744 16.917 11.8429C16.8411 11.8114 16.7597 11.7952 16.6774 11.7952Z" fill="#17305D"/>
<path id="Vector_5" d="M4.05852 2.58887C2.7782 2.58887 1.66797 3.5495 1.66797 4.80304C1.66797 6.05658 2.7782 7.02036 4.05852 7.02036C4.14062 7.02057 4.22196 7.0046 4.29789 6.97338C4.37382 6.94215 4.44286 6.89627 4.50106 6.83836C4.55926 6.78045 4.60549 6.71165 4.6371 6.63587C4.66871 6.5601 4.68508 6.47884 4.68529 6.39674C4.68571 6.31424 4.66979 6.23248 4.63846 6.15616C4.60713 6.07984 4.561 6.01047 4.50274 5.95206C4.44447 5.89365 4.37523 5.84735 4.29899 5.81583C4.22275 5.78431 4.14102 5.76819 4.05852 5.76839C3.38608 5.76839 2.91679 5.30698 2.91679 4.80304C2.91679 4.2991 3.38608 3.83769 4.05852 3.83769H13.5121C13.9467 3.83769 14.2869 4.17784 14.2869 4.61249V6.39674C14.2873 6.56201 14.3531 6.72039 14.47 6.83725C14.5868 6.95411 14.7452 7.01995 14.9105 7.02036C15.076 7.02036 15.2348 6.95471 15.352 6.8378C15.4692 6.7209 15.5353 6.56228 15.5357 6.39674V4.61249C15.5336 4.07643 15.3197 3.56292 14.9407 3.18386C14.5616 2.80481 14.0481 2.59094 13.5121 2.58887H4.05852Z" fill="#17305D"/>
</g>
</g>
</g>
</svg>
