<svg width="16" height="14" viewBox="0 0 16 14" fill="none" xmlns="http://www.w3.org/2000/svg">
<g id="Group">
<path id="Layer 2" d="M4.49297 13.6335C3.7347 13.6337 2.9934 13.409 2.36287 12.9878C1.73235 12.5666 1.24093 11.9678 0.950808 11.2672C0.660686 10.5667 0.584894 9.79577 0.733025 9.05211C0.881155 8.30844 1.24655 7.62543 1.78297 7.08949L7.43964 1.43216C7.53344 1.33836 7.66066 1.28567 7.79331 1.28567C7.92596 1.28567 8.05318 1.33836 8.14697 1.43216C8.24077 1.52596 8.29347 1.65318 8.29347 1.78583C8.29347 1.91848 8.24077 2.0457 8.14697 2.13949L2.48964 7.79616C2.21575 8.0568 1.9968 8.36963 1.84568 8.7162C1.69457 9.06277 1.61434 9.43608 1.60974 9.81414C1.60513 10.1922 1.67624 10.5674 1.81887 10.9175C1.9615 11.2677 2.17277 11.5857 2.44023 11.853C2.70768 12.1202 3.02592 12.3312 3.37619 12.4735C3.72646 12.6159 4.10167 12.6867 4.47973 12.6817C4.85778 12.6768 5.23103 12.5963 5.57747 12.4449C5.92392 12.2935 6.23656 12.0743 6.49697 11.8002L13.8036 4.49349C14.1385 4.14774 14.324 3.68422 14.3201 3.20293C14.3162 2.72163 14.1233 2.26115 13.783 1.92082C13.4426 1.58048 12.9822 1.38757 12.5009 1.38371C12.0196 1.37984 11.5561 1.56533 11.2103 1.90016L5.31831 7.79616C5.24091 7.87355 5.17952 7.96543 5.13764 8.06655C5.09575 8.16767 5.0742 8.27605 5.0742 8.38549C5.0742 8.49494 5.09575 8.60332 5.13764 8.70444C5.17952 8.80556 5.24091 8.89744 5.31831 8.97483C5.3957 9.05222 5.48758 9.11361 5.58869 9.1555C5.68981 9.19738 5.79819 9.21894 5.90764 9.21894C6.01709 9.21894 6.12547 9.19738 6.22658 9.1555C6.3277 9.11361 6.41958 9.05222 6.49697 8.97483L10.267 5.20416C10.3131 5.15638 10.3682 5.11827 10.4292 5.09204C10.4902 5.0658 10.5558 5.05198 10.6222 5.05137C10.6886 5.05076 10.7544 5.06338 10.8159 5.08849C10.8774 5.11361 10.9332 5.15071 10.9802 5.19763C11.0271 5.24455 11.0643 5.30036 11.0895 5.3618C11.1146 5.42323 11.1273 5.48907 11.1268 5.55546C11.1262 5.62185 11.1125 5.68746 11.0863 5.74848C11.0601 5.80949 11.022 5.86468 10.9743 5.91083L7.20364 9.68216C7.0334 9.85244 6.83129 9.98752 6.60885 10.0797C6.38641 10.1719 6.14799 10.2193 5.90721 10.2194C5.66643 10.2194 5.428 10.172 5.20553 10.0799C4.98306 9.98776 4.78092 9.85273 4.61064 9.6825C4.44036 9.51226 4.30528 9.31015 4.2131 9.08771C4.12093 8.86526 4.07348 8.62685 4.07345 8.38606C4.07338 7.89978 4.2665 7.43339 4.61031 7.08949L10.5036 1.20016C11.035 0.668755 11.7556 0.37018 12.5071 0.370117C13.2585 0.370055 13.9792 0.66851 14.5106 1.19983C15.042 1.73114 15.3406 2.4518 15.3407 3.20326C15.3407 3.95472 15.0423 4.67542 14.511 5.20683L7.20431 12.5108C6.84902 12.8679 6.42646 13.151 5.96106 13.3437C5.49567 13.5364 4.99668 13.6349 4.49297 13.6335Z" fill="white"/>
</g>
</svg>
