<svg width="17" height="16" viewBox="0 0 17 16" fill="none" xmlns="http://www.w3.org/2000/svg">
<g id="clock 1" clip-path="url(#clip0_536_4257)">
<path id="Vector" d="M8.33691 16C3.92558 16 0.336914 12.4113 0.336914 8C0.336914 3.58867 3.92558 0 8.33691 0C12.7482 0 16.3369 3.58867 16.3369 8C16.3369 12.4113 12.7482 16 8.33691 16ZM8.33691 0.666667C4.29358 0.666667 1.00358 3.95667 1.00358 8C1.00358 12.0433 4.29358 15.3333 8.33691 15.3333C12.3802 15.3333 15.6702 12.0433 15.6702 8C15.6702 3.95667 12.3802 0.666667 8.33691 0.666667Z" fill="#17305D"/>
<path id="Vector_2" d="M5.67019 10.3333C5.56285 10.3333 5.45752 10.2813 5.39285 10.1846C5.29085 10.0319 5.33219 9.82459 5.48552 9.72259L8.33685 7.82125V3.66659C8.33685 3.48259 8.48619 3.33325 8.67019 3.33325C8.85419 3.33325 9.00352 3.48259 9.00352 3.66659V7.99992C9.00352 8.11125 8.94752 8.21525 8.85485 8.27725L5.85485 10.2773C5.79819 10.3153 5.73352 10.3333 5.67019 10.3333Z" fill="#17305D"/>
</g>
<defs>
<clipPath id="clip0_536_4257">
<rect width="16" height="16" fill="white" transform="translate(0.336914)"/>
</clipPath>
</defs>
</svg>
