<svg width="17" height="16" viewBox="0 0 17 16" fill="none" xmlns="http://www.w3.org/2000/svg">
<g id="Loading 4" clip-path="url(#clip0_2141_9232)">
<g id="Group">
<path id="Vector" d="M2.11127 1.14541H4.38467V0.375C4.38467 0.275544 4.42418 0.180161 4.49451 0.109835C4.56483 0.0395088 4.66022 2.23517e-08 4.75967 2.23517e-08C4.85913 2.23517e-08 4.95451 0.0395088 5.02484 0.109835C5.09516 0.180161 5.13467 0.275544 5.13467 0.375V1.14541H8.45898V0.375C8.45898 0.275544 8.49849 0.180161 8.56882 0.109835C8.63914 0.0395088 8.73453 0 8.83398 0C8.93344 0 9.02882 0.0395088 9.09915 0.109835C9.16948 0.180161 9.20898 0.275544 9.20898 0.375V1.14541H12.5333V0.375C12.5333 0.275544 12.5728 0.180161 12.6431 0.109835C12.7135 0.0395088 12.8088 0 12.9083 0C13.0078 0 13.1031 0.0395088 13.1735 0.109835C13.2438 0.180161 13.2833 0.275544 13.2833 0.375V1.14541H15.5567C15.8953 1.14579 16.22 1.28049 16.4594 1.51994C16.6989 1.7594 16.8336 2.08405 16.834 2.42269V14.7227C16.8336 15.0613 16.6989 15.386 16.4595 15.6255C16.22 15.8649 15.8953 15.9996 15.5567 16H2.11127C1.77263 15.9996 1.44797 15.8649 1.20852 15.6255C0.969069 15.386 0.834373 15.0614 0.833984 14.7227V2.42269C0.834373 2.08405 0.969069 1.7594 1.20852 1.51994C1.44797 1.28049 1.77263 1.14579 2.11127 1.14541ZM15.5567 1.89541H13.2833V2.66581C13.2833 2.76527 13.2438 2.86065 13.1735 2.93098C13.1031 3.0013 13.0078 3.04081 12.9083 3.04081C12.8088 3.04081 12.7135 3.0013 12.6431 2.93098C12.5728 2.86065 12.5333 2.76527 12.5333 2.66581V1.89541H9.20898V2.66581C9.20898 2.76527 9.16948 2.86065 9.09915 2.93098C9.02882 3.0013 8.93344 3.04081 8.83398 3.04081C8.73453 3.04081 8.63914 3.0013 8.56882 2.93098C8.49849 2.86065 8.45898 2.76527 8.45898 2.66581V1.89541H5.13467V2.66581C5.13467 2.76527 5.09516 2.86065 5.02484 2.93098C4.95451 3.0013 4.85913 3.04081 4.75967 3.04081C4.66022 3.04081 4.56483 3.0013 4.49451 2.93098C4.42418 2.86065 4.38467 2.76527 4.38467 2.66581V1.89541H2.11127C1.97147 1.89557 1.83745 1.95118 1.7386 2.05003C1.63976 2.14887 1.58415 2.28289 1.58398 2.42269V4.96175H16.084V2.42269C16.0838 2.28289 16.0282 2.14887 15.9294 2.05003C15.8305 1.95118 15.6965 1.89557 15.5567 1.89541ZM2.11127 15.25H15.5567C15.6965 15.2498 15.8305 15.1942 15.9294 15.0954C16.0282 14.9965 16.0838 14.8625 16.084 14.7227V5.71175H1.58398V14.7227C1.58414 14.8625 1.63974 14.9965 1.7386 15.0954C1.83745 15.1942 1.97147 15.2498 2.11127 15.25ZM5.22842 10.2156C5.1936 10.2504 5.16597 10.2918 5.14713 10.3373C5.12828 10.3828 5.11858 10.4315 5.11858 10.4808C5.11858 10.53 5.12828 10.5788 5.14713 10.6243C5.16597 10.6698 5.1936 10.7111 5.22842 10.746L7.97967 13.4972C8.01449 13.5321 8.05584 13.5597 8.10133 13.5785C8.14683 13.5974 8.1956 13.6071 8.24484 13.6071C8.29409 13.6071 8.34286 13.5974 8.38835 13.5785C8.43385 13.5597 8.47519 13.5321 8.51002 13.4972C8.54484 13.4624 8.57246 13.4211 8.59131 13.3756C8.61015 13.3301 8.61985 13.2813 8.61985 13.2321C8.61985 13.1828 8.61015 13.1341 8.59131 13.0886C8.57246 13.0431 8.54484 13.0017 8.51002 12.9669L6.40439 10.8613L12.4749 10.8525C12.5744 10.8524 12.6697 10.8129 12.74 10.7425C12.8103 10.6721 12.8497 10.5767 12.8497 10.4772C12.8496 10.3778 12.81 10.2824 12.7396 10.2121C12.6693 10.1419 12.5738 10.1024 12.4744 10.1025H12.4738L6.39339 10.1114L8.51002 7.99478C8.58034 7.92445 8.61985 7.82907 8.61985 7.72961C8.61985 7.63015 8.58034 7.53477 8.51002 7.46444C8.43969 7.39411 8.3443 7.3546 8.24484 7.3546C8.14538 7.3546 8.05 7.39411 7.97967 7.46444L5.22842 10.2156Z" fill="white"/>
</g>
</g>
<defs>
<clipPath id="clip0_2141_9232">
<rect width="16" height="16" fill="white" transform="matrix(-1 0 0 1 16.834 0)"/>
</clipPath>
</defs>
</svg>
