<svg width="17" height="16" viewBox="0 0 17 16" fill="none" xmlns="http://www.w3.org/2000/svg">
<g id="svgexport-15 (51)" clip-path="url(#clip0_829_9869)">
<g id="Group">
<path id="Vector" d="M4.25 7.704V8.25H4.75V7.75H5.25V7C5.25 6.5865 4.9135 6.25 4.5 6.25C4.36225 6.25 4.25 6.138 4.25 6V5.75H4.5C4.63775 5.75 4.75 5.862 4.75 6V6.25H5.25V6C5.2495 5.8454 5.20118 5.69474 5.11166 5.5687C5.02214 5.44265 4.89581 5.3474 4.75 5.296V4.75H4.25V5.25H3.75V6C3.75 6.4135 4.0865 6.75 4.5 6.75C4.63775 6.75 4.75 6.862 4.75 7V7.25H4.5C4.36225 7.25 4.25 7.138 4.25 7V6.75H3.75V7C3.75 7.3255 3.95975 7.6005 4.25 7.704Z" fill="#17305D"/>
<path id="Vector_2" d="M15.7416 8.25C15.7444 8.1665 15.7504 8.083 15.7504 8C15.7504 7.52425 15.7039 7.04825 15.6124 6.5855L15.5639 6.34025L13.6021 6.7305L13.6506 6.9755C13.7169 7.3105 13.7504 7.65525 13.7504 8C13.7504 8.0835 13.7431 8.1665 13.7391 8.25H12.2416C12.2471 8.16675 12.2504 8.08325 12.2504 8C12.2504 5.93225 10.5681 4.25 8.50036 4.25C7.89261 4.25 7.29636 4.39775 6.76261 4.6775L5.81436 3.49225C6.62603 3.00632 7.55436 2.74978 8.50036 2.75H8.75036V0.75H8.50036C7.72761 0.75 6.97136 0.87125 6.24636 1.1085C6.24786 1.07225 6.25036 1.03625 6.25036 1V0.8965L6.17711 0.82325C6.11861 0.76475 5.55886 0.25 4.00036 0.25H3.75036V0.5C3.75036 0.5845 3.75286 0.66925 3.75786 0.7535C3.55248 0.761616 3.35306 0.824794 3.18048 0.93642C3.00789 1.04805 2.86849 1.20402 2.77686 1.388L2.72086 1.5L3.25036 2.559V3.41225L1.87286 5.134C1.47059 5.63824 1.25115 6.26396 1.25036 6.909C1.25036 6.9775 1.25611 7.0445 1.26086 7.11175L1.03461 7.47375C0.883867 7.71448 0.79004 7.98643 0.760278 8.26889C0.730515 8.55136 0.7656 8.83689 0.862863 9.10375L1.75036 11.544V15.75H6.25036V14.8933C6.97677 15.1304 7.73621 15.2509 8.50036 15.25C8.58411 15.25 8.66686 15.244 8.75036 15.2413V15.75H9.00036C12.9981 15.75 16.2504 12.4975 16.2504 8.5V8.25H15.7416ZM14.1841 7.12425L15.1659 6.929C15.2221 7.2815 15.2504 7.64075 15.2504 8C15.2504 8.08275 15.2446 8.1665 15.2416 8.25H14.2391C14.2426 8.1665 14.2504 8.0835 14.2504 8C14.2504 7.7065 14.2281 7.413 14.1841 7.12425ZM8.50036 4.75C10.2924 4.75 11.7504 6.208 11.7504 8C11.7504 8.08325 11.7466 8.16675 11.7404 8.25H8.75036V11.237C8.003 11.2956 7.25849 11.0928 6.64411 10.6632C6.71311 10.3988 6.75036 10.126 6.75036 9.84875V9.06875C7.36111 8.54725 7.75036 7.77325 7.75036 6.909C7.75036 6.2665 7.52936 5.636 7.12786 5.134L7.08211 5.07675C7.52405 4.86194 8.00898 4.75022 8.50036 4.75ZM8.75036 13.2388C8.66686 13.2428 8.58386 13.25 8.50036 13.25C7.72181 13.2516 6.95286 13.0781 6.25036 12.7425V11.5705C6.33486 11.4368 6.40911 11.2978 6.47261 11.1545C7.1481 11.592 7.94756 11.7979 8.75036 11.7413V13.2388ZM6.16561 1.669C6.83408 1.4209 7.53783 1.28097 8.25036 1.2545V2.2555C7.37475 2.29292 6.51942 2.53095 5.75036 2.95125V2.576L5.79236 2.513C5.96388 2.25495 6.09011 1.96952 6.16561 1.669ZM5.74711 1.1215C5.72579 1.51931 5.59772 1.90403 5.37636 2.23525L5.36661 2.25H4.65686C4.42833 1.78233 4.29307 1.27463 4.25861 0.75525C5.13436 0.793 5.58186 1.016 5.74711 1.1215ZM5.25036 2.75V3.25H3.75036V2.75H5.25036ZM3.80936 1.25H3.81486C3.87328 1.59346 3.97118 1.92901 4.10661 2.25H3.65486L3.28561 1.51175C3.34638 1.43022 3.42542 1.36407 3.51637 1.31862C3.60733 1.27316 3.70768 1.24966 3.80936 1.25ZM2.26336 5.4465L3.62061 3.75H5.38011L6.73736 5.4465C7.06886 5.86194 7.2497 6.37751 7.25036 6.909C7.25036 8.19975 6.20011 9.25 4.90936 9.25H4.09161C3.8989 9.24839 3.70712 9.22303 3.52061 9.1745C3.35414 8.8493 3.10352 8.57468 2.79486 8.37925L3.20261 6.95175C3.23436 6.84125 3.25036 6.7265 3.25036 6.61125C3.25003 6.38289 3.15915 6.16398 2.99765 6.00253C2.83616 5.84108 2.61722 5.75026 2.38886 5.75C2.21561 5.75 2.05711 5.83775 1.96486 5.98475L1.90261 6.0845C1.98849 5.85415 2.11024 5.63883 2.26336 5.4465ZM1.33286 8.93275C1.26163 8.73723 1.23593 8.52804 1.25772 8.32109C1.27951 8.11415 1.34822 7.91489 1.45861 7.7385L2.38886 6.25C2.58836 6.25 2.75036 6.412 2.75036 6.61125C2.75036 6.68 2.74086 6.7485 2.72186 6.8145L2.20286 8.63075L2.38836 8.7235C2.648 8.85217 2.86638 9.05102 3.01874 9.29751C3.1711 9.54399 3.25134 9.82823 3.25036 10.118V10.25H3.75036V10.118C3.74915 9.98546 3.73517 9.85335 3.70861 9.7235C3.83511 9.7405 3.96286 9.75 4.09136 9.75H4.90911C5.39386 9.75 5.85036 9.6275 6.25011 9.4125V9.84875C6.25011 10.3448 6.11661 10.8267 5.86261 11.25H2.17536L1.33286 8.93275ZM2.25036 15.25V11.75H5.75036V15.25H2.25036ZM8.50036 14.75C7.73361 14.7493 6.97262 14.6174 6.25036 14.36V13.2917C6.96139 13.5959 7.727 13.7519 8.50036 13.75C8.58386 13.75 8.66686 13.7423 8.75036 13.7388V14.7413C8.66686 14.7443 8.58411 14.75 8.50036 14.75ZM9.25036 15.2452V8.75H15.7459C15.6171 12.274 12.7744 15.1167 9.25036 15.2452Z" fill="#17305D"/>
<path id="Vector_3" d="M12.5003 11.7501C12.0868 11.7501 11.7503 12.0866 11.7503 12.5001C11.7503 12.9136 12.0868 13.2501 12.5003 13.2501C12.9138 13.2501 13.2503 12.9136 13.2503 12.5001C13.2503 12.0866 12.9138 11.7501 12.5003 11.7501ZM12.5003 12.7501C12.4359 12.7472 12.3751 12.7196 12.3306 12.673C12.2861 12.6265 12.2612 12.5645 12.2612 12.5001C12.2612 12.4357 12.2861 12.3737 12.3306 12.3271C12.3751 12.2806 12.4359 12.253 12.5003 12.2501C12.5647 12.253 12.6254 12.2806 12.67 12.3271C12.7145 12.3737 12.7394 12.4357 12.7394 12.5001C12.7394 12.5645 12.7145 12.6265 12.67 12.673C12.6254 12.7196 12.5647 12.7472 12.5003 12.7501ZM10.5003 10.7501C10.9138 10.7501 11.2503 10.4136 11.2503 10.0001C11.2503 9.58659 10.9138 9.25009 10.5003 9.25009C10.0868 9.25009 9.7503 9.58659 9.7503 10.0001C9.7503 10.4136 10.0868 10.7501 10.5003 10.7501ZM10.5003 9.75009C10.5498 9.75004 10.5982 9.76468 10.6394 9.79216C10.6806 9.81964 10.7127 9.85872 10.7317 9.90446C10.7507 9.9502 10.7556 10.0005 10.746 10.0491C10.7364 10.0977 10.7125 10.1423 10.6775 10.1773C10.6425 10.2123 10.5979 10.2361 10.5493 10.2458C10.5007 10.2554 10.4504 10.2505 10.4047 10.2315C10.3589 10.2125 10.3198 10.1804 10.2924 10.1392C10.2649 10.098 10.2502 10.0496 10.2503 10.0001C10.2503 9.86209 10.3625 9.75009 10.5003 9.75009ZM9.80955 12.8421L12.8103 9.34334L13.1898 9.66884L10.189 13.1676L9.80955 12.8421ZM13.352 5.99059L13.4478 6.22159L15.296 5.45584L15.2003 5.22484C14.269 2.97959 12.293 1.35859 9.91455 0.888094L9.66955 0.839844L9.2793 2.80184L9.5248 2.85034C10.3723 3.01749 11.1652 3.39169 11.833 3.93959C12.5008 4.4875 13.0226 5.1921 13.352 5.99059ZM12.3878 3.75909C12.2332 3.61726 12.0708 3.48406 11.9015 3.36009L12.4575 2.52784C12.6806 2.68921 12.8936 2.86413 13.0953 3.05159L12.3878 3.75909ZM11.4845 3.08384C11.3052 2.97512 11.12 2.87631 10.9298 2.78784L11.3128 1.86309C11.564 1.97784 11.8068 2.10759 12.0405 2.25134L11.4845 3.08384ZM13.7133 5.57034C13.6245 5.38017 13.5255 5.19498 13.4165 5.01559L14.2485 4.45959C14.393 4.69389 14.5231 4.93676 14.638 5.18684L13.7133 5.57034ZM13.97 4.04484L13.1378 4.60084C13.0139 4.43152 12.8809 4.26911 12.7393 4.11434L13.4473 3.40659C13.6345 3.60839 13.8091 3.82154 13.97 4.04484ZM10.0618 1.43159C10.3315 1.49534 10.5948 1.57634 10.8515 1.67134L10.4685 2.59584C10.2714 2.52427 10.0705 2.46343 9.8668 2.41359L10.0618 1.43159Z" fill="#17305D"/>
</g>
</g>
<defs>
<clipPath id="clip0_829_9869">
<rect width="16" height="16" fill="white" transform="translate(0.5)"/>
</clipPath>
</defs>
</svg>
