<svg width="15" height="16" viewBox="0 0 15 16" fill="none" xmlns="http://www.w3.org/2000/svg">
<g id="Group">
<g id="check 1">
<path id="Vector" d="M5.99998 11C5.90067 11.0005 5.80343 10.9715 5.72067 10.9166C5.63791 10.8617 5.57338 10.7834 5.53529 10.6917C5.49721 10.6 5.4873 10.499 5.50684 10.4016C5.52637 10.3043 5.57446 10.2149 5.64498 10.145L10.645 5.14497C10.6915 5.09811 10.7468 5.06091 10.8077 5.03552C10.8686 5.01014 10.934 4.99707 11 4.99707C11.066 4.99707 11.1313 5.01014 11.1923 5.03552C11.2532 5.06091 11.3085 5.09811 11.355 5.14497C11.4481 5.23865 11.5004 5.36538 11.5004 5.49747C11.5004 5.62956 11.4481 5.75629 11.355 5.84997L6.35498 10.85C6.30867 10.8972 6.25345 10.9348 6.19251 10.9605C6.13157 10.9863 6.06613 10.9997 5.99998 11Z" fill="#707070"/>
<path id="Vector_2" d="M6.00028 11C5.86839 10.9981 5.74259 10.9442 5.65028 10.85L3.65028 8.84997C3.55715 8.75629 3.50488 8.62956 3.50488 8.49747C3.50488 8.36538 3.55715 8.23865 3.65028 8.14497C3.69676 8.09811 3.75206 8.06091 3.81299 8.03552C3.87392 8.01014 3.93927 7.99707 4.00528 7.99707C4.07129 7.99707 4.13664 8.01014 4.19757 8.03552C4.2585 8.06091 4.3138 8.09811 4.36028 8.14497L6.36028 10.145C6.43112 10.2152 6.47932 10.305 6.49871 10.4029C6.51809 10.5007 6.50777 10.6021 6.46906 10.6941C6.43035 10.786 6.36503 10.8643 6.28149 10.9188C6.19795 10.9733 6.10002 11.0016 6.00028 11Z" fill="#707070"/>
<path id="Vector_3" d="M7.5 15.5C6.01664 15.5 4.5666 15.0601 3.33323 14.236C2.09986 13.4119 1.13856 12.2406 0.570907 10.8701C0.0032497 9.49968 -0.145275 7.99168 0.144114 6.53683C0.433503 5.08197 1.14781 3.7456 2.1967 2.6967C3.2456 1.64781 4.58197 0.933503 6.03683 0.644114C7.49168 0.354725 8.99968 0.50325 10.3701 1.07091C11.7406 1.63856 12.9119 2.59986 13.736 3.83323C14.5601 5.0666 15 6.51664 15 8C15 9.98913 14.2098 11.8968 12.8033 13.3033C11.3968 14.7098 9.48913 15.5 7.5 15.5ZM7.5 1.5C6.21442 1.5 4.95772 1.88122 3.8888 2.59545C2.81988 3.30968 1.98676 4.32484 1.49479 5.51256C1.00282 6.70028 0.874095 8.00721 1.1249 9.26809C1.3757 10.529 1.99477 11.6872 2.90381 12.5962C3.81285 13.5052 4.97104 14.1243 6.23192 14.3751C7.49279 14.6259 8.79973 14.4972 9.98745 14.0052C11.1752 13.5133 12.1903 12.6801 12.9046 11.6112C13.6188 10.5423 14 9.28558 14 8C14 6.2761 13.3152 4.6228 12.0962 3.40381C10.8772 2.18482 9.22391 1.5 7.5 1.5Z" fill="#707070"/>
</g>
</g>
</svg>
