<svg width="32" height="32" viewBox="0 0 32 32" fill="none" xmlns="http://www.w3.org/2000/svg">
<rect width="32" height="32" rx="16" fill="#ED6D2C"/>
<path d="M23.6 15.6H22.4C22.3928 15.6 22.3869 15.6037 22.3799 15.604C22.1774 12.3867 19.6133 9.82257 16.3961 9.61996C16.3963 9.61295 16.4 9.60706 16.4 9.60005V8.40005C16.4 8.17917 16.2209 8 15.9999 8C15.779 8 15.6 8.17914 15.6 8.40005V9.60005C15.6 9.60706 15.6037 9.6131 15.604 9.61996C12.3867 9.82257 9.82257 12.3867 9.62 15.604C9.61314 15.6037 9.6071 15.6 9.60009 15.6H8.40009C8.17917 15.6 8 15.779 8 15.9999C8 16.2209 8.17914 16.4 8.40005 16.4H9.60005C9.60706 16.4 9.6131 16.3963 9.61996 16.3961C9.82257 19.6133 12.3867 22.1773 15.604 22.3799C15.6037 22.3871 15.6 22.3929 15.6 22.4V23.6C15.6 23.8209 15.779 24 15.9999 24C16.2209 24 16.4 23.8209 16.4 23.6V22.4C16.4 22.3928 16.3963 22.3869 16.3961 22.3799C19.6133 22.1774 22.1774 19.6133 22.3799 16.3961C22.3871 16.3963 22.393 16.4 22.4 16.4H23.6C23.8209 16.4 24 16.2209 24 15.9999C24 15.779 23.8209 15.6 23.6 15.6ZM15.9999 21.6C12.9072 21.6 10.4 19.0928 10.4 15.9999C10.4 12.9072 12.9072 10.4 15.9999 10.4C19.0928 10.4 21.6 12.9072 21.6 15.9999C21.5964 19.0914 19.0914 21.5964 15.9999 21.6Z" fill="white"/>
<path d="M15.9998 12.7998C14.2324 12.7998 12.7998 14.2324 12.7998 15.9998C12.7998 17.7671 14.2324 19.1998 15.9998 19.1998C17.7671 19.1998 19.1998 17.7671 19.1998 15.9998C19.198 14.2333 17.7663 12.8017 15.9998 12.7998ZM15.9998 18.3998C14.6744 18.3998 13.5998 17.3253 13.5998 15.9998C13.5998 14.6744 14.6744 13.5998 15.9998 13.5998C17.3253 13.5998 18.3998 14.6744 18.3998 15.9998C18.3983 17.3247 17.3247 18.3983 15.9998 18.3998Z" fill="white"/>
</svg>
