<svg width="22" height="20" viewBox="0 0 22 20" fill="none" xmlns="http://www.w3.org/2000/svg">
<g id="Group">
<g id="Layer 41">
<path id="Vector" d="M20.5517 12.4751C20.3528 12.4751 20.162 12.5541 20.0214 12.6948C19.8807 12.8354 19.8017 13.0262 19.8017 13.2251V15.7863C19.8017 16.39 19.5619 16.969 19.135 17.3959C18.7081 17.8228 18.1292 18.0626 17.5255 18.0626H4.47547C3.87177 18.0626 3.2928 17.8228 2.86592 17.3959C2.43904 16.969 2.19922 16.39 2.19922 15.7863V13.2251C2.19922 13.0262 2.1202 12.8354 1.97955 12.6948C1.8389 12.5541 1.64813 12.4751 1.44922 12.4751C1.25031 12.4751 1.05954 12.5541 0.918889 12.6948C0.778236 12.8354 0.699219 13.0262 0.699219 13.2251V15.7863C0.700212 16.7876 1.09838 17.7475 1.80635 18.4555C2.51432 19.1634 3.47425 19.5616 4.47547 19.5626H17.5255C18.5267 19.5616 19.4866 19.1634 20.1946 18.4555C20.9026 17.7475 21.3007 16.7876 21.3017 15.7863V13.2251C21.3017 13.0262 21.2227 12.8354 21.082 12.6948C20.9414 12.5541 20.7506 12.4751 20.5517 12.4751Z" fill="black"/>
<path id="Vector_2" d="M10.4683 14.665C10.538 14.7353 10.6209 14.7911 10.7123 14.8292C10.8037 14.8672 10.9018 14.8868 11.0008 14.8868C11.0998 14.8868 11.1978 14.8672 11.2892 14.8292C11.3806 14.7911 11.4635 14.7353 11.5333 14.665L15.8008 10.3975C15.9198 10.2542 15.9813 10.0718 15.9733 9.88564C15.9652 9.69952 15.8881 9.52307 15.7571 9.39064C15.6261 9.25821 15.4505 9.17928 15.2644 9.16923C15.0784 9.15918 14.8953 9.21871 14.7508 9.33625L11.7508 12.3363V1.1875C11.7508 0.988588 11.6718 0.797822 11.5311 0.65717C11.3904 0.516518 11.1997 0.4375 11.0008 0.4375C10.8019 0.4375 10.6111 0.516518 10.4704 0.65717C10.3298 0.797822 10.2508 0.988588 10.2508 1.1875V12.325L7.25077 9.325C7.11004 9.18427 6.91917 9.10521 6.72014 9.10521C6.52112 9.10521 6.33025 9.18427 6.18952 9.325C6.04879 9.46573 5.96973 9.6566 5.96973 9.85563C5.96973 10.0546 6.04879 10.2455 6.18952 10.3862L10.4683 14.665Z" fill="black"/>
</g>
</g>
</svg>
