<svg width="20" height="20" viewBox="0 0 20 20" fill="none" xmlns="http://www.w3.org/2000/svg">
<g id="Group">
<path id="Vector" d="M12.5251 18.25H1.74967C1.50663 18.2498 1.27362 18.1531 1.10176 17.9812C0.929906 17.8094 0.83325 17.5764 0.833008 17.3333V1.29167C0.83325 1.04863 0.929906 0.815609 1.10176 0.643753C1.27362 0.471898 1.50663 0.375243 1.74967 0.375H13.6663C13.9094 0.375243 14.1424 0.471898 14.3143 0.643753C14.4861 0.815609 14.5828 1.04863 14.583 1.29167V11.7875C14.583 11.9091 14.5347 12.0256 14.4488 12.1116C14.3628 12.1975 14.2462 12.2458 14.1247 12.2458C14.0031 12.2458 13.8865 12.1975 13.8006 12.1116C13.7146 12.0256 13.6663 11.9091 13.6663 11.7875V1.29167H1.74967V17.3333H12.5251C12.6466 17.3333 12.7632 17.3816 12.8492 17.4676C12.9351 17.5535 12.9834 17.6701 12.9834 17.7917C12.9834 17.9132 12.9351 18.0298 12.8492 18.1158C12.7632 18.2017 12.6466 18.25 12.5251 18.25Z" fill="#707070"/>
<path id="Vector_2" d="M14.9729 19.6248C14.8646 19.6248 14.7573 19.6041 14.6567 19.5639L13.9082 19.2646C12.9308 18.877 12.1034 18.1862 11.5477 17.2935C10.992 16.4009 10.7372 15.3536 10.8209 14.3054L10.9377 12.7874C10.9533 12.5879 11.0385 12.4003 11.1784 12.2573C11.3183 12.1143 11.5041 12.025 11.7032 12.005C12.7059 11.9021 13.6722 11.573 14.5293 11.0425C14.6624 10.9596 14.8161 10.9156 14.9729 10.9156C15.1298 10.9156 15.2835 10.9596 15.4166 11.0425C16.2736 11.5732 17.2399 11.9023 18.2427 12.005C18.4417 12.025 18.6274 12.1142 18.7673 12.2571C18.9072 12.4 18.9924 12.5876 19.0081 12.787L19.125 14.305C19.2088 15.3531 18.9542 16.4004 18.3985 17.2931C17.8429 18.1857 17.0155 18.8766 16.0381 19.2641L15.2896 19.5639C15.189 19.6041 15.0817 19.6248 14.9734 19.6248H14.9729ZM11.8475 12.9112L11.7348 14.3751C11.6667 15.2286 11.8741 16.0815 12.3266 16.8084C12.7791 17.5353 13.4528 18.0978 14.2488 18.4135L14.9729 18.7031L15.698 18.4135C16.4938 18.0978 17.1673 17.5353 17.6197 16.8085C18.072 16.0817 18.2793 15.2289 18.211 14.3755L18.0983 12.9112C16.991 12.7902 15.924 12.4265 14.9734 11.846C14.0224 12.4265 12.9551 12.7902 11.8475 12.9112ZM11.8333 7.24984H3.58333C3.46178 7.24984 3.3452 7.20155 3.25924 7.11559C3.17329 7.02964 3.125 6.91306 3.125 6.7915V3.12484C3.125 3.00328 3.17329 2.8867 3.25924 2.80075C3.3452 2.71479 3.46178 2.6665 3.58333 2.6665H11.8333C11.9549 2.6665 12.0715 2.71479 12.1574 2.80075C12.2434 2.8867 12.2917 3.00328 12.2917 3.12484V6.7915C12.2917 6.91306 12.2434 7.02964 12.1574 7.11559C12.0715 7.20155 11.9549 7.24984 11.8333 7.24984ZM4.04167 6.33317H11.375V3.58317H4.04167V6.33317ZM11.8333 11.604H3.58333C3.46178 11.604 3.3452 11.5557 3.25924 11.4698C3.17329 11.3838 3.125 11.2672 3.125 11.1457C3.125 11.0241 3.17329 10.9075 3.25924 10.8216C3.3452 10.7356 3.46178 10.6873 3.58333 10.6873H11.8333C11.9549 10.6873 12.0715 10.7356 12.1574 10.8216C12.2434 10.9075 12.2917 11.0241 12.2917 11.1457C12.2917 11.2672 12.2434 11.3838 12.1574 11.4698C12.0715 11.5557 11.9549 11.604 11.8333 11.604ZM8.625 13.6665H3.58333C3.46178 13.6665 3.3452 13.6182 3.25924 13.5323C3.17329 13.4463 3.125 13.3297 3.125 13.2082C3.125 13.0866 3.17329 12.97 3.25924 12.8841C3.3452 12.7981 3.46178 12.7498 3.58333 12.7498H8.625C8.74656 12.7498 8.86314 12.7981 8.94909 12.8841C9.03505 12.97 9.08333 13.0866 9.08333 13.2082C9.08333 13.3297 9.03505 13.4463 8.94909 13.5323C8.86314 13.6182 8.74656 13.6665 8.625 13.6665ZM8.625 15.729H3.58333C3.46178 15.729 3.3452 15.6807 3.25924 15.5948C3.17329 15.5088 3.125 15.3922 3.125 15.2707C3.125 15.1491 3.17329 15.0325 3.25924 14.9466C3.3452 14.8606 3.46178 14.8123 3.58333 14.8123H8.625C8.74656 14.8123 8.86314 14.8606 8.94909 14.9466C9.03505 15.0325 9.08333 15.1491 9.08333 15.2707C9.08333 15.3922 9.03505 15.5088 8.94909 15.5948C8.86314 15.6807 8.74656 15.729 8.625 15.729ZM11.8333 9.5415H3.58333C3.46178 9.5415 3.3452 9.49322 3.25924 9.40726C3.17329 9.32131 3.125 9.20473 3.125 9.08317C3.125 8.96161 3.17329 8.84503 3.25924 8.75908C3.3452 8.67313 3.46178 8.62484 3.58333 8.62484H11.8333C11.9549 8.62484 12.0715 8.67313 12.1574 8.75908C12.2434 8.84503 12.2917 8.96161 12.2917 9.08317C12.2917 9.20473 12.2434 9.32131 12.1574 9.40726C12.0715 9.49322 11.9549 9.5415 11.8333 9.5415Z" fill="#707070"/>
<path id="Vector_3" d="M14.5433 16.4837C14.4218 16.4837 14.3052 16.4354 14.2193 16.3494L13.6482 15.7783C13.5647 15.6919 13.5185 15.5761 13.5195 15.4559C13.5206 15.3358 13.5688 15.2208 13.6538 15.1358C13.7388 15.0508 13.8537 15.0026 13.9739 15.0016C14.0941 15.0006 14.2098 15.0468 14.2963 15.1302L14.5383 15.3722L15.7483 14.1242C15.7897 14.0791 15.8397 14.0427 15.8954 14.0172C15.9511 13.9917 16.0113 13.9776 16.0725 13.9758C16.1338 13.974 16.1947 13.9844 16.2518 14.0066C16.3089 14.0287 16.361 14.0621 16.405 14.1047C16.449 14.1473 16.484 14.1983 16.508 14.2547C16.5319 14.3111 16.5443 14.3717 16.5445 14.4329C16.5446 14.4942 16.5324 14.5548 16.5087 14.6113C16.485 14.6678 16.4502 14.7189 16.4064 14.7617L14.8724 16.3444C14.8301 16.388 14.7796 16.4228 14.7237 16.4467C14.6678 16.4706 14.6078 16.4832 14.547 16.4837H14.5433Z" fill="#707070"/>
</g>
</svg>
