<svg width="16" height="16" viewBox="0 0 16 16" fill="none" xmlns="http://www.w3.org/2000/svg">
<g id="svgexport-4 (9) 1" clip-path="url(#clip0_829_10016)">
<g id="Group">
<path id="Vector" fill-rule="evenodd" clip-rule="evenodd" d="M3.66625 8.66666H8.99956C9.18315 8.66666 9.3329 8.81637 9.3329 8.99997C9.3329 9.18356 9.18315 9.33331 8.99956 9.33331H3.87197L0.871965 15.3346H15.1278L15.0829 15.2448L12.1272 9.33331H11.6669C11.4833 9.33331 11.3335 9.18356 11.3335 8.99997C11.3335 8.81637 11.4833 8.66666 11.6669 8.66666H12.342L12.344 8.66794C12.3602 8.66794 12.3765 8.66925 12.3922 8.67184C12.4162 8.67706 12.439 8.68356 12.4612 8.69269H12.4625L12.4683 8.69528L12.4826 8.70309H12.4846L12.4898 8.707H12.4918L12.497 8.70963L12.499 8.71091L12.5042 8.71481H12.5062L12.5107 8.71872L12.5127 8.72003L12.5179 8.72262L12.5192 8.72394L12.5244 8.72784L12.5257 8.72916L12.5388 8.73825L12.544 8.74216L12.5453 8.74347L12.5499 8.74737L12.5512 8.74869C12.5694 8.7641 12.5858 8.78157 12.6 8.80075H12.6007L12.6098 8.81378L12.6105 8.81509L12.6144 8.82028V8.82159L12.6222 8.83463L12.6235 8.83591L12.6261 8.84112L12.6274 8.84372L12.63 8.84894L12.6313 8.85153L12.6339 8.85544L15.9637 15.5156L15.9651 15.5182L15.967 15.5234L15.9696 15.5286L15.9703 15.5299L15.9716 15.5338L15.9736 15.5377H15.9742L15.9762 15.5429L15.9801 15.5533C16.0139 15.6445 16.0068 15.7395 15.9599 15.8255L15.9586 15.8281L15.9501 15.8424L15.9475 15.8463V15.8476L15.9443 15.8515C15.8909 15.9323 15.8108 15.983 15.7177 15.9961L15.7157 15.9973H15.7092L15.7053 15.9987H15.6994L15.6942 16H0.304903L0.299684 15.9987H0.29384L0.289934 15.9973H0.283434L0.282122 15.9961C0.188372 15.983 0.108934 15.9323 0.0549028 15.8515L0.052309 15.8476L0.0516528 15.8463L0.049059 15.8424L0.0405903 15.8281L0.0392778 15.8255C-0.00759723 15.7395 -0.0147535 15.6445 0.0190903 15.5533H0.0197465L0.0229965 15.5429L0.0249653 15.5377H0.0256215L0.0275903 15.5338L0.0289028 15.5299L0.029559 15.5286L0.0321528 15.5234L0.0347465 15.5182L0.036059 15.5156L3.36612 8.85544L3.36809 8.85153L3.3694 8.84894L3.372 8.84372L3.37331 8.84112L3.3759 8.83591L3.37722 8.83463L3.38503 8.82159L3.38568 8.82028L3.38959 8.81509L3.39025 8.81378L3.39937 8.80075C3.41358 8.78156 3.42997 8.76409 3.44822 8.74869L3.44953 8.74737L3.45475 8.74347L3.45606 8.74216L3.46062 8.73825L3.47365 8.72916L3.47497 8.72784L3.48018 8.72394L3.4815 8.72262L3.48672 8.72003L3.48868 8.71872L3.4939 8.71481H3.49522L3.50043 8.71091L3.5024 8.70963L3.50762 8.707H3.50959L3.51481 8.70309H3.51678L3.53109 8.69528L3.53697 8.69269H3.53893C3.56043 8.68356 3.58387 8.67706 3.60731 8.67184C3.62324 8.66923 3.63935 8.66792 3.6555 8.66794L3.65809 8.66666H3.66331H3.66625ZM12.3336 4.33331H8.3329C8.14997 4.33331 7.99956 4.18356 7.99956 3.99997C7.99956 3.81638 8.14931 3.66666 8.3329 3.66666H12.3336C12.5172 3.66666 12.6669 3.81638 12.6669 3.99997C12.6669 4.18356 12.5172 4.33331 12.3336 4.33331ZM13.0002 2.33331H7.66621C7.48328 2.33331 7.33287 2.18356 7.33287 1.99997C7.33287 1.81638 7.48262 1.66666 7.66621 1.66666H13.0002C13.1838 1.66666 13.3336 1.81638 13.3336 1.99997C13.3336 2.18356 13.1838 2.33331 13.0002 2.33331ZM5.99956 5.65753V5.67447H6.00022V5.69269H6.00087L6.00153 5.7005L6.00218 5.70831L6.0035 5.71744L6.00481 5.72525L6.00612 5.73306H6.00678L6.00809 5.74216L6.01006 5.74997H6.01072L6.01203 5.75778H6.01268L6.01465 5.76559L6.01725 5.77341L6.01984 5.78122L6.02309 5.78903L6.02568 5.79556H6.02634L6.02893 5.80337L6.03284 5.81119L6.03609 5.81769L6.04 5.8255L6.0439 5.832L6.04781 5.83853H6.04847L6.05237 5.84634L6.05693 5.85284L6.0615 5.85934L6.06606 5.86587L6.07062 5.87238H6.07128L6.07584 5.87887L6.08106 5.88409L6.08628 5.89059L6.09215 5.89581L6.09737 5.90231L6.10325 5.90753L6.10912 5.91275L6.115 5.91794L6.1215 5.92316L6.12737 5.92837L6.13387 5.93356L6.14037 5.93878L6.14687 5.94269L6.15337 5.94659L6.16053 5.95181L6.16768 5.95572L6.17418 5.95962L6.18134 5.96353L6.18915 5.96744L6.19565 5.97003H6.19631L6.20346 5.97394L6.21062 5.97653H6.21128L6.21843 5.97916L6.22625 5.98175L6.23406 5.98434L6.24187 5.98697L6.24968 5.98956L6.2575 5.99087H6.25815L6.26596 5.99347L6.27378 5.99478H6.27443L6.28225 5.99606L6.29072 5.99738L6.29918 5.99869H6.30765L6.31612 5.99997H10.0004V11.6666C10.0004 11.8502 10.1501 12 10.3331 12C10.5167 12 10.6664 11.8502 10.6664 11.6666V5.99997H14.3507L14.3591 5.99869H14.3676L14.3761 5.99738L14.3845 5.99606L14.3923 5.99478L14.4008 5.99347L14.4086 5.99087L14.4164 5.98956L14.4249 5.98697L14.4327 5.98434L14.4399 5.98175L14.4477 5.97916L14.4555 5.97653L14.4633 5.97394L14.4705 5.97003L14.4776 5.96744V5.96613L14.4848 5.96353L14.4919 5.95962L14.4991 5.95572L14.5062 5.95181L14.5127 5.94659L14.5199 5.94269L14.5264 5.93878V5.93747L14.5329 5.93356L14.5388 5.92837L14.5453 5.92316L14.5512 5.91794L14.557 5.91275L14.5629 5.90753L14.5688 5.90231L14.5747 5.89581L14.5799 5.89059L14.5851 5.88409L14.5903 5.87887V5.87759L14.5955 5.87238L14.6007 5.86587L14.6053 5.85934L14.6099 5.85284L14.6144 5.84634L14.6183 5.83853L14.6229 5.832L14.6268 5.8255L14.6301 5.81769L14.634 5.81119L14.6372 5.80337L14.6405 5.79556L14.6437 5.78903L14.6463 5.78122L14.6496 5.77341L14.6522 5.76559L14.6541 5.75778L14.6558 5.74997L14.6578 5.74216L14.6597 5.73306L14.6611 5.72525L14.663 5.71744L14.6637 5.70831L14.665 5.7005L14.6657 5.69269L14.6663 5.68356V5.67447L14.667 5.66666V0.333312L14.6663 0.324219V0.316406L14.6657 0.307281L14.665 0.299469L14.6637 0.290344L14.663 0.282531L14.6611 0.274719L14.6597 0.265625L14.6578 0.257812L14.6558 0.25L14.6538 0.242188L14.6519 0.234375L14.6493 0.226562L14.646 0.21875L14.6434 0.210938L14.6402 0.203125L14.6369 0.196594L14.6337 0.188781L14.6298 0.180969L14.6265 0.174469L14.6226 0.167969L14.6181 0.160156L14.6142 0.153625L14.6096 0.147125L14.605 0.140625L14.6005 0.134094L14.5952 0.127594L14.59 0.121094L14.5848 0.115875V0.114563L14.5796 0.109375L14.5744 0.102844L14.5685 0.0976562L14.5626 0.0924375L14.5567 0.0872188V0.0859375L14.5509 0.0807188L14.545 0.0755L14.5385 0.0715938L14.5326 0.0664062L14.5261 0.0611875L14.5196 0.0572812L14.5125 0.0520625L14.506 0.0481563L14.4988 0.04425L14.4917 0.0403438L14.4845 0.0364375L14.4773 0.0325313L14.4702 0.028625L14.463 0.0260313L14.4552 0.0234375L14.4474 0.0208125V0.0195312L14.4396 0.0169063L14.4324 0.0143125L14.4246 0.013L14.4162 0.0104063L14.4083 0.0078125L14.4005 0.0065L14.3921 0.0051875L14.3842 0.00390625L14.3758 0.00259375L14.3673 0.00128125H14.3589L14.3505 0H6.31597L6.3075 0.00128125H6.29837L6.29056 0.00259375L6.28209 0.00390625L6.27428 0.0051875H6.27362L6.26581 0.0065L6.258 0.0078125H6.25734L6.24956 0.0104063L6.24175 0.013L6.23393 0.0143125L6.22612 0.0169063L6.21831 0.0195312L6.21115 0.0234375H6.2105L6.20334 0.0260313L6.19618 0.028625H6.19553L6.18903 0.0325313H6.18837L6.18122 0.0364375L6.17406 0.0403438L6.16756 0.04425H6.1669L6.1604 0.0481563L6.15325 0.0520625L6.14675 0.0572812L6.14018 0.0611875L6.13368 0.0664062L6.12718 0.0715938L6.12131 0.0755L6.11481 0.0807188L6.10893 0.0859375L6.10306 0.0924375L6.09718 0.0976562L6.09197 0.102844L6.08609 0.109375L6.08087 0.114563L6.07565 0.121094L6.07109 0.127594H6.07043L6.06587 0.134094L6.06131 0.140625L6.05675 0.147125L6.05218 0.153625L6.04828 0.160156H6.04762L6.04372 0.167969L6.03981 0.174469L6.0359 0.180969L6.03265 0.188781H6.032L6.02875 0.196594L6.02615 0.203125H6.0255L6.0229 0.210938L6.01965 0.21875L6.01706 0.226562L6.01447 0.234375L6.0125 0.242188H6.01184L6.01053 0.25H6.00987L6.0079 0.257812L6.00659 0.265625H6.00593L6.00462 0.274719L6.00331 0.282531L6.002 0.290344L6.00134 0.299469L6.00068 0.307281H6.00003V0.324219H5.99956V0.341125V5.65753ZM6.66625 0.666656V5.33331H14.0002V0.666656H6.66625Z" fill="#17305D"/>
</g>
</g>
<defs>
<clipPath id="clip0_829_10016">
<rect width="16" height="16" fill="white"/>
</clipPath>
</defs>
</svg>
