<svg width="24" height="24" viewBox="0 0 24 24" fill="none" xmlns="http://www.w3.org/2000/svg">
<g id="svgexport-16 (4) copy 1" clip-path="url(#clip0_93_2383)">
<g id="Group">
<path id="Vector" d="M22.1597 19.5392C22.0853 19.0498 21.8518 18.5986 21.4952 18.2553C21.1387 17.912 20.679 17.6957 20.1872 17.6398C20.1054 17.1391 19.8568 16.6808 19.4818 16.3391C19.1068 15.9974 18.6274 15.7925 18.1213 15.7575C17.9674 15.3175 17.6807 14.9361 17.3007 14.6661C16.9207 14.396 16.4663 14.2507 16.0001 14.25H15.8751C15.4935 14.2504 15.1182 14.3479 14.7847 14.5334C14.4512 14.7189 14.1704 14.9862 13.9688 15.3101C13.7671 14.9862 13.4863 14.7189 13.1528 14.5334C12.8194 14.348 12.4442 14.2504 12.0626 14.25H11.9374C11.5558 14.2505 11.1806 14.348 10.8471 14.5335C10.5137 14.719 10.2329 14.9863 10.0312 15.3103C9.82962 14.9863 9.54885 14.719 9.21538 14.5335C8.88191 14.348 8.50671 14.2505 8.12512 14.25H7.99988C7.53373 14.2507 7.07931 14.3961 6.69938 14.6662C6.31944 14.9363 6.03274 15.3177 5.87887 15.7577C5.3728 15.7926 4.89336 15.9975 4.51834 16.3391C4.14331 16.6807 3.8947 17.139 3.81281 17.6396C3.32098 17.6955 2.86125 17.9118 2.50471 18.2552C2.14816 18.5986 1.91466 19.0498 1.84031 19.5392C1.32391 19.6353 0.857333 19.9089 0.521282 20.3126C0.185231 20.7163 0.000839909 21.2247 0 21.75L0 23.625C0 23.7245 0.0395088 23.8198 0.109835 23.8902C0.180161 23.9605 0.275544 24 0.375 24H23.625C23.7245 24 23.8198 23.9605 23.8902 23.8902C23.9605 23.8198 24 23.7245 24 23.625V21.75C23.9992 21.2247 23.8148 20.7163 23.4787 20.3126C23.1427 19.9089 22.6761 19.6353 22.1597 19.5392ZM17.8436 16.5H17.9689C18.3076 16.5006 18.6362 16.6157 18.9013 16.8267C19.1663 17.0376 19.3523 17.332 19.4289 17.6619C19.1175 17.7162 18.821 17.8353 18.5587 18.0116C18.2964 18.1879 18.0741 18.4175 17.9062 18.6853C17.7384 18.4175 17.5162 18.188 17.2539 18.0117C16.9916 17.8353 16.6951 17.7162 16.3837 17.6619C16.4604 17.332 16.6463 17.0377 16.9113 16.8267C17.1764 16.6158 17.5049 16.5006 17.8436 16.5ZM15.8749 15H16.0001C16.2752 15.0003 16.5449 15.0763 16.7797 15.2196C17.0145 15.3629 17.2054 15.5681 17.3314 15.8126C16.7536 15.9489 16.2528 16.3073 15.9375 16.8103C15.6222 16.3073 15.1213 15.9488 14.5434 15.8126C14.6695 15.568 14.8604 15.3628 15.0953 15.2195C15.3301 15.0762 15.5997 15.0002 15.8749 15ZM13.9061 16.5H14.0314C14.3701 16.5006 14.6987 16.6157 14.9638 16.8267C15.2288 17.0376 15.4148 17.332 15.4914 17.6619C15.18 17.7162 14.8835 17.8353 14.6212 18.0116C14.3589 18.1879 14.1366 18.4175 13.9688 18.6853C13.8009 18.4175 13.5787 18.188 13.3164 18.0117C13.0541 17.8353 12.7576 17.7162 12.4462 17.6619C12.5229 17.332 12.7088 17.0377 12.9738 16.8267C13.2389 16.6158 13.5674 16.5006 13.9061 16.5ZM11.9374 15H12.0626C12.3377 15.0003 12.6074 15.0763 12.8422 15.2196C13.077 15.3629 13.2679 15.5681 13.3939 15.8126C12.8161 15.9489 12.3153 16.3073 12 16.8103C11.6847 16.3073 11.1838 15.9488 10.6059 15.8126C10.732 15.568 10.9229 15.3628 11.1578 15.2195C11.3926 15.0762 11.6622 15.0002 11.9374 15ZM9.96863 16.5H10.0939C10.4326 16.5006 10.7612 16.6157 11.0263 16.8267C11.2913 17.0376 11.4773 17.332 11.5539 17.6619C11.2425 17.7162 10.946 17.8353 10.6837 18.0116C10.4214 18.1879 10.1991 18.4175 10.0312 18.6853C9.86345 18.4175 9.64118 18.188 9.37887 18.0117C9.11657 17.8353 8.82011 17.7162 8.50875 17.6619C8.58538 17.332 8.77127 17.0377 9.03626 16.8268C9.30124 16.6159 9.62994 16.5007 9.96863 16.5ZM7.99988 15H8.12512C8.40022 15.0003 8.66992 15.0763 8.90472 15.2196C9.13952 15.3629 9.33037 15.5681 9.45638 15.8126C8.87859 15.9489 8.37778 16.3073 8.0625 16.8103C7.74718 16.3073 7.24629 15.9488 6.66844 15.8126C6.79447 15.568 6.98538 15.3628 7.22025 15.2195C7.45512 15.0762 7.72472 15.0002 7.99988 15ZM6.03113 16.5H6.15637C6.49513 16.5006 6.82372 16.6157 7.08878 16.8267C7.35384 17.0376 7.5398 17.332 7.61644 17.6619C7.30504 17.7162 7.00854 17.8353 6.74621 18.0116C6.48387 18.1879 6.26157 18.4175 6.09375 18.6853C5.92595 18.4175 5.70368 18.188 5.44137 18.0117C5.17907 17.8353 4.88261 17.7162 4.57125 17.6619C4.64788 17.332 4.83381 17.0377 5.09883 16.8267C5.36385 16.6158 5.69241 16.5006 6.03113 16.5ZM3.87488 23.25H0.75V21.75C0.750496 21.3523 0.908691 20.9711 1.18989 20.6899C1.47108 20.4087 1.85233 20.2505 2.25 20.25H2.37488C2.77255 20.2505 3.15379 20.4087 3.43499 20.6899C3.71618 20.9711 3.87438 21.3523 3.87488 21.75V23.25ZM4.24988 20.5089C4.06641 20.2324 3.82406 20 3.5402 19.8281C3.25633 19.6563 2.93798 19.5494 2.60794 19.515C2.68852 19.19 2.87544 18.9013 3.13897 18.6947C3.40251 18.4881 3.72754 18.3756 4.06238 18.375H4.18744C4.52935 18.3755 4.86086 18.4926 5.12719 18.707C5.39353 18.9214 5.57873 19.2203 5.65219 19.5542C5.07825 19.6777 4.57514 20.0202 4.24988 20.5089ZM7.75012 23.25H4.62488V21.75C4.62537 21.3523 4.78357 20.9711 5.06476 20.6899C5.34596 20.4087 5.7272 20.2505 6.12488 20.25H6.25012C6.6478 20.2505 7.02904 20.4087 7.31024 20.6899C7.59143 20.9711 7.74963 21.3523 7.75012 21.75V23.25ZM8.12512 20.5089C7.94755 20.2407 7.71458 20.0136 7.44191 19.843C7.16924 19.6723 6.86317 19.562 6.54431 19.5195C6.62409 19.1934 6.81083 18.9035 7.07472 18.6961C7.3386 18.4886 7.66439 18.3756 8.00006 18.375H8.12512C8.46489 18.3756 8.79442 18.4914 9.05988 18.7034C9.32534 18.9155 9.51106 19.2113 9.58669 19.5426C9.29087 19.5979 9.00913 19.7119 8.75811 19.8778C8.50708 20.0438 8.29185 20.2584 8.12512 20.5089ZM11.625 23.25H8.50012V21.75C8.50062 21.3523 8.65882 20.9711 8.94001 20.6899C9.22121 20.4087 9.60245 20.2505 10.0001 20.25H10.125C10.5227 20.2505 10.9039 20.4087 11.1851 20.6899C11.4663 20.9711 11.6245 21.3523 11.625 21.75V23.25ZM12 20.5089C11.8278 20.2497 11.6037 20.029 11.3419 19.8607C11.08 19.6924 10.7862 19.5802 10.4788 19.5311C10.5565 19.2024 10.7427 18.9095 11.0074 18.6998C11.2721 18.49 11.5998 18.3756 11.9376 18.375H12.0624C12.4002 18.3756 12.7279 18.49 12.9926 18.6998C13.2573 18.9095 13.4435 19.2024 13.5212 19.5311C13.2138 19.5802 12.92 19.6924 12.6581 19.8607C12.3963 20.029 12.1722 20.2497 12 20.5089ZM15.4999 23.25H12.375V21.75C12.3755 21.3523 12.5337 20.9711 12.8149 20.6899C13.0961 20.4087 13.4773 20.2505 13.875 20.25H13.9999C14.3975 20.2505 14.7788 20.4087 15.06 20.6899C15.3412 20.9711 15.4994 21.3523 15.4999 21.75V23.25ZM15.8749 20.5089C15.7082 20.2584 15.4929 20.0438 15.2419 19.8778C14.9909 19.7119 14.7091 19.5979 14.4133 19.5426C14.489 19.2113 14.6747 18.9155 14.9402 18.7034C15.2057 18.4913 15.5353 18.3756 15.8751 18.375H15.9999C16.3356 18.3756 16.6614 18.4886 16.9253 18.6961C17.1892 18.9035 17.3759 19.1934 17.4557 19.5195C17.1369 19.562 16.8308 19.6723 16.5582 19.843C16.2856 20.0137 16.0524 20.2407 15.8749 20.5089ZM19.3751 23.25H16.2499V21.75C16.2504 21.3523 16.4086 20.9711 16.6898 20.6899C16.971 20.4087 17.3522 20.2505 17.7499 20.25H17.8751C18.2728 20.2505 18.654 20.4087 18.9352 20.6899C19.2164 20.9711 19.3746 21.3523 19.3751 21.75V23.25ZM19.7501 20.5089C19.4249 20.0202 18.9218 19.6777 18.3478 19.5542C18.4213 19.2203 18.6065 18.9214 18.8728 18.707C19.1391 18.4926 19.4707 18.3755 19.8126 18.375H19.9376C20.2725 18.3756 20.5975 18.4881 20.861 18.6947C21.1246 18.9013 21.3115 19.19 21.3921 19.515C21.062 19.5494 20.7437 19.6563 20.4598 19.8281C20.1759 20 19.9336 20.2324 19.7501 20.5089ZM23.25 23.25H20.1251V21.75C20.1256 21.3523 20.2838 20.9711 20.565 20.6899C20.8462 20.4087 21.2275 20.2505 21.6251 20.25H21.75C22.1477 20.2505 22.5289 20.4087 22.8101 20.6899C23.0913 20.9711 23.2495 21.3523 23.25 21.75V23.25Z" fill="#17305D"/>
<path id="Vector_2" d="M4.40061 5.23837L4.41561 12.7052C4.29989 12.7698 4.20346 12.8641 4.13624 12.9784C4.06902 13.0926 4.03342 13.2227 4.03311 13.3552V14.0625C4.03302 14.1635 4.05344 14.2636 4.09311 14.3565L0.0993605 18.6832C0.0659596 18.7194 0.040015 18.7619 0.0230081 18.8081C0.0060011 18.8543 -0.00173516 18.9034 0.000240991 18.9526C0.00221714 19.0019 0.013867 19.0502 0.0345254 19.0949C0.0551838 19.1396 0.0844461 19.1798 0.120642 19.2132C0.156837 19.2466 0.199257 19.2726 0.24548 19.2896C0.291702 19.3066 0.340821 19.3143 0.390034 19.3123C0.439246 19.3104 0.487587 19.2987 0.532297 19.2781C0.577007 19.2574 0.61721 19.2281 0.650611 19.1919L4.70061 14.8042C4.72793 14.8085 4.75548 14.8113 4.78311 14.8125H5.52149C5.72124 14.5214 5.97044 14.2676 6.2578 14.0625H4.78311V13.3552H19.2169V14.0625H17.7422C18.0295 14.2676 18.2787 14.5214 18.4785 14.8125H19.2169C19.2445 14.8113 19.272 14.8085 19.2994 14.8042L23.3494 19.1917C23.4171 19.2638 23.5105 19.3061 23.6092 19.3096C23.708 19.3131 23.8042 19.2775 23.8768 19.2105C23.9495 19.1435 23.9927 19.0505 23.9972 18.9518C24.0016 18.853 23.9669 18.7565 23.9006 18.6832L19.9069 14.3565C19.9465 14.2636 19.9669 14.1635 19.9669 14.0625V13.3552C19.9666 13.2255 19.9326 13.0981 19.8682 12.9856C19.8037 12.873 19.7111 12.7791 19.5994 12.7132L19.584 5.211L23.898 0.632246C23.9323 0.596508 23.9593 0.554314 23.9772 0.508105C23.9951 0.461896 24.0037 0.412588 24.0025 0.363033C24.0013 0.313478 23.9902 0.26466 23.97 0.219402C23.9498 0.174143 23.9208 0.133343 23.8847 0.0993611C23.8486 0.0653789 23.8061 0.038889 23.7598 0.0214234C23.7134 0.00395789 23.664 -0.00413671 23.6144 -0.0023922C23.5649 -0.000647693 23.5162 0.0109013 23.4711 0.0315869C23.4261 0.0522724 23.3856 0.081684 23.352 0.118121L19.0466 4.68787L4.9378 4.71487L0.64911 0.119246C0.58089 0.0480565 0.487377 0.00659999 0.388816 0.00385072C0.290255 0.00110144 0.194577 0.0372807 0.122494 0.104556C0.0504115 0.171831 0.00772521 0.264789 0.00367629 0.363306C-0.000372616 0.461822 0.0345416 0.55797 0.10086 0.630933L4.40061 5.23837ZM18.8344 5.43825L18.849 12.5619L5.16542 12.5882L5.15099 5.4645L18.8344 5.43825Z" fill="#17305D"/>
</g>
</g>
<defs>
<clipPath id="clip0_93_2383">
<rect width="24" height="24" fill="white"/>
</clipPath>
</defs>
</svg>
