<svg width="16" height="16" viewBox="0 0 16 16" fill="none" xmlns="http://www.w3.org/2000/svg">
<g id="svgexport-15 (52) 1" clip-path="url(#clip0_829_9903)">
<g id="Group">
<path id="Vector" d="M10.6805 8.01207H13.0003C13.0666 8.01207 13.1302 7.98573 13.1771 7.93885C13.224 7.89196 13.2503 7.82838 13.2503 7.76207V6.57979C13.2503 6.51349 13.224 6.4499 13.1771 6.40301C13.1302 6.35613 13.0666 6.32979 13.0003 6.32979H10.6805C10.6142 6.32979 10.5506 6.35613 10.5037 6.40301C10.4568 6.4499 10.4305 6.51349 10.4305 6.57979V7.76207C10.4305 7.82838 10.4568 7.89196 10.5037 7.93885C10.5506 7.98573 10.6142 8.01207 10.6805 8.01207ZM10.9305 6.82979H12.7503V7.51207H10.9305V6.82979ZM6.73849 6.15145H8.92871C8.99501 6.15145 9.0586 6.12511 9.10548 6.07822C9.15237 6.03134 9.17871 5.96775 9.17871 5.90145V3.71123C9.17871 3.64492 9.15237 3.58134 9.10548 3.53445C9.0586 3.48757 8.99501 3.46123 8.92871 3.46123H6.73849C6.67218 3.46123 6.6086 3.48757 6.56171 3.53445C6.51483 3.58134 6.48849 3.64492 6.48849 3.71123V5.90145C6.48849 5.96775 6.51483 6.03134 6.56171 6.07822C6.6086 6.12511 6.67218 6.15145 6.73849 6.15145ZM6.98849 3.96123H8.67871V5.65145H6.98849V3.96123ZM9.17865 6.86848C9.17865 6.93478 9.15231 6.99837 9.10542 7.04526C9.05854 7.09214 8.99495 7.11848 8.92865 7.11848H6.73849C6.67218 7.11848 6.6086 7.09214 6.56171 7.04526C6.51483 6.99837 6.48849 6.93478 6.48849 6.86848C6.48849 6.80217 6.51483 6.73859 6.56171 6.6917C6.6086 6.64482 6.67218 6.61848 6.73849 6.61848H8.92865C8.99495 6.61848 9.05854 6.64482 9.10542 6.6917C9.15231 6.73859 9.17865 6.80217 9.17865 6.86848ZM14.5448 8.38038H14.0163V5.19926C14.0163 5.13296 13.99 5.06937 13.9431 5.02248C13.8962 4.9756 13.8326 4.94926 13.7663 4.94926H12.6585V2.03988H12.7271C12.7934 2.03988 12.8569 2.01355 12.9038 1.96666C12.9507 1.91978 12.9771 1.85619 12.9771 1.78988C12.9771 1.72358 12.9507 1.65999 12.9038 1.61311C12.8569 1.56622 12.7934 1.53988 12.7271 1.53988H10.9537C10.8874 1.53988 10.8238 1.56622 10.7769 1.61311C10.73 1.65999 10.7037 1.72358 10.7037 1.78988C10.7037 1.85619 10.73 1.91978 10.7769 1.96666C10.8238 2.01355 10.8874 2.03988 10.9537 2.03988H11.0222V4.94926H10.1645V2.72548C10.1645 2.65917 10.1381 2.59559 10.0912 2.5487C10.0443 2.50182 9.98076 2.47548 9.91446 2.47548H9.30715V1.78988C9.30715 1.72358 9.28081 1.65999 9.23392 1.61311C9.18704 1.56622 9.12345 1.53988 9.05715 1.53988H6.60996C6.54365 1.53988 6.48006 1.56622 6.43318 1.61311C6.3863 1.65999 6.35996 1.72358 6.35996 1.78988V2.47545H5.75264C5.68634 2.47545 5.62275 2.50179 5.57587 2.54867C5.52898 2.59555 5.50264 2.65914 5.50264 2.72545V4.42076L3.62514 3.60142C3.5871 3.58479 3.54552 3.57791 3.50415 3.58139C3.46277 3.58487 3.42292 3.5986 3.38819 3.62134C3.35345 3.64407 3.32493 3.67511 3.30519 3.71163C3.28546 3.74816 3.27513 3.78902 3.27514 3.83054V4.94926H1.90077C1.83447 4.94926 1.77088 4.9756 1.72399 5.02248C1.67711 5.06937 1.65077 5.13296 1.65077 5.19926V8.38038H1.1223C1.056 8.38038 0.992408 8.40672 0.945524 8.45361C0.89864 8.50049 0.872301 8.56408 0.872301 8.63038V9.53863C0.872301 9.58916 0.887607 9.63849 0.916202 9.68014C0.944797 9.72179 0.98534 9.7538 1.03249 9.77195L2.02314 10.1533C2.16146 10.6823 2.37184 11.1898 2.64839 11.6615L2.21724 12.6322C2.19673 12.6784 2.19069 12.7297 2.19992 12.7794C2.20915 12.829 2.2332 12.8748 2.26893 12.9105L3.55343 14.195C3.58916 14.2307 3.63487 14.2547 3.68454 14.264C3.7342 14.2732 3.7855 14.2672 3.83168 14.2467L4.80274 13.8154C5.27435 14.0918 5.78171 14.3022 6.31058 14.4405L6.69199 15.4314C6.71014 15.4786 6.74215 15.5191 6.7838 15.5477C6.82544 15.5763 6.87478 15.5916 6.9253 15.5916H8.74183C8.79235 15.5916 8.84169 15.5763 8.88334 15.5477C8.92499 15.5191 8.957 15.4786 8.97514 15.4314L9.35646 14.4408C9.8855 14.3025 10.393 14.0921 10.8647 13.8155L11.8355 14.2467C11.8816 14.2672 11.9329 14.2732 11.9826 14.264C12.0323 14.2547 12.078 14.2307 12.1137 14.1949L13.3982 12.9105C13.4339 12.8748 13.458 12.829 13.4672 12.7794C13.4764 12.7297 13.4704 12.6784 13.4499 12.6322L13.0186 11.6612C13.295 11.1896 13.5054 10.6822 13.6437 10.1533L14.6346 9.77192C14.6818 9.75377 14.7223 9.72176 14.7509 9.68011C14.7795 9.63846 14.7948 9.58912 14.7948 9.5386V8.63038C14.7948 8.59756 14.7883 8.56505 14.7758 8.53472C14.7632 8.50438 14.7448 8.47683 14.7216 8.45361C14.6984 8.4304 14.6708 8.41198 14.6405 8.39942C14.6102 8.38685 14.5777 8.38038 14.5448 8.38038ZM11.5223 3.35067H12.1585V3.63854H11.5223V3.35067ZM12.1585 2.03988V2.85067H11.5223V2.03988H12.1585ZM11.5223 4.13854H12.1585V4.94926H11.5223V4.13854ZM13.5163 5.44926V8.38038H10.1645V5.44926H13.5163ZM10.3153 8.88038C10.1895 10.1388 9.12455 11.1246 7.83358 11.1246C6.54264 11.1246 5.47774 10.1388 5.35193 8.88038H10.3153ZM6.85999 2.03988H8.80718V2.47545H6.85999V2.03988ZM9.66446 2.97548V8.38038H6.00271V2.97548H9.66446ZM5.50271 4.96632V8.38038H3.77521V4.21242L5.50271 4.96632ZM2.1508 5.44926H3.27518V8.38038H2.1508V5.44926ZM14.2948 9.36695L13.3429 9.73339C13.305 9.74796 13.2712 9.77156 13.2445 9.80212C13.2178 9.83268 13.1989 9.86929 13.1895 9.90879C13.0547 10.4755 12.8302 11.0169 12.5245 11.5128C12.5032 11.5474 12.4907 11.5866 12.488 11.6271C12.4853 11.6676 12.4925 11.7082 12.5089 11.7453L12.9233 12.6783L11.8816 13.72L10.9489 13.3058C10.9118 13.2893 10.8712 13.2821 10.8307 13.2849C10.7902 13.2876 10.7509 13.3001 10.7164 13.3214C10.2204 13.6272 9.6788 13.8517 9.11199 13.9865C9.07248 13.9959 9.03586 14.0148 9.0053 14.0415C8.97473 14.0682 8.95113 14.102 8.93655 14.1399L8.57021 15.0916H7.09699L6.73055 14.1396C6.71597 14.1017 6.69238 14.0679 6.66182 14.0412C6.63125 14.0145 6.59464 13.9956 6.55514 13.9862C5.98849 13.8514 5.44701 13.6269 4.95114 13.3213C4.91657 13.3 4.87733 13.2874 4.83681 13.2847C4.79629 13.282 4.75572 13.2892 4.71861 13.3057L3.78564 13.72L2.74389 12.6783L3.15814 11.7457C3.17462 11.7085 3.18181 11.668 3.17909 11.6275C3.17637 11.5869 3.16382 11.5477 3.14252 11.5131C2.83677 11.0171 2.61224 10.4755 2.47743 9.9087C2.46803 9.8692 2.44915 9.83259 2.42243 9.80203C2.3957 9.77147 2.36194 9.74788 2.32405 9.73329L1.37233 9.36695V8.88035H4.84993C4.97739 10.4149 6.2668 11.6246 7.83361 11.6246C9.40046 11.6246 10.6899 10.4148 10.8173 8.88035H14.2949V9.36695H14.2948ZM15.6746 1.53926L14.8899 0.542541C14.8228 0.457322 14.7221 0.408447 14.6136 0.408447C14.5051 0.408447 14.4045 0.457322 14.3374 0.542541L13.5526 1.53932C13.4686 1.6461 13.4532 1.78832 13.5125 1.91045C13.5718 2.03254 13.693 2.10838 13.8289 2.10838H13.9048V3.75157C13.9048 3.81788 13.9311 3.88146 13.978 3.92835C14.0249 3.97523 14.0885 4.00157 14.1548 4.00157H15.0725C15.1388 4.00157 15.2024 3.97523 15.2493 3.92835C15.2961 3.88146 15.3225 3.81788 15.3225 3.75157V2.10842H15.3984C15.5342 2.10842 15.6555 2.03254 15.7148 1.91042C15.7741 1.78829 15.7587 1.64607 15.6746 1.53926ZM15.0725 1.60842C15.0062 1.60842 14.9426 1.63476 14.8957 1.68164C14.8488 1.72852 14.8225 1.79211 14.8225 1.85842V3.5016H14.4048V1.85838C14.4048 1.82555 14.3983 1.79303 14.3858 1.76269C14.3732 1.73235 14.3548 1.70479 14.3316 1.68157C14.3083 1.65835 14.2808 1.63994 14.2504 1.62738C14.2201 1.61482 14.1876 1.60837 14.1547 1.60838H14.1346L14.6136 0.999947L15.0927 1.60842H15.0725ZM1.84571 4.0016C1.87854 4.0016 1.91105 3.99514 1.94138 3.98257C1.97171 3.97001 1.99927 3.95159 2.02248 3.92838C2.0457 3.90517 2.06411 3.87761 2.07668 3.84727C2.08924 3.81694 2.09571 3.78443 2.09571 3.7516V2.10842H2.17158C2.30749 2.10842 2.42874 2.03251 2.48802 1.91035C2.5473 1.78823 2.53189 1.64601 2.44783 1.53926L1.66308 0.542541C1.59602 0.457322 1.4953 0.408447 1.38683 0.408447C1.27836 0.408447 1.17768 0.457322 1.11058 0.542541L0.325801 1.53935C0.24177 1.64613 0.226395 1.78835 0.285739 1.91048C0.34502 2.03257 0.466238 2.10842 0.602145 2.10842H0.67802V3.7516C0.67802 3.81791 0.704359 3.8815 0.751243 3.92838C0.798127 3.97526 0.861716 4.0016 0.92802 4.0016H1.84571ZM0.907801 1.60838L1.38683 0.999947L1.86589 1.60842H1.84571C1.7794 1.60842 1.71581 1.63476 1.66893 1.68164C1.62205 1.72852 1.59571 1.79211 1.59571 1.85842V3.5016H1.17802V1.85838C1.17803 1.82555 1.17157 1.79303 1.15901 1.76269C1.14645 1.73235 1.12803 1.70479 1.10481 1.68157C1.08159 1.65835 1.05402 1.63994 1.02368 1.62738C0.993343 1.61482 0.960825 1.60837 0.927989 1.60838H0.907801Z" fill="#423E3E"/>
</g>
</g>
<defs>
<clipPath id="clip0_829_9903">
<rect width="16" height="16" fill="white"/>
</clipPath>
</defs>
</svg>
