<svg width="20" height="20" viewBox="0 0 20 20" fill="none" xmlns="http://www.w3.org/2000/svg">
<g id="Group">
<path id="Vector" d="M18.115 1.88503C15.6016 -0.628364 11.512 -0.628325 8.99855 1.88503C7.28191 3.60168 6.68582 6.13211 7.42883 8.42734L0.17168 15.6845C0.117253 15.7389 0.0740774 15.8035 0.0446203 15.8746C0.0151631 15.9457 1.04253e-06 16.0219 0 16.0989L0 19.414C0 19.7377 0.262383 20 0.586016 20H3.90109C4.05656 20 4.20555 19.9382 4.31551 19.8283L5.14441 18.9994C5.20691 18.9369 5.25446 18.8611 5.2835 18.7776C5.31254 18.6941 5.32232 18.6051 5.31211 18.5173L5.20867 17.6274L6.44242 17.5111C6.57824 17.4983 6.70533 17.4385 6.80179 17.3421C6.89826 17.2456 6.95805 17.1185 6.97086 16.9827L7.08723 15.7488L7.97726 15.8522C8.05938 15.8618 8.14259 15.8538 8.22142 15.8289C8.30025 15.804 8.37292 15.7627 8.43466 15.7078C8.4964 15.6528 8.54581 15.5854 8.57964 15.5099C8.61348 15.4345 8.63097 15.3528 8.63098 15.2701V14.1788H9.70246C9.85672 14.1788 10.0047 14.118 10.1145 14.0095L11.5704 12.5704C13.8662 13.3146 16.3979 12.7186 18.115 11.0014C20.6283 8.48804 20.6283 4.39839 18.115 1.88503ZM17.2862 10.1727C15.8071 11.6518 13.5883 12.1135 11.6337 11.349C11.5282 11.3077 11.4129 11.2979 11.3019 11.3208C11.1909 11.3437 11.0889 11.3983 11.0083 11.478L9.46172 13.0068H8.04492C7.72129 13.0068 7.45891 13.2691 7.45891 13.5928V14.612L6.62766 14.5154C6.55015 14.5064 6.47163 14.513 6.39669 14.5347C6.32175 14.5565 6.25191 14.593 6.19127 14.6421C6.13062 14.6911 6.08038 14.7519 6.04351 14.8206C6.00663 14.8894 5.98386 14.9648 5.97652 15.0425L5.84945 16.3897L4.50234 16.5167C4.42465 16.524 4.34921 16.5468 4.28044 16.5836C4.21167 16.6205 4.15095 16.6707 4.10185 16.7314C4.05275 16.792 4.01625 16.8619 3.9945 16.9368C3.97276 17.0118 3.96619 17.0903 3.97519 17.1678L4.11512 18.3711L3.65832 18.828H1.17199V16.3417L8.51953 8.99418C8.60009 8.91362 8.65543 8.81133 8.67877 8.69983C8.7021 8.58832 8.69243 8.47242 8.65094 8.36632C7.88641 6.41171 8.34816 4.19304 9.82726 2.71386C11.8837 0.657456 15.2298 0.657456 17.2862 2.71386C19.3426 4.77023 19.3426 8.11628 17.2862 10.1727Z" fill="#707070"/>
<path id="Vector_2" d="M16.4574 3.54244C15.772 2.85693 14.6566 2.85697 13.9711 3.54244C13.2857 4.22791 13.2857 5.34326 13.9711 6.02873C14.6566 6.71419 15.772 6.71427 16.4574 6.02873C17.1429 5.34326 17.1429 4.22791 16.4574 3.54244ZM15.6287 5.19998C15.4002 5.42845 15.0284 5.42849 14.7999 5.19998C14.5714 4.9715 14.5714 4.59974 14.7999 4.37123C15.029 4.14216 15.3996 4.14216 15.6287 4.37123C15.8577 4.60029 15.8577 4.97091 15.6287 5.19998Z" fill="#707070"/>
</g>
</svg>
