<svg width="20" height="20" viewBox="0 0 20 20" fill="none" xmlns="http://www.w3.org/2000/svg">
<g id="Group">
<path id="Layer 2" d="M18.3502 15.1112C19.2939 13.5737 19.7923 11.8044 19.7899 10.0004C19.7923 8.19627 19.2939 6.42667 18.3502 4.88911L18.3449 4.88054C17.4693 3.45344 16.2424 2.27473 14.7814 1.45703C13.3204 0.639326 11.6741 0.209961 9.99986 0.209961C8.32558 0.209961 6.67929 0.639326 5.21828 1.45703C3.75727 2.27473 2.53037 3.45344 1.65482 4.88054L1.64954 4.88911C0.708134 6.4277 0.209961 8.19641 0.209961 10.0002C0.209961 11.8039 0.708134 13.5726 1.64954 15.1112L1.65504 15.12C2.53062 16.547 3.75753 17.7257 5.21852 18.5433C6.67952 19.361 8.32579 19.7903 10 19.7903C11.6743 19.7903 13.3205 19.3609 14.7815 18.5432C16.2425 17.7255 17.4693 16.5468 18.3449 15.1198L18.3502 15.1112ZM11.2512 18.1122C11.0646 18.2923 10.8499 18.4406 10.6154 18.5513C10.423 18.6427 10.2127 18.6902 9.99975 18.6902C9.78676 18.6902 9.57645 18.6427 9.38408 18.5513C8.93804 18.3235 8.55622 17.9875 8.27352 17.5741C7.6962 16.7398 7.26838 15.8114 7.00918 14.8305C8.00504 14.7692 9.00194 14.7379 9.99986 14.7368C10.9973 14.7368 11.9943 14.768 12.9908 14.8305C12.8473 15.3348 12.668 15.8283 12.4544 16.3071C12.1731 16.9806 11.7646 17.5935 11.2512 18.1122ZM1.329 10.5502H5.27778C5.30351 11.652 5.42296 12.7496 5.63484 13.8312C4.55537 13.9263 3.47869 14.0568 2.4048 14.2228C1.77587 13.0945 1.40823 11.8395 1.329 10.5502ZM2.4048 5.77769C3.47825 5.94401 4.5553 6.07455 5.63594 6.1693C5.42369 7.25076 5.30401 8.34836 5.27822 9.45015H1.329C1.40826 8.16092 1.7759 6.90592 2.4048 5.77769ZM8.7485 1.8881C8.93508 1.70804 9.14984 1.55971 9.3843 1.44898C9.57667 1.35757 9.78698 1.31015 9.99997 1.31015C10.2129 1.31015 10.4233 1.35757 10.6156 1.44898C11.0617 1.67679 11.4435 2.01278 11.7262 2.42622C12.3035 3.26054 12.7313 4.18891 12.9905 5.16983C11.9947 5.23114 10.9978 5.26238 9.99986 5.26355C9.00238 5.26355 8.00541 5.23231 7.00896 5.16983C7.15245 4.66551 7.33169 4.17205 7.54531 3.6932C7.82661 3.01974 8.23513 2.40686 8.7485 1.8881ZM18.6707 9.45015H14.7219C14.6962 8.34831 14.5767 7.25066 14.3649 6.16907C15.4443 6.07403 16.521 5.9435 17.5949 5.77747C18.2238 6.90577 18.5915 8.16085 18.6707 9.45015ZM6.74122 13.7457C6.52612 12.6933 6.40465 11.6239 6.37822 10.5502H13.6217C13.5955 11.624 13.4743 12.6934 13.2594 13.7459C12.174 13.6746 11.0875 13.6382 9.99986 13.6368C8.91306 13.6368 7.82684 13.6731 6.74122 13.7457ZM13.2585 6.25465C13.4736 7.30702 13.5951 8.37636 13.6215 9.45015H6.37822C6.4044 8.37631 6.52565 7.30689 6.74056 6.25443C7.82589 6.32571 8.9124 6.36209 10.0001 6.36356C11.0869 6.36356 12.1731 6.32718 13.2587 6.25443L13.2585 6.25465ZM14.7215 10.5502H18.6707C18.5914 11.8394 18.2238 13.0944 17.5949 14.2226C16.5213 14.0563 15.4443 13.9258 14.3638 13.831C14.576 12.7495 14.6957 11.652 14.7215 10.5502ZM16.9354 4.76525C15.9967 4.90063 15.0553 5.00784 14.1112 5.08689C13.9416 4.45506 13.7227 3.83747 13.4567 3.23977C13.2138 2.68979 12.9082 2.16971 12.5459 1.68988C14.2966 2.22682 15.8329 3.30318 16.9354 4.76525ZM3.85526 3.85534C4.85954 2.85009 6.09508 2.10654 7.45357 1.68988C7.43289 1.71672 7.41178 1.74224 7.39154 1.7693C6.69325 2.77446 6.18461 3.8988 5.8907 5.08689C4.94646 5.00696 4.00442 4.89975 3.06458 4.76525C3.30693 4.44416 3.57112 4.14013 3.85526 3.85534ZM3.06458 15.2351C4.0031 15.0997 4.94448 14.9925 5.88872 14.9134C6.05838 15.5452 6.27722 16.1628 6.54322 16.7605C6.78612 17.3105 7.09174 17.8306 7.45402 18.3104C5.70334 17.7735 4.16707 16.6971 3.06458 15.2351ZM16.1449 16.145C15.1406 17.1502 13.9051 17.8938 12.5466 18.3104C12.5673 18.2836 12.5884 18.2581 12.6086 18.231C13.3069 17.2259 13.8155 16.1015 14.1095 14.9134C15.0537 14.9933 15.9957 15.1006 16.9356 15.2351C16.6932 15.5562 16.429 15.8602 16.1449 16.145Z" fill="#707070"/>
</g>
</svg>
