<svg width="56" height="56" viewBox="0 0 56 56" fill="none" xmlns="http://www.w3.org/2000/svg">
<g clip-path="url(#clip0_1184_5743)">
<mask id="path-1-inside-1_1184_5743" fill="white">
<path fill-rule="evenodd" clip-rule="evenodd" d="M8.72511 15.9946C10.1239 8.16141 16.2786 1.72697 24.1118 0.328183C36.7009 -1.90988 47.6114 7.60189 47.6114 19.6315C47.6114 25.5064 45.0936 30.8218 41.177 34.1789C35.8616 38.9348 31.3855 44.8097 29.4272 51.8036L28.0284 56L26.9094 51.8036C24.9511 45.0895 21.0345 39.2145 15.7191 34.7384C10.4037 30.542 7.32632 23.5481 8.72511 15.9946Z"/>
</mask>
<path fill-rule="evenodd" clip-rule="evenodd" d="M8.72511 15.9946C10.1239 8.16141 16.2786 1.72697 24.1118 0.328183C36.7009 -1.90988 47.6114 7.60189 47.6114 19.6315C47.6114 25.5064 45.0936 30.8218 41.177 34.1789C35.8616 38.9348 31.3855 44.8097 29.4272 51.8036L28.0284 56L26.9094 51.8036C24.9511 45.0895 21.0345 39.2145 15.7191 34.7384C10.4037 30.542 7.32632 23.5481 8.72511 15.9946Z" fill="#ED6D2C"/>
<path d="M24.1118 0.328183L23.9291 -0.699437L23.9283 -0.699296L24.1118 0.328183ZM8.72511 15.9946L9.75141 16.1847L9.75258 16.1781L8.72511 15.9946ZM41.177 34.1789L40.4978 33.3864L40.4893 33.3937L40.4811 33.4011L41.177 34.1789ZM29.4272 51.8036L30.4174 52.1337L30.4254 52.1096L30.4323 52.0851L29.4272 51.8036ZM28.0284 56L27.0199 56.2689L27.9173 59.634L29.0186 56.3301L28.0284 56ZM26.9094 51.8036L27.9179 51.5347L27.9147 51.523L27.9113 51.5114L26.9094 51.8036ZM15.7191 34.7384L16.3914 33.94L16.3787 33.9294L16.3658 33.9192L15.7191 34.7384ZM23.9283 -0.699296C15.6436 0.780123 9.1694 7.56922 7.69763 15.8112L9.75258 16.1781C11.0784 8.75359 16.9136 2.67382 24.2953 1.35566L23.9283 -0.699296ZM48.6552 19.6315C48.6552 6.95172 37.1571 -3.05108 23.9291 -0.699437L24.2945 1.3558C36.2447 -0.768685 46.5677 8.25206 46.5677 19.6315H48.6552ZM41.8563 34.9714C46.013 31.4084 48.6552 25.7993 48.6552 19.6315H46.5677C46.5677 25.2135 44.1742 30.2352 40.4978 33.3864L41.8563 34.9714ZM30.4323 52.0851C32.3199 45.3434 36.6505 39.6294 41.873 34.9567L40.4811 33.4011C35.0727 38.2401 30.451 44.276 28.4221 51.5222L30.4323 52.0851ZM29.0186 56.3301L30.4174 52.1337L28.437 51.4736L27.0382 55.67L29.0186 56.3301ZM25.9009 52.0726L27.0199 56.2689L29.0369 55.7311L27.9179 51.5347L25.9009 52.0726ZM15.0467 35.5368C20.2104 39.8851 24.0087 45.5861 25.9074 52.0959L27.9113 51.5114C25.8934 44.5928 21.8585 38.544 16.3914 33.94L15.0467 35.5368ZM7.69882 15.8046C6.22563 23.7598 9.4701 31.1348 15.0723 35.5576L16.3658 33.9192C11.3372 29.9493 8.427 23.3364 9.75139 16.1847L7.69882 15.8046Z" fill="white" mask="url(#path-1-inside-1_1184_5743)"/>
</g>
<g clip-path="url(#clip1_1184_5743)">
<path d="M18.5402 16.699C18.5407 16.6986 18.5411 16.6981 18.5416 16.6977L26.7 8.53955C27.0477 8.19165 27.5101 8 28.0019 8C28.4937 8 28.956 8.1915 29.3039 8.5394L37.458 16.6934C37.4608 16.6961 37.4635 16.699 37.4663 16.7018C38.1804 17.42 38.1792 18.5853 37.4628 19.3017C37.1355 19.6292 36.7032 19.8188 36.241 19.8387C36.2222 19.8405 36.2033 19.8414 36.1842 19.8414H35.8591V25.8453C35.8591 27.0334 34.8924 28 33.7041 28H30.5122C30.1888 28 29.9263 27.7377 29.9263 27.4141V22.707C29.9263 22.1649 29.4853 21.7239 28.9432 21.7239H27.0606C26.5184 21.7239 26.0774 22.1649 26.0774 22.707V27.4141C26.0774 27.7377 25.8151 28 25.4915 28H22.2997C21.1113 28 20.1447 27.0334 20.1447 25.8453V19.8414H19.8431C19.3515 19.8414 18.8892 19.6499 18.5411 19.302C17.8239 18.5844 17.8236 17.4171 18.5402 16.699Z" fill="white"/>
</g>
<defs>
<clipPath id="clip0_1184_5743">
<rect width="56" height="56" fill="white"/>
</clipPath>
<clipPath id="clip1_1184_5743">
<rect width="20" height="20" fill="white" transform="matrix(-1 0 0 1 38 8)"/>
</clipPath>
</defs>
</svg>
