<svg width="8" height="12" viewBox="0 0 8 12" fill="none" xmlns="http://www.w3.org/2000/svg">
<g id="svgexport-4 (2) 1" clip-path="url(#clip0_193_2251)">
<g id="Group">
<path id="Vector" d="M7.60695 2.97141C7.30789 1.26966 5.77414 0.00168758 4.02692 0.00168758L4.00329 0.00178133C3.99095 0.000206595 3.97851 -0.000451457 3.96607 -0.00018742C2.22607 -0.00018742 0.691105 1.27566 0.393073 2.97141C0.146136 4.37653 0.877667 5.81934 1.44945 6.78234C2.12445 7.91934 2.82232 9.09506 3.30495 10.3546C3.48691 10.843 3.64214 11.3409 3.76995 11.8462C3.77618 11.8731 3.78799 11.8984 3.80462 11.9205C3.82126 11.9426 3.84234 11.9609 3.86651 11.9743C3.93913 12.0039 4.01954 12.0083 4.09498 11.987C4.12804 11.9781 4.15805 11.9603 4.1818 11.9357C4.20555 11.911 4.22214 11.8804 4.22979 11.847C4.35765 11.3414 4.51297 10.8432 4.69507 10.3545C5.1777 9.09506 5.87557 7.91934 6.55057 6.78234C7.12235 5.81934 7.85389 4.37653 7.60695 2.97141ZM6.22798 6.59109C5.54501 7.74169 4.83879 8.93138 4.34482 10.2207C4.20551 10.5844 4.0857 10.9653 4.00001 11.2604C3.91432 10.9653 3.79451 10.5844 3.6552 10.2207C3.16123 8.93138 2.45501 7.74169 1.77204 6.59119C1.23073 5.67937 0.537073 4.31878 0.762542 3.03619C1.02842 1.52334 2.39445 0.383719 3.94695 0.374625C3.95748 0.376066 3.9681 0.376817 3.97873 0.376875C5.56235 0.354375 6.96692 1.49663 7.23748 3.03619C7.46295 4.31878 6.76929 5.67928 6.22798 6.59109Z" fill="#6E6868"/>
<path id="Vector_2" d="M4.00004 1.12415C3.51833 1.12455 3.04756 1.26777 2.64723 1.53569C2.24691 1.80361 1.935 2.1842 1.75094 2.62936C1.56688 3.07451 1.51893 3.56425 1.61316 4.03665C1.70739 4.50905 1.93956 4.94291 2.28032 5.28339C2.62108 5.62386 3.05514 5.85566 3.52762 5.94949C4.0001 6.04331 4.48979 5.99495 4.93479 5.81052C5.3798 5.62608 5.76013 5.31385 6.02771 4.9133C6.29529 4.51275 6.4381 4.04185 6.4381 3.56015C6.43802 3.2401 6.37488 2.9232 6.2523 2.62755C6.12972 2.33191 5.9501 2.06331 5.72369 1.8371C5.49729 1.61088 5.22854 1.43149 4.93279 1.30916C4.63704 1.18683 4.32009 1.12396 4.00004 1.12415ZM4.00004 5.62133C3.59242 5.621 3.19406 5.49982 2.8553 5.27312C2.51655 5.04641 2.25261 4.72436 2.09686 4.34768C1.94111 3.971 1.90053 3.55659 1.98027 3.15685C2.06 2.75711 2.25646 2.38998 2.54481 2.10188C2.83316 1.81377 3.20046 1.61763 3.60027 1.53824C4.00008 1.45886 4.41445 1.49979 4.791 1.65587C5.16755 1.81194 5.48937 2.07616 5.71578 2.41511C5.94219 2.75406 6.06303 3.15253 6.06301 3.56015C6.06216 4.10686 5.84449 4.63091 5.45774 5.01732C5.07099 5.40374 4.54675 5.62096 4.00004 5.62133ZM4.00004 8.90061C3.96298 8.90063 3.92675 8.91164 3.89595 8.93224C3.86514 8.95285 3.84114 8.98212 3.82697 9.01637C3.8128 9.05061 3.8091 9.08829 3.81634 9.12464C3.82358 9.16099 3.84144 9.19437 3.86765 9.22057C3.89386 9.24677 3.92726 9.26461 3.96361 9.27183C3.99996 9.27906 4.03763 9.27534 4.07187 9.26115C4.10611 9.24697 4.13537 9.22295 4.15596 9.19213C4.17655 9.16131 4.18754 9.12508 4.18754 9.08802C4.18755 9.06339 4.18271 9.03901 4.17329 9.01625C4.16387 8.9935 4.15006 8.97282 4.13265 8.95541C4.11524 8.938 4.09456 8.92419 4.07181 8.91477C4.04905 8.90535 4.02467 8.9006 4.00004 8.90061ZM4.00004 8.24474C3.96298 8.24476 3.92675 8.25576 3.89595 8.27637C3.86514 8.29697 3.84114 8.32625 3.82697 8.36049C3.8128 8.39474 3.8091 8.43242 3.81634 8.46876C3.82358 8.50511 3.84144 8.53849 3.86765 8.56469C3.89386 8.59089 3.92726 8.60873 3.96361 8.61596C3.99996 8.62318 4.03763 8.61946 4.07187 8.60528C4.10611 8.59109 4.13537 8.56707 4.15596 8.53625C4.17655 8.50544 4.18754 8.46921 4.18754 8.43215C4.18754 8.40753 4.18269 8.38315 4.17327 8.36041C4.16384 8.33766 4.15003 8.317 4.13262 8.2996C4.1152 8.28219 4.09453 8.26839 4.07179 8.25898C4.04904 8.24957 4.02466 8.24473 4.00004 8.24474Z" fill="#6E6868"/>
<path id="Vector_3" d="M4 6.27722C3.96293 6.27724 3.92671 6.28825 3.8959 6.30885C3.8651 6.32945 3.84109 6.35873 3.82692 6.39298C3.81275 6.42722 3.80905 6.4649 3.8163 6.50125C3.82354 6.53759 3.84139 6.57098 3.86761 6.59718C3.89382 6.62338 3.92721 6.64122 3.96356 6.64844C3.99991 6.65566 4.03759 6.65195 4.07183 6.63776C4.10607 6.62357 4.13533 6.59955 4.15592 6.56874C4.17651 6.53792 4.1875 6.50169 4.1875 6.46463C4.1875 6.44001 4.18265 6.41563 4.17322 6.39289C4.1638 6.37015 4.14998 6.34948 4.13257 6.33208C4.11516 6.31468 4.09449 6.30087 4.07174 6.29146C4.04899 6.28205 4.02461 6.27721 4 6.27722ZM4 6.9331C3.96293 6.93312 3.9267 6.94412 3.89589 6.96473C3.86509 6.98534 3.84108 7.01462 3.82691 7.04887C3.81275 7.08312 3.80905 7.12081 3.8163 7.15716C3.82355 7.19351 3.84142 7.22689 3.86764 7.25309C3.89386 7.27928 3.92726 7.29711 3.96362 7.30433C3.99998 7.31154 4.03766 7.30781 4.07189 7.29361C4.10613 7.27941 4.13539 7.25537 4.15596 7.22454C4.17654 7.19371 4.18751 7.15747 4.1875 7.12041C4.18748 7.0958 4.18262 7.07143 4.17319 7.0487C4.16376 7.02597 4.14995 7.00531 4.13254 6.98792C4.11513 6.97053 4.09446 6.95673 4.07172 6.94733C4.04898 6.93792 4.02461 6.93308 4 6.9331ZM4 7.58888C3.96294 7.5889 3.92672 7.5999 3.89591 7.6205C3.86511 7.6411 3.8411 7.67037 3.82693 7.70461C3.81276 7.73885 3.80905 7.77652 3.81629 7.81287C3.82352 7.84921 3.84137 7.8826 3.86757 7.9088C3.89378 7.935 3.92716 7.95285 3.96351 7.96008C3.99985 7.96732 4.03752 7.96362 4.07176 7.94944C4.106 7.93527 4.13527 7.91126 4.15587 7.88046C4.17647 7.84966 4.18748 7.81344 4.1875 7.77638C4.18751 7.75175 4.18267 7.72736 4.17325 7.70461C4.16383 7.68186 4.15002 7.66118 4.13261 7.64377C4.11519 7.62635 4.09452 7.61254 4.07176 7.60313C4.04901 7.59371 4.02462 7.58887 4 7.58888Z" fill="#6E6868"/>
</g>
</g>
<defs>
<clipPath id="clip0_193_2251">
<rect width="8" height="12.0005" fill="white" transform="translate(0 -0.000244141)"/>
</clipPath>
</defs>
</svg>
