<svg width="13" height="16" viewBox="0 0 13 16" fill="none" xmlns="http://www.w3.org/2000/svg">
<g id="svgexport-15 (93) 1" clip-path="url(#clip0_1963_1173)">
<g id="Group">
<path id="Vector" d="M11 16H2C1.17334 16 0.5 15.3274 0.5 14.5V7.5C0.5 6.67259 1.17334 6 2 6H11C11.8267 6 12.5 6.67259 12.5 7.5V14.5C12.5 15.3274 11.8267 16 11 16ZM2 7C1.72459 7 1.5 7.224 1.5 7.5V14.5C1.5 14.776 1.72462 15 2 15H11C11.2754 15 11.5 14.776 11.5 14.5V7.5C11.5 7.224 11.2754 7 11 7H2Z" fill="white"/>
<path id="Vector_2" d="M10 7C9.724 7 9.5 6.776 9.5 6.5V4C9.5 2.34594 8.15406 1 6.5 1C4.84594 1 3.5 2.34594 3.5 4V6.5C3.5 6.776 3.276 7 3 7C2.724 7 2.5 6.776 2.5 6.5V4C2.5 1.79394 4.29394 0 6.5 0C8.70606 0 10.5 1.79394 10.5 4V6.5C10.5 6.776 10.276 7 10 7Z" fill="white"/>
</g>
</g>
<defs>
<clipPath id="clip0_1963_1173">
<rect width="13" height="16" fill="white"/>
</clipPath>
</defs>
</svg>
