<svg width="20" height="20" viewBox="0 0 20 20" fill="none" xmlns="http://www.w3.org/2000/svg">
<g id="svgexport-16 (19) 2">
<path id="Vector" d="M9.9668 18.3334H2.49168C2.0332 18.3334 1.66113 17.96 1.66113 17.5001V2.50002C1.66113 2.04002 2.03324 1.66671 2.49168 1.66671H9.9668C10.4261 1.66671 10.7973 1.29422 10.7973 0.833394C10.7973 0.372566 10.4261 0 9.9668 0H2.49168C1.11793 0 0 1.1217 0 2.50002V17.5C0 18.8783 1.11793 20 2.49168 20H9.9668C10.4261 20 10.7973 19.6275 10.7973 19.1667C10.7973 18.7059 10.4261 18.3334 9.9668 18.3334Z" fill="#707070"/>
<path id="Vector_2" d="M19.7525 9.40594L14.7027 4.40593C14.3771 4.08259 13.8505 4.08678 13.5282 4.41428C13.206 4.74177 13.2093 5.26926 13.5366 5.5926L17.1454 9.16592H7.47508C7.01578 9.16592 6.64453 9.53841 6.64453 9.99924C6.64453 10.4601 7.01578 10.8326 7.47508 10.8326H17.1454L13.5366 14.4059C13.2093 14.7292 13.2068 15.2567 13.5282 15.5842C13.6055 15.6629 13.6976 15.7253 13.7991 15.768C13.9006 15.8106 14.0096 15.8326 14.1196 15.8326C14.3306 15.8326 14.5415 15.7526 14.7027 15.5925L19.7525 10.5925C19.8308 10.515 19.893 10.4226 19.9355 10.3207C19.978 10.2189 19.9999 10.1096 20 9.9992C20 9.77596 19.9111 9.56345 19.7525 9.40594Z" fill="#707070"/>
</g>
</svg>
