<svg width="17" height="16" viewBox="0 0 17 16" fill="none" xmlns="http://www.w3.org/2000/svg">
<g id="svgexport-15 (49) 1">
<g id="Group">
<path id="Vector" d="M12.9985 5.974C12.985 3.505 10.9725 1.5 8.5 1.5C6.0275 1.5 4.015 3.505 4.0015 5.974C2.5215 6.712 1.5 8.237 1.5 10C1.5 12.481 3.519 14.5 6 14.5C6.925 14.5 7.7845 14.219 8.5 13.739C9.239 14.2359 10.1095 14.5008 11 14.5C13.481 14.5 15.5 12.481 15.5 10C15.5 8.237 14.4785 6.712 12.9985 5.974ZM10.467 9.479C10.3354 8.35513 9.78457 7.32231 8.9245 6.587C9.5489 6.20354 10.2673 6.00038 11 6C11.525 6 12.0255 6.1045 12.485 6.289C12.4372 6.94568 12.2281 7.58042 11.8761 8.13689C11.5242 8.69336 11.0398 9.15437 10.467 9.479ZM8.5 13.117C8.06498 12.7682 7.70787 12.3321 7.45167 11.8368C7.19547 11.3415 7.04587 10.7981 7.0125 10.2415C7.479 10.4055 7.978 10.4995 8.5 10.4995C9.022 10.4995 9.521 10.4055 9.9875 10.2415C9.9542 10.7982 9.80463 11.3417 9.54843 11.8371C9.29223 12.3324 8.93508 12.7686 8.5 13.1175V13.117ZM4.515 6.289C4.974 6.104 5.475 6 6 6C6.73258 6.00047 7.45074 6.20363 8.075 6.587C7.21527 7.3223 6.6646 8.3549 6.533 9.4785C5.96005 9.15403 5.47605 8.69316 5.12394 8.13678C4.77182 7.58039 4.56299 6.94569 4.515 6.289ZM8.5 10C7.99106 9.99966 7.48692 9.90155 7.015 9.711C7.05447 9.1627 7.20673 8.62846 7.46227 8.14175C7.7178 7.65503 8.07109 7.22633 8.5 6.8825C8.92891 7.22633 9.2822 7.65503 9.53773 8.14175C9.79327 8.62846 9.94553 9.1627 9.985 9.711C9.5255 9.896 9.025 10 8.5 10ZM8.5 2C10.624 2 12.3615 3.665 12.488 5.758C12.0102 5.58822 11.507 5.50097 11 5.5C10.075 5.5 9.2155 5.781 8.5 6.261C7.761 5.76413 6.89051 5.49916 6 5.5C5.49312 5.50103 4.99012 5.58827 4.5125 5.758C4.6385 3.6655 6.376 2 8.5 2ZM6 14C3.7945 14 2 12.2055 2 10C2 8.51 2.821 7.2095 4.033 6.5215C4.2115 8.0605 5.1695 9.3615 6.5015 10.026C6.50529 10.6705 6.64783 11.3066 6.91944 11.891C7.19104 12.4755 7.58534 12.9946 8.0755 13.413C7.4511 13.7965 6.73275 13.9996 6 14ZM11 14C10.2674 13.9995 9.54926 13.7964 8.925 13.413C9.41507 12.9945 9.80927 12.4754 10.0808 11.8909C10.3523 11.3065 10.4948 10.6704 10.4985 10.026C11.8305 9.362 12.7885 8.0605 12.967 6.521C14.179 7.21 15 8.51 15 10C15 12.2055 13.2055 14 11 14Z" fill="#423E3E"/>
</g>
</g>
</svg>
