<svg width="22" height="20" viewBox="0 0 22 20" fill="none" xmlns="http://www.w3.org/2000/svg">
<g id="Group">
<path id="Vector" d="M2.11383 16.7322H12.4318C12.7474 17.4431 13.2378 18.0627 13.8574 18.5331C14.6679 19.1553 15.6411 19.4842 16.6713 19.4842C17.7015 19.4842 18.6716 19.1553 19.4815 18.5341C20.645 17.6496 21.3123 16.3046 21.3123 14.8433C21.3123 13.382 20.645 12.0366 19.4835 11.1541C19.1656 10.9098 18.8165 10.7091 18.4454 10.5574V3.48818C18.445 3.10991 18.2946 2.74723 18.0272 2.47972C17.7597 2.21222 17.3971 2.06172 17.0188 2.06127H16.4355V1.34249C16.4357 1.12374 16.349 0.913859 16.1946 0.758923C16.0402 0.603987 15.8306 0.51666 15.6119 0.516113H15.0612C14.8425 0.51675 14.6329 0.604107 14.4785 0.759023C14.3241 0.913939 14.2375 1.12377 14.2375 1.34249V2.06127H12.5882V1.34249C12.5884 1.12374 12.5018 0.913859 12.3474 0.758923C12.1929 0.603987 11.9834 0.51666 11.7646 0.516113H11.2139C10.9952 0.51675 10.7857 0.604107 10.6313 0.759023C10.4769 0.913939 10.3902 1.12377 10.3903 1.34249V2.06127H8.74064V1.34249C8.74082 1.12374 8.6542 0.913859 8.49977 0.758923C8.34535 0.603987 8.13576 0.51666 7.91702 0.516113H7.36667C7.14795 0.51675 6.93841 0.604107 6.78401 0.759023C6.62961 0.913939 6.54295 1.12377 6.54305 1.34249V2.06127H4.89339V1.34249C4.89357 1.12374 4.80695 0.913859 4.65252 0.758923C4.4981 0.603987 4.28851 0.51666 4.06977 0.516113H3.51908C3.30036 0.51675 3.09082 0.604107 2.93642 0.759023C2.78202 0.913939 2.69536 1.12377 2.69545 1.34249V2.06127H2.11211C1.73384 2.06172 1.3712 2.21222 1.10376 2.47972C0.836315 2.74723 0.685911 3.10991 0.685547 3.48818V15.3025C0.685637 15.6811 0.835865 16.0442 1.10329 16.3122C1.37071 16.5803 1.73351 16.7313 2.11211 16.7322H2.11383ZM20.6248 14.8433C20.6248 16.088 20.0565 17.2337 19.0641 17.9876C18.3742 18.5169 17.5468 18.7967 16.6713 18.7967C15.7958 18.7967 14.9656 18.5169 14.2747 17.9869C13.6909 17.5449 13.2424 16.9483 12.9801 16.2647C12.8046 15.8113 12.7148 15.3294 12.7151 14.8433C12.7151 13.5986 13.2833 12.4528 14.2757 11.699C14.9622 11.1707 15.8051 10.886 16.6713 10.8898C17.125 10.8898 17.5675 10.9654 17.9875 11.1146C18.3777 11.2518 18.7396 11.4481 19.0652 11.7C19.5517 12.0666 19.946 12.5415 20.2167 13.0872C20.4875 13.6328 20.6272 14.2341 20.6248 14.8433ZM14.9254 1.34249C14.9254 1.26721 14.9876 1.20361 15.0615 1.20361H15.6122C15.6861 1.20361 15.7483 1.26721 15.7483 1.34249V3.46755C15.7482 3.50363 15.7339 3.5382 15.7084 3.56371C15.6828 3.58921 15.6483 3.60359 15.6122 3.60368H15.0615C15.0254 3.60359 14.9909 3.58921 14.9654 3.56371C14.9399 3.5382 14.9255 3.50363 14.9254 3.46755V1.34249ZM11.0788 1.34249C11.0788 1.26721 11.141 1.20361 11.215 1.20361H11.7656C11.8395 1.20361 11.9018 1.26721 11.9018 1.34249V3.46755C11.9017 3.50363 11.8873 3.5382 11.8618 3.56371C11.8363 3.58921 11.8017 3.60359 11.7656 3.60368H11.215C11.1789 3.60359 11.1443 3.58921 11.1188 3.56371C11.0933 3.5382 11.0789 3.50363 11.0788 3.46755V1.34249ZM7.23227 1.34249C7.23227 1.26721 7.29448 1.20361 7.36839 1.20361H7.91873C7.99264 1.20361 8.05486 1.26721 8.05486 1.34249V3.46755C8.05477 3.50363 8.0404 3.5382 8.01489 3.56371C7.98938 3.58921 7.95481 3.60359 7.91873 3.60368H7.36839C7.33232 3.60359 7.29774 3.58921 7.27224 3.56371C7.24673 3.5382 7.23236 3.50363 7.23227 3.46755V1.34249ZM3.38536 1.34249C3.38536 1.26721 3.44758 1.20361 3.52148 1.20361H4.07217C4.14608 1.20361 4.2083 1.26721 4.2083 1.34249V3.46755C4.20821 3.50363 4.19384 3.5382 4.16833 3.56371C4.14282 3.58921 4.10825 3.60359 4.07217 3.60368H3.52148C3.48541 3.60359 3.45084 3.58921 3.42533 3.56371C3.39982 3.5382 3.38545 3.50363 3.38536 3.46755V1.34249ZM1.37511 3.48818C1.37511 3.08049 1.70683 2.74877 2.11417 2.74877H2.69752V3.46755C2.69788 3.68582 2.78472 3.89505 2.93903 4.04942C3.09334 4.20379 3.30253 4.29072 3.5208 4.29118H4.07148C4.17963 4.29118 4.28671 4.26987 4.38662 4.22847C4.48653 4.18708 4.5773 4.12641 4.65375 4.04992C4.73021 3.97344 4.79084 3.88264 4.8322 3.78271C4.87355 3.68279 4.89481 3.57569 4.89477 3.46755V2.74877H6.54442V3.46755C6.54478 3.68582 6.63163 3.89505 6.78594 4.04942C6.94024 4.20379 7.14944 4.29072 7.3677 4.29118H7.91805C8.02619 4.29118 8.13327 4.26987 8.23318 4.22847C8.33309 4.18708 8.42386 4.12641 8.50032 4.04992C8.57677 3.97344 8.6374 3.88264 8.67876 3.78271C8.72011 3.68279 8.74137 3.57569 8.74133 3.46755V2.74877H10.391V3.46755C10.3913 3.68582 10.4782 3.89505 10.6325 4.04942C10.7868 4.20379 10.996 4.29072 11.2143 4.29118H11.765C11.8731 4.29118 11.9802 4.26987 12.0801 4.22847C12.18 4.18708 12.2708 4.12641 12.3472 4.04992C12.4237 3.97344 12.4843 3.88264 12.5257 3.78271C12.567 3.68279 12.5883 3.57569 12.5882 3.46755V2.74877H14.2375V3.46755C14.2379 3.68582 14.3248 3.89505 14.4791 4.04942C14.6334 4.20379 14.8426 4.29072 15.0608 4.29118H15.6115C15.7197 4.29118 15.8267 4.26987 15.9267 4.22847C16.0266 4.18708 16.1173 4.12641 16.1938 4.04992C16.2702 3.97344 16.3309 3.88264 16.3722 3.78271C16.4136 3.68279 16.4348 3.57569 16.4348 3.46755V2.74877H17.0181C17.4258 2.74877 17.7572 3.08049 17.7572 3.48818V10.3302C17.7314 10.324 17.7043 10.3219 17.6781 10.3161C17.5527 10.2883 17.4262 10.2657 17.299 10.2484C17.2533 10.2422 17.2079 10.2356 17.1618 10.2308C15.9827 10.0986 14.7982 10.429 13.8577 11.1524C13.2209 11.6325 12.7198 12.27 12.4037 13.0022C12.0876 13.7344 11.9674 14.5363 12.0547 15.329C12.0654 15.4311 12.0795 15.5325 12.097 15.6336C12.1015 15.6604 12.1053 15.6872 12.1104 15.7136C12.1317 15.8247 12.1561 15.935 12.1854 16.0443H2.11383C1.91748 16.0437 1.72939 15.9652 1.59084 15.8261C1.45229 15.6869 1.37458 15.4985 1.37477 15.3022L1.37511 3.48818Z" fill="#423E3E"/>
<path id="Vector_2" d="M3.22461 9.63276H6.17742C6.26859 9.63276 6.35602 9.59655 6.42049 9.53208C6.48496 9.46761 6.52117 9.38018 6.52117 9.28901V6.57373C6.52117 6.48256 6.48496 6.39513 6.42049 6.33066C6.35602 6.2662 6.26859 6.22998 6.17742 6.22998H3.22461C3.13344 6.22998 3.04601 6.2662 2.98154 6.33066C2.91708 6.39513 2.88086 6.48256 2.88086 6.57373V9.28901C2.88086 9.38018 2.91708 9.46761 2.98154 9.53208C3.04601 9.59655 3.13344 9.63276 3.22461 9.63276ZM3.56836 6.91748H5.83367V8.94526H3.56836V6.91748ZM8.09039 9.63276H11.0432C11.1344 9.63276 11.2218 9.59655 11.2863 9.53208C11.3507 9.46761 11.387 9.38018 11.387 9.28901V6.57373C11.387 6.48256 11.3507 6.39513 11.2863 6.33066C11.2218 6.2662 11.1344 6.22998 11.0432 6.22998H8.09039C7.99922 6.22998 7.91179 6.2662 7.84732 6.33066C7.78286 6.39513 7.74664 6.48256 7.74664 6.57373V9.28901C7.74664 9.38018 7.78286 9.46761 7.84732 9.53208C7.91179 9.59655 7.99922 9.63276 8.09039 9.63276ZM8.43414 6.91748H10.6995V8.94526H8.43414V6.91748ZM12.9562 9.63276H15.909C16.0002 9.63276 16.0876 9.59655 16.1521 9.53208C16.2165 9.46761 16.2527 9.38018 16.2527 9.28901V6.57373C16.2527 6.48256 16.2165 6.39513 16.1521 6.33066C16.0876 6.2662 16.0002 6.22998 15.909 6.22998H12.9562C12.865 6.22998 12.7776 6.2662 12.7131 6.33066C12.6486 6.39513 12.6124 6.48256 12.6124 6.57373V9.28901C12.6124 9.38018 12.6486 9.46761 12.7131 9.53208C12.7776 9.59655 12.865 9.63276 12.9562 9.63276ZM13.2999 6.91748H15.5652V8.94526H13.2999V6.91748ZM3.22461 14.1899H6.17742C6.26859 14.1899 6.35602 14.1536 6.42049 14.0892C6.48496 14.0247 6.52117 13.9373 6.52117 13.8461V11.1308C6.52117 11.0397 6.48496 10.9522 6.42049 10.8878C6.35602 10.8233 6.26859 10.7871 6.17742 10.7871H3.22461C3.13344 10.7871 3.04601 10.8233 2.98154 10.8878C2.91708 10.9522 2.88086 11.0397 2.88086 11.1308V13.8461C2.88086 13.9373 2.91708 14.0247 2.98154 14.0892C3.04601 14.1536 3.13344 14.1899 3.22461 14.1899ZM3.56836 11.4746H5.83367V13.5024H3.56836V11.4746ZM8.09039 14.1899H11.0432C11.1344 14.1899 11.2218 14.1536 11.2863 14.0892C11.3507 14.0247 11.387 13.9373 11.387 13.8461V11.1308C11.387 11.0397 11.3507 10.9522 11.2863 10.8878C11.2218 10.8233 11.1344 10.7871 11.0432 10.7871H8.09039C7.99922 10.7871 7.91179 10.8233 7.84732 10.8878C7.78286 10.9522 7.74664 11.0397 7.74664 11.1308V13.8461C7.74664 13.9373 7.78286 14.0247 7.84732 14.0892C7.91179 14.1536 7.99922 14.1899 8.09039 14.1899ZM8.43414 11.4746H10.6995V13.5024H8.43414V11.4746ZM17.0145 12.2205C17.0145 12.1293 16.9783 12.0419 16.9138 11.9774C16.8493 11.913 16.7619 11.8768 16.6707 11.8768C16.5796 11.8768 16.4921 11.913 16.4277 11.9774C16.3632 12.0419 16.327 12.1293 16.327 12.2205V14.843C16.327 14.9341 16.3631 15.0217 16.4277 15.086L17.7195 16.3778C17.7514 16.4099 17.7892 16.4353 17.8309 16.4526C17.8727 16.47 17.9174 16.4789 17.9625 16.4789C18.0077 16.4789 18.0524 16.47 18.0942 16.4526C18.1359 16.4353 18.1737 16.4099 18.2056 16.3778C18.2375 16.3459 18.2629 16.308 18.2802 16.2663C18.2975 16.2246 18.3064 16.1799 18.3064 16.1348C18.3064 16.0896 18.2975 16.0449 18.2802 16.0032C18.2629 15.9615 18.2375 15.9237 18.2056 15.8918L17.0145 14.7007V12.2205Z" fill="#423E3E"/>
</g>
</svg>
