<svg width="16" height="16" viewBox="0 0 16 16" fill="none" xmlns="http://www.w3.org/2000/svg">
<g id="svgexport-15 (56) 1" clip-path="url(#clip0_829_10008)">
<g id="Group">
<path id="Vector" fill-rule="evenodd" clip-rule="evenodd" d="M12.0072 10.8884L12.1659 10.6864C12.1898 10.6543 12.183 10.5889 12.1515 10.5625C12.1437 10.557 12.1362 10.5508 12.1292 10.5442L11.3874 9.95828C11.3218 9.90891 11.2747 9.91375 11.222 9.9775L11.0805 10.1566L12.0072 10.8884ZM2.25153 13.0249C2.22532 13.0249 2.19936 13.0197 2.17514 13.0097C2.15092 12.9996 2.12891 12.9849 2.11038 12.9664C2.09184 12.9479 2.07713 12.9259 2.0671 12.9016C2.05707 12.8774 2.05191 12.8515 2.05191 12.8252C2.05191 12.799 2.05707 12.7731 2.0671 12.7489C2.07713 12.7246 2.09184 12.7026 2.11038 12.6841C2.12891 12.6656 2.15092 12.6509 2.17514 12.6408C2.19936 12.6308 2.22532 12.6256 2.25153 12.6256H2.29403C2.32025 12.6256 2.3462 12.6308 2.37042 12.6408C2.39464 12.6509 2.41665 12.6656 2.43519 12.6841C2.45372 12.7026 2.46843 12.7246 2.47846 12.7489C2.48849 12.7731 2.49366 12.799 2.49366 12.8252C2.49366 12.8515 2.48849 12.8774 2.47846 12.9016C2.46843 12.9259 2.45372 12.9479 2.43519 12.9664C2.41665 12.9849 2.39464 12.9996 2.37042 13.0097C2.3462 13.0197 2.32025 13.0249 2.29403 13.0249H2.25153ZM2.25153 11.4887C2.19859 11.4887 2.14781 11.4677 2.11038 11.4302C2.07294 11.3928 2.05191 11.342 2.05191 11.2891C2.05191 11.2361 2.07294 11.1853 2.11038 11.1479C2.14781 11.1105 2.19859 11.0894 2.25153 11.0894H2.29403C2.34698 11.0894 2.39775 11.1105 2.43519 11.1479C2.47262 11.1853 2.49366 11.2361 2.49366 11.2891C2.49366 11.342 2.47262 11.3928 2.43519 11.4302C2.39775 11.4677 2.34698 11.4887 2.29403 11.4887H2.25153ZM2.25153 9.9525C2.19859 9.9525 2.14781 9.93147 2.11038 9.89403C2.07294 9.8566 2.05191 9.80582 2.05191 9.75288C2.05191 9.69993 2.07294 9.64916 2.11038 9.61172C2.14781 9.57428 2.19859 9.55325 2.25153 9.55325H2.29403C2.34698 9.55325 2.39775 9.57428 2.43519 9.61172C2.47262 9.64916 2.49366 9.69993 2.49366 9.75288C2.49366 9.80582 2.47262 9.8566 2.43519 9.89403C2.39775 9.93147 2.34698 9.9525 2.29403 9.9525H2.25153ZM8.76991 9.86131L8.96247 9.61747C9.12975 9.40569 9.44306 9.36994 9.65366 9.53625L12.9412 12.1327C13.153 12.2999 13.1888 12.6132 13.0225 12.8238L12.7174 13.21L8.65747 10.0036L8.76987 9.86128L8.76991 9.86131ZM9.63431 7.37675H3.16244C3.1472 7.37693 3.13264 7.38306 3.12187 7.39383C3.11109 7.40461 3.10496 7.41917 3.10478 7.43441V7.65212C3.10478 7.68344 3.13112 7.70978 3.16244 7.70978H9.63431C9.64955 7.7096 9.66411 7.70347 9.67488 7.6927C9.68566 7.68192 9.69179 7.66736 9.69197 7.65212V7.43441C9.69179 7.41917 9.68566 7.40461 9.67488 7.39383C9.66411 7.38306 9.64955 7.37693 9.63431 7.37675ZM3.57697 6.9775H9.21981C9.1995 6.03759 8.718 5.18722 7.94912 4.68072V5.54959C7.94912 5.60254 7.92809 5.65331 7.89066 5.69075C7.85322 5.72819 7.80244 5.74922 7.7495 5.74922C7.69656 5.74922 7.64578 5.72819 7.60834 5.69075C7.57091 5.65331 7.54988 5.60254 7.54988 5.54959V3.9525L7.19634 3.94944V6.01C7.19634 6.06294 7.17531 6.11372 7.13788 6.15116C7.10044 6.18859 7.04966 6.20962 6.99672 6.20962C6.94378 6.20962 6.893 6.18859 6.85556 6.15116C6.81813 6.11372 6.79709 6.06294 6.79709 6.01L6.79619 3.26628C6.7925 3.26281 6.78631 3.26066 6.77859 3.26066H6.01819L5.99966 3.26603V6.01C5.99966 6.06294 5.97862 6.11372 5.94119 6.15116C5.90375 6.18859 5.85297 6.20962 5.80003 6.20962C5.74709 6.20962 5.69631 6.18859 5.65887 6.15116C5.62144 6.11372 5.60041 6.06294 5.60041 6.01V3.94944L5.24687 3.9525V5.54959C5.24687 5.60254 5.22584 5.65331 5.18841 5.69075C5.15097 5.72819 5.10019 5.74922 5.04725 5.74922C4.99431 5.74922 4.94353 5.72819 4.90609 5.69075C4.86866 5.65331 4.84763 5.60254 4.84763 5.54959V4.68072C4.07875 5.18722 3.59728 6.03762 3.57697 6.9775ZM3.16244 6.9775H3.17762C3.19984 5.81553 3.84525 4.76853 4.84763 4.21678V3.93844C4.84763 3.71694 5.04459 3.55019 5.26525 3.55019H5.60041V3.26603C5.60041 3.04003 5.79272 2.86141 6.01819 2.86141H6.77859C7.00406 2.86141 7.19634 3.04003 7.19634 3.26603V3.55019H7.5315C7.75212 3.55019 7.94912 3.71691 7.94912 3.93844V4.21678C8.9515 4.7685 9.59694 5.81553 9.61913 6.9775C9.88963 6.9775 10.0912 7.17975 10.0912 7.43441C10.0912 7.644 10.117 7.81512 9.95716 7.97497C9.91482 8.01747 9.8645 8.05119 9.8091 8.07419C9.7537 8.0972 9.6943 8.10904 9.63431 8.10903H3.16244C2.91072 8.10903 2.70553 7.90381 2.70553 7.65212C2.70553 7.44256 2.67972 7.27144 2.83959 7.11156C2.88193 7.06906 2.93225 7.03534 2.98765 7.01234C3.04305 6.98933 3.10245 6.97749 3.16244 6.9775ZM12.2022 9.16166L13.6798 7.29078C13.7173 7.24387 13.7333 7.1825 13.7198 7.12303C13.6716 6.911 13.7017 6.70934 13.841 6.53303C14.2092 6.06688 14.9621 6.27959 15.0313 6.86944C15.0648 7.15475 14.9132 7.43047 14.6538 7.55312C14.4003 7.67306 14.2989 7.55616 14.1901 7.69909L12.2631 10.139C12.095 10.0032 11.9192 9.87025 11.7481 9.73662L12.1791 9.19088C12.1877 9.18188 12.1954 9.17209 12.2022 9.16162L12.2022 9.16166ZM12.2343 13.7642V15.3004C12.2343 15.3533 12.2132 15.4041 12.1758 15.4415C12.1383 15.479 12.0876 15.5 12.0346 15.5H0.762125C0.709181 15.5 0.658406 15.479 0.620969 15.4415C0.583532 15.4041 0.5625 15.3533 0.5625 15.3004V0.699625C0.5625 0.67341 0.567663 0.647451 0.577696 0.623232C0.587728 0.599012 0.602432 0.577006 0.620969 0.558469C0.658406 0.521032 0.709181 0.5 0.762125 0.5H9.84041C9.89612 0.5 9.9465 0.522844 9.98272 0.559656L12.1757 2.75269C12.1943 2.7712 12.209 2.7932 12.2191 2.81742C12.2291 2.84164 12.2342 2.8676 12.2342 2.89381V8.47969L13.3123 7.11466C13.2176 6.51819 13.639 5.95831 14.2427 5.88741C14.8271 5.81878 15.3587 6.23909 15.4274 6.82422C15.498 7.42534 15.0524 7.96622 14.449 8.01253L12.5371 10.4335C12.5735 10.516 12.5867 10.6069 12.5752 10.6964C12.5637 10.7859 12.528 10.8705 12.472 10.9412L12.3191 11.1348L13.1877 11.8207C13.5723 12.1245 13.639 12.6845 13.3344 13.0702L12.9062 13.6124C12.8735 13.6537 12.8258 13.6804 12.7734 13.6866C12.7211 13.6927 12.6684 13.6778 12.6271 13.6451L12.4837 13.5319C12.4062 13.6301 12.3341 13.7 12.2343 13.7642L12.2343 13.7642ZM11.9394 13.4717C11.8553 13.5057 11.7415 13.5158 11.6782 13.4662C11.6705 13.4592 11.6621 13.4528 11.6534 13.4472L10.6831 12.6808C10.674 12.6722 10.6642 12.6644 10.6537 12.6576L8.73787 11.1446C8.65934 11.0764 8.57725 11.0494 8.57831 10.8819C8.57906 10.7626 8.62678 10.658 8.71047 10.552L12.1718 13.2856C12.1164 13.3557 12.0423 13.4278 11.968 13.4589C11.9581 13.4624 11.9486 13.4667 11.9394 13.4717ZM11.835 3.09347V8.98522L11.4003 9.53556C11.3156 9.52013 11.2282 9.52704 11.1469 9.55559C11.0656 9.58414 10.9931 9.63336 10.9366 9.69841L10.7686 9.91025L9.90006 9.22434C9.51431 8.91972 8.95434 8.98647 8.65056 9.37106L8.50669 9.55325H3.32869C3.27574 9.55325 3.22497 9.57428 3.18753 9.61172C3.15009 9.64916 3.12906 9.69993 3.12906 9.75288C3.12906 9.80582 3.15009 9.8566 3.18753 9.89403C3.22497 9.93147 3.27574 9.9525 3.32869 9.9525H8.19812C8.17925 9.99307 8.1746 10.0388 8.18495 10.0824C8.19529 10.1259 8.22002 10.1647 8.25513 10.1924L8.3985 10.3057C8.21453 10.5387 8.12997 10.8203 8.20919 11.0895H3.32869C3.27574 11.0895 3.22497 11.1105 3.18753 11.1479C3.15009 11.1854 3.12906 11.2361 3.12906 11.2891C3.12906 11.342 3.15009 11.3928 3.18753 11.4303C3.22497 11.4677 3.27574 11.4887 3.32869 11.4887H8.53216L9.97178 12.6257H3.32869C3.30247 12.6257 3.27651 12.6308 3.25229 12.6409C3.22807 12.6509 3.20607 12.6656 3.18753 12.6841C3.16899 12.7027 3.15429 12.7247 3.14426 12.7489C3.13423 12.7731 3.12906 12.7991 3.12906 12.8253C3.12906 12.8515 3.13423 12.8775 3.14426 12.9017C3.15429 12.9259 3.16899 12.9479 3.18753 12.9664C3.20607 12.985 3.22807 12.9997 3.25229 13.0097C3.27651 13.0197 3.30247 13.0249 3.32869 13.0249H10.4773L11.4217 13.7707C11.5407 13.8647 11.6855 13.9054 11.835 13.8979V15.1007H0.96175V0.89925H9.64078V2.89384C9.64078 2.94679 9.66181 2.99756 9.69925 3.035C9.73669 3.07244 9.78746 3.09347 9.84041 3.09347H11.835ZM10.04 1.1815V2.69422H11.5527L10.04 1.1815Z" fill="#17305D"/>
</g>
</g>
<defs>
<clipPath id="clip0_829_10008">
<rect width="16" height="16" fill="white"/>
</clipPath>
</defs>
</svg>
