<svg width="18" height="20" viewBox="0 0 18 20" fill="none" xmlns="http://www.w3.org/2000/svg">
<g id="Group">
<g id="Layer 2">
<path id="Vector" d="M9 19.7232C8.72717 19.723 8.45895 19.6529 8.22083 19.5197L5.13167 17.8037C3.59583 16.9499 2.31608 15.7011 1.42484 14.1866C0.533601 12.6722 0.063264 10.947 0.0625 9.18981V4.42681C0.0624559 4.03047 0.209391 3.64819 0.474887 3.3539C0.740382 3.05962 1.10557 2.87425 1.49983 2.83364C2.72893 2.70337 3.93858 2.42987 5.10417 2.01873C6.17285 1.64096 7.19802 1.14988 8.16217 0.553894C8.41437 0.399549 8.70431 0.317871 9 0.317871C9.29569 0.317871 9.58563 0.399549 9.83783 0.553894C10.8021 1.14972 11.8272 1.64078 12.8958 2.01873C14.0614 2.42987 15.2711 2.70337 16.5002 2.83364C16.8944 2.87425 17.2596 3.05962 17.5251 3.3539C17.7906 3.64819 17.9375 4.03047 17.9375 4.42681V9.18981C17.9367 10.947 17.4664 12.6722 16.5752 14.1866C15.6839 15.7011 14.4042 16.9499 12.8683 17.8037L9.77917 19.5206C9.54099 19.6536 9.27276 19.7233 9 19.7232ZM9 1.69239C8.95966 1.69204 8.92001 1.70282 8.88542 1.72356C7.83765 2.37115 6.72369 2.90493 5.5625 3.31581C4.2959 3.76285 2.98131 4.06004 1.64558 4.20131C1.58884 4.20613 1.53598 4.23207 1.49745 4.274C1.45892 4.31592 1.43753 4.37078 1.4375 4.42773V9.19073C1.43799 10.7028 1.84259 12.1872 2.60942 13.4904C3.37625 14.7936 4.47744 15.8682 5.799 16.6029L8.88817 18.3189C8.92204 18.3379 8.96023 18.3479 8.99908 18.3479C9.03793 18.3479 9.07613 18.3379 9.11 18.3189L12.201 16.6029C13.5226 15.8682 14.6238 14.7936 15.3906 13.4904C16.1574 12.1872 16.562 10.7028 16.5625 9.19073V4.42681C16.5625 4.36987 16.5411 4.31501 16.5025 4.27308C16.464 4.23115 16.4112 4.20522 16.3544 4.20039C15.0187 4.05913 13.7041 3.76194 12.4375 3.31489C11.2764 2.9046 10.1624 2.37143 9.11458 1.72448C9.08016 1.70324 9.04045 1.69212 9 1.69239Z" fill="#707070"/>
<path id="Vector_2" d="M8.542 12.0627C8.37357 12.0629 8.21102 12.0008 8.0855 11.8886L6.023 10.0552C5.89511 9.93201 5.81986 9.76409 5.81301 9.58664C5.80616 9.40918 5.86825 9.23596 5.98626 9.10326C6.10427 8.97056 6.26905 8.88867 6.44609 8.87474C6.62313 8.86082 6.79869 8.91594 6.936 9.02856L8.498 10.4164L11.4781 7.23831C11.5394 7.17092 11.6136 7.11641 11.6962 7.07793C11.7788 7.03946 11.8683 7.0178 11.9593 7.01421C12.0504 7.01061 12.1413 7.02516 12.2266 7.05701C12.312 7.08885 12.3902 7.13736 12.4567 7.1997C12.5232 7.26204 12.5766 7.33698 12.6139 7.42016C12.6511 7.50333 12.6715 7.59308 12.6737 7.68419C12.676 7.7753 12.6601 7.86595 12.627 7.95086C12.5939 8.03577 12.5442 8.11326 12.4809 8.17881L9.04341 11.8455C8.97923 11.9142 8.90158 11.9689 8.81531 12.0063C8.72905 12.0437 8.63601 12.0629 8.542 12.0627Z" fill="#707070"/>
</g>
</g>
</svg>
