<svg width="12" height="13" viewBox="0 0 12 13" fill="none" xmlns="http://www.w3.org/2000/svg">
<g clip-path="url(#clip0_1037_8804)">
<path d="M0.20004 12.5232H9.80003C9.82629 12.5232 9.8523 12.5181 9.87657 12.508C9.90083 12.498 9.92288 12.4832 9.94146 12.4647C9.96004 12.4461 9.97477 12.4241 9.98483 12.3998C9.99489 12.3755 10.0001 12.3495 10.0001 12.3233V10.5233H11.4C11.4263 10.5233 11.4523 10.5181 11.4765 10.5081C11.5008 10.498 11.5229 10.4833 11.5415 10.4647C11.56 10.4461 11.5748 10.4241 11.5848 10.3998C11.5949 10.3756 11.6001 10.3496 11.6001 10.3233V8.32322C11.6001 8.21283 11.5105 8.12327 11.4 8.12327H10.0001V6.32324C10.0001 6.29697 9.9949 6.27096 9.98485 6.24669C9.9748 6.22242 9.96006 6.20036 9.94149 6.18179C9.92291 6.16321 9.90086 6.14848 9.87659 6.13842C9.85231 6.12837 9.8263 6.1232 9.80003 6.1232H9.433C9.44692 6.05857 9.44683 5.9917 9.43273 5.9271C9.41862 5.86251 9.39083 5.80169 9.35122 5.74874L8.44752 4.5441L8.8648 4.23106C8.95608 4.16271 9.02903 4.07285 9.07716 3.96947C9.1253 3.86609 9.14711 3.75241 9.14066 3.63856L9.12062 3.27837C9.11792 3.23028 9.12714 3.18226 9.14747 3.13859C9.1678 3.09492 9.19861 3.05695 9.23715 3.02806L9.65437 2.71514L9.82996 2.94914C9.8457 2.97016 9.86543 2.98786 9.88802 3.00124C9.91061 3.01463 9.93562 3.02343 9.96161 3.02714C9.97096 3.02843 9.98038 3.02916 9.9899 3.02907C10.0332 3.02913 10.0753 3.01509 10.1099 2.98906L11.7601 1.75118C12.025 1.55243 12.0788 1.17639 11.88 0.911363L11.7689 0.763049C11.5698 0.498369 11.194 0.444814 10.9289 0.643283L9.2789 1.88109C9.19054 1.94737 9.17261 2.07281 9.23889 2.16115L9.41441 2.39515L8.9972 2.70818C8.9059 2.7765 8.83293 2.86635 8.7848 2.96972C8.73667 3.07309 8.71486 3.18677 8.72134 3.30061L8.74131 3.66078C8.74406 3.70887 8.73486 3.7569 8.71454 3.80057C8.69422 3.84425 8.6634 3.88222 8.62485 3.91109L8.20766 4.22413L7.30383 3.01946C7.2573 2.95645 7.19557 2.90625 7.12439 2.87354C7.05321 2.84084 6.97491 2.82669 6.89679 2.83242C6.82221 2.83785 6.75022 2.86204 6.68749 2.90274C6.62476 2.94344 6.57333 2.99934 6.53799 3.06523L4.89461 6.1232H0.200063C0.173791 6.1232 0.147775 6.12837 0.123501 6.13842C0.0992265 6.14847 0.0771702 6.1632 0.0585917 6.18178C0.0400132 6.20036 0.0252764 6.22241 0.0152231 6.24668C0.00516978 6.27096 -3.07791e-06 6.29697 1.37396e-09 6.32324V8.32322C-3.07714e-06 8.34949 0.00516901 8.3755 0.0152209 8.39978C0.0252727 8.42405 0.0400074 8.4461 0.0585834 8.46468C0.0771595 8.48325 0.0992129 8.49799 0.123484 8.50804C0.147756 8.51809 0.173769 8.52326 0.20004 8.52326H1.59997V10.1233H0.200063C0.173791 10.1232 0.147775 10.1284 0.123501 10.1385C0.0992265 10.1485 0.0771702 10.1632 0.0585917 10.1818C0.0400132 10.2004 0.0252764 10.2225 0.0152231 10.2467C0.00516978 10.271 -3.07791e-06 10.297 1.37396e-09 10.3233V12.3233C1.37396e-09 12.4337 0.0895316 12.5232 0.20004 12.5232ZM11.169 0.963183C11.2572 0.896902 11.3825 0.914738 11.4489 1.0031L11.5601 1.15141C11.5918 1.19384 11.6055 1.24715 11.598 1.29962C11.5905 1.3521 11.5625 1.39945 11.5201 1.43128L10.0298 2.54925L9.67874 2.08104L11.169 0.963183ZM3.60006 10.5232H6.40001V12.1232H3.60006V10.5232ZM5.20003 8.52326H8V10.1233H5.20003V8.52326ZM9.60008 12.1232H6.79999V10.5232H9.60008V12.1232ZM11.2001 10.1233H8.39999V8.52326H11.2001L11.2001 10.1233ZM9.60008 8.12327H6.79999V6.95861L8.84715 6.52319H9.60008V8.12327ZM6.89046 3.25475C6.89726 3.24073 6.91132 3.23178 6.92691 3.23131L6.93085 3.23112C6.94129 3.23129 6.95155 3.23395 6.96077 3.23887C6.96999 3.24379 6.9779 3.25083 6.98386 3.25941L7.88748 4.46408L7.0624 5.08307C7.01996 5.1149 6.9919 5.1623 6.9844 5.21482C6.97689 5.26734 6.99056 5.3207 7.02239 5.36315C7.08868 5.45148 7.21402 5.46932 7.30247 5.40313L8.12752 4.78414L9.03125 5.98879C9.04562 6.00637 9.04984 6.03009 9.04225 6.05141C9.03991 6.05869 9.03562 6.06518 9.02986 6.0702C9.0241 6.07522 9.01708 6.07857 9.00955 6.07989L5.04173 6.92364C5.02966 6.92553 5.0173 6.92399 5.00607 6.91918C4.99483 6.91437 4.98518 6.90649 4.97821 6.89646C4.97041 6.88703 4.96549 6.87557 4.96403 6.86343C4.96256 6.85128 4.96463 6.83898 4.96996 6.82797L6.89046 3.25475ZM4.65832 7.1365C4.71047 7.20823 4.78233 7.26327 4.86517 7.29494C4.94801 7.3266 5.03826 7.33352 5.12496 7.31486L6.40001 7.04369V8.12327H3.60006V6.52319H4.67955L4.61758 6.63855C4.57565 6.71664 4.55718 6.8052 4.56441 6.89354C4.57164 6.98189 4.60425 7.06626 4.65832 7.1365ZM0.399986 7.32328H0.799995C0.826516 7.32368 0.852853 7.31881 0.877473 7.30894C0.902094 7.29907 0.924505 7.28441 0.943403 7.2658C0.962302 7.24718 0.97731 7.225 0.987554 7.20053C0.997798 7.17607 1.00307 7.14981 1.00307 7.12329C1.00307 7.09676 0.997798 7.0705 0.987554 7.04604C0.97731 7.02157 0.962302 6.99938 0.943403 6.98077C0.924505 6.96216 0.902094 6.9475 0.877473 6.93763C0.852853 6.92776 0.826516 6.92289 0.799995 6.92329H0.399986V6.52321H3.20007V8.12327H0.399963L0.399986 7.32328ZM1.99998 8.52328H4.80004V10.1233H1.99998V8.52328ZM0.399986 10.5232H3.20007V12.1232H0.399963L0.399986 10.5232Z" fill="#707070"/>
<path d="M2.60039 7.12329C2.60039 7.01287 2.51086 6.92334 2.40033 6.92334H1.60036C1.54733 6.92334 1.49648 6.9444 1.45898 6.98189C1.42148 7.01938 1.4004 7.07023 1.40039 7.12326C1.40038 7.14953 1.40555 7.17554 1.41559 7.19981C1.42564 7.22408 1.44036 7.24614 1.45893 7.26471C1.4775 7.28329 1.49955 7.29803 1.52382 7.30809C1.54808 7.31814 1.57409 7.32332 1.60036 7.32332H2.40033C2.4266 7.32333 2.45262 7.31816 2.47689 7.30811C2.50116 7.29806 2.52322 7.28333 2.5418 7.26475C2.56038 7.24617 2.57511 7.22412 2.58517 7.19985C2.59522 7.17557 2.60039 7.14956 2.60039 7.12329Z" fill="#707070"/>
</g>
<defs>
<clipPath id="clip0_1037_8804">
<rect width="12" height="12" fill="white" transform="translate(0 0.5)"/>
</clipPath>
</defs>
</svg>
