<svg width="63" height="69" viewBox="0 0 63 69" fill="none" xmlns="http://www.w3.org/2000/svg">
<g id="Group">
<g id="Group_2">
<path id="Vector" fill-rule="evenodd" clip-rule="evenodd" d="M23.4171 30.1799C24.0766 30.1139 24.7353 30.3123 25.2485 30.7318C25.7616 31.1512 26.0873 31.7572 26.1538 32.4166L27.8204 49.0833C27.8622 49.4143 27.8373 49.7503 27.7471 50.0715C27.657 50.3927 27.5035 50.6927 27.2957 50.9536C27.0878 51.2146 26.8298 51.4313 26.5369 51.591C26.244 51.7507 25.9221 51.8502 25.5902 51.8836C25.2582 51.917 24.923 51.8836 24.6041 51.7853C24.2853 51.6871 23.9893 51.5261 23.7337 51.3117C23.4781 51.0974 23.2679 50.834 23.1157 50.5371C22.9634 50.2403 22.8721 49.916 22.8471 49.5833L21.1804 32.9166C21.1143 32.2572 21.3128 31.5984 21.7322 31.0853C22.1517 30.5721 22.7577 30.2465 23.4171 30.1799ZM40.5838 30.1799C41.2426 30.2465 41.848 30.5716 42.2674 31.0841C42.6867 31.5965 42.8856 32.2544 42.8204 32.9133L41.1538 49.58C41.1298 49.9132 41.0393 50.2383 40.8875 50.536C40.7358 50.8337 40.5259 51.098 40.2703 51.3132C40.0146 51.5284 39.7185 51.6902 39.3993 51.789C39.08 51.8877 38.7443 51.9215 38.4118 51.8883C38.0793 51.8551 37.7568 51.7556 37.4634 51.5956C37.1701 51.4357 36.9117 51.2185 36.7037 50.957C36.4957 50.6955 36.3422 50.395 36.2523 50.0731C36.1625 49.7513 36.138 49.4147 36.1804 49.0833L37.8471 32.4166C37.9136 31.7578 38.2388 31.1524 38.7512 30.733C39.2637 30.3137 39.9249 30.1148 40.5838 30.1799Z" fill="#AE2929"/>
<g id="Group_3">
<path id="Vector_2" fill-rule="evenodd" clip-rule="evenodd" d="M25.7469 0.166504H37.0169C37.7402 0.166504 38.3669 0.166504 38.9602 0.259837C40.1165 0.444494 41.2135 0.897331 42.1634 1.58209C43.1132 2.26685 43.8896 3.1645 44.4302 4.20317C44.7069 4.7365 44.9069 5.33317 45.1335 6.0165L45.5069 7.13317L45.6035 7.4165C45.9052 8.25368 46.4669 8.97231 47.2065 9.46715C47.946 9.962 48.8246 10.2071 49.7135 10.1665H59.7135C60.3766 10.1665 61.0125 10.4299 61.4813 10.8987C61.9502 11.3676 62.2135 12.0035 62.2135 12.6665C62.2135 13.3295 61.9502 13.9654 61.4813 14.4343C61.0125 14.9031 60.3766 15.1665 59.7135 15.1665H3.04688C2.38383 15.1665 1.74795 14.9031 1.27911 14.4343C0.810268 13.9654 0.546875 13.3295 0.546875 12.6665C0.546875 12.0035 0.810268 11.3676 1.27911 10.8987C1.74795 10.4299 2.38383 10.1665 3.04688 10.1665H13.3469C14.2372 10.1451 15.0973 9.83908 15.801 9.29317C16.5046 8.74727 17.0149 7.99026 17.2569 7.13317L17.6302 6.0165C17.8569 5.33317 18.0569 4.7365 18.3335 4.20317C18.8739 3.16491 19.6497 2.26751 20.5989 1.58278C21.5482 0.898043 22.6445 0.444981 23.8002 0.259837C24.3969 0.166504 25.0235 0.166504 25.7469 0.166504ZM21.4102 10.1665C21.6443 9.70812 21.8394 9.23089 21.9935 8.73984L22.3269 7.73984C22.6269 6.82984 22.7002 6.6465 22.7669 6.51317C22.9468 6.16653 23.2055 5.86688 23.5221 5.63823C23.8388 5.40958 24.2046 5.25829 24.5902 5.1965C24.7402 5.17317 24.9369 5.1665 25.9002 5.1665H36.8669C37.8269 5.1665 38.0235 5.17317 38.1735 5.19984C38.5589 5.26127 38.9245 5.41205 39.2411 5.6401C39.5577 5.86816 39.8165 6.16715 39.9969 6.51317C40.0635 6.6465 40.1335 6.82984 40.4402 7.74317L40.7735 8.74317L40.9002 9.11984C41.0335 9.47984 41.1835 9.82984 41.3569 10.1665H21.4102ZM9.05688 21.8398C9.71808 21.7959 10.3697 22.0163 10.8684 22.4526C11.3672 22.8889 11.6724 23.5053 11.7169 24.1665L13.2502 47.1665C13.5502 51.6565 13.7635 54.7832 14.2302 57.1332C14.6869 59.4165 15.3202 60.6232 16.2302 61.4765C17.1435 62.3298 18.3902 62.8832 20.6969 63.1832C23.0735 63.4932 26.2102 63.4998 30.7102 63.4998H33.2902C37.7902 63.4998 40.9235 63.4932 43.3035 63.1832C45.6102 62.8832 46.8569 62.3298 47.7702 61.4765C48.6802 60.6232 49.3135 59.4165 49.7702 57.1332C50.2369 54.7832 50.4502 51.6565 50.7502 47.1665L52.2835 24.1665C52.3054 23.8389 52.3916 23.5187 52.5372 23.2244C52.6828 22.9301 52.885 22.6673 53.1322 22.4511C53.3793 22.2349 53.6666 22.0695 53.9777 21.9643C54.2888 21.8591 54.6176 21.8163 54.9452 21.8382C55.2729 21.8601 55.593 21.9463 55.8873 22.0919C56.1817 22.2375 56.4444 22.4396 56.6606 22.6868C56.8768 22.934 57.0422 23.2213 57.1474 23.5324C57.2526 23.8434 57.2954 24.1722 57.2735 24.4998L55.7269 47.6732C55.4435 51.9465 55.2135 55.3998 54.6735 58.1132C54.1102 60.9298 53.1569 63.2832 51.1835 65.1265C49.2135 66.9732 46.8002 67.7698 43.9502 68.1398C41.2102 68.4998 37.7502 68.4998 33.4635 68.4998H30.5369C26.2502 68.4998 22.7902 68.4998 20.0502 68.1432C17.2002 67.7698 14.7869 66.9732 12.8169 65.1265C10.8435 63.2832 9.89021 60.9265 9.32688 58.1132C8.78688 55.3998 8.56021 51.9465 8.27354 47.6732L6.72688 24.4998C6.70515 24.1722 6.74819 23.8434 6.85353 23.5324C6.95887 23.2214 7.12446 22.9342 7.34083 22.6872C7.5572 22.4401 7.82012 22.2382 8.11456 22.0928C8.40901 21.9474 8.72921 21.8614 9.05688 21.8398Z" fill="#AE2929"/>
</g>
</g>
</g>
</svg>
