<svg width="16" height="16" viewBox="0 0 16 16" fill="none" xmlns="http://www.w3.org/2000/svg">
<g id="Group">
<path id="Vector" d="M1.94827 13.1375C2.05165 13.288 2.19017 13.4111 2.35182 13.4961C2.51348 13.581 2.69341 13.6253 2.87602 13.625C3.1034 13.6251 3.32541 13.5559 3.51252 13.4268C4.0244 13.075 4.1539 12.3744 3.80202 11.8623C3.69858 11.7118 3.56003 11.5887 3.39836 11.5038C3.23669 11.419 3.05676 11.3747 2.87415 11.375C2.79465 11.375 2.7154 11.3865 2.6369 11.4035C2.54642 11.1344 2.50024 10.8524 2.50015 10.5685C2.50015 9.84588 2.79227 9.1975 3.2529 8.74975C3.4688 8.91168 3.73127 8.99946 4.00115 9C4.25381 9.00008 4.5005 8.92321 4.7084 8.77963C5.27715 8.38875 5.42103 7.61038 5.03015 7.04138C4.91519 6.87419 4.76123 6.73752 4.5816 6.6432C4.40196 6.54887 4.20205 6.49972 3.99915 6.5C3.7549 6.5 3.50815 6.57125 3.29177 6.72025C2.75027 7.09238 2.59515 7.8155 2.91902 8.37488C2.35565 8.91425 2.00015 9.69763 2.00015 10.5685C2.00015 10.9303 2.0639 11.2848 2.1819 11.6158C1.71765 11.9789 1.60965 12.6451 1.94827 13.1375ZM4.4249 8.36775C4.31595 8.44311 4.18887 8.48803 4.05676 8.49788C3.92465 8.50772 3.79231 8.48213 3.6734 8.42375C3.96848 8.24819 4.30208 8.14759 4.64502 8.13075C4.58999 8.22495 4.51475 8.30587 4.4249 8.36775ZM3.2629 7.6135C3.28049 7.51661 3.31716 7.42417 3.37076 7.34156C3.42436 7.25895 3.49383 7.1878 3.57515 7.13225C3.69976 7.0461 3.84766 6.99997 3.99915 7C4.12088 6.9999 4.24081 7.02939 4.34861 7.08591C4.45642 7.14244 4.54888 7.22432 4.61802 7.3245C4.67982 7.4147 4.72104 7.51737 4.73877 7.62525C4.21815 7.62763 3.73127 7.78538 3.31665 8.05763C3.25362 7.9186 3.23485 7.76355 3.2629 7.6135ZM2.87415 11.875C3.08065 11.875 3.2734 11.9763 3.3899 12.1455C3.43631 12.2127 3.46903 12.2884 3.48616 12.3682C3.5033 12.4481 3.50453 12.5305 3.48977 12.6109C3.4755 12.5889 3.45782 12.5694 3.4374 12.553C3.20115 12.3684 3.00402 12.1374 2.8519 11.8768C2.8594 11.8764 2.86677 11.875 2.87415 11.875ZM3.12952 12.947C3.1664 12.9758 3.20927 12.9895 3.25252 12.995C3.2444 13.0013 3.23765 13.0089 3.22902 13.0149C3.12529 13.0866 3.00215 13.125 2.87602 13.125C2.66977 13.125 2.47677 13.0238 2.36027 12.8543C2.2818 12.7412 2.24326 12.6052 2.25075 12.4678C2.25824 12.3304 2.31134 12.1995 2.40165 12.0956C2.5879 12.4241 2.83327 12.7155 3.12952 12.947Z" fill="#2B5AAF"/>
<path id="Vector_2" d="M1.68 9.43938C1.74315 9.24676 1.82278 9.05995 1.918 8.881C1.10887 7.443 1.506 5.58538 2.87075 4.631C3.39825 4.262 4.01375 4.067 4.65075 4.067C5.2345 4.067 5.80575 4.23063 6.30237 4.53988C6.38552 4.59172 6.48208 4.61796 6.58003 4.61534C6.67798 4.61272 6.773 4.58135 6.85325 4.52513L12.5407 0.545376C12.5704 0.526501 12.658 0.500001 12.7022 0.500001C12.7146 0.500876 12.727 0.501251 12.7394 0.501251H12.7397L14.1721 0.500251L13.7541 2.197L13.5364 2.34925L12.5539 2.13775C12.4884 2.12361 12.4207 2.1228 12.3549 2.13536C12.2891 2.14792 12.2264 2.17361 12.1707 2.21088C12.1151 2.24813 12.0674 2.2962 12.0307 2.35222C11.9939 2.40824 11.9688 2.47108 11.9567 2.537L11.8161 3.30988L11.0136 3.081C10.9398 3.05994 10.8621 3.05617 10.7866 3.07C10.711 3.08383 10.6397 3.11489 10.5781 3.16075C10.5165 3.20659 10.4662 3.26601 10.4313 3.3344C10.3963 3.40279 10.3776 3.47832 10.3765 3.55513L10.3672 4.24075L9.678 4.05988C9.61046 4.04211 9.53995 4.03869 9.47101 4.04984C9.40208 4.06099 9.33624 4.08647 9.27775 4.12463C9.21927 4.16279 9.16943 4.21278 9.13145 4.27139C9.09347 4.32999 9.06819 4.3959 9.05725 4.46488L8.86512 5.6705L7.97975 6.2895C7.9031 6.3431 7.84301 6.41713 7.80633 6.50318C7.76965 6.58922 7.75784 6.68383 7.77225 6.77625C7.96237 7.99675 7.43962 9.23688 6.4405 9.93563C5.9125 10.3048 5.29637 10.5 4.65887 10.5C4.09698 10.4995 3.54568 10.347 3.06337 10.0588C3.02141 10.2254 3.00013 10.3966 3 10.5685C3 10.5783 3.00112 10.5878 3.00125 10.5973C3.51392 10.8615 4.08224 10.9996 4.659 11C5.37312 11 6.09437 10.7879 6.72712 10.3454C7.92675 9.5065 8.47987 8.06975 8.26637 6.69925L9.3255 5.95863L9.55112 4.5435L10.6014 4.81913C10.6226 4.82475 10.6435 4.82738 10.6635 4.82738C10.776 4.82738 10.8607 4.743 10.8624 4.61613L10.8766 3.56188L11.9535 3.86888C11.9769 3.87563 12.0004 3.87888 12.0231 3.87888C12.1371 3.87888 12.2355 3.79838 12.2577 3.676L12.4489 2.6265L13.5145 2.856C13.53 2.85925 13.5474 2.86088 13.5652 2.86088C13.6306 2.86088 13.7066 2.84038 13.754 2.80738L14.0827 2.57738C14.1431 2.535 14.2077 2.44238 14.2265 2.37038L14.7412 0.281001C14.7794 0.136501 14.6912 0.0108761 14.545 1.09147e-06L12.7395 0.00125109C12.7276 0.000392671 12.7156 -2.42797e-05 12.7036 1.09147e-06C12.5596 1.09147e-06 12.3669 0.0570011 12.2555 0.134876L6.56675 4.1155C5.99184 3.75742 5.32818 3.56742 4.65087 3.567C3.93737 3.567 3.21675 3.77888 2.58437 4.22125C0.920874 5.38438 0.499999 7.69838 1.64375 9.3895C1.65537 9.40663 1.668 9.4225 1.67975 9.43938H1.68Z" fill="#2B5AAF"/>
<path id="Vector_3" d="M14.1251 9H8.44471C8.36908 9.1722 8.28218 9.33923 8.18459 9.5H14.1251C14.4008 9.5 14.6251 9.72425 14.6251 10V15C14.6251 15.2758 14.4008 15.5 14.1251 15.5H4.03509C3.63821 15.5 3.05234 15.2168 2.80584 14.9058L1.38796 13.1166C1.18671 12.8624 1.17746 12.3924 1.36859 12.1304L1.68459 11.6979C1.61561 11.4878 1.56594 11.2719 1.53621 11.0529L0.964837 11.8357C0.640462 12.2799 0.654587 12.996 0.996087 13.4271L2.41396 15.2163C2.75559 15.6474 3.48509 16 4.03521 16H14.1251C14.6751 16 15.1251 15.55 15.1251 15V10C15.1251 9.45 14.6751 9 14.1251 9Z" fill="#2B5AAF"/>
<path id="Vector_4" d="M6.6615 12.0891C6.6615 12.0006 6.6465 11.9156 6.617 11.8362C6.58824 11.758 6.54393 11.6865 6.48675 11.626C6.43108 11.5668 6.36397 11.5195 6.2895 11.4871C6.22418 11.457 6.15446 11.4375 6.083 11.4295C5.99323 11.4195 5.90295 11.4148 5.81262 11.4156H5.05438C4.94938 11.4156 4.87162 11.4408 4.823 11.491C4.77462 11.5412 4.75 11.6217 4.75 11.7303V13.5618C4.75 13.6625 4.77225 13.7405 4.81575 13.7936C4.86013 13.8476 4.923 13.875 5.00262 13.875C5.07675 13.875 5.13787 13.8488 5.18425 13.7975C5.23037 13.7463 5.25362 13.6671 5.25362 13.5618V12.8165H5.39813C5.47813 12.8165 5.54487 12.8275 5.59662 12.8491C5.64825 12.8706 5.70013 12.9116 5.75063 12.9707C5.80238 13.031 5.862 13.1207 5.92812 13.2372L6.11513 13.5587C6.16013 13.6362 6.19438 13.693 6.22013 13.7317C6.24675 13.7725 6.27925 13.8067 6.31675 13.8336C6.35538 13.8611 6.40325 13.875 6.45913 13.875C6.506 13.875 6.54788 13.8652 6.58388 13.8461C6.62013 13.8268 6.64912 13.8 6.67025 13.7663C6.6915 13.7326 6.70225 13.6976 6.70225 13.6625C6.70225 13.6292 6.68562 13.5722 6.65137 13.4886C6.61154 13.3941 6.56496 13.3026 6.512 13.2148C6.45241 13.1138 6.38424 13.0181 6.30825 12.9288C6.2445 12.8535 6.177 12.7927 6.1075 12.748C6.28425 12.7017 6.42 12.6277 6.51125 12.528C6.61088 12.4186 6.6615 12.271 6.6615 12.0891ZM6.09587 12.3062C6.05837 12.3512 6.0025 12.3835 5.93025 12.4025C5.856 12.4221 5.7625 12.432 5.6525 12.432H5.25375V11.8163H5.665C5.8215 11.8163 5.92737 11.8277 5.9795 11.8505C6.03325 11.8738 6.07587 11.9093 6.10612 11.9562C6.13637 12.0031 6.15163 12.0582 6.15163 12.12C6.15163 12.1992 6.13287 12.2618 6.09587 12.3062ZM8.79288 11.826C8.87163 11.826 8.93162 11.8071 8.971 11.7697C9.011 11.7322 9.03137 11.6817 9.03137 11.62C9.03137 11.5595 9.011 11.5095 8.97112 11.4717C8.93162 11.4345 8.87175 11.4155 8.79288 11.4155H7.56238C7.494 11.4155 7.43675 11.4262 7.39213 11.4473C7.34632 11.4687 7.30988 11.506 7.28963 11.5523C7.26863 11.5988 7.25787 11.6586 7.25787 11.7303V13.5196C7.25787 13.6283 7.28225 13.709 7.33012 13.759C7.37787 13.809 7.456 13.8343 7.56238 13.8343H8.829C8.9065 13.8343 8.9665 13.815 9.00725 13.7766C9.04812 13.7376 9.069 13.6867 9.069 13.6252C9.069 13.5615 9.04812 13.5093 9.00712 13.4705C8.96637 13.432 8.9065 13.4126 8.829 13.4126H7.7615V12.7742H8.70963C8.78625 12.7742 8.84462 12.7552 8.8825 12.7177C8.92087 12.6802 8.94013 12.6308 8.94013 12.5715C8.94013 12.512 8.9205 12.4632 8.88138 12.4265C8.84313 12.3902 8.78513 12.3718 8.70963 12.3718H7.76162V11.826H8.79288ZM10.0087 13.7988C10.0525 13.7488 10.0749 13.6751 10.0749 13.5797V12.25L10.9149 13.5825C10.94 13.6203 10.9652 13.6575 10.9904 13.694C11.0164 13.7315 11.0449 13.7645 11.0749 13.7921C11.1056 13.8205 11.1393 13.8418 11.175 13.8551C11.2106 13.8683 11.2508 13.8748 11.2944 13.8748C11.4735 13.8748 11.5644 13.763 11.5644 13.5423V11.6701C11.5644 11.5738 11.5431 11.4998 11.5016 11.4503C11.4594 11.4003 11.4012 11.3748 11.3289 11.3748C11.2586 11.3748 11.2017 11.4003 11.1601 11.4506C11.119 11.5 11.0983 11.5738 11.0983 11.6701V13.0216L10.2367 11.6728C10.2115 11.6316 10.1871 11.592 10.1636 11.5541C10.143 11.5199 10.119 11.4879 10.0921 11.4585C10.0681 11.4332 10.0396 11.4126 10.0081 11.3977C9.97185 11.3817 9.9325 11.3739 9.89287 11.3748C9.836 11.3748 9.7825 11.3915 9.73363 11.4242C9.68597 11.4552 9.6489 11.5001 9.62737 11.5527C9.60962 11.5996 9.60112 11.662 9.60112 11.7432V13.5795C9.60112 13.6738 9.62262 13.7472 9.66512 13.7976C9.70862 13.8488 9.76663 13.8748 9.83788 13.8748C9.907 13.8748 9.9645 13.8493 10.0087 13.7988ZM12.821 13.7957C12.8678 13.8483 12.9292 13.875 13.0035 13.875C13.0766 13.875 13.1372 13.8487 13.1835 13.7965C13.2295 13.745 13.2528 13.666 13.2528 13.5618V11.8518H13.7428C13.8265 11.8518 13.891 11.8321 13.934 11.7928C13.9777 11.7528 14 11.6996 14 11.6346C14 11.5696 13.978 11.5162 13.935 11.4758C13.8924 11.4358 13.8276 11.4156 13.7426 11.4156H12.261C12.1804 11.4156 12.1174 11.4351 12.0739 11.4737C12.0294 11.513 12.0069 11.5672 12.0069 11.6346C12.0069 11.6996 12.0285 11.7526 12.0711 11.7926C12.1131 11.8321 12.1771 11.852 12.261 11.852H12.7509V13.5618C12.7509 13.665 12.7746 13.7436 12.821 13.7957Z" fill="#2B5AAF"/>
</g>
</svg>
