<svg width="12" height="12" viewBox="0 0 12 12" fill="none" xmlns="http://www.w3.org/2000/svg">
<path d="M1.4025 9.281C0.8455 8.9725 0.5 8.3855 0.5 7.75V4H10V8.25C10 8.388 10.112 8.5 10.25 8.5C10.388 8.5 10.5 8.388 10.5 8.25V3.25C10.5 2.0095 9.4905 1 8.25 1H8V0.25C8 0.112 7.888 0 7.75 0C7.612 0 7.5 0.112 7.5 0.25V1H3V0.25C3 0.112 2.888 0 2.75 0C2.612 0 2.5 0.112 2.5 0.25V1H2.25C1.0095 1 0 2.0095 0 3.25V7.75C0 8.5675 0.4445 9.322 1.16 9.719C1.1985 9.74 1.24 9.75 1.281 9.75C1.369 9.75 1.454 9.7035 1.5 9.6215C1.567 9.5005 1.523 9.348 1.4025 9.281ZM2.25 1.5H8.25C9.215 1.5 10 2.285 10 3.25V3.5H0.5V3.25C0.5 2.285 1.285 1.5 2.25 1.5ZM12 11.75C12 11.888 11.888 12 11.75 12C11.612 12 11.5 11.888 11.5 11.75C11.5 10.9315 11.003 10.237 10.202 9.9365L7.662 8.984C7.5645 8.9475 7.5 8.854 7.5 8.75V6.3035C7.5 5.909 7.2325 5.568 6.878 5.5105C6.6525 5.4735 6.435 5.533 6.2645 5.6785C6.0965 5.8215 6 6.03 6 6.25V9.962C6 10.172 5.8825 10.3595 5.693 10.451C5.504 10.542 5.284 10.5175 5.1195 10.387C5.1195 10.387 4.262 9.703 4.26 9.701C3.957 9.42 3.4835 9.4365 3.2025 9.7375C2.92 10.0395 2.9355 10.516 3.2345 10.7965L4.051 11.572C4.2135 11.7265 4.1045 12 3.88 12C3.8165 12 3.7555 11.976 3.7095 11.9325L2.8895 11.1585C2.3895 10.69 2.3655 9.8995 2.8365 9.3965C3.3005 8.8995 4.077 8.8695 4.581 9.3215C4.5825 9.323 5.43 9.996 5.43 9.996L5.499 9.9625V6.2505C5.499 5.8835 5.6595 5.536 5.9395 5.298C6.2195 5.06 6.5925 4.959 6.957 5.017C7.551 5.114 7.999 5.667 7.999 6.3035V8.5765L10.377 9.468C11.3775 9.8435 11.999 10.718 11.999 11.7495L12 11.75Z" fill="black"/>
</svg>
