<svg width="16" height="16" viewBox="0 0 16 16" fill="none" xmlns="http://www.w3.org/2000/svg">
<g id="svgexport-15 (50)">
<g id="Group">
<path id="Vector" d="M7.46826 2.80371C7.46826 2.74155 7.44356 2.68194 7.39961 2.63798C7.35566 2.59403 7.29604 2.56934 7.23388 2.56934H6.19238C6.13022 2.56934 6.07061 2.59403 6.02665 2.63798C5.9827 2.68194 5.95801 2.74155 5.95801 2.80371V4.67859C5.95801 4.74075 5.9827 4.80036 6.02665 4.84431C6.07061 4.88827 6.13022 4.91296 6.19238 4.91296H7.23388C7.29604 4.91296 7.35566 4.88827 7.39961 4.84431C7.44356 4.80036 7.46826 4.74075 7.46826 4.67859V2.80371ZM6.99951 4.44421H6.42676V3.03809H6.99951V4.44421ZM7.46826 7.10899C7.46826 7.04683 7.44356 6.98722 7.39961 6.94326C7.35566 6.89931 7.29604 6.87462 7.23388 6.87462H6.19238C6.13022 6.87462 6.07061 6.89931 6.02665 6.94326C5.9827 6.98722 5.95801 7.04683 5.95801 7.10899V8.98387C5.95801 9.04603 5.9827 9.10564 6.02665 9.1496C6.07061 9.19355 6.13022 9.21824 6.19238 9.21824H7.23388C7.29604 9.21824 7.35566 9.19355 7.39961 9.1496C7.44356 9.10564 7.46826 9.04603 7.46826 8.98387V7.10899ZM6.99951 8.74949H6.42676V7.34337H6.99951V8.74949ZM7.23388 11.1798H6.19238C6.13022 11.1798 6.07061 11.2045 6.02665 11.2485C5.9827 11.2924 5.95801 11.352 5.95801 11.4142V13.2891C5.95801 13.4186 6.06288 13.5234 6.19238 13.5234H7.23388C7.36341 13.5234 7.46826 13.4186 7.46826 13.2891V11.4142C7.46826 11.352 7.44356 11.2924 7.39961 11.2485C7.35566 11.2045 7.29604 11.1798 7.23388 11.1798ZM6.99951 13.0547H6.42676V11.6486H6.99951V13.0547Z" fill="#423E3E"/>
<path id="Vector_2" d="M13.0979 6.08509C13.2788 6.08509 13.426 5.93788 13.426 5.75697V4.92384C13.426 4.74291 13.2788 4.59572 13.0979 4.59572H12.838V2.03625C12.838 1.80359 12.6488 1.61437 12.4161 1.61437H9.213C9.08362 1.61437 8.97863 1.71938 8.97863 1.84875C8.97863 1.97812 9.08362 2.08313 9.213 2.08313H12.3693V4.59572H11.9678V3.63122C11.9678 3.43309 11.8066 3.27184 11.6084 3.27184H10.1145C9.91641 3.27184 9.75516 3.43309 9.75516 3.63122V4.59572H9.44791C9.26688 4.59572 9.11978 4.74291 9.11978 4.92384V5.75697C9.11978 5.93788 9.26688 6.08509 9.44791 6.08509H12.3693V8.6985H11.9678V7.734C11.9678 7.53578 11.8066 7.37463 11.6084 7.37463H10.1145C9.91641 7.37463 9.75516 7.53578 9.75516 7.734V8.6985H9.44791C9.26688 8.6985 9.11978 8.84559 9.11978 9.02662V9.85962C9.11978 10.0407 9.26688 10.1877 9.44791 10.1877H12.3693V12.8012H11.9678V11.8367C11.9678 11.6385 11.8066 11.4773 11.6084 11.4773H10.1145C9.91641 11.4773 9.75516 11.6385 9.75516 11.8367V12.8012H9.44791C9.26688 12.8012 9.11978 12.9483 9.11978 13.1293V13.9624C9.11978 14.1433 9.26688 14.2905 9.44791 14.2905H12.3693V15.5312H8.45766V13.2891C8.45766 13.1595 8.35278 13.0547 8.22328 13.0547C8.16112 13.0547 8.10151 13.0794 8.05755 13.1233C8.0136 13.1673 7.98891 13.2269 7.98891 13.2891V15.5312H5.43703V3.73841C5.43703 3.67625 5.41234 3.61663 5.36838 3.57268C5.32443 3.52872 5.26482 3.50403 5.20266 3.50403C5.1405 3.50403 5.08088 3.52872 5.03693 3.57268C4.99297 3.61663 4.96828 3.67625 4.96828 3.73841V15.5312H1.05672V14.2905H3.97813C4.15916 14.2905 4.30625 14.1433 4.30625 13.9624V13.1293C4.30625 12.9483 4.15916 12.8012 3.97813 12.8012H3.67088V11.8367C3.67088 11.6385 3.50962 11.4773 3.3115 11.4773H1.81763C1.61937 11.4773 1.45825 11.6385 1.45825 11.8367V12.8012H1.05675V10.1879H3.97816C4.15919 10.1879 4.30628 10.0407 4.30628 9.85975V9.02662C4.30628 8.84559 4.15919 8.6985 3.97816 8.6985H3.67091V7.734C3.67091 7.53578 3.50966 7.37463 3.31153 7.37463H1.81763C1.61937 7.37463 1.45825 7.53578 1.45825 7.734V8.6985H1.05675V6.08506H3.97816C4.15919 6.08506 4.30628 5.93787 4.30628 5.75694V4.92381C4.30628 4.74291 4.15919 4.59569 3.97816 4.59569H3.67091V3.63125C3.67091 3.43313 3.50966 3.27187 3.31153 3.27187H1.81763C1.61937 3.27187 1.45825 3.43313 1.45825 3.63125V4.59572H1.05675V2.08313H4.96825V2.80094C4.96825 2.8631 4.99294 2.92271 5.0369 2.96667C5.08085 3.01062 5.14046 3.03531 5.20262 3.03531C5.33216 3.03531 5.437 2.93044 5.437 2.80094V0.46875H7.98887V12.3516C7.98887 12.4809 8.09387 12.5859 8.22325 12.5859C8.35263 12.5859 8.45763 12.4809 8.45763 12.3516V0.359375C8.45763 0.16125 8.29638 0 8.09825 0H5.32762C5.1295 0 4.96825 0.16125 4.96825 0.359375V1.61437H1.00988C0.777219 1.61437 0.588 1.80359 0.588 2.03625V4.59569H0.328125C0.147188 4.59569 0 4.74291 0 4.92381V5.75694C0 5.93787 0.147188 6.08506 0.328125 6.08506H0.588V8.6985H0.328125C0.147188 8.6985 0 8.84559 0 9.02662V9.85962C0 10.0407 0.147188 10.1877 0.328125 10.1877H0.588V12.8012H0.328125C0.147188 12.8012 0 12.9483 0 13.1293V13.9624C0 14.1433 0.147188 14.2905 0.328125 14.2905H0.588V15.5781C0.588 15.8108 0.777219 16 1.00988 16H12.4161C12.6488 16 12.838 15.8108 12.838 15.5781V14.2905H13.0979C13.2788 14.2905 13.426 14.1433 13.426 13.9624V13.1293C13.426 12.9483 13.2788 12.8012 13.0979 12.8012H12.838V10.1879H13.0979C13.2788 10.1879 13.426 10.0407 13.426 9.85975V9.02662C13.426 8.84559 13.2788 8.6985 13.0979 8.6985H12.838V6.08506L13.0979 6.08509ZM1.927 3.74059H3.20216V4.59572H1.927V3.74059ZM0.46875 5.06447H3.8375V5.61634H0.46875V5.06447ZM1.927 7.84338H3.20216V8.6985H1.927V7.84338ZM0.46875 9.16725H3.8375V9.719H0.46875V9.16725ZM1.927 11.946H3.20216V12.8012H1.927V11.946ZM0.46875 13.2699H3.8375V13.8218H0.46875V13.2699ZM10.2239 11.946H11.499V12.8012H10.2239V11.946ZM12.9573 13.8218H9.58838V13.2699H12.9573V13.8218ZM10.2239 7.84338H11.499V8.6985H10.2239V7.84338ZM12.9573 9.719H9.58838V9.16725H12.9573V9.719ZM10.2239 3.74059H11.499V4.59569H10.2239V3.74059ZM9.58838 5.06444H12.9573V5.61631H9.58838V5.06444Z" fill="#423E3E"/>
</g>
</g>
</svg>
