<svg width="16" height="16" viewBox="0 0 16 16" fill="none" xmlns="http://www.w3.org/2000/svg">
<g clip-path="url(#clip0_1826_6688)">
<path d="M11.667 1.27783C10.9163 1.28951 10.1819 1.49907 9.53814 1.88535C8.89434 2.27162 8.36387 2.82094 8.0003 3.47783C7.63672 2.82094 7.10625 2.27162 6.46246 1.88535C5.81866 1.49907 5.08433 1.28951 4.33363 1.27783C3.13692 1.32983 2.00944 1.85333 1.19749 2.73399C0.385537 3.61464 -0.0448693 4.78085 0.000297715 5.97783C0.000297715 9.00917 3.19096 12.3198 5.86696 14.5645C6.46444 15.0666 7.21987 15.3418 8.0003 15.3418C8.78073 15.3418 9.53615 15.0666 10.1336 14.5645C12.8096 12.3198 16.0003 9.00917 16.0003 5.97783C16.0455 4.78085 15.6151 3.61464 14.8031 2.73399C13.9912 1.85333 12.8637 1.32983 11.667 1.27783Z" fill="#DF0101"/>
</g>
<defs>
<clipPath id="clip0_1826_6688">
<rect width="16" height="16" fill="white"/>
</clipPath>
</defs>
</svg>
