<svg width="22" height="22" viewBox="0 0 22 22" fill="none" xmlns="http://www.w3.org/2000/svg">
<g id="Group">
<path id="Vector" d="M0.889601 13.558C0.9816 13.4662 1.09772 13.4024 1.22451 13.3739C1.35131 13.3454 1.48357 13.3535 1.60598 13.3971C3.25093 13.9836 5.02853 14.0913 6.73225 13.7077C8.43597 13.324 9.99586 12.4649 11.2307 11.23C12.4655 9.99504 13.3246 8.4351 13.7081 6.73135C14.0917 5.02761 13.9839 3.25002 13.3973 1.6051C13.3537 1.48267 13.3457 1.3504 13.3742 1.22361C13.4028 1.09683 13.4666 0.980721 13.5584 0.888757C13.6503 0.796793 13.7663 0.732736 13.893 0.704014C14.0198 0.675292 14.152 0.683079 14.2745 0.726474C15.7575 1.25017 17.1034 2.10156 18.2119 3.21729C20.199 5.20592 21.315 7.90235 21.3145 10.7136C21.3139 13.5249 20.1969 16.2209 18.209 18.2088C16.2211 20.1967 13.5251 21.3137 10.7138 21.3143C7.90254 21.3148 5.20611 20.1988 3.21748 18.2117C2.10164 17.103 1.25024 15.7569 0.726662 14.2737C0.683432 14.1512 0.675793 14.0189 0.70463 13.8923C0.733467 13.7656 0.7976 13.6497 0.889601 13.558ZM4.1896 17.2395C5.12705 18.1744 6.25468 18.8965 7.49592 19.357C8.73716 19.8174 10.0629 20.0054 11.3833 19.9081C12.7036 19.8109 13.9875 19.4306 15.1479 18.7933C16.3082 18.1559 17.3179 17.2763 18.1082 16.2142C18.8986 15.1521 19.4511 13.9324 19.7283 12.6378C20.0056 11.3433 20.001 10.0042 19.715 8.71162C19.4289 7.419 18.8681 6.20307 18.0705 5.14638C17.2729 4.08969 16.2573 3.21699 15.0927 2.58754C15.4375 4.30404 15.3544 6.07903 14.8508 7.75584C14.3472 9.43264 13.4386 10.9597 12.2052 12.2022C10.9628 13.4359 9.43573 14.3446 7.75888 14.8482C6.08203 15.3518 4.30698 15.4348 2.59048 15.0897C3.01554 15.8807 3.55432 16.605 4.1896 17.2395Z" fill="#707070"/>
</g>
</svg>
