<svg width="18" height="19" viewBox="0 0 18 19" fill="none" xmlns="http://www.w3.org/2000/svg">
<g id="Group">
<g id="Group_2">
<path id="Vector" fill-rule="evenodd" clip-rule="evenodd" d="M6.64 8.39942C6.82135 8.38125 7.0025 8.43583 7.14362 8.55117C7.28474 8.66651 7.37429 8.83317 7.39258 9.01451L7.85091 13.5978C7.86239 13.6889 7.85554 13.7813 7.83075 13.8696C7.80597 13.9579 7.76375 14.0404 7.7066 14.1122C7.64944 14.1839 7.5785 14.2435 7.49795 14.2875C7.4174 14.3314 7.32887 14.3587 7.23759 14.3679C7.1463 14.3771 7.05411 14.3679 6.96643 14.3409C6.87875 14.3139 6.79736 14.2696 6.72706 14.2107C6.65676 14.1517 6.59897 14.0793 6.5571 13.9976C6.51523 13.916 6.49011 13.8268 6.48325 13.7353L6.02491 9.15201C6.00674 8.97066 6.06132 8.78951 6.17666 8.64839C6.292 8.50726 6.45866 8.41771 6.64 8.39942ZM11.3608 8.39942C11.542 8.41772 11.7085 8.50714 11.8238 8.64806C11.9391 8.78898 11.9938 8.96989 11.9759 9.15109L11.5176 13.7344C11.511 13.8261 11.4861 13.9155 11.4444 13.9974C11.4026 14.0792 11.3449 14.1519 11.2746 14.2111C11.2043 14.2703 11.1229 14.3147 11.0351 14.3419C10.9473 14.3691 10.855 14.3784 10.7635 14.3692C10.6721 14.3601 10.5834 14.3327 10.5027 14.2887C10.4221 14.2447 10.351 14.185 10.2938 14.1131C10.2366 14.0412 10.1944 13.9586 10.1697 13.8701C10.145 13.7815 10.1382 13.689 10.1499 13.5978L10.6082 9.01451C10.6265 8.83334 10.716 8.66684 10.8569 8.55152C10.9978 8.43621 11.1796 8.38151 11.3608 8.39942Z" fill="#C64040"/>
<g id="Group_3">
<path id="Vector_2" fill-rule="evenodd" clip-rule="evenodd" d="M7.28059 0.145996H10.3798C10.5788 0.145996 10.7511 0.145996 10.9143 0.171663C11.2322 0.222443 11.5339 0.346974 11.7951 0.535282C12.0563 0.72359 12.2698 0.970445 12.4185 1.25608C12.4946 1.40275 12.5496 1.56683 12.6119 1.75475L12.7146 2.06183L12.7412 2.13975C12.8241 2.36997 12.9786 2.56759 13.182 2.70368C13.3854 2.83976 13.627 2.90715 13.8714 2.896H16.6214C16.8038 2.896 16.9786 2.96843 17.1076 3.09736C17.2365 3.22629 17.3089 3.40116 17.3089 3.5835C17.3089 3.76583 17.2365 3.9407 17.1076 4.06963C16.9786 4.19856 16.8038 4.271 16.6214 4.271H1.03809C0.85575 4.271 0.680881 4.19856 0.55195 4.06963C0.423019 3.9407 0.350586 3.76583 0.350586 3.5835C0.350586 3.40116 0.423019 3.22629 0.55195 3.09736C0.680881 2.96843 0.85575 2.896 1.03809 2.896H3.87059C4.11543 2.89012 4.35195 2.80595 4.54546 2.65583C4.73897 2.50571 4.87929 2.29753 4.94584 2.06183L5.0485 1.75475C5.11084 1.56683 5.16584 1.40275 5.24192 1.25608C5.39051 0.970556 5.60385 0.723772 5.8649 0.535471C6.12594 0.347169 6.42743 0.222577 6.74525 0.171663C6.90934 0.145996 7.08167 0.145996 7.28059 0.145996ZM6.088 2.896C6.15237 2.76994 6.20603 2.6387 6.24842 2.50366L6.34009 2.22866C6.42259 1.97841 6.44275 1.928 6.46109 1.89133C6.51057 1.796 6.5817 1.7136 6.66878 1.65072C6.75585 1.58784 6.85645 1.54624 6.9625 1.52925C7.00375 1.52283 7.05784 1.521 7.32275 1.521H10.3386C10.6026 1.521 10.6567 1.52283 10.6979 1.53016C10.8039 1.54706 10.9044 1.58852 10.9915 1.65124C11.0786 1.71395 11.1497 1.79618 11.1993 1.89133C11.2177 1.928 11.2369 1.97841 11.3213 2.22958L11.4129 2.50458L11.4478 2.60816C11.4844 2.70716 11.5257 2.80341 11.5733 2.896H6.088ZM2.69084 6.10616C2.87267 6.09409 3.05185 6.1547 3.18902 6.27468C3.32618 6.39465 3.4101 6.56418 3.42234 6.746L3.844 13.071C3.9265 14.3057 3.98517 15.1656 4.1135 15.8118C4.23909 16.4397 4.41325 16.7716 4.6635 17.0062C4.91467 17.2409 5.2575 17.3931 5.89184 17.4756C6.54542 17.5608 7.408 17.5627 8.6455 17.5627H9.355C10.5925 17.5627 11.4542 17.5608 12.1087 17.4756C12.743 17.3931 13.0858 17.2409 13.337 17.0062C13.5873 16.7716 13.7614 16.4397 13.887 15.8118C14.0153 15.1656 14.074 14.3057 14.1565 13.071L14.5782 6.746C14.5842 6.65589 14.6079 6.56786 14.6479 6.48692C14.688 6.40598 14.7436 6.33371 14.8115 6.27426C14.8795 6.2148 14.9585 6.16931 15.0441 6.14039C15.1296 6.11147 15.22 6.09969 15.3101 6.10571C15.4002 6.11172 15.4883 6.13543 15.5692 6.17547C15.6501 6.21551 15.7224 6.27111 15.7819 6.33908C15.8413 6.40704 15.8868 6.48606 15.9157 6.57161C15.9447 6.65715 15.9564 6.74756 15.9504 6.83766L15.5251 13.2103C15.4472 14.3855 15.3839 15.3352 15.2354 16.0813C15.0805 16.8559 14.8183 17.5031 14.2757 18.01C13.7339 18.5178 13.0703 18.7369 12.2865 18.8387C11.533 18.9377 10.5815 18.9377 9.40267 18.9377H8.59784C7.419 18.9377 6.4675 18.9377 5.714 18.8396C4.93025 18.7369 4.26659 18.5178 3.72484 18.01C3.18217 17.5031 2.92 16.855 2.76509 16.0813C2.61659 15.3352 2.55425 14.3855 2.47542 13.2103L2.05009 6.83766C2.04411 6.74756 2.05595 6.65716 2.08492 6.57162C2.11389 6.48609 2.15942 6.4071 2.21892 6.33918C2.27843 6.27125 2.35073 6.2157 2.4317 6.17572C2.51267 6.13574 2.60073 6.11211 2.69084 6.10616Z" fill="#C64040"/>
</g>
</g>
</g>
</svg>
