<svg width="26" height="24" viewBox="0 0 26 24" fill="none" xmlns="http://www.w3.org/2000/svg">
<g id="Group">
<g id="Group_2">
<path id="Vector" d="M4.08778 5.65527C3.96463 5.65558 3.84274 5.68015 3.72908 5.72756C3.61542 5.77498 3.51221 5.84431 3.42535 5.93162C3.33849 6.01892 3.26967 6.12247 3.22283 6.23637C3.17599 6.35027 3.15204 6.47228 3.15235 6.59543C3.15297 6.84333 3.25173 7.0809 3.42702 7.25619C3.60231 7.43149 3.83988 7.53024 4.08778 7.53086H20.3634C21.3791 7.53086 22.076 8.2159 22.076 8.98126V10.6183C22.0753 10.7422 22.0993 10.8651 22.1464 10.9797C22.1936 11.0943 22.263 11.1985 22.3506 11.2861C22.4383 11.3738 22.5424 11.4432 22.6571 11.4903C22.7717 11.5375 22.8945 11.5614 23.0185 11.5608C23.1418 11.5605 23.2639 11.5358 23.3777 11.4883C23.4916 11.4407 23.5949 11.3712 23.6818 11.2836C23.7687 11.1961 23.8374 11.0922 23.8841 10.9781C23.9308 10.8639 23.9545 10.7416 23.9539 10.6183V8.98126C23.9539 7.09858 22.2862 5.65527 20.3634 5.65527H4.08778Z" fill="#17305D"/>
<path id="Vector_2" d="M20.3867 9.68286C19.0166 9.68286 17.8875 10.8167 17.8875 12.1868V14.0648C17.8875 15.4348 19.0166 16.5687 20.3867 16.5687H22.9946C24.3646 16.5687 25.4985 15.4348 25.4985 14.0648V12.1892C25.4985 10.8191 24.3646 9.68522 22.9946 9.68522L20.3867 9.68286ZM20.3867 11.5608H22.9946C23.0774 11.5589 23.1598 11.5737 23.2367 11.6045C23.3137 11.6352 23.3836 11.6812 23.4423 11.7397C23.501 11.7982 23.5473 11.868 23.5783 11.9448C23.6094 12.0216 23.6245 12.1039 23.6229 12.1868V14.0648C23.6249 14.1478 23.6099 14.2304 23.579 14.3075C23.5481 14.3846 23.5019 14.4546 23.4432 14.5134C23.3845 14.5721 23.3144 14.6183 23.2373 14.6492C23.1602 14.6801 23.0776 14.695 22.9946 14.6931H20.3867C20.3038 14.6947 20.2215 14.6795 20.1447 14.6485C20.0679 14.6175 19.9981 14.5712 19.9396 14.5125C19.8811 14.4538 19.8351 14.3839 19.8044 14.3069C19.7736 14.23 19.7588 14.1476 19.7607 14.0648V12.1892C19.7591 12.1065 19.7742 12.0244 19.8051 11.9477C19.836 11.871 19.882 11.8014 19.9405 11.7429C19.9989 11.6845 20.0686 11.6384 20.1453 11.6076C20.2219 11.5767 20.304 11.5592 20.3867 11.5608ZM12.3505 16.3254C12.1022 16.326 11.8642 16.4251 11.6889 16.6009C11.5135 16.7767 11.415 17.0149 11.415 17.2632V22.1813C11.4157 22.4292 11.5144 22.6668 11.6897 22.8421C11.865 23.0173 12.1026 23.1161 12.3505 23.1167C12.5988 23.1167 12.837 23.0182 13.0128 22.8429C13.1886 22.6675 13.2876 22.4296 13.2883 22.1813V17.2632C13.2883 17.14 13.264 17.0181 13.2169 16.9043C13.1698 16.7905 13.1007 16.6871 13.0136 16.6001C12.9265 16.513 12.8231 16.4439 12.7094 16.3968C12.5956 16.3496 12.4736 16.3254 12.3505 16.3254Z" fill="#17305D"/>
<path id="Vector_3" d="M12.3504 16.3252C12.227 16.3253 12.1049 16.3498 11.991 16.3972C11.8771 16.4447 11.7737 16.5141 11.6866 16.6016L9.2134 19.089C9.03857 19.2647 8.94043 19.5025 8.94043 19.7504C8.94043 19.9983 9.03857 20.2361 9.2134 20.4118C9.30051 20.4991 9.40397 20.5683 9.51787 20.6156C9.63177 20.6628 9.75387 20.6871 9.87718 20.6871C10.0005 20.6871 10.1226 20.6628 10.2365 20.6156C10.3504 20.5683 10.4539 20.4991 10.541 20.4118L13.0142 17.9291C13.1015 17.8417 13.1707 17.7378 13.2177 17.6235C13.2648 17.5092 13.2888 17.3868 13.2883 17.2632C13.2879 17.1396 13.263 17.0173 13.2152 16.9034C13.1673 16.7894 13.0974 16.686 13.0095 16.5992C12.8341 16.4254 12.5973 16.3278 12.3504 16.3276V16.3252Z" fill="#17305D"/>
<path id="Vector_4" d="M12.3553 16.3252C12.1068 16.3242 11.8681 16.4219 11.6916 16.5968C11.6036 16.6837 11.5337 16.7871 11.4858 16.901C11.438 17.0149 11.4131 17.1372 11.4127 17.2608C11.4122 17.3844 11.4362 17.5069 11.4833 17.6212C11.5303 17.7354 11.5995 17.8393 11.6868 17.9268L14.1577 20.4142C14.2448 20.5014 14.3483 20.5707 14.4622 20.6179C14.5761 20.6652 14.6982 20.6895 14.8215 20.6895C14.9448 20.6895 15.0669 20.6652 15.1808 20.6179C15.2947 20.5707 15.3982 20.5014 15.4853 20.4142C15.6614 20.239 15.7609 20.001 15.7618 19.7526C15.7627 19.5041 15.6649 19.2654 15.49 19.089L13.0144 16.6016C12.8398 16.4261 12.6029 16.3267 12.3553 16.3252ZM1.43487 3.26929C1.18656 3.26929 0.948381 3.36777 0.772578 3.54313C0.596775 3.71849 0.497696 3.95641 0.49707 4.20472V17.3386C0.49707 19.2189 2.16479 20.6598 4.08762 20.6598H6.74983C6.99773 20.6592 7.23529 20.5605 7.41059 20.3852C7.58588 20.2099 7.68463 19.9723 7.68526 19.7244C7.68526 19.4761 7.58678 19.2379 7.41142 19.0621C7.23606 18.8863 6.99813 18.7872 6.74983 18.7866H4.08762C3.07187 18.7866 2.37502 18.1016 2.37502 17.3386V4.20472C2.37471 4.08157 2.35015 3.95968 2.30273 3.84602C2.25532 3.73236 2.18598 3.62916 2.09868 3.54229C2.01138 3.45543 1.90782 3.38661 1.79392 3.33977C1.68003 3.29293 1.55802 3.26898 1.43487 3.26929ZM23.0183 14.6929C22.8946 14.6923 22.7719 14.7162 22.6575 14.7632C22.543 14.8102 22.4389 14.8793 22.3513 14.9667C22.2637 15.0541 22.1942 15.158 22.147 15.2724C22.0997 15.3867 22.0755 15.5093 22.0758 15.6331V17.3339C22.0758 18.0992 21.3813 18.7842 20.3656 18.7842H17.9986C17.7499 18.7842 17.5114 18.8831 17.3355 19.0589C17.1597 19.2348 17.0608 19.4733 17.0608 19.722C17.0615 19.9704 17.1606 20.2083 17.3364 20.3836C17.5122 20.559 17.7503 20.6575 17.9986 20.6575H20.3656C22.286 20.6575 23.9561 19.2165 23.9561 17.3362V15.6354C23.9571 15.5117 23.9335 15.389 23.8868 15.2744C23.8401 15.1598 23.7711 15.0556 23.684 14.9677C23.5968 14.8799 23.4931 14.8102 23.3789 14.7626C23.2646 14.715 23.1421 14.6929 23.0183 14.6929Z" fill="#17305D"/>
<path id="Vector_5" d="M4.08762 0.883545C2.16715 0.883545 0.49707 2.32449 0.49707 4.2048C0.49707 6.08512 2.16715 7.53079 4.08762 7.53079C4.33593 7.53079 4.57411 7.43231 4.74991 7.25695C4.92571 7.08159 5.02479 6.84366 5.02542 6.59536C5.02573 6.472 5.0017 6.3498 4.95471 6.23575C4.90772 6.1217 4.83869 6.01804 4.75158 5.93071C4.66447 5.84337 4.56098 5.77409 4.44705 5.72681C4.33311 5.67953 4.21097 5.6552 4.08762 5.6552C3.07896 5.6552 2.37502 4.96071 2.37502 4.2048C2.37502 3.4489 3.07896 2.75677 4.08762 2.75677H18.2656C18.9175 2.75677 19.4278 3.26701 19.4278 3.91898V6.59536C19.4284 6.84366 19.5275 7.08159 19.7033 7.25695C19.8791 7.43231 20.1173 7.53079 20.3656 7.53079C20.4887 7.5311 20.6107 7.50715 20.7246 7.46031C20.8385 7.41347 20.9421 7.34465 21.0294 7.25779C21.1167 7.17092 21.186 7.06772 21.2334 6.95406C21.2809 6.8404 21.3054 6.71851 21.3057 6.59536V3.91898C21.3057 2.25362 19.9309 0.883545 18.2656 0.883545H4.08762Z" fill="#17305D"/>
</g>
</g>
</svg>
